<?xml version="1.0" encoding="UTF-8" standalone="no"?>
<!DOCTYPE svg PUBLIC "-//W3C//DTD SVG 1.1//EN" "http://www.w3.org/Graphics/SVG/1.1/DTD/svg11.dtd">
<svg width="100%" height="100%" viewBox="0 0 195 380" version="1.1" xmlns="http://www.w3.org/2000/svg" xmlns:xlink="http://www.w3.org/1999/xlink" xml:space="preserve" xmlns:serif="http://www.serif.com/" style="fill-rule:evenodd;clip-rule:evenodd;stroke-linecap:square;">
    <g id="Layer-1" serif:id="Layer 1" transform="matrix(1,0,0,1,0,-742.52)">
        <g id="rect817" transform="matrix(1,0,0,1.00454,8.88178e-16,-5.09785)">
            <rect x="-0.191" y="743.227" width="195.071" height="380" style="fill:rgb(63,113,140);"/>
        </g>
        <g id="g1254">
        </g>
        <g id="g2333">
        </g>
        <g id="text6026" transform="matrix(1.01556,0,0,0.984678,0,0)">
            <path id="path6094" d="M65.858,955.701C65.858,954.921 65.777,954.363 65.616,954.029C65.457,953.695 65.195,953.528 64.83,953.528C64.467,953.528 64.205,953.695 64.044,954.029C63.885,954.363 63.805,954.921 63.805,955.701C63.805,956.479 63.885,957.035 64.044,957.369C64.205,957.704 64.467,957.871 64.83,957.871C65.195,957.871 65.457,957.705 65.616,957.373C65.777,957.038 65.858,956.481 65.858,955.701ZM66.608,955.701C66.608,956.626 66.461,957.316 66.167,957.771C65.876,958.227 65.43,958.454 64.83,958.454C64.23,958.454 63.784,958.228 63.492,957.775C63.201,957.322 63.055,956.631 63.055,955.701C63.055,954.774 63.201,954.082 63.492,953.627C63.786,953.172 64.232,952.944 64.83,952.944C65.43,952.944 65.876,953.172 66.167,953.627C66.461,954.082 66.608,954.774 66.608,955.701Z" style="fill:rgb(212,215,215);fill-rule:nonzero;"/>
            <path id="path6096" d="M68.572,957.761C69.177,957.761 69.599,957.612 69.838,957.316C70.078,957.017 70.197,956.479 70.197,955.701C70.197,954.916 70.078,954.375 69.838,954.079C69.601,953.78 69.179,953.631 68.572,953.631L68.23,953.631L68.23,957.761L68.572,957.761ZM68.586,953.04C69.397,953.04 69.995,953.256 70.379,953.688C70.763,954.119 70.955,954.79 70.955,955.701C70.955,956.607 70.763,957.276 70.379,957.707C69.995,958.136 69.397,958.351 68.586,958.351L67.508,958.351L67.508,953.04L68.586,953.04Z" style="fill:rgb(212,215,215);fill-rule:nonzero;"/>
            <path id="path6098" d="M72.954,957.761C73.559,957.761 73.981,957.612 74.221,957.316C74.46,957.017 74.58,956.479 74.58,955.701C74.58,954.916 74.46,954.375 74.221,954.079C73.983,953.78 73.561,953.631 72.954,953.631L72.613,953.631L72.613,957.761L72.954,957.761ZM72.969,953.04C73.78,953.04 74.377,953.256 74.761,953.688C75.146,954.119 75.338,954.79 75.338,955.701C75.338,956.607 75.146,957.276 74.761,957.707C74.377,958.136 73.78,958.351 72.969,958.351L71.891,958.351L71.891,953.04L72.969,953.04Z" style="fill:rgb(212,215,215);fill-rule:nonzero;"/>
            <path id="path6100" d="M80.655,953.04L81.377,953.04L81.377,955.217L83.345,955.217L83.345,953.04L84.067,953.04L84.067,958.351L83.345,958.351L83.345,955.822L81.377,955.822L81.377,958.351L80.655,958.351L80.655,953.04Z" style="fill:rgb(212,215,215);fill-rule:nonzero;"/>
        </g>
        <g id="text6026-9" transform="matrix(1.01556,0,0,0.984678,0,0)">
            <path id="path6085" d="M112.402,955.701C112.402,954.921 112.321,954.363 112.16,954.029C112.001,953.695 111.739,953.528 111.374,953.528C111.011,953.528 110.749,953.695 110.587,954.029C110.429,954.363 110.349,954.921 110.349,955.701C110.349,956.479 110.429,957.035 110.587,957.369C110.749,957.704 111.011,957.871 111.374,957.871C111.739,957.871 112.001,957.705 112.16,957.373C112.321,957.038 112.402,956.481 112.402,955.701ZM113.152,955.701C113.152,956.626 113.005,957.316 112.711,957.771C112.419,958.227 111.973,958.454 111.374,958.454C110.774,958.454 110.328,958.228 110.036,957.775C109.744,957.322 109.599,956.631 109.599,955.701C109.599,954.774 109.744,954.082 110.036,953.627C110.33,953.172 110.776,952.944 111.374,952.944C111.973,952.944 112.419,953.172 112.711,953.627C113.005,954.082 113.152,954.774 113.152,955.701Z" style="fill:rgb(212,215,215);fill-rule:nonzero;"/>
            <path id="path6087" d="M115.116,957.761C115.72,957.761 116.142,957.612 116.382,957.316C116.621,957.017 116.741,956.479 116.741,955.701C116.741,954.916 116.621,954.375 116.382,954.079C116.145,953.78 115.723,953.631 115.116,953.631L114.774,953.631L114.774,957.761L115.116,957.761ZM115.13,953.04C115.941,953.04 116.539,953.256 116.923,953.688C117.307,954.119 117.499,954.79 117.499,955.701C117.499,956.607 117.307,957.276 116.923,957.707C116.539,958.136 115.941,958.351 115.13,958.351L114.052,958.351L114.052,953.04L115.13,953.04Z" style="fill:rgb(212,215,215);fill-rule:nonzero;"/>
            <path id="path6089" d="M119.498,957.761C120.103,957.761 120.525,957.612 120.764,957.316C121.004,957.017 121.124,956.479 121.124,955.701C121.124,954.916 121.004,954.375 120.764,954.079C120.527,953.78 120.105,953.631 119.498,953.631L119.157,953.631L119.157,957.761L119.498,957.761ZM119.512,953.04C120.323,953.04 120.921,953.256 121.305,953.688C121.689,954.119 121.881,954.79 121.881,955.701C121.881,956.607 121.689,957.276 121.305,957.707C120.921,958.136 120.323,958.351 119.512,958.351L118.435,958.351L118.435,953.04L119.512,953.04Z" style="fill:rgb(212,215,215);fill-rule:nonzero;"/>
            <path id="path6091" d="M127.199,953.04L127.921,953.04L127.921,955.217L129.888,955.217L129.888,953.04L130.611,953.04L130.611,958.351L129.888,958.351L129.888,955.822L127.921,955.822L127.921,958.351L127.199,958.351L127.199,953.04Z" style="fill:rgb(212,215,215);fill-rule:nonzero;"/>
        </g>
        <g id="text6026-0-1" transform="matrix(0.923377,0,0,1.08298,0,0)">
            <path id="path6074" d="M166.096,885.408L166.096,887.285L166.879,887.285C167.192,887.285 167.435,887.203 167.609,887.038C167.785,886.873 167.873,886.642 167.873,886.345C167.873,886.048 167.786,885.819 167.612,885.656C167.438,885.491 167.194,885.408 166.879,885.408L166.096,885.408ZM165.42,884.852L166.879,884.852C167.437,884.852 167.86,884.98 168.147,885.234C168.435,885.486 168.579,885.856 168.579,886.345C168.579,886.838 168.435,887.211 168.147,887.463C167.862,887.715 167.439,887.841 166.879,887.841L166.096,887.841L166.096,889.849L165.42,889.849L165.42,884.852Z" style="fill:rgb(212,215,215);fill-rule:nonzero;"/>
            <path id="path6076" d="M170.945,885.448L170.232,888.005L171.658,888.005L170.945,885.448ZM170.537,884.852L171.357,884.852L172.886,889.849L172.187,889.849L171.818,888.547L170.068,888.547L169.707,889.849L169.008,889.849L170.537,884.852Z" style="fill:rgb(212,215,215);fill-rule:nonzero;"/>
            <path id="path6078" d="M173.679,884.852L176.453,884.852L176.453,885.421L175.406,885.421L175.406,889.28L176.453,889.28L176.453,889.849L173.679,889.849L173.679,889.28L174.726,889.28L174.726,885.421L173.679,885.421L173.679,884.852Z" style="fill:rgb(212,215,215);fill-rule:nonzero;"/>
            <path id="path6080" d="M179.672,887.489C179.846,887.534 179.995,887.619 180.117,887.744C180.24,887.866 180.393,888.113 180.576,888.483L181.255,889.849L180.529,889.849L179.933,888.587C179.762,888.228 179.607,887.997 179.468,887.894C179.332,887.79 179.154,887.737 178.933,887.737L178.287,887.737L178.287,889.849L177.608,889.849L177.608,884.853L179,884.853C179.549,884.853 179.969,884.976 180.261,885.224C180.554,885.472 180.7,885.83 180.7,886.298C180.7,886.628 180.609,886.898 180.429,887.108C180.25,887.315 179.998,887.443 179.672,887.49L179.672,887.489ZM178.287,885.408L178.287,887.182L179.027,887.182C179.35,887.182 179.591,887.109 179.749,886.964C179.908,886.819 179.987,886.597 179.987,886.298C179.987,886.01 179.902,885.79 179.733,885.639C179.565,885.485 179.321,885.408 179,885.408L178.287,885.408Z" style="fill:rgb(212,215,215);fill-rule:nonzero;"/>
            <path id="path6082" d="M185.833,884.852L186.512,884.852L186.512,886.9L188.363,886.9L188.363,884.852L189.042,884.852L189.042,889.849L188.363,889.849L188.363,887.469L186.512,887.469L186.512,889.849L185.833,889.849L185.833,884.852Z" style="fill:rgb(212,215,215);fill-rule:nonzero;"/>
        </g>
    </g>
    <g id="Layer-3" serif:id="Layer 3">
        <g id="rect6032" transform="matrix(1,0,0,0.984427,0,3.22199)">
            <path d="M65.08,206.889C58.608,206.889 59.558,210.864 59.558,211.163L59.558,229.919L1.104,229.919C0.419,229.919 -0.134,230.161 -0.134,230.46L-0.134,351.679C-0.134,351.978 0.419,354.547 1.104,354.547L194.086,354.547C194.771,354.547 195.324,351.978 195.324,351.679L195.324,230.46C195.324,230.161 194.771,229.919 194.086,229.919L137.738,229.919L137.738,211.163C137.738,210.864 137.74,206.889 134.013,206.889L65.08,206.889Z" style="fill:rgb(211,208,203);fill-rule:nonzero;"/>
        </g>
        <path id="path2323" d="M5.68,264.133C0.725,260.24 -1.24,253.6 0.8,247.637C2.84,241.675 8.461,237.63 14.763,237.589C21.064,237.548 26.737,241.52 28.854,247.455C30.972,253.39 29.094,260.056 24.189,264.012" style="fill:rgb(206,66,66);fill-rule:nonzero;"/>
        <path id="path2323-8" d="M170.752,264.133C165.796,260.24 163.832,253.6 165.872,247.637C167.912,241.675 173.533,237.63 179.834,237.589C186.135,237.548 191.808,241.52 193.926,247.455C196.043,253.39 194.165,260.056 189.261,264.012" style="fill:rgb(206,66,66);fill-rule:nonzero;"/>
        <path id="path2323-5" d="M35.669,264.133C30.713,260.24 28.749,253.6 30.789,247.637C32.829,241.675 38.45,237.63 44.751,237.589C51.052,237.548 56.725,241.52 58.843,247.455C60.96,253.39 59.082,260.056 54.178,264.012" style="fill:rgb(75,136,162);fill-rule:nonzero;"/>
        <path id="path2323-5-5" d="M140.79,264.673C135.835,260.781 133.87,254.14 135.91,248.178C137.95,242.215 143.571,238.17 149.873,238.129C156.174,238.088 161.847,242.06 163.964,247.995C166.082,253.93 164.204,260.596 159.299,264.553" style="fill:rgb(75,136,162);fill-rule:nonzero;"/>
        <g id="g4160" transform="matrix(-0.172741,-0,0,0.172741,348.492,55.5322)">
            <path id="path3009-5" d="M1516.75,1325.71L1580.23,1356.88L1580.23,1424.04L1515.89,1458.04L1454.69,1423.75L1454.69,1356.88L1516.75,1325.71Z" style="fill:rgb(56,53,59);fill-rule:nonzero;"/>
            <g id="path3005-0" transform="matrix(1,0,0,1,1381.49,1325.71)">
                <path d="M0,0L63.473,31.166L63.473,98.328L-0.858,132.333L-62.06,98.041L-62.06,31.166L0,0Z" style="fill:rgb(56,53,59);fill-rule:nonzero;"/>
            </g>
            <g id="path3013-8-0" transform="matrix(1,0,0,1,1447.23,1433.77)">
                <path d="M0,0L63.477,31.17L63.477,98.328L-0.858,132.336L-62.06,98.045L-62.06,31.17L0,0Z" style="fill:rgb(56,53,59);fill-rule:nonzero;"/>
            </g>
        </g>
    </g>
    <g id="Layer-5" serif:id="Layer 5">
        <g id="text1151" transform="matrix(1,0,0,1,-45.4835,-53.0599)">
            <path id="path1855" d="M160.377,123.474C160.194,123.571 160.006,123.643 159.814,123.691C159.622,123.741 159.418,123.766 159.202,123.766C158.521,123.766 157.992,123.525 157.615,123.043C157.24,122.561 157.052,121.884 157.052,121.011C157.052,120.142 157.241,119.466 157.618,118.982C157.998,118.496 158.526,118.252 159.202,118.252C159.418,118.252 159.622,118.277 159.814,118.327C160.006,118.375 160.194,118.447 160.377,118.544L160.377,119.281C160.201,119.136 160.012,119.026 159.811,118.95C159.609,118.874 159.406,118.836 159.202,118.836C158.735,118.836 158.385,119.016 158.152,119.377C157.92,119.738 157.803,120.282 157.803,121.011C157.803,121.737 157.92,122.28 158.152,122.641C158.385,123.002 158.735,123.182 159.202,123.182C159.411,123.182 159.615,123.144 159.814,123.068C160.016,122.992 160.203,122.882 160.377,122.737L160.377,123.474Z" style="fill:rgb(212,215,215);fill-rule:nonzero;"/>
            <path id="path1857" d="M164.164,121.011C164.164,120.23 164.083,119.672 163.922,119.338C163.763,119.003 163.5,118.836 163.135,118.836C162.772,118.836 162.51,119.003 162.348,119.338C162.189,119.672 162.11,120.23 162.11,121.011C162.11,121.789 162.189,122.345 162.348,122.68C162.51,123.015 162.772,123.182 163.135,123.182C163.5,123.182 163.763,123.016 163.922,122.684C164.083,122.349 164.164,121.791 164.164,121.011ZM164.915,121.011C164.915,121.936 164.767,122.627 164.473,123.082C164.181,123.538 163.735,123.766 163.135,123.766C162.535,123.766 162.089,123.539 161.797,123.086C161.505,122.633 161.359,121.941 161.359,121.011C161.359,120.083 161.505,119.391 161.797,118.936C162.091,118.48 162.537,118.252 163.135,118.252C163.735,118.252 164.181,118.48 164.473,118.936C164.767,119.391 164.915,120.083 164.915,121.011Z" style="fill:rgb(212,215,215);fill-rule:nonzero;"/>
            <path id="path1859" d="M167.52,118.982L166.762,121.701L168.278,121.701L167.52,118.982ZM167.086,118.348L167.958,118.348L169.584,123.662L168.84,123.662L168.449,122.278L166.587,122.278L166.203,123.662L165.459,123.662L167.086,118.348Z" style="fill:rgb(212,215,215);fill-rule:nonzero;"/>
            <path id="path1861" d="M172.417,121.153C172.602,121.201 172.76,121.291 172.891,121.424C173.021,121.554 173.184,121.816 173.378,122.21L174.101,123.662L173.329,123.662L172.695,122.321C172.512,121.938 172.347,121.693 172.2,121.584C172.056,121.472 171.866,121.416 171.631,121.416L170.944,121.416L170.944,123.662L170.221,123.662L170.221,118.348L171.702,118.348C172.286,118.348 172.733,118.48 173.044,118.744C173.355,119.007 173.51,119.388 173.51,119.886C173.51,120.237 173.414,120.524 173.222,120.747C173.032,120.968 172.764,121.103 172.417,121.153L172.417,121.153ZM170.944,118.939L170.944,120.826L171.73,120.826C172.074,120.826 172.331,120.749 172.499,120.594C172.668,120.44 172.752,120.204 172.752,119.886C172.752,119.58 172.662,119.346 172.481,119.185C172.303,119.021 172.044,118.939 171.702,118.939L170.944,118.939Z" style="fill:rgb(212,215,215);fill-rule:nonzero;"/>
            <path id="path1863" d="M177.699,118.53L177.699,119.26C177.481,119.12 177.261,119.014 177.041,118.943C176.822,118.872 176.602,118.836 176.379,118.836C176.039,118.836 175.771,118.916 175.574,119.075C175.377,119.231 175.279,119.443 175.279,119.712C175.279,119.947 175.343,120.126 175.471,120.249C175.602,120.372 175.844,120.476 176.197,120.559L176.574,120.644C177.073,120.76 177.436,120.943 177.664,121.192C177.891,121.441 178.005,121.781 178.005,122.21C178.005,122.716 177.849,123.101 177.535,123.367C177.222,123.633 176.767,123.766 176.169,123.766C175.92,123.766 175.669,123.738 175.418,123.684C175.166,123.631 174.914,123.552 174.66,123.445L174.66,122.68C174.932,122.853 175.19,122.98 175.432,123.061C175.676,123.142 175.922,123.182 176.169,123.182C176.532,123.182 176.814,123.101 177.016,122.94C177.217,122.776 177.318,122.548 177.318,122.256C177.318,121.991 177.248,121.788 177.108,121.648C176.971,121.508 176.73,121.4 176.386,121.324L176.001,121.235C175.508,121.123 175.15,120.955 174.927,120.73C174.704,120.504 174.592,120.202 174.592,119.822C174.592,119.347 174.751,118.968 175.069,118.683C175.389,118.396 175.814,118.252 176.343,118.252C176.547,118.252 176.762,118.276 176.987,118.324C177.213,118.369 177.45,118.437 177.699,118.53L177.699,118.53Z" style="fill:rgb(212,215,215);fill-rule:nonzero;"/>
            <path id="path1865" d="M179.183,118.348L182.337,118.348L182.337,118.954L179.902,118.954L179.902,120.527L182.23,120.527L182.23,121.132L179.902,121.132L179.902,123.057L182.404,123.057L182.404,123.662L179.183,123.662L179.183,118.348Z" style="fill:rgb(212,215,215);fill-rule:nonzero;"/>
        </g>
        <g id="text1151-6" transform="matrix(1,0,0,1,-53.5319,-57.3312)">
            <path id="path1846" d="M218.551,115.018L221.68,115.018L221.68,115.623L219.274,115.623L219.274,117.189L221.456,117.189L221.456,117.794L219.274,117.794L219.274,120.332L218.551,120.332L218.551,115.018Z" style="fill:rgb(212,215,215);fill-rule:nonzero;"/>
            <path id="path1848" d="M222.822,115.018L225.773,115.018L225.773,115.623L224.659,115.623L224.659,119.727L225.773,119.727L225.773,120.332L222.822,120.332L222.822,119.727L223.936,119.727L223.936,115.623L222.822,115.623L222.822,115.018Z" style="fill:rgb(212,215,215);fill-rule:nonzero;"/>
            <path id="path1850" d="M226.987,115.018L227.898,115.018L229.692,119.392L229.692,115.018L230.386,115.018L230.386,120.332L229.475,120.332L227.681,115.958L227.681,120.332L226.987,120.332L226.987,115.018Z" style="fill:rgb(212,215,215);fill-rule:nonzero;"/>
            <path id="path1852" d="M231.578,115.018L234.731,115.018L234.731,115.623L232.297,115.623L232.297,117.196L234.625,117.196L234.625,117.801L232.297,117.801L232.297,119.727L234.799,119.727L234.799,120.332L231.578,120.332L231.578,115.018Z" style="fill:rgb(212,215,215);fill-rule:nonzero;"/>
        </g>
        <g id="text1151-9" transform="matrix(1,0,0,1,-45.4835,-52.9087)">
            <path id="path1833" d="M106.689,123.323C106.506,123.42 106.319,123.492 106.127,123.54C105.934,123.589 105.73,123.614 105.514,123.614C104.833,123.614 104.304,123.374 103.927,122.892C103.552,122.41 103.365,121.733 103.365,120.86C103.365,119.991 103.553,119.315 103.931,118.831C104.31,118.344 104.838,118.101 105.514,118.101C105.73,118.101 105.934,118.126 106.127,118.176C106.319,118.223 106.506,118.296 106.689,118.393L106.689,119.13C106.513,118.985 106.325,118.875 106.123,118.799C105.921,118.723 105.718,118.685 105.514,118.685C105.047,118.685 104.697,118.865 104.464,119.226C104.232,119.587 104.116,120.131 104.116,120.86C104.116,121.586 104.232,122.129 104.464,122.49C104.697,122.85 105.047,123.031 105.514,123.031C105.723,123.031 105.927,122.993 106.127,122.917C106.328,122.841 106.516,122.73 106.689,122.586L106.689,123.323Z" style="fill:rgb(212,215,215);fill-rule:nonzero;"/>
            <path id="path1835" d="M110.476,120.86C110.476,120.079 110.395,119.521 110.234,119.187C110.075,118.852 109.813,118.685 109.447,118.685C109.084,118.685 108.822,118.852 108.661,119.187C108.502,119.521 108.422,120.079 108.422,120.86C108.422,121.638 108.502,122.194 108.661,122.529C108.822,122.863 109.084,123.031 109.447,123.031C109.813,123.031 110.075,122.865 110.234,122.532C110.395,122.198 110.476,121.64 110.476,120.86ZM111.227,120.86C111.227,121.785 111.08,122.475 110.786,122.931C110.494,123.387 110.048,123.614 109.447,123.614C108.847,123.614 108.401,123.388 108.109,122.935C107.817,122.481 107.671,121.79 107.671,120.86C107.671,119.932 107.817,119.24 108.109,118.785C108.403,118.329 108.849,118.101 109.447,118.101C110.048,118.101 110.494,118.329 110.786,118.785C111.08,119.24 111.227,119.932 111.227,120.86Z" style="fill:rgb(212,215,215);fill-rule:nonzero;"/>
            <path id="path1837" d="M113.832,118.831L113.074,121.55L114.59,121.55L113.832,118.831ZM113.398,118.197L114.27,118.197L115.896,123.511L115.153,123.511L114.761,122.127L112.9,122.127L112.515,123.511L111.771,123.511L113.398,118.197Z" style="fill:rgb(212,215,215);fill-rule:nonzero;"/>
            <path id="path1839" d="M118.73,121.002C118.915,121.049 119.072,121.14 119.203,121.272C119.333,121.403 119.496,121.665 119.691,122.059L120.413,123.511L119.641,123.511L119.007,122.169C118.825,121.787 118.66,121.542 118.512,121.433C118.368,121.321 118.178,121.265 117.943,121.265L117.256,121.265L117.256,123.511L116.534,123.511L116.534,118.197L118.014,118.197C118.598,118.197 119.045,118.329 119.356,118.592C119.667,118.856 119.822,119.237 119.822,119.735C119.822,120.086 119.726,120.373 119.534,120.596C119.344,120.817 119.076,120.952 118.73,121.002L118.73,121.002ZM117.256,118.788L117.256,120.675L118.043,120.675C118.387,120.675 118.643,120.597 118.811,120.443C118.98,120.289 119.064,120.053 119.064,119.735C119.064,119.429 118.974,119.195 118.794,119.034C118.616,118.87 118.356,118.788 118.014,118.788L117.256,118.788Z" style="fill:rgb(212,215,215);fill-rule:nonzero;"/>
            <path id="path1841" d="M124.011,118.379L124.011,119.108C123.793,118.968 123.574,118.863 123.353,118.792C123.135,118.721 122.914,118.685 122.691,118.685C122.352,118.685 122.084,118.764 121.887,118.923C121.69,119.08 121.591,119.292 121.591,119.56C121.591,119.795 121.655,119.975 121.783,120.098C121.914,120.221 122.156,120.325 122.509,120.408L122.887,120.493C123.385,120.609 123.748,120.792 123.976,121.041C124.204,121.29 124.317,121.63 124.317,122.059C124.317,122.564 124.161,122.95 123.848,123.216C123.534,123.482 123.079,123.614 122.481,123.614C122.232,123.614 121.981,123.587 121.73,123.533C121.478,123.48 121.226,123.401 120.972,123.294L120.972,122.529C121.245,122.702 121.502,122.829 121.744,122.91C121.989,122.99 122.234,123.031 122.481,123.031C122.844,123.031 123.126,122.95 123.328,122.789C123.53,122.625 123.631,122.397 123.631,122.105C123.631,121.84 123.561,121.637 123.421,121.497C123.283,121.357 123.042,121.249 122.698,121.173L122.314,121.084C121.82,120.972 121.462,120.804 121.239,120.578C121.016,120.353 120.904,120.05 120.904,119.671C120.904,119.196 121.063,118.817 121.381,118.532C121.701,118.245 122.126,118.101 122.655,118.101C122.859,118.101 123.074,118.125 123.3,118.172C123.525,118.217 123.762,118.286 124.011,118.379L124.011,118.379Z" style="fill:rgb(212,215,215);fill-rule:nonzero;"/>
            <path id="path1843" d="M125.496,118.197L128.649,118.197L128.649,118.802L126.215,118.802L126.215,120.376L128.542,120.376L128.542,120.981L126.215,120.981L126.215,122.906L128.717,122.906L128.717,123.511L125.496,123.511L125.496,118.197Z" style="fill:rgb(212,215,215);fill-rule:nonzero;"/>
        </g>
        <g id="text1151-6-2" transform="matrix(1,0,0,1,-37.9906,-56.4419)">
            <path id="path1824" d="M52.59,114.129L55.719,114.129L55.719,114.734L53.313,114.734L53.313,116.3L55.495,116.3L55.495,116.905L53.313,116.905L53.313,119.443L52.59,119.443L52.59,114.129Z" style="fill:rgb(212,215,215);fill-rule:nonzero;"/>
            <path id="path1826" d="M56.861,114.129L59.812,114.129L59.812,114.734L58.698,114.734L58.698,118.838L59.812,118.838L59.812,119.443L56.861,119.443L56.861,118.838L57.975,118.838L57.975,114.734L56.861,114.734L56.861,114.129Z" style="fill:rgb(212,215,215);fill-rule:nonzero;"/>
            <path id="path1828" d="M61.026,114.129L61.937,114.129L63.731,118.503L63.731,114.129L64.425,114.129L64.425,119.443L63.514,119.443L61.72,115.068L61.72,119.443L61.026,119.443L61.026,114.129Z" style="fill:rgb(212,215,215);fill-rule:nonzero;"/>
            <path id="path1830" d="M65.617,114.129L68.77,114.129L68.77,114.734L66.336,114.734L66.336,116.307L68.664,116.307L68.664,116.912L66.336,116.912L66.336,118.838L68.838,118.838L68.838,119.443L65.617,119.443L65.617,114.129Z" style="fill:rgb(212,215,215);fill-rule:nonzero;"/>
        </g>
        <g id="text1151-6-2-3" transform="matrix(1,0,0,1,5.92003,-20.4184)">
            <path id="path1819" d="M111.2,167.736L114.329,167.736L114.329,168.341L111.923,168.341L111.923,169.908L114.105,169.908L114.105,170.513L111.923,170.513L111.923,173.05L111.2,173.05L111.2,167.736Z" style="fill:rgb(212,215,215);fill-rule:nonzero;"/>
            <path id="path1821" d="M115.062,167.736L116.023,167.736L116.941,170.441L117.867,167.736L118.831,167.736L118.831,173.05L118.166,173.05L118.166,168.356L117.219,171.157L116.674,171.157L115.724,168.356L115.724,173.05L115.062,173.05L115.062,167.736Z" style="fill:rgb(212,215,215);fill-rule:nonzero;"/>
        </g>
        <g id="text1151-6-2-3-6" transform="matrix(1,0,0,1,-90.7143,67.7365)">
            <path id="path1814" d="M161.723,167.736L164.852,167.736L164.852,168.341L162.446,168.341L162.446,169.908L164.628,169.908L164.628,170.513L162.446,170.513L162.446,173.05L161.723,173.05L161.723,167.736Z" style="fill-rule:nonzero;"/>
            <path id="path1816" d="M165.585,167.736L166.546,167.736L167.464,170.441L168.39,167.736L169.354,167.736L169.354,173.05L168.689,173.05L168.689,168.356L167.742,171.157L167.197,171.157L166.247,168.356L166.247,173.05L165.585,173.05L165.585,167.736Z" style="fill-rule:nonzero;"/>
        </g>
        <g id="text1151-6-2-3-5" transform="matrix(1,0,0,1,-44.2553,-61.6133)">
            <path id="path1797" d="M57.266,172.494C57.083,172.591 56.896,172.663 56.703,172.711C56.511,172.761 56.307,172.785 56.091,172.785C55.41,172.785 54.881,172.545 54.504,172.063C54.129,171.581 53.942,170.904 53.942,170.031C53.942,169.162 54.13,168.486 54.507,168.002C54.887,167.516 55.415,167.272 56.091,167.272C56.307,167.272 56.511,167.297 56.703,167.347C56.896,167.395 57.083,167.467 57.266,167.564L57.266,168.301C57.09,168.156 56.902,168.046 56.7,167.97C56.498,167.894 56.295,167.856 56.091,167.856C55.624,167.856 55.274,168.036 55.041,168.397C54.809,168.758 54.692,169.302 54.692,170.031C54.692,170.757 54.809,171.3 55.041,171.661C55.274,172.021 55.624,172.202 56.091,172.202C56.3,172.202 56.504,172.164 56.703,172.088C56.905,172.012 57.093,171.902 57.266,171.757L57.266,172.494Z" style="fill:rgb(212,215,215);fill-rule:nonzero;"/>
            <path id="path1799" d="M61.053,170.031C61.053,169.25 60.972,168.692 60.811,168.358C60.652,168.023 60.39,167.856 60.024,167.856C59.661,167.856 59.399,168.023 59.238,168.358C59.079,168.692 58.999,169.25 58.999,170.031C58.999,170.809 59.079,171.365 59.238,171.7C59.399,172.035 59.661,172.202 60.024,172.202C60.39,172.202 60.652,172.036 60.811,171.704C60.972,171.369 61.053,170.811 61.053,170.031ZM61.804,170.031C61.804,170.956 61.657,171.647 61.362,172.102C61.071,172.558 60.624,172.786 60.024,172.786C59.424,172.786 58.978,172.559 58.686,172.106C58.394,171.653 58.248,170.961 58.248,170.031C58.248,169.103 58.394,168.411 58.686,167.956C58.98,167.5 59.426,167.272 60.024,167.272C60.624,167.272 61.071,167.5 61.362,167.956C61.657,168.411 61.804,169.103 61.804,170.031Z" style="fill:rgb(212,215,215);fill-rule:nonzero;"/>
            <path id="path1801" d="M62.711,167.368L63.622,167.368L65.416,171.743L65.416,167.368L66.11,167.368L66.11,172.682L65.199,172.682L63.405,168.308L63.405,172.682L62.711,172.682L62.711,167.368Z" style="fill:rgb(212,215,215);fill-rule:nonzero;"/>
            <path id="path1803" d="M66.769,167.368L70.823,167.368L70.823,167.974L69.161,167.974L69.161,172.682L68.438,172.682L68.438,167.974L66.769,167.974L66.769,167.368Z" style="fill:rgb(212,215,215);fill-rule:nonzero;"/>
            <path id="path1805" d="M73.691,170.173C73.876,170.221 74.034,170.311 74.165,170.444C74.295,170.574 74.458,170.836 74.652,171.23L75.375,172.682L74.603,172.682L73.969,171.34C73.786,170.958 73.621,170.713 73.474,170.604C73.33,170.492 73.14,170.436 72.905,170.436L72.218,170.436L72.218,172.682L71.495,172.682L71.495,167.368L72.976,167.368C73.56,167.368 74.007,167.5 74.318,167.764C74.629,168.027 74.784,168.408 74.784,168.906C74.784,169.257 74.688,169.544 74.496,169.767C74.306,169.988 74.038,170.123 73.691,170.173L73.691,170.173ZM72.218,167.959L72.218,169.846L73.004,169.846C73.349,169.846 73.605,169.769 73.773,169.614C73.942,169.46 74.026,169.224 74.026,168.906C74.026,168.6 73.936,168.366 73.755,168.205C73.577,168.041 73.318,167.959 72.976,167.959L72.218,167.959Z" style="fill:rgb(212,215,215);fill-rule:nonzero;"/>
            <path id="path1807" d="M77.564,168.002L76.806,170.721L78.322,170.721L77.564,168.002ZM77.13,167.368L78.002,167.368L79.628,172.682L78.884,172.682L78.493,171.298L76.631,171.298L76.247,172.682L75.503,172.682L77.13,167.368Z" style="fill:rgb(212,215,215);fill-rule:nonzero;"/>
            <path id="path1809" d="M83.358,167.55L83.358,168.28C83.14,168.14 82.92,168.034 82.7,167.963C82.481,167.892 82.261,167.856 82.038,167.856C81.698,167.856 81.43,167.936 81.233,168.095C81.036,168.251 80.938,168.463 80.938,168.732C80.938,168.967 81.002,169.146 81.13,169.269C81.261,169.392 81.503,169.496 81.856,169.579L82.233,169.664C82.732,169.78 83.095,169.963 83.323,170.212C83.55,170.461 83.664,170.801 83.664,171.23C83.664,171.736 83.508,172.121 83.194,172.387C82.881,172.653 82.426,172.786 81.828,172.786C81.579,172.786 81.328,172.758 81.077,172.704C80.825,172.651 80.572,172.572 80.319,172.465L80.319,171.7C80.591,171.873 80.849,172 81.091,172.081C81.335,172.161 81.581,172.202 81.828,172.202C82.191,172.202 82.473,172.121 82.675,171.96C82.876,171.796 82.977,171.568 82.977,171.276C82.977,171.011 82.907,170.808 82.767,170.668C82.63,170.528 82.389,170.42 82.045,170.344L81.66,170.255C81.167,170.143 80.809,169.975 80.585,169.75C80.362,169.524 80.251,169.222 80.251,168.842C80.251,168.367 80.41,167.988 80.728,167.703C81.048,167.416 81.473,167.272 82.002,167.272C82.206,167.272 82.421,167.296 82.646,167.344C82.872,167.389 83.109,167.457 83.358,167.55L83.358,167.55Z" style="fill:rgb(212,215,215);fill-rule:nonzero;"/>
            <path id="path1811" d="M84.308,167.368L88.362,167.368L88.362,167.974L86.7,167.974L86.7,172.682L85.978,172.682L85.978,167.974L84.308,167.974L84.308,167.368Z" style="fill:rgb(212,215,215);fill-rule:nonzero;"/>
        </g>
        <g id="text1151-6-2-3-5-6" transform="matrix(1,0,0,1,-42.6263,-61.763)">
            <path id="path1780" d="M197.364,172.643C197.181,172.741 196.994,172.813 196.802,172.86C196.609,172.91 196.405,172.935 196.189,172.935C195.508,172.935 194.979,172.694 194.602,172.213C194.227,171.731 194.04,171.054 194.04,170.18C194.04,169.312 194.228,168.636 194.606,168.152C194.985,167.665 195.513,167.422 196.189,167.422C196.405,167.422 196.609,167.447 196.802,167.497C196.994,167.544 197.181,167.617 197.364,167.714L197.364,168.451C197.188,168.306 197,168.195 196.798,168.12C196.596,168.044 196.393,168.006 196.189,168.006C195.722,168.006 195.372,168.186 195.139,168.547C194.907,168.907 194.791,169.452 194.791,170.18C194.791,170.906 194.907,171.45 195.139,171.81C195.372,172.171 195.722,172.351 196.189,172.351C196.398,172.351 196.602,172.313 196.802,172.238C197.003,172.162 197.191,172.051 197.364,171.906L197.364,172.643Z" style="fill:rgb(212,215,215);fill-rule:nonzero;"/>
            <path id="path1782" d="M201.151,170.18C201.151,169.4 201.07,168.842 200.909,168.508C200.75,168.173 200.488,168.006 200.122,168.006C199.759,168.006 199.497,168.173 199.336,168.508C199.177,168.842 199.097,169.4 199.097,170.18C199.097,170.959 199.177,171.515 199.336,171.85C199.497,172.184 199.759,172.351 200.122,172.351C200.488,172.351 200.75,172.185 200.909,171.853C201.07,171.519 201.151,170.961 201.151,170.18ZM201.902,170.18C201.902,171.106 201.755,171.796 201.46,172.252C201.169,172.707 200.723,172.935 200.122,172.935C199.522,172.935 199.076,172.709 198.784,172.255C198.492,171.802 198.346,171.11 198.346,170.18C198.346,169.253 198.492,168.561 198.784,168.105C199.078,167.65 199.524,167.422 200.122,167.422C200.723,167.422 201.169,167.65 201.46,168.105C201.755,168.561 201.902,169.253 201.902,170.18Z" style="fill:rgb(212,215,215);fill-rule:nonzero;"/>
            <path id="path1784" d="M202.809,167.518L203.721,167.518L205.514,171.892L205.514,167.518L206.208,167.518L206.208,172.832L205.297,172.832L203.503,168.458L203.503,172.832L202.809,172.832L202.809,167.518Z" style="fill:rgb(212,215,215);fill-rule:nonzero;"/>
            <path id="path1786" d="M206.867,167.518L210.921,167.518L210.921,168.123L209.259,168.123L209.259,172.832L208.536,172.832L208.536,168.123L206.867,168.123L206.867,167.518Z" style="fill:rgb(212,215,215);fill-rule:nonzero;"/>
            <path id="path1788" d="M213.789,170.323C213.975,170.37 214.132,170.46 214.263,170.593C214.393,170.724 214.556,170.986 214.75,171.38L215.473,172.832L214.701,172.832L214.067,171.49C213.884,171.108 213.719,170.863 213.572,170.753C213.428,170.642 213.238,170.586 213.003,170.586L212.316,170.586L212.316,172.832L211.593,172.832L211.593,167.518L213.074,167.518C213.658,167.518 214.105,167.65 214.416,167.913C214.727,168.177 214.882,168.557 214.882,169.056C214.882,169.407 214.786,169.694 214.594,169.917C214.404,170.138 214.136,170.273 213.789,170.323L213.789,170.323ZM212.316,168.109L212.316,169.995L213.103,169.995C213.447,169.995 213.703,169.918 213.871,169.764C214.04,169.61 214.124,169.374 214.124,169.056C214.124,168.75 214.034,168.516 213.854,168.354C213.676,168.191 213.416,168.109 213.074,168.109L212.316,168.109Z" style="fill:rgb(212,215,215);fill-rule:nonzero;"/>
            <path id="path1790" d="M217.662,168.152L216.904,170.871L218.42,170.871L217.662,168.152ZM217.228,167.518L218.1,167.518L219.726,172.832L218.982,172.832L218.591,171.447L216.729,171.447L216.345,172.832L215.601,172.832L217.228,167.518Z" style="fill:rgb(212,215,215);fill-rule:nonzero;"/>
            <path id="path1792" d="M223.456,167.7L223.456,168.429C223.238,168.289 223.018,168.184 222.798,168.112C222.579,168.041 222.359,168.006 222.136,168.006C221.796,168.006 221.528,168.085 221.331,168.244C221.134,168.401 221.036,168.613 221.036,168.881C221.036,169.116 221.1,169.295 221.228,169.419C221.359,169.542 221.601,169.645 221.954,169.728L222.331,169.814C222.83,169.93 223.193,170.113 223.421,170.362C223.648,170.611 223.762,170.95 223.762,171.38C223.762,171.885 223.606,172.271 223.292,172.537C222.979,172.802 222.524,172.935 221.926,172.935C221.677,172.935 221.426,172.908 221.175,172.853C220.923,172.801 220.671,172.722 220.417,172.615L220.417,171.85C220.69,172.023 220.947,172.15 221.189,172.23C221.433,172.311 221.679,172.351 221.926,172.351C222.289,172.351 222.571,172.271 222.773,172.109C222.974,171.946 223.075,171.718 223.075,171.426C223.075,171.16 223.005,170.957 222.865,170.817C222.728,170.677 222.487,170.57 222.143,170.494L221.758,170.405C221.265,170.293 220.907,170.125 220.684,169.899C220.461,169.674 220.349,169.371 220.349,168.992C220.349,168.517 220.508,168.137 220.826,167.853C221.146,167.566 221.571,167.422 222.1,167.422C222.304,167.422 222.519,167.446 222.744,167.493C222.97,167.538 223.207,167.607 223.456,167.7L223.456,167.7Z" style="fill:rgb(212,215,215);fill-rule:nonzero;"/>
            <path id="path1794" d="M224.407,167.518L228.46,167.518L228.46,168.123L226.798,168.123L226.798,172.832L226.076,172.832L226.076,168.123L224.407,168.123L224.407,167.518Z" style="fill:rgb(212,215,215);fill-rule:nonzero;"/>
        </g>
        <g id="text1151-6-2-3-5-6-3" transform="matrix(1,0,0,1,1.19038,-2.88639)">
            <path id="path1771" d="M18.192,171.446C18.797,171.446 19.219,171.297 19.459,171.001C19.699,170.702 19.818,170.163 19.818,169.385C19.818,168.6 19.699,168.059 19.459,167.762C19.222,167.463 18.799,167.314 18.192,167.314L17.85,167.314L17.85,171.446L18.192,171.446ZM18.206,166.723C19.018,166.723 19.616,166.939 20,167.37C20.384,167.802 20.577,168.474 20.577,169.385C20.577,170.291 20.384,170.96 20,171.392C19.616,171.822 19.018,172.037 18.206,172.037L17.128,172.037L17.128,166.723L18.206,166.723Z" style="fill:rgb(212,215,215);fill-rule:nonzero;"/>
            <path id="path1773" d="M21.74,166.723L24.691,166.723L24.691,167.328L23.577,167.328L23.577,171.431L24.691,171.431L24.691,172.037L21.74,172.037L21.74,171.431L22.854,171.431L22.854,167.328L21.74,167.328L21.74,166.723Z" style="fill:rgb(212,215,215);fill-rule:nonzero;"/>
            <path id="path1775" d="M29.012,166.904L29.012,167.634C28.793,167.494 28.574,167.388 28.353,167.317C28.135,167.246 27.914,167.21 27.691,167.21C27.352,167.21 27.084,167.29 26.887,167.449C26.69,167.605 26.592,167.818 26.592,168.086C26.592,168.321 26.656,168.5 26.784,168.623C26.914,168.747 27.156,168.85 27.51,168.933L27.887,169.018C28.385,169.135 28.748,169.317 28.976,169.566C29.204,169.816 29.318,170.155 29.318,170.584C29.318,171.09 29.161,171.475 28.848,171.741C28.535,172.007 28.079,172.14 27.481,172.14C27.232,172.14 26.982,172.112 26.73,172.058C26.479,172.006 26.226,171.926 25.972,171.819L25.972,171.054C26.245,171.227 26.503,171.354 26.745,171.435C26.989,171.516 27.235,171.556 27.481,171.556C27.844,171.556 28.127,171.475 28.328,171.314C28.53,171.15 28.631,170.923 28.631,170.631C28.631,170.365 28.561,170.162 28.421,170.022C28.283,169.882 28.042,169.774 27.698,169.698L27.314,169.609C26.82,169.498 26.462,169.329 26.239,169.104C26.016,168.878 25.905,168.576 25.905,168.196C25.905,167.722 26.064,167.342 26.382,167.057C26.702,166.77 27.127,166.627 27.656,166.627C27.86,166.627 28.075,166.65 28.3,166.698C28.525,166.743 28.763,166.812 29.012,166.904L29.012,166.904Z" style="fill:rgb(212,215,215);fill-rule:nonzero;"/>
            <path id="path1777" d="M29.962,166.723L34.016,166.723L34.016,167.328L32.354,167.328L32.354,172.037L31.631,172.037L31.631,167.328L29.962,167.328L29.962,166.723Z" style="fill:rgb(212,215,215);fill-rule:nonzero;"/>
        </g>
        <g id="text1151-6-2-3-5-6-3-1" transform="matrix(1,0,0,1,-88.2076,-3.89656)">
            <path id="path1762" d="M248.946,172.456C249.551,172.456 249.974,172.308 250.213,172.011C250.453,171.712 250.573,171.173 250.573,170.395C250.573,169.61 250.453,169.069 250.213,168.772C249.976,168.473 249.554,168.324 248.946,168.324L248.605,168.324L248.605,172.456L248.946,172.456ZM248.961,167.733C249.772,167.733 250.37,167.949 250.754,168.381C251.139,168.812 251.331,169.484 251.331,170.395C251.331,171.302 251.139,171.971 250.754,172.403C250.37,172.832 249.772,173.047 248.961,173.047L247.882,173.047L247.882,167.733L248.961,167.733Z" style="fill:rgb(212,215,215);fill-rule:nonzero;"/>
            <path id="path1764" d="M252.495,167.733L255.445,167.733L255.445,168.338L254.331,168.338L254.331,172.442L255.445,172.442L255.445,173.047L252.495,173.047L252.495,172.442L253.609,172.442L253.609,168.338L252.495,168.338L252.495,167.733Z" style="fill:rgb(212,215,215);fill-rule:nonzero;"/>
            <path id="path1766" d="M259.766,167.914L259.766,168.644C259.548,168.504 259.328,168.398 259.108,168.327C258.889,168.256 258.669,168.22 258.446,168.22C258.106,168.22 257.838,168.3 257.641,168.459C257.444,168.616 257.346,168.828 257.346,169.096C257.346,169.331 257.41,169.51 257.538,169.633C257.669,169.757 257.911,169.86 258.264,169.943L258.641,170.029C259.14,170.145 259.503,170.327 259.731,170.577C259.958,170.826 260.072,171.165 260.072,171.595C260.072,172.1 259.916,172.486 259.602,172.751C259.289,173.017 258.834,173.15 258.236,173.15C257.987,173.15 257.736,173.123 257.485,173.068C257.233,173.016 256.98,172.936 256.727,172.83L256.727,172.064C256.999,172.238 257.257,172.365 257.499,172.445C257.743,172.526 257.989,172.566 258.236,172.566C258.599,172.566 258.881,172.486 259.083,172.324C259.284,172.16 259.385,171.933 259.385,171.641C259.385,171.375 259.315,171.172 259.175,171.032C259.038,170.892 258.797,170.784 258.453,170.708L258.068,170.619C257.575,170.508 257.217,170.339 256.994,170.114C256.77,169.889 256.659,169.586 256.659,169.206C256.659,168.732 256.818,168.352 257.136,168.067C257.456,167.78 257.881,167.637 258.41,167.637C258.614,167.637 258.829,167.661 259.054,167.708C259.28,167.753 259.517,167.822 259.766,167.914L259.766,167.914Z" style="fill:rgb(212,215,215);fill-rule:nonzero;"/>
            <path id="path1768" d="M260.716,167.733L264.77,167.733L264.77,168.338L263.108,168.338L263.108,173.047L262.386,173.047L262.386,168.338L260.716,168.338L260.716,167.733Z" style="fill:rgb(212,215,215);fill-rule:nonzero;"/>
        </g>
        <g id="text1151-6-2-3-0" transform="matrix(1,0,0,1,-41.1335,-62.0872)">
            <path id="path1713" d="M111.334,209.405L114.463,209.405L114.463,210.01L112.057,210.01L112.057,211.576L114.239,211.576L114.239,212.181L112.057,212.181L112.057,214.719L111.334,214.719L111.334,209.405Z" style="fill:rgb(212,215,215);fill-rule:nonzero;"/>
            <path id="path1715" d="M115.196,209.405L116.157,209.405L117.075,212.11L118.001,209.405L118.965,209.405L118.965,214.719L118.3,214.719L118.3,210.025L117.353,212.826L116.808,212.826L115.858,210.025L115.858,214.719L115.196,214.719L115.196,209.405Z" style="fill:rgb(212,215,215);fill-rule:nonzero;"/>
        </g>
        <g id="text1151-6-2-3-6-3" transform="matrix(1,0,0,1,-49.6429,25.8152)">
            <path id="path1708" d="M166.655,209.658L169.784,209.658L169.784,210.263L167.378,210.263L167.378,211.829L169.56,211.829L169.56,212.434L167.378,212.434L167.378,214.972L166.655,214.972L166.655,209.658Z" style="fill-rule:nonzero;"/>
            <path id="path1710" d="M170.517,209.658L171.478,209.658L172.396,212.363L173.322,209.658L174.286,209.658L174.286,214.972L173.621,214.972L173.621,210.277L172.674,213.078L172.129,213.078L171.179,210.277L171.179,214.972L170.517,214.972L170.517,209.658Z" style="fill-rule:nonzero;"/>
        </g>
        <g id="text1151-6-2-3-0-6" transform="matrix(1,0,0,1,-39.4121,11.3631)">
            <path id="path1697" d="M107.402,262.854L108.651,258.145L109.395,258.145L107.84,263.459L106.968,263.459L105.412,258.145L106.156,258.145L107.402,262.854Z" style="fill-rule:nonzero;"/>
            <rect id="path1699" x="111.335" y="262.373" width="0.897" height="1.086" style="fill-rule:nonzero;"/>
            <path id="path1701" d="M117.2,260.807C117.2,260.027 117.12,259.469 116.958,259.135C116.799,258.8 116.537,258.633 116.172,258.633C115.809,258.633 115.546,258.8 115.385,259.135C115.226,259.469 115.147,260.027 115.147,260.807C115.147,261.586 115.226,262.142 115.385,262.477C115.546,262.811 115.809,262.978 116.172,262.978C116.537,262.978 116.799,262.812 116.958,262.48C117.12,262.146 117.2,261.588 117.2,260.807ZM117.951,260.807C117.951,261.733 117.804,262.423 117.51,262.879C117.218,263.334 116.772,263.562 116.172,263.562C115.571,263.562 115.125,263.336 114.833,262.882C114.542,262.429 114.396,261.737 114.396,260.807C114.396,259.88 114.542,259.188 114.833,258.732C115.128,258.277 115.574,258.049 116.172,258.049C116.772,258.049 117.218,258.277 117.51,258.732C117.804,259.188 117.951,259.88 117.951,260.807Z" style="fill-rule:nonzero;"/>
            <path id="path1703" d="M122.183,263.27C122,263.368 121.813,263.44 121.621,263.487C121.429,263.537 121.224,263.562 121.009,263.562C120.328,263.562 119.798,263.321 119.421,262.84C119.046,262.358 118.859,261.681 118.859,260.807C118.859,259.939 119.047,259.263 119.425,258.779C119.804,258.292 120.332,258.049 121.009,258.049C121.224,258.049 121.429,258.074 121.621,258.124C121.813,258.171 122,258.244 122.183,258.341L122.183,259.078C122.007,258.933 121.819,258.822 121.617,258.747C121.415,258.671 121.213,258.633 121.009,258.633C120.541,258.633 120.191,258.813 119.959,259.174C119.726,259.534 119.61,260.079 119.61,260.807C119.61,261.533 119.726,262.077 119.959,262.437C120.191,262.798 120.541,262.978 121.009,262.978C121.217,262.978 121.421,262.94 121.621,262.865C121.822,262.789 122.01,262.678 122.183,262.534L122.183,263.27Z" style="fill-rule:nonzero;"/>
            <path id="path1705" d="M122.916,258.145L126.97,258.145L126.97,258.75L125.308,258.75L125.308,263.459L124.586,263.459L124.586,258.75L122.916,258.75L122.916,258.145Z" style="fill-rule:nonzero;"/>
        </g>
        <g id="text1151-6-2-3-0-6-5" transform="matrix(1,0,0,1,-50.2551,11.3667)">
            <path id="path1686" d="M161.674,262.85L162.923,258.142L163.667,258.142L162.112,263.455L161.24,263.455L159.684,258.142L160.428,258.142L161.674,262.85Z" style="fill-rule:nonzero;"/>
            <rect id="path1688" x="165.607" y="262.37" width="0.897" height="1.086" style="fill-rule:nonzero;"/>
            <path id="path1690" d="M171.472,260.804C171.472,260.023 171.392,259.466 171.23,259.131C171.071,258.796 170.809,258.629 170.444,258.629C170.081,258.629 169.818,258.796 169.657,259.131C169.498,259.466 169.419,260.023 169.419,260.804C169.419,261.582 169.498,262.138 169.657,262.473C169.818,262.808 170.081,262.975 170.444,262.975C170.809,262.975 171.071,262.809 171.23,262.477C171.392,262.142 171.472,261.584 171.472,260.804ZM172.223,260.804C172.223,261.729 172.076,262.42 171.782,262.875C171.49,263.331 171.044,263.559 170.444,263.559C169.843,263.559 169.397,263.332 169.105,262.879C168.814,262.426 168.668,261.734 168.668,260.804C168.668,259.876 168.814,259.184 169.105,258.729C169.4,258.273 169.846,258.045 170.444,258.045C171.044,258.045 171.49,258.273 171.782,258.729C172.076,259.184 172.223,259.876 172.223,260.804Z" style="fill-rule:nonzero;"/>
            <path id="path1692" d="M176.455,263.267C176.272,263.364 176.085,263.436 175.893,263.484C175.701,263.534 175.497,263.559 175.281,263.559C174.6,263.559 174.07,263.318 173.693,262.836C173.318,262.354 173.131,261.677 173.131,260.804C173.131,259.935 173.319,259.259 173.697,258.775C174.076,258.289 174.604,258.045 175.281,258.045C175.497,258.045 175.701,258.07 175.893,258.12C176.085,258.168 176.272,258.24 176.455,258.337L176.455,259.074C176.28,258.929 176.091,258.819 175.889,258.743C175.688,258.667 175.485,258.629 175.281,258.629C174.813,258.629 174.463,258.809 174.231,259.17C173.998,259.531 173.882,260.075 173.882,260.804C173.882,261.53 173.998,262.073 174.231,262.434C174.463,262.795 174.813,262.975 175.281,262.975C175.489,262.975 175.693,262.937 175.893,262.861C176.094,262.785 176.282,262.675 176.455,262.53L176.455,263.267Z" style="fill-rule:nonzero;"/>
            <path id="path1694" d="M177.188,258.142L181.242,258.142L181.242,258.747L179.58,258.747L179.58,263.455L178.858,263.455L178.858,258.747L177.188,258.747L177.188,258.142Z" style="fill-rule:nonzero;"/>
        </g>
        <g id="text1151-6-2-3-5-2" transform="matrix(1,0,0,1,-31.7308,10.5994)">
            <path id="path1669" d="M60.447,264.034C60.264,264.131 60.077,264.204 59.885,264.251C59.693,264.301 59.489,264.326 59.273,264.326C58.592,264.326 58.062,264.085 57.685,263.603C57.31,263.122 57.123,262.444 57.123,261.571C57.123,260.703 57.311,260.026 57.689,259.542C58.068,259.056 58.596,258.813 59.273,258.813C59.489,258.813 59.693,258.838 59.885,258.887C60.077,258.935 60.264,259.007 60.447,259.104L60.447,259.841C60.272,259.697 60.083,259.586 59.881,259.51C59.68,259.434 59.477,259.396 59.273,259.396C58.805,259.396 58.455,259.577 58.223,259.937C57.99,260.298 57.874,260.843 57.874,261.571C57.874,262.297 57.99,262.84 58.223,263.201C58.455,263.562 58.805,263.742 59.273,263.742C59.481,263.742 59.685,263.704 59.885,263.628C60.086,263.552 60.274,263.442 60.447,263.297L60.447,264.034Z" style="fill-rule:nonzero;"/>
            <path id="path1671" d="M64.234,261.571C64.234,260.79 64.153,260.233 63.992,259.898C63.833,259.564 63.571,259.396 63.205,259.396C62.842,259.396 62.58,259.564 62.419,259.898C62.26,260.233 62.18,260.79 62.18,261.571C62.18,262.349 62.26,262.906 62.419,263.24C62.58,263.575 62.842,263.742 63.205,263.742C63.571,263.742 63.833,263.576 63.992,263.244C64.153,262.909 64.234,262.352 64.234,261.571ZM64.985,261.571C64.985,262.496 64.838,263.187 64.544,263.642C64.252,264.098 63.806,264.326 63.205,264.326C62.605,264.326 62.159,264.099 61.867,263.646C61.575,263.193 61.429,262.501 61.429,261.571C61.429,260.643 61.575,259.952 61.867,259.496C62.161,259.04 62.608,258.813 63.205,258.813C63.806,258.813 64.252,259.04 64.544,259.496C64.838,259.952 64.985,260.643 64.985,261.571Z" style="fill-rule:nonzero;"/>
            <path id="path1673" d="M65.893,258.909L66.804,258.909L68.598,263.283L68.598,258.909L69.292,258.909L69.292,264.223L68.381,264.223L66.587,259.848L66.587,264.223L65.893,264.223L65.893,258.909Z" style="fill-rule:nonzero;"/>
            <path id="path1675" d="M69.95,258.909L74.004,258.909L74.004,259.514L72.342,259.514L72.342,264.223L71.619,264.223L71.619,259.514L69.95,259.514L69.95,258.909Z" style="fill-rule:nonzero;"/>
            <path id="path1677" d="M76.873,261.713C77.058,261.761 77.216,261.851 77.346,261.984C77.477,262.114 77.639,262.377 77.834,262.77L78.556,264.223L77.784,264.223L77.15,262.881C76.968,262.499 76.803,262.253 76.656,262.144C76.511,262.033 76.321,261.977 76.086,261.977L75.399,261.977L75.399,264.223L74.677,264.223L74.677,258.909L76.157,258.909C76.741,258.909 77.188,259.04 77.499,259.304C77.81,259.567 77.965,259.948 77.965,260.446C77.965,260.797 77.869,261.085 77.677,261.308C77.487,261.528 77.219,261.664 76.873,261.713L76.873,261.713ZM75.399,259.5L75.399,261.386L76.186,261.386C76.53,261.386 76.786,261.309 76.955,261.155C77.123,261 77.207,260.764 77.207,260.446C77.207,260.14 77.117,259.907 76.937,259.745C76.759,259.581 76.499,259.5 76.157,259.5L75.399,259.5Z" style="fill-rule:nonzero;"/>
            <path id="path1679" d="M80.745,259.542L79.987,262.261L81.503,262.261L80.745,259.542ZM80.311,258.909L81.183,258.909L82.809,264.223L82.066,264.223L81.674,262.838L79.813,262.838L79.428,264.223L78.684,264.223L80.311,258.909Z" style="fill-rule:nonzero;"/>
            <path id="path1681" d="M86.539,259.09L86.539,259.82C86.321,259.68 86.102,259.574 85.881,259.503C85.663,259.432 85.442,259.396 85.219,259.396C84.88,259.396 84.612,259.476 84.415,259.635C84.218,259.791 84.119,260.004 84.119,260.272C84.119,260.507 84.183,260.686 84.311,260.809C84.442,260.933 84.684,261.036 85.037,261.119L85.415,261.204C85.913,261.321 86.276,261.503 86.504,261.753C86.732,262.002 86.846,262.341 86.846,262.77C86.846,263.276 86.689,263.661 86.376,263.927C86.063,264.193 85.607,264.326 85.009,264.326C84.76,264.326 84.51,264.299 84.258,264.244C84.006,264.192 83.754,264.112 83.5,264.005L83.5,263.24C83.773,263.413 84.03,263.54 84.272,263.621C84.517,263.702 84.762,263.742 85.009,263.742C85.372,263.742 85.654,263.661 85.856,263.5C86.058,263.336 86.159,263.109 86.159,262.817C86.159,262.551 86.089,262.348 85.949,262.208C85.811,262.068 85.57,261.96 85.226,261.884L84.842,261.795C84.348,261.684 83.99,261.515 83.767,261.29C83.544,261.064 83.432,260.762 83.432,260.382C83.432,259.908 83.591,259.528 83.909,259.243C84.23,258.956 84.654,258.813 85.183,258.813C85.387,258.813 85.602,258.836 85.828,258.884C86.053,258.929 86.29,258.998 86.539,259.09L86.539,259.09Z" style="fill-rule:nonzero;"/>
            <path id="path1683" d="M87.49,258.909L91.544,258.909L91.544,259.514L89.882,259.514L89.882,264.223L89.159,264.223L89.159,259.514L87.49,259.514L87.49,258.909Z" style="fill-rule:nonzero;"/>
        </g>
        <g id="text1151-6-2-3-5-6-8" transform="matrix(1,0,0,1,-58.0838,10.4498)">
            <path id="path1652" d="M197.01,264.184C196.827,264.281 196.64,264.353 196.447,264.401C196.255,264.451 196.051,264.475 195.835,264.475C195.154,264.475 194.625,264.235 194.248,263.753C193.873,263.271 193.685,262.594 193.685,261.721C193.685,260.852 193.874,260.176 194.251,259.692C194.631,259.205 195.159,258.962 195.835,258.962C196.051,258.962 196.255,258.987 196.447,259.037C196.64,259.084 196.827,259.157 197.01,259.254L197.01,259.991C196.834,259.846 196.645,259.736 196.444,259.66C196.242,259.584 196.039,259.546 195.835,259.546C195.368,259.546 195.018,259.726 194.785,260.087C194.553,260.448 194.436,260.992 194.436,261.721C194.436,262.447 194.553,262.99 194.785,263.351C195.018,263.711 195.368,263.892 195.835,263.892C196.044,263.892 196.248,263.854 196.447,263.778C196.649,263.702 196.836,263.592 197.01,263.447L197.01,264.184Z" style="fill-rule:nonzero;"/>
            <path id="path1654" d="M200.797,261.721C200.797,260.94 200.716,260.382 200.555,260.048C200.396,259.713 200.133,259.546 199.768,259.546C199.405,259.546 199.143,259.713 198.981,260.048C198.822,260.382 198.743,260.94 198.743,261.721C198.743,262.499 198.822,263.055 198.981,263.39C199.143,263.724 199.405,263.892 199.768,263.892C200.133,263.892 200.396,263.726 200.555,263.393C200.716,263.059 200.797,262.501 200.797,261.721ZM201.548,261.721C201.548,262.646 201.401,263.337 201.106,263.792C200.814,264.248 200.368,264.475 199.768,264.475C199.168,264.475 198.722,264.249 198.43,263.796C198.138,263.342 197.992,262.651 197.992,261.721C197.992,260.793 198.138,260.101 198.43,259.646C198.724,259.19 199.17,258.962 199.768,258.962C200.368,258.962 200.814,259.19 201.106,259.646C201.401,260.101 201.548,260.793 201.548,261.721Z" style="fill-rule:nonzero;"/>
            <path id="path1656" d="M202.455,259.058L203.366,259.058L205.16,263.433L205.16,259.058L205.854,259.058L205.854,264.372L204.943,264.372L203.149,259.998L203.149,264.372L202.455,264.372L202.455,259.058Z" style="fill-rule:nonzero;"/>
            <path id="path1658" d="M206.513,259.058L210.567,259.058L210.567,259.663L208.904,259.663L208.904,264.372L208.182,264.372L208.182,259.663L206.513,259.663L206.513,259.058Z" style="fill-rule:nonzero;"/>
            <path id="path1660" d="M213.435,261.863C213.62,261.91 213.778,262.001 213.909,262.134C214.039,262.264 214.202,262.526 214.396,262.92L215.119,264.372L214.346,264.372L213.713,263.03C213.53,262.648 213.365,262.403 213.218,262.294C213.073,262.182 212.884,262.126 212.649,262.126L211.962,262.126L211.962,264.372L211.239,264.372L211.239,259.058L212.72,259.058C213.304,259.058 213.751,259.19 214.062,259.453C214.373,259.717 214.528,260.098 214.528,260.596C214.528,260.947 214.432,261.234 214.24,261.457C214.05,261.678 213.782,261.813 213.435,261.863L213.435,261.863ZM211.962,259.649L211.962,261.536L212.748,261.536C213.092,261.536 213.349,261.458 213.517,261.304C213.686,261.15 213.77,260.914 213.77,260.596C213.77,260.29 213.68,260.056 213.499,259.895C213.321,259.731 213.062,259.649 212.72,259.649L211.962,259.649Z" style="fill-rule:nonzero;"/>
            <path id="path1662" d="M217.308,259.692L216.55,262.411L218.066,262.411L217.308,259.692ZM216.873,259.058L217.745,259.058L219.372,264.372L218.628,264.372L218.237,262.988L216.375,262.988L215.991,264.372L215.247,264.372L216.873,259.058Z" style="fill-rule:nonzero;"/>
            <path id="path1664" d="M223.102,259.24L223.102,259.97C222.884,259.83 222.664,259.724 222.444,259.653C222.225,259.582 222.005,259.546 221.782,259.546C221.442,259.546 221.174,259.625 220.977,259.784C220.78,259.941 220.682,260.153 220.682,260.422C220.682,260.656 220.746,260.836 220.874,260.959C221.004,261.082 221.246,261.186 221.6,261.269L221.977,261.354C222.476,261.47 222.839,261.653 223.066,261.902C223.294,262.151 223.408,262.491 223.408,262.92C223.408,263.426 223.251,263.811 222.938,264.077C222.625,264.343 222.169,264.475 221.572,264.475C221.322,264.475 221.072,264.448 220.821,264.394C220.569,264.341 220.316,264.262 220.062,264.155L220.062,263.39C220.335,263.563 220.593,263.69 220.835,263.771C221.079,263.851 221.325,263.892 221.572,263.892C221.935,263.892 222.217,263.811 222.419,263.65C222.62,263.486 222.721,263.258 222.721,262.966C222.721,262.701 222.651,262.498 222.511,262.358C222.374,262.218 222.133,262.11 221.789,262.034L221.404,261.945C220.911,261.833 220.552,261.665 220.329,261.439C220.106,261.214 219.995,260.912 219.995,260.532C219.995,260.057 220.154,259.678 220.472,259.393C220.792,259.106 221.217,258.962 221.746,258.962C221.95,258.962 222.165,258.986 222.39,259.033C222.616,259.079 222.853,259.147 223.102,259.24L223.102,259.24Z" style="fill-rule:nonzero;"/>
            <path id="path1666" d="M224.052,259.058L228.106,259.058L228.106,259.663L226.444,259.663L226.444,264.372L225.722,264.372L225.722,259.663L224.052,259.663L224.052,259.058Z" style="fill-rule:nonzero;"/>
        </g>
        <g id="text1151-6-2-3-5-6-3-6" transform="matrix(1,0,0,1,-19.489,11.2452)">
            <path id="path1643" d="M26.171,262.986C26.776,262.986 27.199,262.838 27.438,262.541C27.678,262.242 27.798,261.704 27.798,260.925C27.798,260.14 27.678,259.599 27.438,259.302C27.201,259.003 26.779,258.854 26.171,258.854L25.83,258.854L25.83,262.986L26.171,262.986ZM26.186,258.263C26.997,258.263 27.595,258.479 27.979,258.911C28.364,259.343 28.556,260.014 28.556,260.925C28.556,261.832 28.364,262.501 27.979,262.933C27.595,263.362 26.997,263.577 26.186,263.577L25.107,263.577L25.107,258.263L26.186,258.263Z" style="fill-rule:nonzero;"/>
            <path id="path1645" d="M29.72,258.263L32.67,258.263L32.67,258.868L31.556,258.868L31.556,262.972L32.67,262.972L32.67,263.577L29.72,263.577L29.72,262.972L30.834,262.972L30.834,258.868L29.72,258.868L29.72,258.263Z" style="fill-rule:nonzero;"/>
            <path id="path1647" d="M36.991,258.445L36.991,259.174C36.773,259.034 36.554,258.929 36.333,258.857C36.115,258.786 35.894,258.751 35.671,258.751C35.332,258.751 35.063,258.83 34.866,258.989C34.67,259.146 34.571,259.358 34.571,259.626C34.571,259.861 34.635,260.04 34.763,260.164C34.894,260.287 35.136,260.39 35.489,260.473L35.867,260.559C36.365,260.675 36.728,260.858 36.956,261.107C37.184,261.356 37.297,261.695 37.297,262.125C37.297,262.63 37.141,263.016 36.828,263.281C36.514,263.547 36.059,263.68 35.461,263.68C35.212,263.68 34.961,263.653 34.71,263.598C34.458,263.546 34.206,263.467 33.952,263.36L33.952,262.595C34.225,262.768 34.482,262.895 34.724,262.975C34.969,263.056 35.214,263.096 35.461,263.096C35.824,263.096 36.106,263.016 36.308,262.854C36.51,262.691 36.61,262.463 36.61,262.171C36.61,261.905 36.54,261.702 36.4,261.562C36.263,261.422 36.022,261.314 35.678,261.238L35.294,261.149C34.8,261.038 34.442,260.869 34.219,260.644C33.996,260.419 33.884,260.116 33.884,259.736C33.884,259.262 34.043,258.882 34.361,258.598C34.681,258.31 35.106,258.167 35.635,258.167C35.839,258.167 36.054,258.191 36.279,258.238C36.505,258.283 36.742,258.352 36.991,258.444L36.991,258.445Z" style="fill-rule:nonzero;"/>
            <path id="path1649" d="M37.942,258.263L41.996,258.263L41.996,258.868L40.333,258.868L40.333,263.577L39.611,263.577L39.611,258.868L37.942,258.868L37.942,258.263Z" style="fill-rule:nonzero;"/>
        </g>
        <g id="text1151-6-2-3-5-6-3-1-5" transform="matrix(1,0,0,1,-70.4344,10.235)">
            <path id="path1634" d="M245.562,263.996C246.167,263.996 246.589,263.848 246.829,263.551C247.068,263.252 247.188,262.714 247.188,261.935C247.188,261.15 247.068,260.609 246.829,260.312C246.591,260.013 246.169,259.864 245.562,259.864L245.22,259.864L245.22,263.996L245.562,263.996ZM245.576,259.273C246.387,259.273 246.985,259.489 247.37,259.921C247.754,260.353 247.946,261.024 247.946,261.935C247.946,262.842 247.754,263.511 247.37,263.943C246.985,264.372 246.387,264.587 245.576,264.587L244.497,264.587L244.497,259.273L245.576,259.273Z" style="fill-rule:nonzero;"/>
            <path id="path1636" d="M249.11,259.273L252.061,259.273L252.061,259.878L250.947,259.878L250.947,263.982L252.061,263.982L252.061,264.587L249.11,264.587L249.11,263.982L250.224,263.982L250.224,259.878L249.11,259.878L249.11,259.273Z" style="fill-rule:nonzero;"/>
            <path id="path1638" d="M256.382,259.455L256.382,260.184C256.163,260.044 255.944,259.939 255.723,259.868C255.505,259.796 255.284,259.761 255.061,259.761C254.722,259.761 254.454,259.84 254.257,259.999C254.06,260.156 253.961,260.368 253.961,260.636C253.961,260.871 254.025,261.05 254.153,261.174C254.284,261.297 254.526,261.4 254.88,261.483L255.257,261.569C255.755,261.685 256.118,261.868 256.346,262.117C256.574,262.366 256.688,262.705 256.688,263.135C256.688,263.64 256.531,264.026 256.218,264.292C255.905,264.557 255.449,264.69 254.851,264.69C254.602,264.69 254.352,264.663 254.1,264.608C253.849,264.556 253.596,264.477 253.342,264.37L253.342,263.605C253.615,263.778 253.872,263.905 254.114,263.986C254.359,264.066 254.604,264.107 254.851,264.107C255.214,264.107 255.496,264.026 255.698,263.865C255.9,263.701 256.001,263.473 256.001,263.181C256.001,262.915 255.931,262.713 255.791,262.573C255.653,262.433 255.412,262.325 255.068,262.249L254.684,262.16C254.19,262.048 253.832,261.88 253.609,261.654C253.386,261.429 253.274,261.126 253.274,260.747C253.274,260.272 253.433,259.892 253.751,259.608C254.072,259.321 254.496,259.177 255.025,259.177C255.229,259.177 255.444,259.201 255.67,259.248C255.895,259.293 256.132,259.362 256.381,259.455L256.382,259.455Z" style="fill-rule:nonzero;"/>
            <path id="path1640" d="M257.332,259.273L261.386,259.273L261.386,259.878L259.724,259.878L259.724,264.587L259.001,264.587L259.001,259.878L257.332,259.878L257.332,259.273Z" style="fill-rule:nonzero;"/>
        </g>
        <g id="text1151-6-2-3-5-2-3" transform="matrix(1,0,0,1,-36.8706,13.0057)">
            <path id="path1579" d="M105.219,300.348C105.219,299.567 105.138,299.009 104.977,298.675C104.818,298.34 104.556,298.173 104.19,298.173C103.827,298.173 103.565,298.34 103.404,298.675C103.245,299.009 103.165,299.567 103.165,300.348C103.165,301.126 103.245,301.682 103.404,302.017C103.565,302.351 103.827,302.519 104.19,302.519C104.556,302.519 104.818,302.353 104.977,302.02C105.138,301.686 105.219,301.128 105.219,300.348ZM105.97,300.348C105.97,301.273 105.823,301.964 105.529,302.419C105.237,302.875 104.791,303.102 104.19,303.102C103.59,303.102 103.144,302.876 102.852,302.423C102.56,301.969 102.414,301.278 102.414,300.348C102.414,299.42 102.56,298.728 102.852,298.273C103.146,297.817 103.592,297.589 104.19,297.589C104.791,297.589 105.237,297.817 105.529,298.273C105.823,298.728 105.97,299.42 105.97,300.348Z" style="fill-rule:nonzero;"/>
            <path id="path1581" d="M109.985,297.867L109.985,298.597C109.766,298.457 109.547,298.351 109.326,298.28C109.108,298.209 108.887,298.173 108.664,298.173C108.325,298.173 108.057,298.253 107.86,298.411C107.663,298.568 107.564,298.78 107.564,299.049C107.564,299.283 107.629,299.463 107.757,299.586C107.887,299.709 108.129,299.813 108.483,299.896L108.86,299.981C109.358,300.097 109.721,300.28 109.949,300.529C110.177,300.778 110.291,301.118 110.291,301.547C110.291,302.053 110.134,302.438 109.821,302.704C109.508,302.97 109.052,303.102 108.454,303.102C108.205,303.102 107.955,303.075 107.703,303.021C107.452,302.968 107.199,302.889 106.945,302.782L106.945,302.017C107.218,302.19 107.476,302.317 107.718,302.398C107.962,302.478 108.207,302.519 108.454,302.519C108.817,302.519 109.1,302.438 109.301,302.277C109.503,302.113 109.604,301.885 109.604,301.593C109.604,301.328 109.534,301.125 109.394,300.985C109.256,300.845 109.015,300.737 108.671,300.661L108.287,300.572C107.793,300.46 107.435,300.292 107.212,300.067C106.989,299.841 106.878,299.539 106.878,299.159C106.878,298.684 107.037,298.305 107.354,298.02C107.675,297.733 108.1,297.589 108.629,297.589C108.833,297.589 109.047,297.613 109.273,297.66C109.498,297.706 109.736,297.774 109.985,297.867L109.985,297.867Z" style="fill-rule:nonzero;"/>
            <path id="path1583" d="M114.587,302.811C114.404,302.908 114.217,302.98 114.024,303.028C113.832,303.078 113.628,303.102 113.412,303.102C112.731,303.102 112.202,302.862 111.825,302.38C111.45,301.898 111.262,301.221 111.262,300.348C111.262,299.479 111.451,298.803 111.828,298.319C112.208,297.832 112.736,297.589 113.412,297.589C113.628,297.589 113.832,297.614 114.024,297.664C114.217,297.711 114.404,297.784 114.587,297.881L114.587,298.618C114.411,298.473 114.223,298.363 114.021,298.287C113.819,298.211 113.616,298.173 113.412,298.173C112.945,298.173 112.595,298.353 112.362,298.714C112.13,299.075 112.013,299.619 112.013,300.348C112.013,301.074 112.13,301.617 112.362,301.978C112.595,302.338 112.945,302.519 113.412,302.519C113.621,302.519 113.825,302.481 114.024,302.405C114.226,302.329 114.414,302.219 114.587,302.074L114.587,302.811Z" style="fill-rule:nonzero;"/>
            <rect id="path1585" x="116.893" y="301.914" width="0.897" height="1.086" style="fill-rule:nonzero;"/>
            <path id="path1587" d="M121.73,298.319L120.972,301.038L122.488,301.038L121.73,298.319ZM121.296,297.685L122.168,297.685L123.794,302.999L123.05,302.999L122.659,301.615L120.798,301.615L120.413,302.999L119.669,302.999L121.296,297.685Z" style="fill-rule:nonzero;"/>
        </g>
        <g id="text1151-6-2-3-5-2-3-5" transform="matrix(1,0,0,1,-48.0113,12.8159)">
            <path id="path1568" d="M161.579,300.537C161.579,299.757 161.498,299.199 161.337,298.865C161.178,298.53 160.916,298.363 160.55,298.363C160.187,298.363 159.925,298.53 159.764,298.865C159.605,299.199 159.525,299.757 159.525,300.537C159.525,301.316 159.605,301.872 159.764,302.207C159.925,302.541 160.187,302.709 160.55,302.709C160.916,302.709 161.178,302.542 161.337,302.21C161.498,301.876 161.579,301.318 161.579,300.537ZM162.33,300.537C162.33,301.463 162.183,302.153 161.889,302.609C161.597,303.065 161.151,303.292 160.55,303.292C159.95,303.292 159.504,303.066 159.212,302.612C158.92,302.159 158.774,301.468 158.774,300.537C158.774,299.61 158.92,298.918 159.212,298.462C159.506,298.007 159.952,297.779 160.55,297.779C161.151,297.779 161.597,298.007 161.889,298.462C162.183,298.918 162.33,299.61 162.33,300.537Z" style="fill-rule:nonzero;"/>
            <path id="path1570" d="M166.345,298.057L166.345,298.786C166.126,298.646 165.907,298.541 165.686,298.47C165.468,298.398 165.247,298.363 165.024,298.363C164.685,298.363 164.417,298.442 164.22,298.601C164.023,298.758 163.924,298.97 163.924,299.238C163.924,299.473 163.989,299.652 164.117,299.776C164.247,299.899 164.489,300.002 164.843,300.085L165.22,300.171C165.718,300.287 166.081,300.47 166.309,300.719C166.537,300.968 166.651,301.307 166.651,301.737C166.651,302.242 166.494,302.628 166.181,302.894C165.868,303.159 165.412,303.292 164.814,303.292C164.565,303.292 164.315,303.265 164.063,303.21C163.812,303.158 163.559,303.079 163.305,302.972L163.305,302.207C163.578,302.38 163.835,302.507 164.077,302.588C164.322,302.668 164.567,302.709 164.814,302.709C165.177,302.709 165.46,302.628 165.661,302.467C165.863,302.303 165.964,302.075 165.964,301.783C165.964,301.517 165.894,301.315 165.754,301.175C165.616,301.035 165.375,300.927 165.031,300.851L164.647,300.762C164.153,300.65 163.795,300.482 163.572,300.256C163.349,300.031 163.237,299.728 163.237,299.349C163.237,298.874 163.396,298.495 163.714,298.21C164.035,297.923 164.459,297.779 164.989,297.779C165.193,297.779 165.407,297.803 165.633,297.85C165.858,297.895 166.095,297.964 166.345,298.057L166.345,298.057Z" style="fill-rule:nonzero;"/>
            <path id="path1572" d="M170.947,303C170.764,303.098 170.577,303.17 170.384,303.218C170.192,303.267 169.988,303.292 169.772,303.292C169.091,303.292 168.562,303.051 168.185,302.57C167.81,302.088 167.622,301.411 167.622,300.537C167.622,299.669 167.811,298.993 168.188,298.509C168.568,298.022 169.096,297.779 169.772,297.779C169.988,297.779 170.192,297.804 170.384,297.854C170.577,297.901 170.764,297.974 170.947,298.071L170.947,298.808C170.771,298.663 170.582,298.553 170.381,298.477C170.179,298.401 169.976,298.363 169.772,298.363C169.305,298.363 168.955,298.543 168.722,298.904C168.49,299.265 168.373,299.809 168.373,300.538C168.373,301.264 168.49,301.807 168.722,302.168C168.955,302.528 169.305,302.709 169.772,302.709C169.981,302.709 170.185,302.671 170.384,302.595C170.586,302.519 170.773,302.408 170.947,302.264L170.947,303Z" style="fill-rule:nonzero;"/>
            <rect id="path1574" x="173.253" y="302.104" width="0.897" height="1.086" style="fill-rule:nonzero;"/>
            <path id="path1576" d="M177.211,300.651L177.211,302.598L178.061,302.598C178.479,302.598 178.777,302.526 178.955,302.381C179.133,302.234 179.222,301.993 179.222,301.659C179.222,301.312 179.128,301.058 178.941,300.897C178.753,300.733 178.46,300.651 178.062,300.651L177.211,300.651ZM177.211,298.466L177.211,300.068L178.047,300.068C178.394,300.068 178.644,300.001 178.798,299.868C178.955,299.736 179.033,299.521 179.033,299.224C179.033,298.956 178.956,298.763 178.802,298.644C178.65,298.525 178.398,298.466 178.047,298.466L177.211,298.466ZM176.488,297.875L178.061,297.875C178.605,297.875 179.024,297.993 179.318,298.228C179.612,298.463 179.759,298.795 179.759,299.224C179.759,299.549 179.681,299.805 179.524,299.993C179.37,300.18 179.138,300.298 178.827,300.345C179.176,300.398 179.448,300.547 179.645,300.794C179.845,301.038 179.944,301.35 179.944,301.73C179.944,302.212 179.787,302.576 179.471,302.822C179.155,303.067 178.686,303.189 178.061,303.189L176.488,303.189L176.488,297.875Z" style="fill-rule:nonzero;"/>
        </g>
        <g id="text1151-6-2-3-5-2-3-2" transform="matrix(1,0,0,1,-45.5276,5.49722)">
            <path id="path1561" d="M138.924,338.771L138.924,339.501C138.706,339.361 138.486,339.255 138.266,339.184C138.047,339.113 137.827,339.077 137.604,339.077C137.264,339.077 136.996,339.157 136.799,339.316C136.602,339.472 136.504,339.685 136.504,339.953C136.504,340.188 136.568,340.367 136.696,340.49C136.826,340.614 137.069,340.717 137.422,340.8L137.799,340.885C138.298,341.001 138.661,341.184 138.888,341.433C139.116,341.682 139.23,342.022 139.23,342.451C139.23,342.957 139.074,343.342 138.76,343.608C138.447,343.874 137.992,344.007 137.394,344.007C137.144,344.007 136.894,343.979 136.643,343.925C136.391,343.873 136.138,343.793 135.884,343.686L135.884,342.921C136.157,343.094 136.415,343.221 136.657,343.302C136.901,343.383 137.147,343.423 137.394,343.423C137.757,343.423 138.039,343.342 138.241,343.181C138.442,343.017 138.543,342.789 138.543,342.497C138.543,342.232 138.473,342.029 138.333,341.889C138.196,341.749 137.955,341.641 137.611,341.565L137.226,341.476C136.733,341.365 136.374,341.196 136.151,340.971C135.928,340.745 135.817,340.443 135.817,340.063C135.817,339.588 135.976,339.209 136.294,338.924C136.614,338.637 137.039,338.493 137.568,338.493C137.772,338.493 137.987,338.517 138.212,338.565C138.438,338.61 138.675,338.679 138.924,338.771L138.924,338.771Z" style="fill-rule:nonzero;"/>
            <path id="path1563" d="M140.23,341.864L140.23,338.59L140.953,338.59L140.953,342.191C140.953,342.45 140.96,342.635 140.974,342.747C140.989,342.856 141.014,342.94 141.049,342.999C141.125,343.139 141.234,343.245 141.377,343.316C141.521,343.387 141.696,343.423 141.9,343.423C142.106,343.423 142.281,343.387 142.423,343.316C142.565,343.245 142.676,343.139 142.754,342.999C142.79,342.94 142.814,342.856 142.829,342.747C142.843,342.637 142.85,342.455 142.85,342.199L142.85,338.59L143.569,338.59L143.569,341.864C143.569,342.407 143.535,342.794 143.466,343.024C143.4,343.252 143.283,343.441 143.117,343.59C142.961,343.73 142.781,343.835 142.58,343.903C142.378,343.972 142.151,344.007 141.9,344.007C141.651,344.007 141.425,343.972 141.224,343.903C141.022,343.835 140.842,343.73 140.683,343.59C140.519,343.443 140.403,343.253 140.334,343.021C140.265,342.786 140.231,342.4 140.231,341.864L140.23,341.864Z" style="fill-rule:nonzero;"/>
            <path id="path1565" d="M144.398,338.59L145.359,338.59L146.277,341.294L147.203,338.59L148.167,338.59L148.167,343.903L147.502,343.903L147.502,339.209L146.555,342.01L146.01,342.01L145.06,339.209L145.06,343.903L144.398,343.903L144.398,338.59Z" style="fill-rule:nonzero;"/>
        </g>
        <g id="text996" transform="matrix(0.264583,0,0,0.264583,0.0806147,1.95429)">
            <path id="path1000" d="M310.322,1418.37L310.322,1394.06L307.283,1394.06L307.283,1418.37L310.322,1418.37ZM295.127,1427.49L289.048,1421.41L289.048,1391.02L295.127,1384.94L310.322,1384.94L310.322,1366.71L328.556,1366.71L328.556,1427.49L295.127,1427.49Z" style="fill:rgb(212,215,215);fill-rule:nonzero;"/>
            <path id="path1002" d="M358.947,1391.02L358.947,1378.87L355.908,1378.87L355.908,1391.02L358.947,1391.02ZM334.634,1427.49L334.634,1409.26L331.595,1409.26L331.595,1366.71L377.181,1366.71L383.26,1372.79L383.26,1391.02L377.181,1397.1L383.26,1403.18L383.26,1406.22L381.74,1406.22L381.74,1422.93L380.221,1424.45L380.221,1412.3L377.181,1412.3L377.181,1427.49L375.662,1427.49L375.662,1394.06L372.623,1394.06L372.623,1427.49L371.103,1427.49L371.103,1406.22L368.064,1406.22L368.064,1427.49L366.545,1427.49L366.545,1400.14L363.506,1400.14L363.506,1427.49L361.986,1427.49L361.986,1409.26L358.947,1409.26L358.947,1403.18L355.908,1403.18L355.908,1415.33L358.947,1415.33L358.947,1427.49L357.428,1427.49L357.428,1421.41L354.388,1421.41L354.388,1427.49L352.869,1427.49L352.869,1421.41L349.83,1421.41L349.83,1427.49L348.31,1427.49L348.31,1406.22L345.271,1406.22L345.271,1427.49L343.752,1427.49L343.752,1397.1L340.713,1397.1L340.713,1427.49L339.193,1427.49L339.193,1415.33L336.154,1415.33L336.154,1427.49L334.634,1427.49Z" style="fill:rgb(212,215,215);fill-rule:nonzero;"/>
            <path id="path1004" d="M386.299,1427.49L386.299,1384.94L404.533,1384.94L404.533,1427.49L386.299,1427.49ZM386.299,1381.9L386.299,1366.71L404.533,1366.71L404.533,1381.9L386.299,1381.9Z" style="fill:rgb(212,215,215);fill-rule:nonzero;"/>
            <path id="path1006" d="M407.572,1427.49L407.572,1406.22L413.65,1400.14L428.846,1400.14L428.846,1394.06L425.807,1394.06L425.807,1397.1L407.572,1397.1L407.572,1391.02L413.65,1384.94L447.08,1384.94L447.08,1403.18L441.002,1409.26L425.807,1409.26L425.807,1418.37L428.846,1418.37L428.846,1412.3L447.08,1412.3L447.08,1421.41L441.002,1427.49L407.572,1427.49Z" style="fill:rgb(212,215,215);fill-rule:nonzero;"/>
        </g>
        <path id="path927" d="M14.132,160.843C7.041,155.272 4.23,145.77 7.149,137.238C10.068,128.706 18.112,122.917 27.129,122.858C36.146,122.8 44.265,128.483 47.295,136.977C50.324,145.47 47.637,155.009 40.619,160.671" style="fill:rgb(159,177,188);fill-rule:nonzero;stroke:rgb(212,215,215);stroke-width:1.31px;"/>
        <path id="path927-5" d="M14.267,102.478C7.175,96.908 4.364,87.405 7.283,78.873C10.203,70.341 18.246,64.553 27.264,64.494C36.281,64.435 44.399,70.119 47.429,78.612C50.459,87.106 47.771,96.644 40.753,102.306" style="fill:rgb(159,177,188);fill-rule:nonzero;stroke:rgb(212,215,215);stroke-width:1.31px;"/>
        <path id="path927-9" d="M61.898,192.923C54.807,187.352 51.995,177.85 54.915,169.318C57.834,160.786 65.877,154.997 74.895,154.938C83.912,154.88 92.03,160.563 95.06,169.057C98.09,177.55 95.403,187.089 88.384,192.751" style="fill:rgb(159,177,188);fill-rule:nonzero;stroke:rgb(212,215,215);stroke-width:1.31px;"/>
        <path id="path927-0" d="M155.489,160.864C148.397,155.294 145.586,145.791 148.505,137.259C151.425,128.727 159.468,122.939 168.486,122.88C177.503,122.821 185.621,128.505 188.651,136.998C191.681,145.492 188.993,155.03 181.975,160.692" style="fill:rgb(159,177,188);fill-rule:nonzero;stroke:rgb(212,215,215);stroke-width:1.31px;"/>
        <path id="path927-5-6" d="M155.994,102.783C148.902,97.213 146.091,87.71 149.01,79.178C151.93,70.646 159.973,64.857 168.991,64.799C178.008,64.74 186.126,70.424 189.156,78.917C192.186,87.41 189.498,96.949 182.48,102.611" style="fill:rgb(159,177,188);fill-rule:nonzero;stroke:rgb(212,215,215);stroke-width:1.31px;"/>
        <path id="path927-9-1" d="M151.186,212.478C144.095,206.908 141.284,197.405 144.203,188.873C147.122,180.341 155.166,174.553 164.183,174.494C173.201,174.435 181.319,180.119 184.349,188.612C187.379,197.106 184.691,206.644 177.673,212.306" style="fill:rgb(159,177,188);fill-rule:nonzero;stroke:rgb(212,215,215);stroke-width:1.31px;"/>
        <path id="path927-5-1-9" d="M108.887,192.59C101.796,187.02 98.985,177.517 101.904,168.985C104.823,160.453 112.867,154.664 121.884,154.606C130.901,154.547 139.02,160.231 142.05,168.724C145.079,177.217 142.392,186.756 135.374,192.418" style="fill:rgb(159,177,188);fill-rule:nonzero;stroke:rgb(212,215,215);stroke-width:1.31px;"/>
        <path id="path927-5-4" d="M9.615,55.657C2.524,50.087 -0.288,40.584 2.632,32.052C5.551,23.52 13.595,17.731 22.612,17.673C31.629,17.614 39.747,23.298 42.777,31.791C45.807,40.284 43.12,49.823 36.101,55.485" style="fill:rgb(159,177,188);fill-rule:nonzero;stroke:rgb(212,215,215);stroke-width:1.31px;"/>
        <path id="path927-5-4-3" d="M160.035,55.612C152.943,50.042 150.132,40.539 153.051,32.007C155.971,23.475 164.014,17.686 173.032,17.628C182.049,17.569 190.167,23.253 193.197,31.746C196.227,40.24 193.539,49.778 186.521,55.44" style="fill:rgb(159,177,188);fill-rule:nonzero;stroke:rgb(212,215,215);stroke-width:1.31px;"/>
        <path id="path927-5-4-3-4" d="M54.404,62.162C46.118,55.654 42.834,44.551 46.245,34.583C49.655,24.615 59.053,17.851 69.589,17.783C80.124,17.714 89.609,24.355 93.149,34.278C96.689,44.201 93.549,55.346 85.349,61.961" style="fill:rgb(159,177,188);fill-rule:nonzero;stroke:rgb(212,215,215);stroke-width:1.53px;"/>
        <path id="path927-9-3" d="M108.306,143.074C101.215,137.504 98.403,128.001 101.323,119.469C104.242,110.937 112.286,105.148 121.303,105.09C130.32,105.031 138.438,110.715 141.468,119.208C144.498,127.701 141.811,137.24 134.792,142.902" style="fill:rgb(159,177,188);fill-rule:nonzero;stroke:rgb(212,215,215);stroke-width:1.31px;"/>
        <path id="path927-5-1-2" d="M61.639,143.116C54.548,137.546 51.736,128.043 54.656,119.511C57.575,110.979 65.618,105.191 74.636,105.132C83.653,105.073 91.771,110.757 94.801,119.25C97.831,127.744 95.143,137.282 88.125,142.944" style="fill:rgb(159,177,188);fill-rule:nonzero;stroke:rgb(212,215,215);stroke-width:1.31px;"/>
        <g id="g3348">
            <path id="path927-5-4-3-4-0" d="M109.404,62.162C101.118,55.654 97.834,44.551 101.245,34.583C104.655,24.615 114.053,17.851 124.589,17.783C135.124,17.714 144.609,24.355 148.149,34.278C151.689,44.201 148.549,55.346 140.349,61.961" style="fill:rgb(159,177,188);fill-rule:nonzero;stroke:rgb(212,215,215);stroke-width:1.53px;"/>
        </g>
        <path id="path927-9-1-3" d="M20.105,212.027C13.014,206.456 10.203,196.954 13.122,188.422C16.041,179.89 24.085,174.101 33.102,174.042C42.12,173.984 50.238,179.668 53.268,188.161C56.297,196.654 53.61,206.193 46.592,211.855" style="fill:rgb(159,177,188);fill-rule:nonzero;stroke:rgb(212,215,215);stroke-width:1.31px;"/>
        <g id="text6026-0" transform="matrix(0.923377,0,0,1.08298,0,-742.52)">
            <path id="path6103" d="M24.73,885.408L24.73,887.285L25.513,887.285C25.825,887.285 26.069,887.203 26.243,887.038C26.419,886.873 26.507,886.642 26.507,886.345C26.507,886.048 26.42,885.819 26.246,885.656C26.072,885.491 25.828,885.408 25.513,885.408L24.73,885.408ZM24.054,884.852L25.513,884.852C26.071,884.852 26.494,884.98 26.781,885.234C27.069,885.486 27.213,885.856 27.213,886.345C27.213,886.838 27.069,887.211 26.781,887.463C26.496,887.715 26.073,887.841 25.513,887.841L24.73,887.841L24.73,889.849L24.054,889.849L24.054,884.852Z" style="fill:rgb(212,215,215);fill-rule:nonzero;"/>
            <path id="path6105" d="M29.579,885.448L28.866,888.005L30.292,888.005L29.579,885.448ZM29.171,884.852L29.99,884.852L31.52,889.849L30.82,889.849L30.452,888.547L28.702,888.547L28.341,889.849L27.641,889.849L29.171,884.852Z" style="fill:rgb(212,215,215);fill-rule:nonzero;"/>
            <path id="path6107" d="M32.313,884.852L35.087,884.852L35.087,885.421L34.04,885.421L34.04,889.28L35.087,889.28L35.087,889.849L32.313,889.849L32.313,889.28L33.36,889.28L33.36,885.421L32.313,885.421L32.313,884.852Z" style="fill:rgb(212,215,215);fill-rule:nonzero;"/>
            <path id="path6109" d="M38.306,887.489C38.48,887.534 38.629,887.619 38.751,887.744C38.874,887.866 39.027,888.113 39.21,888.483L39.889,889.849L39.163,889.849L38.567,888.587C38.395,888.228 38.24,887.997 38.102,887.894C37.966,887.79 37.788,887.737 37.567,887.737L36.921,887.737L36.921,889.849L36.241,889.849L36.241,884.853L37.634,884.853C38.182,884.853 38.603,884.976 38.895,885.224C39.187,885.472 39.334,885.83 39.334,886.298C39.334,886.628 39.243,886.898 39.062,887.108C38.884,887.315 38.632,887.443 38.306,887.49L38.306,887.489ZM36.921,885.408L36.921,887.182L37.66,887.182C37.984,887.182 38.225,887.109 38.383,886.964C38.542,886.819 38.621,886.597 38.621,886.298C38.621,886.01 38.536,885.79 38.366,885.639C38.199,885.485 37.955,885.408 37.634,885.408L36.921,885.408Z" style="fill:rgb(212,215,215);fill-rule:nonzero;"/>
            <path id="path6111" d="M44.467,884.852L45.146,884.852L45.146,886.9L46.997,886.9L46.997,884.852L47.676,884.852L47.676,889.849L46.997,889.849L46.997,887.469L45.146,887.469L45.146,889.849L44.467,889.849L44.467,884.852Z" style="fill:rgb(212,215,215);fill-rule:nonzero;"/>
        </g>
        <g id="text6026-5" transform="matrix(1.01556,0,0,0.984678,-28.8872,-627.661)">
            <path id="path6094-9" d="M65.858,955.701C65.858,954.921 65.777,954.363 65.616,954.029C65.457,953.695 65.195,953.528 64.83,953.528C64.467,953.528 64.205,953.695 64.044,954.029C63.885,954.363 63.805,954.921 63.805,955.701C63.805,956.479 63.885,957.035 64.044,957.369C64.205,957.704 64.467,957.871 64.83,957.871C65.195,957.871 65.457,957.705 65.616,957.373C65.777,957.038 65.858,956.481 65.858,955.701ZM66.608,955.701C66.608,956.626 66.461,957.316 66.167,957.771C65.876,958.227 65.43,958.454 64.83,958.454C64.23,958.454 63.784,958.228 63.492,957.775C63.201,957.322 63.055,956.631 63.055,955.701C63.055,954.774 63.201,954.082 63.492,953.627C63.786,953.172 64.232,952.944 64.83,952.944C65.43,952.944 65.876,953.172 66.167,953.627C66.461,954.082 66.608,954.774 66.608,955.701Z" style="fill-rule:nonzero;"/>
            <path id="path6096-2" d="M68.572,957.761C69.177,957.761 69.599,957.612 69.838,957.316C70.078,957.017 70.197,956.479 70.197,955.701C70.197,954.916 70.078,954.375 69.838,954.079C69.601,953.78 69.179,953.631 68.572,953.631L68.23,953.631L68.23,957.761L68.572,957.761ZM68.586,953.04C69.397,953.04 69.995,953.256 70.379,953.688C70.763,954.119 70.955,954.79 70.955,955.701C70.955,956.607 70.763,957.276 70.379,957.707C69.995,958.136 69.397,958.351 68.586,958.351L67.508,958.351L67.508,953.04L68.586,953.04Z" style="fill-rule:nonzero;"/>
            <path id="path6098-0" d="M72.954,957.761C73.559,957.761 73.981,957.612 74.221,957.316C74.46,957.017 74.58,956.479 74.58,955.701C74.58,954.916 74.46,954.375 74.221,954.079C73.983,953.78 73.561,953.631 72.954,953.631L72.613,953.631L72.613,957.761L72.954,957.761ZM72.969,953.04C73.78,953.04 74.377,953.256 74.761,953.688C75.146,954.119 75.338,954.79 75.338,955.701C75.338,956.607 75.146,957.276 74.761,957.707C74.377,958.136 73.78,958.351 72.969,958.351L71.891,958.351L71.891,953.04L72.969,953.04Z" style="fill-rule:nonzero;"/>
            <path id="path6100-0" d="M80.655,953.04L81.377,953.04L81.377,955.217L83.345,955.217L83.345,953.04L84.067,953.04L84.067,958.351L83.345,958.351L83.345,955.822L81.377,955.822L81.377,958.351L80.655,958.351L80.655,953.04Z" style="fill-rule:nonzero;"/>
        </g>
        <g id="text6026-9-9" transform="matrix(1.01556,0,0,0.984678,29.5455,-627.661)">
            <path id="path6085-9" d="M112.402,955.701C112.402,954.921 112.321,954.363 112.16,954.029C112.001,953.695 111.739,953.528 111.374,953.528C111.011,953.528 110.749,953.695 110.587,954.029C110.429,954.363 110.349,954.921 110.349,955.701C110.349,956.479 110.429,957.035 110.587,957.369C110.749,957.704 111.011,957.871 111.374,957.871C111.739,957.871 112.001,957.705 112.16,957.373C112.321,957.038 112.402,956.481 112.402,955.701ZM113.152,955.701C113.152,956.626 113.005,957.316 112.711,957.771C112.419,958.227 111.973,958.454 111.374,958.454C110.774,958.454 110.328,958.228 110.036,957.775C109.744,957.322 109.599,956.631 109.599,955.701C109.599,954.774 109.744,954.082 110.036,953.627C110.33,953.172 110.776,952.944 111.374,952.944C111.973,952.944 112.419,953.172 112.711,953.627C113.005,954.082 113.152,954.774 113.152,955.701Z" style="fill-rule:nonzero;"/>
            <path id="path6087-3" d="M115.116,957.761C115.72,957.761 116.142,957.612 116.382,957.316C116.621,957.017 116.741,956.479 116.741,955.701C116.741,954.916 116.621,954.375 116.382,954.079C116.145,953.78 115.723,953.631 115.116,953.631L114.774,953.631L114.774,957.761L115.116,957.761ZM115.13,953.04C115.941,953.04 116.539,953.256 116.923,953.688C117.307,954.119 117.499,954.79 117.499,955.701C117.499,956.607 117.307,957.276 116.923,957.707C116.539,958.136 115.941,958.351 115.13,958.351L114.052,958.351L114.052,953.04L115.13,953.04Z" style="fill-rule:nonzero;"/>
            <path id="path6089-3" d="M119.498,957.761C120.103,957.761 120.525,957.612 120.764,957.316C121.004,957.017 121.124,956.479 121.124,955.701C121.124,954.916 121.004,954.375 120.764,954.079C120.527,953.78 120.105,953.631 119.498,953.631L119.157,953.631L119.157,957.761L119.498,957.761ZM119.512,953.04C120.323,953.04 120.921,953.256 121.305,953.688C121.689,954.119 121.881,954.79 121.881,955.701C121.881,956.607 121.689,957.276 121.305,957.707C120.921,958.136 120.323,958.351 119.512,958.351L118.435,958.351L118.435,953.04L119.512,953.04Z" style="fill-rule:nonzero;"/>
            <path id="path6091-3" d="M127.199,953.04L127.921,953.04L127.921,955.217L129.888,955.217L129.888,953.04L130.611,953.04L130.611,958.351L129.888,958.351L129.888,955.822L127.921,955.822L127.921,958.351L127.199,958.351L127.199,953.04Z" style="fill-rule:nonzero;"/>
        </g>
        <g id="text6026-0-1-0" transform="matrix(0.923377,0,0,1.08298,16.0611,-647.582)">
            <path id="path6074-6" d="M166.096,885.408L166.096,887.285L166.879,887.285C167.192,887.285 167.435,887.203 167.609,887.038C167.785,886.873 167.873,886.642 167.873,886.345C167.873,886.048 167.786,885.819 167.612,885.656C167.438,885.491 167.194,885.408 166.879,885.408L166.096,885.408ZM165.42,884.852L166.879,884.852C167.437,884.852 167.86,884.98 168.147,885.234C168.435,885.486 168.579,885.856 168.579,886.345C168.579,886.838 168.435,887.211 168.147,887.463C167.862,887.715 167.439,887.841 166.879,887.841L166.096,887.841L166.096,889.849L165.42,889.849L165.42,884.852Z" style="fill-rule:nonzero;"/>
            <path id="path6076-6" d="M170.945,885.448L170.232,888.005L171.658,888.005L170.945,885.448ZM170.537,884.852L171.357,884.852L172.886,889.849L172.187,889.849L171.818,888.547L170.068,888.547L169.707,889.849L169.008,889.849L170.537,884.852Z" style="fill-rule:nonzero;"/>
            <path id="path6078-7" d="M173.679,884.852L176.453,884.852L176.453,885.421L175.406,885.421L175.406,889.28L176.453,889.28L176.453,889.849L173.679,889.849L173.679,889.28L174.726,889.28L174.726,885.421L173.679,885.421L173.679,884.852Z" style="fill-rule:nonzero;"/>
            <path id="path6080-3" d="M179.672,887.489C179.846,887.534 179.995,887.619 180.117,887.744C180.24,887.866 180.393,888.113 180.576,888.483L181.255,889.849L180.529,889.849L179.933,888.587C179.762,888.228 179.607,887.997 179.468,887.894C179.332,887.79 179.154,887.737 178.933,887.737L178.287,887.737L178.287,889.849L177.608,889.849L177.608,884.853L179,884.853C179.549,884.853 179.969,884.976 180.261,885.224C180.554,885.472 180.7,885.83 180.7,886.298C180.7,886.628 180.609,886.898 180.429,887.108C180.25,887.315 179.998,887.443 179.672,887.49L179.672,887.489ZM178.287,885.408L178.287,887.182L179.027,887.182C179.35,887.182 179.591,887.109 179.749,886.964C179.908,886.819 179.987,886.597 179.987,886.298C179.987,886.01 179.902,885.79 179.733,885.639C179.565,885.485 179.321,885.408 179,885.408L178.287,885.408Z" style="fill-rule:nonzero;"/>
            <path id="path6082-7" d="M185.833,884.852L186.512,884.852L186.512,886.9L188.363,886.9L188.363,884.852L189.042,884.852L189.042,889.849L188.363,889.849L188.363,887.469L186.512,887.469L186.512,889.849L185.833,889.849L185.833,884.852Z" style="fill-rule:nonzero;"/>
        </g>
        <g id="text6026-0-0" transform="matrix(0.923377,0,0,1.08298,-18.6874,-647.582)">
            <path id="path6103-7" d="M24.73,885.408L24.73,887.285L25.513,887.285C25.825,887.285 26.069,887.203 26.243,887.038C26.419,886.873 26.507,886.642 26.507,886.345C26.507,886.048 26.42,885.819 26.246,885.656C26.072,885.491 25.828,885.408 25.513,885.408L24.73,885.408ZM24.054,884.852L25.513,884.852C26.071,884.852 26.494,884.98 26.781,885.234C27.069,885.486 27.213,885.856 27.213,886.345C27.213,886.838 27.069,887.211 26.781,887.463C26.496,887.715 26.073,887.841 25.513,887.841L24.73,887.841L24.73,889.849L24.054,889.849L24.054,884.852Z" style="fill-rule:nonzero;"/>
            <path id="path6105-5" d="M29.579,885.448L28.866,888.005L30.292,888.005L29.579,885.448ZM29.171,884.852L29.99,884.852L31.52,889.849L30.82,889.849L30.452,888.547L28.702,888.547L28.341,889.849L27.641,889.849L29.171,884.852Z" style="fill-rule:nonzero;"/>
            <path id="path6107-6" d="M32.313,884.852L35.087,884.852L35.087,885.421L34.04,885.421L34.04,889.28L35.087,889.28L35.087,889.849L32.313,889.849L32.313,889.28L33.36,889.28L33.36,885.421L32.313,885.421L32.313,884.852Z" style="fill-rule:nonzero;"/>
            <path id="path6109-9" d="M38.306,887.489C38.48,887.534 38.629,887.619 38.751,887.744C38.874,887.866 39.027,888.113 39.21,888.483L39.889,889.849L39.163,889.849L38.567,888.587C38.395,888.228 38.24,887.997 38.102,887.894C37.966,887.79 37.788,887.737 37.567,887.737L36.921,887.737L36.921,889.849L36.241,889.849L36.241,884.853L37.634,884.853C38.182,884.853 38.603,884.976 38.895,885.224C39.187,885.472 39.334,885.83 39.334,886.298C39.334,886.628 39.243,886.898 39.062,887.108C38.884,887.315 38.632,887.443 38.306,887.49L38.306,887.489ZM36.921,885.408L36.921,887.182L37.66,887.182C37.984,887.182 38.225,887.109 38.383,886.964C38.542,886.819 38.621,886.597 38.621,886.298C38.621,886.01 38.536,885.79 38.366,885.639C38.199,885.485 37.955,885.408 37.634,885.408L36.921,885.408Z" style="fill-rule:nonzero;"/>
            <path id="path6111-0" d="M44.467,884.852L45.146,884.852L45.146,886.9L46.997,886.9L46.997,884.852L47.676,884.852L47.676,889.849L46.997,889.849L46.997,887.469L45.146,887.469L45.146,889.849L44.467,889.849L44.467,884.852Z" style="fill-rule:nonzero;"/>
        </g>
    </g>
</svg>
