<?xml version="1.0" encoding="UTF-8" standalone="no"?>
<!DOCTYPE svg PUBLIC "-//W3C//DTD SVG 1.1//EN" "http://www.w3.org/Graphics/SVG/1.1/DTD/svg11.dtd">
<svg width="100%" height="100%" viewBox="0 0 255 380" version="1.1" xmlns="http://www.w3.org/2000/svg" xmlns:xlink="http://www.w3.org/1999/xlink" xml:space="preserve" xmlns:serif="http://www.serif.com/" style="fill-rule:evenodd;clip-rule:evenodd;">
    <g id="Layer-4" serif:id="Layer 4">
        <rect id="rect844" x="0.554" y="-0.422" width="255.099" height="380.198" style="fill:white;fill-rule:nonzero;"/>
    </g>
    <g id="Layer-6" serif:id="Layer 6">
        <path id="path1595" d="M28.23,97.695C19.189,93.314 14.298,83.216 16.465,73.406C18.632,63.597 27.321,56.499 37.366,56.334C47.411,56.169 56.329,62.976 58.817,72.71C61.306,82.443 56.75,92.696 47.858,97.372" style="fill:none;fill-rule:nonzero;stroke:black;stroke-width:1.51px;"/>
        <path id="path1595-5" d="M78.23,97.695C69.189,93.314 64.298,83.216 66.465,73.406C68.632,63.597 77.321,56.499 87.366,56.334C97.411,56.169 106.329,62.976 108.817,72.71C111.306,82.443 106.75,92.696 97.858,97.372" style="fill:none;fill-rule:nonzero;stroke:black;stroke-width:1.51px;"/>
        <path id="path1595-5-6" d="M128.23,97.695C119.189,93.314 114.298,83.216 116.465,73.406C118.632,63.597 127.321,56.499 137.366,56.334C147.411,56.169 156.329,62.976 158.817,72.71C161.306,82.443 156.75,92.696 147.858,97.372" style="fill:none;fill-rule:nonzero;stroke:black;stroke-width:1.51px;"/>
        <path id="path1595-2" d="M28.23,157.695C19.189,153.314 14.298,143.216 16.465,133.406C18.632,123.597 27.321,116.499 37.366,116.334C47.411,116.168 56.329,122.976 58.817,132.71C61.306,142.443 56.75,152.696 47.858,157.372" style="fill:none;fill-rule:nonzero;stroke:black;stroke-width:1.51px;"/>
        <path id="path1595-5-2" d="M78.23,157.695C69.189,153.314 64.298,143.216 66.465,133.406C68.632,123.597 77.321,116.499 87.366,116.334C97.411,116.168 106.329,122.976 108.817,132.71C111.306,142.443 106.75,152.696 97.858,157.372" style="fill:none;fill-rule:nonzero;stroke:black;stroke-width:1.51px;"/>
        <path id="path1595-5-6-2" d="M128.23,157.695C119.189,153.314 114.298,143.216 116.465,133.406C118.632,123.597 127.321,116.499 137.366,116.334C147.411,116.168 156.329,122.976 158.817,132.71C161.306,142.443 156.75,152.696 147.858,157.372" style="fill:none;fill-rule:nonzero;stroke:black;stroke-width:1.51px;"/>
        <path id="path1595-58" d="M28.23,217.695C19.189,213.314 14.298,203.216 16.465,193.406C18.632,183.597 27.321,176.499 37.366,176.334C47.411,176.168 56.329,182.976 58.817,192.71C61.306,202.443 56.75,212.696 47.858,217.372" style="fill:none;fill-rule:nonzero;stroke:black;stroke-width:1.51px;"/>
        <path id="path1595-5-61" d="M78.23,217.695C69.189,213.314 64.298,203.216 66.465,193.406C68.632,183.597 77.321,176.499 87.366,176.334C97.411,176.168 106.329,182.976 108.817,192.71C111.306,202.443 106.75,212.696 97.858,217.372" style="fill:none;fill-rule:nonzero;stroke:black;stroke-width:1.51px;"/>
        <path id="path1595-5-6-8" d="M128.23,217.695C119.189,213.314 114.298,203.216 116.465,193.406C118.632,183.597 127.321,176.499 137.366,176.334C147.411,176.168 156.329,182.976 158.817,192.71C161.306,202.443 156.75,212.696 147.858,217.372" style="fill:none;fill-rule:nonzero;stroke:black;stroke-width:1.51px;"/>
        <path id="path1595-2-9" d="M28.23,277.695C19.189,273.314 14.298,263.216 16.465,253.406C18.632,243.597 27.321,236.499 37.366,236.334C47.411,236.168 56.329,242.976 58.817,252.71C61.306,262.443 56.75,272.696 47.858,277.372" style="fill:none;fill-rule:nonzero;stroke:black;stroke-width:1.51px;"/>
        <path id="path1595-5-2-9" d="M78.23,277.695C69.189,273.314 64.298,263.216 66.465,253.406C68.632,243.597 77.321,236.499 87.366,236.334C97.411,236.168 106.329,242.976 108.817,252.71C111.306,262.443 106.75,272.696 97.858,277.372" style="fill:none;fill-rule:nonzero;stroke:black;stroke-width:1.51px;"/>
        <path id="path1595-5-6-2-4" d="M128.23,277.695C119.189,273.314 114.298,263.216 116.465,253.406C118.632,243.597 127.321,236.499 137.366,236.334C147.411,236.168 156.329,242.976 158.817,252.71C161.306,262.443 156.75,272.696 147.858,277.372" style="fill:none;fill-rule:nonzero;stroke:black;stroke-width:1.51px;"/>
        <path id="path1595-5-6-3" d="M187.901,97.081C178.86,92.7 173.969,82.602 176.136,72.793C178.303,62.983 186.992,55.885 197.037,55.72C207.082,55.555 216,62.363 218.488,72.096C220.977,81.829 216.421,92.082 207.529,96.758" style="fill:none;fill-rule:nonzero;stroke:black;stroke-width:1.51px;"/>
        <path id="path1595-5-6-2-9" d="M187.901,157.081C178.86,152.7 173.969,142.602 176.136,132.793C178.303,122.983 186.992,115.885 197.037,115.72C207.082,115.555 216,122.362 218.488,132.096C220.977,141.829 216.421,152.082 207.529,156.758" style="fill:none;fill-rule:nonzero;stroke:black;stroke-width:1.51px;"/>
        <path id="path1595-5-6-8-5" d="M187.901,217.081C178.86,212.7 173.969,202.602 176.136,192.793C178.303,182.983 186.992,175.885 197.037,175.72C207.082,175.555 216,182.362 218.488,192.096C220.977,201.829 216.421,212.082 207.529,216.758" style="fill:none;fill-rule:nonzero;stroke:black;stroke-width:1.51px;"/>
        <path id="path1595-5-6-2-4-3" d="M187.901,277.081C178.86,272.7 173.969,262.602 176.136,252.793C178.303,242.983 186.992,235.885 197.037,235.72C207.082,235.555 216,242.362 218.488,252.096C220.977,261.829 216.421,272.082 207.529,276.758" style="fill:none;fill-rule:nonzero;stroke:black;stroke-width:1.51px;"/>
        <path id="path1702" d="M38.156,79.479L38.156,296.425" style="fill:none;fill-rule:nonzero;stroke:black;stroke-width:2px;"/>
        <path id="path1702-4" d="M88.158,78.263L88.158,295.209" style="fill:none;fill-rule:nonzero;stroke:black;stroke-width:2px;"/>
        <path id="path1702-4-9" d="M138.158,78.263L138.158,295.209" style="fill:none;fill-rule:nonzero;stroke:black;stroke-width:2px;"/>
        <g id="rect1761" transform="matrix(0.857472,0,0,1,15.6251,0)">
            <path d="M17.388,318.396L237.433,318.396C243.925,318.396 249.152,323.057 249.152,328.847L249.152,340.077C249.152,345.867 243.925,350.528 237.433,350.528L17.388,350.528C10.896,350.528 5.669,345.867 5.669,340.077L5.669,328.847C5.669,323.057 10.896,318.396 17.388,318.396Z" style="fill:rgb(182,198,73);fill-rule:nonzero;stroke:rgb(73,73,73);stroke-width:1.2px;"/>
        </g>
        <g id="rect1763" transform="matrix(1,0,0,1,-19.8861,0)">
            <path d="M51.784,318.405L133.82,318.405C140.312,318.405 145.539,323.066 145.539,328.856L145.539,340.114C145.539,345.904 140.312,350.565 133.82,350.565L51.784,350.565C45.291,350.565 40.064,345.904 40.064,340.114L40.064,328.856C40.064,323.066 45.291,318.405 51.784,318.405Z" style="fill:rgb(44,66,81);fill-rule:nonzero;stroke:rgb(73,73,73);stroke-width:1.2px;"/>
        </g>
        <path id="path1595-0" d="M53.491,53.141C44.45,48.759 39.559,38.662 41.726,28.852C43.893,19.042 52.582,11.945 62.627,11.779C72.672,11.614 81.59,18.422 84.079,28.155C86.567,37.889 82.011,48.141 73.119,52.818" style="fill:none;fill-rule:nonzero;stroke:black;stroke-width:1.51px;"/>
        <path id="path1595-5-0" d="M98.083,53.141C89.042,48.759 84.151,38.662 86.318,28.852C88.485,19.042 97.174,11.945 107.219,11.779C117.264,11.614 126.182,18.422 128.67,28.155C131.159,37.889 126.603,48.141 117.711,52.818" style="fill:none;fill-rule:nonzero;stroke:black;stroke-width:1.51px;"/>
        <path id="rect1627" d="M138.443,20.741L236.631,20.741C238.264,20.741 239.58,21.993 239.58,23.549L239.58,42.655C239.58,44.211 238.264,45.463 236.631,45.463L138.443,45.463C136.81,45.463 135.495,44.211 135.495,42.655L135.495,23.549C135.495,21.993 136.81,20.741 138.443,20.741Z" style="fill-rule:nonzero;stroke:rgb(73,73,73);stroke-width:1.38px;"/>
        <path id="path6500" d="M40.085,300.215L140.299,300.215" style="fill:none;fill-rule:nonzero;stroke:black;stroke-width:2.14px;"/>
        <g id="text996" transform="matrix(0.679031,0,0,0.679031,-65.8968,115.48)">
            <path id="path1000" d="M271.966,386.268L271.966,379.474L271.117,379.474L271.117,386.268L271.966,386.268ZM267.72,388.815L266.022,387.117L266.022,378.625L267.72,376.927L271.966,376.927L271.966,371.832L277.061,371.832L277.061,388.815L267.72,388.815Z" style="fill-rule:nonzero;"/>
            <path id="path1002" d="M285.552,378.625L285.552,375.229L284.703,375.229L284.703,378.625L285.552,378.625ZM278.759,388.815L278.759,383.72L277.91,383.72L277.91,371.832L290.647,371.832L292.345,373.531L292.345,378.625L290.647,380.324L292.345,382.022L292.345,382.871L291.92,382.871L291.92,387.541L291.496,387.966L291.496,384.569L290.647,384.569L290.647,388.815L290.222,388.815L290.222,379.475L289.373,379.475L289.373,388.815L288.949,388.815L288.949,382.871L288.099,382.871L288.099,388.815L287.675,388.815L287.675,381.173L286.826,381.173L286.826,388.815L286.401,388.815L286.401,383.72L285.552,383.72L285.552,382.022L284.703,382.022L284.703,385.418L285.552,385.418L285.552,388.815L285.127,388.815L285.127,387.117L284.278,387.117L284.278,388.815L283.854,388.815L283.854,387.117L283.005,387.117L283.005,388.815L282.58,388.815L282.58,382.871L281.731,382.871L281.731,388.815L281.306,388.815L281.306,380.324L280.457,380.324L280.457,388.815L280.033,388.815L280.033,385.418L279.183,385.418L279.183,388.815L278.759,388.815Z" style="fill-rule:nonzero;"/>
            <path id="path1004" d="M293.194,388.815L293.194,376.927L298.289,376.927L298.289,388.815L293.194,388.815ZM293.194,376.078L293.194,371.832L298.289,371.832L298.289,376.078L293.194,376.078Z" style="fill-rule:nonzero;"/>
            <path id="path1006-6" d="M299.138,388.815L299.138,382.871L300.836,381.173L305.082,381.173L305.082,379.474L304.233,379.474L304.233,380.324L299.138,380.324L299.138,378.625L300.836,376.927L310.177,376.927L310.177,382.022L308.479,383.72L304.233,383.72L304.233,386.268L305.082,386.268L305.082,384.569L310.177,384.569L310.177,387.117L308.479,388.815L299.138,388.815Z" style="fill-rule:nonzero;"/>
        </g>
        <g transform="matrix(0.530107,0,0,0.530107,19.3913,21.4342)">
            <g transform="matrix(12,0,0,12,12.302,49.7412)">
                <path d="M0.06,0L0.06,-0.81L0.186,-0.81L0.352,-0.421L0.352,-0.81L0.5,-0.81L0.5,0L0.379,0L0.212,-0.419L0.212,0L0.06,0Z" style="fill-rule:nonzero;"/>
            </g>
            <g transform="matrix(12,0,0,12,19.0168,49.7412)">
                <path d="M0.292,0.011C0.247,0.011 0.209,0.005 0.177,-0.007C0.145,-0.018 0.12,-0.036 0.101,-0.06C0.083,-0.083 0.069,-0.111 0.061,-0.143C0.052,-0.175 0.048,-0.213 0.048,-0.256L0.048,-0.555C0.048,-0.598 0.052,-0.636 0.061,-0.668C0.069,-0.699 0.083,-0.727 0.101,-0.75C0.12,-0.774 0.145,-0.792 0.177,-0.803C0.209,-0.815 0.247,-0.821 0.292,-0.821C0.38,-0.821 0.442,-0.798 0.48,-0.754C0.518,-0.709 0.537,-0.643 0.537,-0.555L0.537,-0.256C0.537,-0.168 0.518,-0.101 0.48,-0.056C0.442,-0.011 0.38,0.011 0.292,0.011ZM0.264,-0.121C0.272,-0.117 0.281,-0.115 0.292,-0.115C0.303,-0.115 0.312,-0.117 0.32,-0.121C0.328,-0.125 0.334,-0.129 0.338,-0.135C0.342,-0.141 0.345,-0.148 0.348,-0.157C0.35,-0.166 0.352,-0.175 0.353,-0.183C0.353,-0.191 0.354,-0.2 0.354,-0.211L0.354,-0.6C0.354,-0.61 0.353,-0.62 0.353,-0.628C0.352,-0.636 0.35,-0.644 0.348,-0.653C0.345,-0.662 0.342,-0.669 0.338,-0.675C0.334,-0.68 0.328,-0.685 0.32,-0.689C0.312,-0.692 0.303,-0.694 0.292,-0.694C0.281,-0.694 0.272,-0.692 0.264,-0.689C0.257,-0.685 0.251,-0.68 0.247,-0.675C0.242,-0.67 0.239,-0.662 0.237,-0.653C0.235,-0.644 0.233,-0.635 0.233,-0.628C0.232,-0.62 0.232,-0.611 0.232,-0.6L0.232,-0.211C0.232,-0.2 0.232,-0.191 0.233,-0.183C0.233,-0.175 0.235,-0.167 0.237,-0.157C0.239,-0.148 0.242,-0.141 0.247,-0.135C0.251,-0.13 0.257,-0.125 0.264,-0.121Z" style="fill-rule:nonzero;"/>
            </g>
            <g transform="matrix(12,0,0,12,26.0363,49.7412)">
                <path d="M0.134,0L0.134,-0.677L0.01,-0.677L0.01,-0.81L0.437,-0.81L0.437,-0.677L0.313,-0.677L0.313,0L0.134,0Z" style="fill-rule:nonzero;"/>
            </g>
            <g transform="matrix(12,0,0,12,31.3918,49.7412)">
                <path d="M0.06,0L0.06,-0.81L0.423,-0.81L0.423,-0.688L0.238,-0.688L0.238,-0.487L0.379,-0.487L0.379,-0.363L0.238,-0.363L0.238,-0.121L0.425,-0.121L0.425,0L0.06,0Z" style="fill-rule:nonzero;"/>
            </g>
            <g transform="matrix(12,0,0,12,9.21994,61.7412)">
                <path d="M0.238,-0.465L0.284,-0.465C0.321,-0.465 0.346,-0.475 0.361,-0.494C0.376,-0.513 0.384,-0.541 0.384,-0.579C0.384,-0.617 0.377,-0.644 0.364,-0.662C0.35,-0.68 0.327,-0.689 0.293,-0.689L0.238,-0.689L0.238,-0.465ZM0.06,0L0.06,-0.81L0.28,-0.81C0.314,-0.81 0.345,-0.808 0.371,-0.804C0.397,-0.8 0.422,-0.793 0.445,-0.783C0.468,-0.773 0.487,-0.761 0.502,-0.745C0.517,-0.729 0.529,-0.708 0.538,-0.683C0.546,-0.658 0.55,-0.629 0.55,-0.595C0.55,-0.542 0.543,-0.5 0.529,-0.467C0.514,-0.435 0.489,-0.41 0.451,-0.392L0.563,0L0.377,0L0.289,-0.362L0.238,-0.362L0.238,0L0.06,0Z" style="fill-rule:nonzero;"/>
            </g>
            <g transform="matrix(12,0,0,12,16.3918,61.7412)">
                <path d="M0.233,-0.279L0.32,-0.279L0.276,-0.592L0.233,-0.279ZM0.021,0L0.174,-0.81L0.376,-0.81L0.529,0L0.364,0L0.336,-0.172L0.218,-0.172L0.19,0L0.021,0Z" style="fill-rule:nonzero;"/>
            </g>
            <g transform="matrix(12,0,0,12,22.9953,61.7412)">
                <path d="M0.06,0L0.06,-0.81L0.186,-0.81L0.352,-0.421L0.352,-0.81L0.5,-0.81L0.5,0L0.379,0L0.212,-0.419L0.212,0L0.06,0Z" style="fill-rule:nonzero;"/>
            </g>
            <g transform="matrix(12,0,0,12,29.7102,61.7412)">
                <path d="M0.271,0.012C0.23,0.012 0.195,0.005 0.166,-0.008C0.137,-0.021 0.114,-0.041 0.097,-0.066C0.08,-0.091 0.067,-0.121 0.06,-0.154C0.052,-0.187 0.048,-0.225 0.048,-0.269L0.048,-0.538C0.048,-0.574 0.051,-0.606 0.056,-0.634C0.061,-0.663 0.069,-0.689 0.081,-0.712C0.092,-0.736 0.107,-0.756 0.126,-0.771C0.145,-0.787 0.168,-0.799 0.195,-0.808C0.223,-0.816 0.255,-0.821 0.292,-0.821C0.327,-0.821 0.358,-0.817 0.385,-0.81C0.412,-0.802 0.434,-0.792 0.452,-0.778C0.47,-0.765 0.485,-0.748 0.497,-0.728C0.508,-0.708 0.516,-0.686 0.521,-0.663C0.526,-0.639 0.528,-0.613 0.528,-0.583L0.528,-0.532L0.354,-0.532L0.354,-0.597C0.354,-0.61 0.353,-0.62 0.353,-0.627C0.352,-0.635 0.351,-0.644 0.349,-0.653C0.347,-0.663 0.344,-0.67 0.34,-0.675C0.336,-0.681 0.33,-0.685 0.322,-0.689C0.314,-0.692 0.305,-0.694 0.294,-0.694C0.283,-0.694 0.273,-0.692 0.265,-0.688C0.257,-0.684 0.251,-0.679 0.247,-0.673C0.242,-0.667 0.239,-0.659 0.237,-0.648C0.234,-0.638 0.233,-0.629 0.232,-0.621C0.232,-0.613 0.231,-0.602 0.231,-0.59L0.231,-0.22C0.231,-0.188 0.236,-0.162 0.246,-0.143C0.255,-0.125 0.273,-0.115 0.298,-0.115C0.345,-0.115 0.369,-0.151 0.369,-0.223L0.369,-0.314L0.295,-0.314L0.295,-0.421L0.53,-0.421L0.53,0L0.412,0L0.401,-0.068C0.378,-0.015 0.334,0.012 0.271,0.012Z" style="fill-rule:nonzero;"/>
            </g>
            <g transform="matrix(12,0,0,12,36.6828,61.7412)">
                <path d="M0.06,0L0.06,-0.81L0.423,-0.81L0.423,-0.688L0.238,-0.688L0.238,-0.487L0.379,-0.487L0.379,-0.363L0.238,-0.363L0.238,-0.121L0.425,-0.121L0.425,0L0.06,0Z" style="fill-rule:nonzero;"/>
            </g>
        </g>
    </g>
    <g id="Layer-7" serif:id="Layer 7">
        <g id="text6330">
            <path id="path6615" d="M229.997,139.254C229.73,139.327 229.369,139.363 228.913,139.363C228.318,139.363 227.851,139.282 227.512,139.121C227.039,138.904 226.625,138.529 226.269,137.995C225.919,137.456 225.635,136.724 225.418,135.802C225.207,134.879 225.102,133.8 225.102,132.566C225.102,130.381 225.413,128.665 226.036,127.42C226.658,126.175 227.47,125.552 228.471,125.552C228.699,125.552 228.913,125.583 229.113,125.644C229.319,125.705 229.613,125.841 229.997,126.052L229.997,128.179C229.58,127.645 229.16,127.378 228.738,127.378C228.193,127.378 227.767,127.79 227.462,128.613C227.156,129.435 227.003,130.659 227.003,132.282C227.003,133.288 227.056,134.178 227.161,134.951C227.267,135.724 227.412,136.305 227.595,136.694C227.734,136.983 227.934,137.239 228.196,137.461L228.196,134.242L227.47,134.242L227.47,132.474L229.997,132.474L229.997,139.254Z" style="fill-rule:nonzero;"/>
            <path id="path6617" d="M232.024,125.552L234.017,125.552L235.451,139.254L233.6,139.254L233.508,136.811L232.491,136.811L232.307,139.254L230.481,139.254L232.024,125.552ZM233.058,127.804L232.908,127.804C232.852,129.705 232.81,130.923 232.782,131.457L232.591,135.034L233.375,135.034L233.25,132.274L233.058,127.804Z" style="fill-rule:nonzero;"/>
            <path id="path6619" d="M234.763,125.66L239.175,125.66L239.175,127.437L237.891,127.437L237.891,139.254L236.056,139.254L236.056,127.437L234.763,127.437L234.763,125.66Z" style="fill-rule:nonzero;"/>
            <path id="path6621" d="M239.821,125.66L242.949,125.66L242.949,127.462L241.656,127.462L241.656,131.748L242.949,131.748L242.949,133.516L241.656,133.516L241.656,137.47L242.949,137.47L242.949,139.254L239.821,139.254L239.821,125.66Z" style="fill-rule:nonzero;"/>
        </g>
        <g id="text6330-6">
            <path id="path6606" d="M229.932,80.117C229.665,80.189 229.304,80.226 228.848,80.226C228.253,80.226 227.786,80.145 227.447,79.984C226.974,79.767 226.56,79.392 226.204,78.858C225.854,78.319 225.571,77.587 225.354,76.664C225.142,75.742 225.037,74.663 225.037,73.429C225.037,71.244 225.348,69.528 225.971,68.283C226.594,67.038 227.405,66.415 228.406,66.415C228.634,66.415 228.848,66.445 229.048,66.507C229.254,66.568 229.549,66.704 229.932,66.915L229.932,69.042C229.515,68.508 229.096,68.241 228.673,68.241C228.128,68.241 227.703,68.653 227.397,69.476C227.091,70.298 226.938,71.522 226.938,73.145C226.938,74.151 226.991,75.041 227.097,75.814C227.202,76.587 227.347,77.168 227.53,77.557C227.669,77.846 227.87,78.102 228.131,78.324L228.131,75.105L227.405,75.105L227.405,73.337L229.932,73.337L229.932,80.117Z" style="fill-rule:nonzero;"/>
            <path id="path6608" d="M231.959,66.415L233.952,66.415L235.386,80.117L233.535,80.117L233.443,77.674L232.426,77.674L232.242,80.117L230.416,80.117L231.959,66.415ZM232.993,68.667L232.843,68.667C232.787,70.568 232.746,71.786 232.718,72.319L232.526,75.897L233.31,75.897L233.185,73.137L232.993,68.667Z" style="fill-rule:nonzero;"/>
            <path id="path6610" d="M234.698,66.523L239.11,66.523L239.11,68.3L237.826,68.3L237.826,80.117L235.991,80.117L235.991,68.3L234.698,68.3L234.698,66.523Z" style="fill-rule:nonzero;"/>
            <path id="path6612" d="M239.757,66.523L242.884,66.523L242.884,68.325L241.591,68.325L241.591,72.611L242.884,72.611L242.884,74.379L241.591,74.379L241.591,78.332L242.884,78.332L242.884,80.117L239.757,80.117L239.757,66.523Z" style="fill-rule:nonzero;"/>
        </g>
        <g id="text6330-4">
            <path id="path6597" d="M229.965,259.163C229.698,259.236 229.336,259.272 228.88,259.272C228.286,259.272 227.819,259.191 227.479,259.03C227.007,258.813 226.593,258.438 226.237,257.904C225.886,257.365 225.603,256.634 225.386,255.711C225.175,254.788 225.069,253.709 225.069,252.475C225.069,250.29 225.381,248.575 226.003,247.329C226.626,246.084 227.438,245.461 228.438,245.461C228.666,245.461 228.88,245.492 229.081,245.553C229.286,245.614 229.581,245.75 229.965,245.961L229.965,248.088C229.548,247.554 229.128,247.287 228.705,247.287C228.16,247.287 227.735,247.699 227.429,248.522C227.124,249.345 226.971,250.568 226.971,252.191C226.971,253.198 227.023,254.087 227.129,254.86C227.235,255.633 227.379,256.214 227.563,256.603C227.702,256.892 227.902,257.148 228.163,257.37L228.163,254.151L227.438,254.151L227.438,252.383L229.965,252.383L229.965,259.163Z" style="fill-rule:nonzero;"/>
            <path id="path6599" d="M231.991,245.461L233.984,245.461L235.419,259.163L233.567,259.163L233.476,256.72L232.458,256.72L232.275,259.163L230.448,259.163L231.991,245.461ZM233.025,247.713L232.875,247.713C232.82,249.614 232.778,250.832 232.75,251.366L232.558,254.943L233.342,254.943L233.217,252.183L233.025,247.713Z" style="fill-rule:nonzero;"/>
            <path id="path6601" d="M234.731,245.569L239.143,245.569L239.143,247.346L237.858,247.346L237.858,259.163L236.023,259.163L236.023,247.346L234.731,247.346L234.731,245.569Z" style="fill-rule:nonzero;"/>
            <path id="path6603" d="M239.789,245.569L242.916,245.569L242.916,247.371L241.624,247.371L241.624,251.658L242.916,251.658L242.916,253.426L241.624,253.426L241.624,257.379L242.916,257.379L242.916,259.163L239.789,259.163L239.789,245.569Z" style="fill-rule:nonzero;"/>
        </g>
        <g id="text6330-6-7">
            <path id="path6588" d="M229.9,200.026C229.633,200.099 229.272,200.135 228.816,200.135C228.221,200.135 227.754,200.054 227.415,199.893C226.942,199.676 226.528,199.301 226.172,198.767C225.822,198.228 225.538,197.496 225.321,196.574C225.11,195.651 225.004,194.572 225.004,193.338C225.004,191.153 225.316,189.437 225.939,188.192C226.561,186.947 227.373,186.324 228.374,186.324C228.602,186.324 228.816,186.355 229.016,186.416C229.222,186.477 229.516,186.613 229.9,186.824L229.9,188.951C229.483,188.417 229.063,188.15 228.641,188.15C228.096,188.15 227.67,188.562 227.365,189.385C227.059,190.207 226.906,191.431 226.906,193.054C226.906,194.06 226.959,194.95 227.064,195.723C227.17,196.496 227.315,197.077 227.498,197.466C227.637,197.755 227.837,198.011 228.099,198.233L228.099,195.014L227.373,195.014L227.373,193.246L229.9,193.246L229.9,200.026Z" style="fill-rule:nonzero;"/>
            <path id="path6590" d="M231.926,186.324L233.92,186.324L235.354,200.026L233.503,200.026L233.411,197.583L232.394,197.583L232.21,200.026L230.384,200.026L231.926,186.324ZM232.961,188.576L232.81,188.576C232.755,190.477 232.713,191.695 232.685,192.229L232.494,195.806L233.278,195.806L233.152,193.046L232.961,188.576Z" style="fill-rule:nonzero;"/>
            <path id="path6592" d="M234.666,186.432L239.078,186.432L239.078,188.209L237.794,188.209L237.794,200.026L235.959,200.026L235.959,188.209L234.666,188.209L234.666,186.432Z" style="fill-rule:nonzero;"/>
            <path id="path6594" d="M239.724,186.432L242.852,186.432L242.852,188.234L241.559,188.234L241.559,192.52L242.852,192.52L242.852,194.288L241.559,194.288L241.559,198.242L242.852,198.242L242.852,200.026L239.724,200.026L239.724,186.432Z" style="fill-rule:nonzero;"/>
        </g>
        <g id="text6330-4-8" transform="matrix(1,0,0,1,-19.8861,0)">
            <path id="path6583" d="M162.452,365.448C162.219,365.643 161.932,365.74 161.593,365.74C160.659,365.74 159.911,365.126 159.35,363.897C158.794,362.669 158.516,360.951 158.516,358.743C158.516,356.275 158.927,354.409 159.75,353.147C160.284,352.336 160.884,351.93 161.551,351.93C161.857,351.93 162.157,352.016 162.452,352.188L162.452,353.915C162.263,353.814 162.082,353.764 161.91,353.764C161.571,353.764 161.282,353.976 161.043,354.398C160.631,355.132 160.426,356.505 160.426,358.518C160.426,360.642 160.562,362.054 160.834,362.755C161.112,363.45 161.479,363.797 161.935,363.797C162.107,363.797 162.28,363.742 162.452,363.63L162.452,365.448Z" style="fill-rule:nonzero;"/>
            <path id="path6585" d="M162.752,352.038L164.629,352.038L165.288,359.886L165.83,352.038L167.698,352.038L166.063,365.74L164.529,365.74L162.752,352.038Z" style="fill-rule:nonzero;"/>
        </g>
        <g id="text6330-4-8-5" transform="matrix(1,0,0,1,-19.8861,0)">
            <path id="path6576" d="M191.428,352.038L192.412,352.038C193.563,352.038 194.458,352.369 195.097,353.031C195.742,353.692 196.065,354.618 196.065,355.808C196.065,356.48 195.934,357.078 195.673,357.601C195.489,357.973 195.203,358.329 194.814,358.668C195.097,358.98 195.306,359.274 195.439,359.552C195.717,360.142 195.937,360.898 196.098,361.821C196.265,362.744 196.407,364.014 196.523,365.632L194.672,365.632C194.594,363.608 194.411,362.124 194.121,361.178C193.905,360.467 193.618,359.966 193.262,359.677L193.262,365.632L191.428,365.632L191.428,352.038ZM193.413,353.99L193.413,357.909C193.707,357.781 193.938,357.545 194.105,357.2C194.277,356.85 194.363,356.433 194.363,355.949C194.363,355.443 194.28,355.024 194.113,354.69C193.946,354.351 193.713,354.117 193.413,353.99Z" style="fill-rule:nonzero;"/>
            <path id="path6578" d="M197.124,352.038L200.251,352.038L200.251,353.839L198.959,353.839L198.959,358.126L200.251,358.126L200.251,359.894L198.959,359.894L198.959,363.847L200.251,363.847L200.251,365.632L197.124,365.632L197.124,352.038Z" style="fill-rule:nonzero;"/>
            <path id="path6580" d="M200.518,352.038L202.395,352.038L203.053,359.886L203.595,352.038L205.464,352.038L203.829,365.74L202.294,365.74L200.518,352.038Z" style="fill-rule:nonzero;"/>
        </g>
        <g id="text6330-4-8-0" transform="matrix(1,0,0,1,-19.8861,0)">
            <path id="path6569" d="M230.948,365.448C230.715,365.643 230.429,365.74 230.089,365.74C229.155,365.74 228.408,365.126 227.846,363.897C227.29,362.669 227.012,360.951 227.012,358.743C227.012,356.275 227.424,354.409 228.246,353.147C228.78,352.336 229.381,351.93 230.048,351.93C230.354,351.93 230.654,352.016 230.948,352.188L230.948,353.915C230.759,353.814 230.579,353.764 230.406,353.764C230.067,353.764 229.778,353.976 229.539,354.398C229.128,355.132 228.922,356.505 228.922,358.518C228.922,360.642 229.058,362.054 229.331,362.755C229.609,363.45 229.975,363.797 230.431,363.797C230.604,363.797 230.776,363.742 230.948,363.63L230.948,365.448Z" style="fill-rule:nonzero;"/>
            <path id="path6571" d="M231.599,352.038L233.434,352.038L233.434,363.822L234.501,363.822L234.501,365.632L231.599,365.632L231.599,352.038Z" style="fill-rule:nonzero;"/>
            <path id="path6573" d="M235.168,352.038L237.003,352.038L237.003,358.034C237.22,357.818 237.37,357.62 237.453,357.442C237.637,357.048 237.773,356.528 237.862,355.883C237.951,355.238 237.996,354.34 237.996,353.189L237.996,352.038L239.839,352.038L239.839,354.106C239.839,355.129 239.711,356.063 239.455,356.909C239.283,357.47 239.021,357.982 238.671,358.443C239.038,358.832 239.324,359.397 239.53,360.136C239.736,360.875 239.839,362.035 239.839,363.614L239.839,365.632L237.996,365.632L237.996,363.897C237.996,362.852 237.946,361.954 237.845,361.204C237.751,360.447 237.612,359.919 237.428,359.619C237.334,359.452 237.192,359.33 237.003,359.252L237.003,365.632L235.168,365.632L235.168,352.038Z" style="fill-rule:nonzero;"/>
        </g>
        <g id="text6330-4-8-5-2" transform="matrix(1,0,0,1,-19.8861,0)">
            <path id="path6560" d="M47.332,359.01C47.332,356.386 47.613,354.482 48.174,353.297C48.608,352.386 49.147,351.93 49.792,351.93C50.093,351.93 50.387,352.041 50.676,352.263C50.965,352.486 51.232,352.886 51.477,353.464C51.722,354.037 51.908,354.807 52.036,355.774C52.164,356.736 52.228,357.765 52.228,358.86C52.228,361.629 51.891,363.586 51.218,364.731C50.824,365.404 50.359,365.74 49.826,365.74C49.075,365.74 48.494,365.207 48.083,364.139C47.582,362.821 47.332,361.112 47.332,359.01ZM49.792,354.023C49.648,354.268 49.539,354.537 49.467,354.832C49.395,355.121 49.342,355.644 49.309,356.4C49.259,357.59 49.234,358.526 49.234,359.21C49.234,360.75 49.295,361.86 49.417,362.538C49.495,362.972 49.62,363.352 49.792,363.68C49.954,363.358 50.068,363.049 50.134,362.755C50.201,362.454 50.245,361.929 50.268,361.178C50.307,359.789 50.326,358.774 50.326,358.134C50.326,356.706 50.268,355.683 50.151,355.065C50.073,354.654 49.954,354.307 49.792,354.023Z" style="fill-rule:nonzero;"/>
            <path id="path6562" d="M53.02,352.038L54.855,352.038L54.855,361.946C54.855,362.774 55.007,363.33 55.313,363.614C55.58,363.258 55.714,362.757 55.714,362.113L55.714,352.038L57.557,352.038L57.557,361.946C57.557,363.191 57.281,364.181 56.731,364.915C56.314,365.465 55.841,365.74 55.313,365.74C54.952,365.74 54.588,365.601 54.221,365.323C53.859,365.04 53.584,364.628 53.395,364.089C53.145,363.355 53.02,362.641 53.02,361.946L53.02,352.038Z" style="fill-rule:nonzero;"/>
            <path id="path6564" d="M58.232,352.038L62.644,352.038L62.644,353.814L61.36,353.814L61.36,365.632L59.525,365.632L59.525,353.814L58.232,353.814L58.232,352.038Z" style="fill-rule:nonzero;"/>
            <path id="path6566" d="M67.331,351.93L69.324,351.93L70.759,365.632L68.907,365.632L68.815,363.188L67.798,363.188L67.614,365.632L65.788,365.632L67.331,351.93ZM68.365,354.181L68.215,354.181C68.159,356.083 68.118,357.3 68.09,357.834L67.898,361.412L68.682,361.412L68.557,358.652L68.365,354.181Z" style="fill-rule:nonzero;"/>
        </g>
        <g id="text6330-4-8-5-2-4" transform="matrix(1,0,0,1,-19.8861,0)">
            <path id="path6551" d="M81.259,359.01C81.259,356.386 81.539,354.482 82.101,353.297C82.535,352.386 83.074,351.93 83.719,351.93C84.019,351.93 84.314,352.041 84.603,352.263C84.892,352.486 85.159,352.886 85.404,353.464C85.648,354.037 85.834,354.807 85.962,355.774C86.09,356.736 86.154,357.765 86.154,358.86C86.154,361.629 85.818,363.586 85.145,364.731C84.75,365.404 84.286,365.74 83.752,365.74C83.002,365.74 82.421,365.207 82.009,364.139C81.509,362.821 81.259,361.112 81.259,359.01ZM83.719,354.023C83.574,354.268 83.466,354.537 83.394,354.832C83.321,355.121 83.269,355.644 83.235,356.4C83.185,357.59 83.16,358.526 83.16,359.21C83.16,360.75 83.221,361.86 83.344,362.538C83.421,362.972 83.547,363.352 83.719,363.68C83.88,363.358 83.994,363.049 84.061,362.755C84.128,362.454 84.172,361.929 84.194,361.178C84.233,359.789 84.253,358.774 84.253,358.134C84.253,356.706 84.194,355.683 84.078,355.065C84,354.654 83.88,354.307 83.719,354.023Z" style="fill-rule:nonzero;"/>
            <path id="path6553" d="M86.946,352.038L88.781,352.038L88.781,361.946C88.781,362.774 88.934,363.33 89.24,363.614C89.507,363.258 89.64,362.757 89.64,362.113L89.64,352.038L91.483,352.038L91.483,361.946C91.483,363.191 91.208,364.181 90.658,364.915C90.241,365.465 89.768,365.74 89.24,365.74C88.878,365.74 88.514,365.601 88.147,365.323C87.786,365.04 87.511,364.628 87.322,364.089C87.071,363.355 86.946,362.641 86.946,361.946L86.946,352.038Z" style="fill-rule:nonzero;"/>
            <path id="path6555" d="M92.159,352.038L96.571,352.038L96.571,353.814L95.286,353.814L95.286,365.632L93.451,365.632L93.451,353.814L92.159,353.814L92.159,352.038Z" style="fill-rule:nonzero;"/>
            <path id="path6557" d="M99.99,352.038L101.149,352.038C102.2,352.038 103.034,352.369 103.651,353.031C104.268,353.687 104.577,354.604 104.577,355.783C104.577,357.028 104.174,358.007 103.367,358.718C103.812,359.035 104.14,359.391 104.352,359.786C104.657,360.347 104.81,361.023 104.81,361.812C104.81,362.596 104.663,363.294 104.368,363.906C104.146,364.362 103.773,364.765 103.251,365.115C102.734,365.46 102.111,365.632 101.383,365.632L99.99,365.632L99.99,352.038ZM101.825,353.99L101.825,357.801C102.431,357.523 102.734,356.892 102.734,355.908C102.734,355.318 102.62,354.835 102.392,354.457C102.225,354.19 102.036,354.034 101.825,353.99ZM101.825,359.777L101.825,363.68C102.13,363.586 102.386,363.38 102.592,363.063C102.798,362.741 102.9,362.321 102.9,361.804C102.9,361.354 102.803,360.948 102.609,360.586C102.419,360.225 102.158,359.955 101.825,359.777Z" style="fill-rule:nonzero;"/>
        </g>
        <g id="text6330-4-8-5-2-4-6" transform="matrix(1,0,0,1,-19.8861,0)">
            <path id="path6542" d="M117.755,359.01C117.755,356.386 118.036,354.482 118.598,353.297C119.031,352.386 119.571,351.93 120.216,351.93C120.516,351.93 120.81,352.041 121.1,352.263C121.389,352.486 121.656,352.886 121.9,353.464C122.145,354.037 122.331,354.807 122.459,355.774C122.587,356.736 122.651,357.765 122.651,358.86C122.651,361.629 122.314,363.586 121.642,364.731C121.247,365.404 120.783,365.74 120.249,365.74C119.498,365.74 118.917,365.207 118.506,364.139C118.005,362.821 117.755,361.112 117.755,359.01ZM120.216,354.023C120.071,354.268 119.963,354.537 119.89,354.832C119.818,355.121 119.765,355.644 119.732,356.4C119.682,357.59 119.657,358.526 119.657,359.21C119.657,360.75 119.718,361.86 119.84,362.538C119.918,362.972 120.043,363.352 120.216,363.68C120.377,363.358 120.491,363.049 120.557,362.755C120.624,362.454 120.669,361.929 120.691,361.178C120.73,359.789 120.749,358.774 120.749,358.134C120.749,356.706 120.691,355.683 120.574,355.065C120.496,354.654 120.377,354.307 120.216,354.023L120.216,354.023Z" style="fill-rule:nonzero;"/>
            <path id="path6544" d="M123.443,352.038L125.278,352.038L125.278,361.946C125.278,362.774 125.431,363.33 125.736,363.614C126.003,363.258 126.137,362.757 126.137,362.113L126.137,352.038L127.98,352.038L127.98,361.946C127.98,363.191 127.705,364.181 127.154,364.915C126.737,365.465 126.265,365.74 125.736,365.74C125.375,365.74 125.011,365.601 124.644,365.323C124.283,365.04 124.007,364.628 123.818,364.089C123.568,363.355 123.443,362.641 123.443,361.946L123.443,352.038Z" style="fill-rule:nonzero;"/>
            <path id="path6546" d="M128.655,352.038L133.067,352.038L133.067,353.814L131.783,353.814L131.783,365.632L129.948,365.632L129.948,353.814L128.655,353.814L128.655,352.038Z" style="fill-rule:nonzero;"/>
            <path id="path6548" d="M140.273,365.448C140.039,365.643 139.753,365.74 139.414,365.74C138.48,365.74 137.732,365.126 137.17,363.897C136.614,362.669 136.336,360.951 136.336,358.743C136.336,356.275 136.748,354.409 137.571,353.147C138.104,352.336 138.705,351.93 139.372,351.93C139.678,351.93 139.978,352.016 140.273,352.188L140.273,353.915C140.084,353.814 139.903,353.764 139.731,353.764C139.391,353.764 139.102,353.976 138.863,354.398C138.452,355.132 138.246,356.505 138.246,358.518C138.246,360.642 138.382,362.054 138.655,362.755C138.933,363.45 139.3,363.797 139.756,363.797C139.928,363.797 140.1,363.742 140.273,363.63L140.273,365.448Z" style="fill-rule:nonzero;"/>
        </g>
        <g id="text6330-4-8-5-0">
            <path id="path6531" d="M215.106,295.473L216.091,295.473C217.241,295.473 218.137,295.804 218.776,296.466C219.421,297.128 219.743,298.053 219.743,299.243C219.743,299.916 219.613,300.513 219.351,301.036C219.168,301.409 218.882,301.764 218.492,302.104C218.776,302.415 218.984,302.71 219.118,302.988C219.396,303.577 219.615,304.333 219.777,305.256C219.944,306.179 220.085,307.449 220.202,309.067L218.351,309.067C218.273,307.044 218.089,305.559 217.8,304.614C217.583,303.902 217.297,303.402 216.941,303.113L216.941,309.067L215.106,309.067L215.106,295.473ZM217.091,297.425L217.091,301.345C217.386,301.217 217.617,300.981 217.784,300.636C217.956,300.286 218.042,299.869 218.042,299.385C218.042,298.879 217.959,298.459 217.792,298.126C217.625,297.786 217.392,297.553 217.091,297.425Z" style="fill-rule:nonzero;"/>
            <path id="path6533" d="M220.803,295.473L223.93,295.473L223.93,297.275L222.637,297.275L222.637,301.562L223.93,301.562L223.93,303.33L222.637,303.33L222.637,307.283L223.93,307.283L223.93,309.067L220.803,309.067L220.803,295.473Z" style="fill-rule:nonzero;"/>
            <path id="path6535" d="M224.305,307.091C224.589,307.213 224.85,307.274 225.089,307.274C225.417,307.274 225.676,307.169 225.865,306.957C226.059,306.746 226.157,306.435 226.157,306.023C226.157,305.695 226.121,305.381 226.048,305.081C225.909,304.486 225.653,303.716 225.281,302.771C224.908,301.82 224.633,300.958 224.455,300.185C224.355,299.746 224.305,299.257 224.305,298.718C224.305,297.55 224.53,296.699 224.981,296.166C225.437,295.632 226.029,295.365 226.757,295.365C227.096,295.365 227.485,295.435 227.925,295.574L227.925,297.383C227.669,297.261 227.435,297.2 227.224,297.2C226.913,297.2 226.649,297.328 226.432,297.583C226.215,297.839 226.107,298.212 226.107,298.701C226.107,299.023 226.143,299.34 226.215,299.652C226.354,300.235 226.588,300.961 226.916,301.828C227.327,302.913 227.627,303.883 227.816,304.739C227.911,305.173 227.958,305.637 227.958,306.132C227.958,307.11 227.719,307.864 227.241,308.392C226.768,308.914 226.176,309.176 225.464,309.176C225.153,309.176 224.767,309.103 224.305,308.959L224.305,307.091Z" style="fill-rule:nonzero;"/>
            <path id="path6537" d="M228.642,295.473L231.769,295.473L231.769,297.275L230.477,297.275L230.477,301.562L231.769,301.562L231.769,303.33L230.477,303.33L230.477,307.283L231.769,307.283L231.769,309.067L228.642,309.067L228.642,295.473Z" style="fill-rule:nonzero;"/>
            <path id="path6539" d="M232.128,295.473L236.54,295.473L236.54,297.25L235.255,297.25L235.255,309.067L233.421,309.067L233.421,297.25L232.128,297.25L232.128,295.473Z" style="fill-rule:nonzero;"/>
        </g>
        <g id="text6330-4-8-5-0-2">
            <path id="path6520" d="M157.062,309.067C156.795,309.14 156.434,309.176 155.978,309.176C155.383,309.176 154.916,309.095 154.577,308.934C154.104,308.717 153.69,308.342 153.334,307.808C152.984,307.269 152.7,306.538 152.483,305.615C152.272,304.692 152.166,303.613 152.166,302.379C152.166,300.194 152.478,298.479 153.1,297.233C153.723,295.988 154.535,295.365 155.536,295.365C155.764,295.365 155.978,295.396 156.178,295.457C156.384,295.518 156.678,295.654 157.062,295.865L157.062,297.992C156.645,297.458 156.225,297.191 155.803,297.191C155.258,297.191 154.832,297.603 154.527,298.426C154.221,299.249 154.068,300.472 154.068,302.095C154.068,303.102 154.121,303.991 154.226,304.764C154.332,305.537 154.477,306.118 154.66,306.507C154.799,306.796 154.999,307.052 155.26,307.274L155.26,304.055L154.535,304.055L154.535,302.287L157.062,302.287L157.062,309.067Z" style="fill-rule:nonzero;"/>
            <path id="path6522" d="M157.821,295.473L159.656,295.473L159.656,307.258L160.723,307.258L160.723,309.067L157.821,309.067L157.821,295.473Z" style="fill-rule:nonzero;"/>
            <rect id="path6524" x="161.349" y="295.473" width="1.835" height="13.594" style="fill-rule:nonzero;"/>
            <path id="path6526" d="M164.059,295.473L164.601,295.473C165.29,295.473 165.883,295.596 166.377,295.84C166.872,296.085 167.3,296.491 167.662,297.058C168.023,297.62 168.307,298.328 168.512,299.185C168.718,300.035 168.821,301.05 168.821,302.229C168.821,303.435 168.715,304.511 168.504,305.456C168.293,306.396 167.984,307.155 167.578,307.733C167.278,308.161 166.956,308.472 166.611,308.667C166.144,308.934 165.577,309.067 164.91,309.067L164.059,309.067L164.059,295.473ZM165.894,297.75L165.894,306.849C166.094,306.699 166.238,306.546 166.327,306.39C166.511,306.068 166.653,305.62 166.753,305.048C166.853,304.469 166.903,303.53 166.903,302.229C166.903,301.161 166.847,300.261 166.736,299.527C166.658,298.993 166.528,298.565 166.344,298.242C166.25,298.07 166.099,297.906 165.894,297.75Z" style="fill-rule:nonzero;"/>
            <path id="path6528" d="M169.555,295.473L172.682,295.473L172.682,297.275L171.39,297.275L171.39,301.562L172.682,301.562L172.682,303.33L171.39,303.33L171.39,307.283L172.682,307.283L172.682,309.067L169.555,309.067L169.555,295.473Z" style="fill-rule:nonzero;"/>
        </g>
    </g>
</svg>
