<?xml version="1.0" encoding="UTF-8" standalone="no"?>
<!DOCTYPE svg PUBLIC "-//W3C//DTD SVG 1.1//EN" "http://www.w3.org/Graphics/SVG/1.1/DTD/svg11.dtd">
<svg width="100%" height="100%" viewBox="0 0 120 380" version="1.1" xmlns="http://www.w3.org/2000/svg" xmlns:xlink="http://www.w3.org/1999/xlink" xml:space="preserve" xmlns:serif="http://www.serif.com/" style="fill-rule:evenodd;clip-rule:evenodd;stroke-linejoin:round;">
    <g id="Layer-4" serif:id="Layer 4">
        <rect id="rect844" x="-0.099" y="-0.099" width="120.099" height="380.198" style="fill:rgb(62,98,132);stroke:black;stroke-width:1.57px;"/>
        <g id="text996" transform="matrix(0.868148,0,0,0.868148,-24.5614,52.034)">
            <path id="path1000" d="M82.106,375.278L82.106,368.845L81.302,368.845L81.302,375.278L82.106,375.278ZM78.086,377.69L76.477,376.082L76.477,368.041L78.086,366.433L82.106,366.433L82.106,361.608L86.931,361.608L86.931,377.69L78.086,377.69Z" style="fill:white;fill-rule:nonzero;"/>
            <path id="path1002" d="M94.971,368.041L94.971,364.825L94.167,364.825L94.167,368.041L94.971,368.041ZM88.539,377.69L88.539,372.866L87.735,372.866L87.735,361.608L99.796,361.608L101.404,363.216L101.404,368.041L99.796,369.649L101.404,371.257L101.404,372.061L101.002,372.061L101.002,376.484L100.6,376.886L100.6,373.67L99.796,373.67L99.796,377.69L99.394,377.69L99.394,368.845L98.59,368.845L98.59,377.69L98.188,377.69L98.188,372.061L97.384,372.061L97.384,377.69L96.982,377.69L96.982,370.453L96.178,370.453L96.178,377.69L95.775,377.69L95.775,372.866L94.971,372.866L94.971,371.257L94.167,371.257L94.167,374.474L94.971,374.474L94.971,377.69L94.569,377.69L94.569,376.082L93.765,376.082L93.765,377.69L93.363,377.69L93.363,376.082L92.559,376.082L92.559,377.69L92.157,377.69L92.157,372.061L91.353,372.061L91.353,377.69L90.951,377.69L90.951,369.649L90.147,369.649L90.147,377.69L89.745,377.69L89.745,374.474L88.941,374.474L88.941,377.69L88.539,377.69Z" style="fill:white;fill-rule:nonzero;"/>
            <path id="path1004" d="M102.208,377.69L102.208,366.433L107.033,366.433L107.033,377.69L102.208,377.69ZM102.208,365.629L102.208,361.608L107.033,361.608L107.033,365.629L102.208,365.629Z" style="fill:white;fill-rule:nonzero;"/>
            <path id="path1006" d="M107.837,377.69L107.837,372.061L109.445,370.453L113.465,370.453L113.465,368.845L112.661,368.845L112.661,369.649L107.837,369.649L107.837,368.041L109.445,366.433L118.29,366.433L118.29,371.257L116.682,372.866L112.661,372.866L112.661,375.278L113.465,375.278L113.465,373.67L118.29,373.67L118.29,376.082L116.682,377.69L107.837,377.69Z" style="fill:white;fill-rule:nonzero;"/>
        </g>
    </g>
    <g id="Layer-6" serif:id="Layer 6">
        <path id="rect1682" d="M114.34,268.402C114.34,266.716 112.971,265.347 111.285,265.347L8.38,265.347C6.694,265.347 5.325,266.716 5.325,268.402L5.325,290.799C5.325,292.485 6.694,293.854 8.38,293.854L111.285,293.854C112.971,293.854 114.34,292.485 114.34,290.799L114.34,268.402Z" style="stroke:white;stroke-width:1.75px;"/>
        <g id="text1686">
            <path id="path1962" d="M14.054,55.079C14.054,54.385 13.983,53.889 13.839,53.591C13.698,53.294 13.465,53.145 13.14,53.145C12.817,53.145 12.584,53.294 12.44,53.591C12.299,53.889 12.228,54.385 12.228,55.079C12.228,55.771 12.299,56.266 12.44,56.564C12.584,56.861 12.817,57.01 13.14,57.01C13.465,57.01 13.698,56.863 13.839,56.567C13.983,56.269 14.054,55.774 14.054,55.079ZM14.722,55.079C14.722,55.902 14.592,56.516 14.33,56.922C14.07,57.327 13.674,57.529 13.14,57.529C12.606,57.529 12.209,57.328 11.949,56.925C11.69,56.522 11.56,55.906 11.56,55.079C11.56,54.254 11.69,53.639 11.949,53.234C12.211,52.828 12.608,52.626 13.14,52.626C13.674,52.626 14.07,52.828 14.33,53.234C14.592,53.639 14.722,54.254 14.722,55.079Z" style="fill:white;fill-rule:nonzero;stroke:white;stroke-width:0.16px;stroke-linejoin:miter;"/>
            <path id="path1964" d="M18.486,57.27C18.324,57.356 18.157,57.421 17.986,57.463C17.815,57.507 17.634,57.529 17.442,57.529C16.836,57.529 16.365,57.315 16.03,56.887C15.696,56.458 15.53,55.856 15.53,55.079C15.53,54.307 15.697,53.705 16.033,53.275C16.371,52.842 16.84,52.626 17.442,52.626C17.634,52.626 17.815,52.648 17.986,52.692C18.157,52.735 18.324,52.799 18.486,52.885L18.486,53.541C18.33,53.412 18.162,53.314 17.983,53.246C17.804,53.179 17.623,53.145 17.442,53.145C17.026,53.145 16.715,53.305 16.508,53.626C16.301,53.947 16.198,54.431 16.198,55.079C16.198,55.725 16.301,56.208 16.508,56.529C16.715,56.85 17.026,57.01 17.442,57.01C17.627,57.01 17.809,56.976 17.986,56.909C18.166,56.841 18.332,56.743 18.486,56.615L18.486,57.27Z" style="fill:white;fill-rule:nonzero;stroke:white;stroke-width:0.16px;stroke-linejoin:miter;"/>
            <path id="path1966" d="M19.139,52.711L22.744,52.711L22.744,53.249L21.266,53.249L21.266,57.438L20.623,57.438L20.623,53.249L19.139,53.249L19.139,52.711Z" style="fill:white;fill-rule:nonzero;stroke:white;stroke-width:0.16px;stroke-linejoin:miter;"/>
            <path id="path1968" d="M24.84,53.275L24.166,55.693L25.514,55.693L24.84,53.275ZM24.454,52.711L25.229,52.711L26.676,57.438L26.014,57.438L25.666,56.206L24.01,56.206L23.669,57.438L23.007,57.438L24.454,52.711Z" style="fill:white;fill-rule:nonzero;stroke:white;stroke-width:0.16px;stroke-linejoin:miter;"/>
            <path id="path1970" d="M28.74,56.899L29.851,52.711L30.513,52.711L29.129,57.438L28.354,57.438L26.97,52.711L27.632,52.711L28.74,56.899Z" style="fill:white;fill-rule:nonzero;stroke:white;stroke-width:0.16px;stroke-linejoin:miter;"/>
            <path id="path1972" d="M31.314,52.711L34.118,52.711L34.118,53.249L31.953,53.249L31.953,54.649L34.023,54.649L34.023,55.187L31.953,55.187L31.953,56.899L34.179,56.899L34.179,57.438L31.314,57.438L31.314,52.711Z" style="fill:white;fill-rule:nonzero;stroke:white;stroke-width:0.16px;stroke-linejoin:miter;"/>
        </g>
        <g id="text1686-1">
            <path id="path1949" d="M17.52,92.73L17.52,93.321C17.343,93.207 17.166,93.122 16.987,93.064C16.811,93.007 16.632,92.978 16.452,92.978C16.177,92.978 15.96,93.042 15.801,93.171C15.641,93.298 15.562,93.47 15.562,93.686C15.562,93.877 15.614,94.021 15.717,94.121C15.823,94.221 16.019,94.305 16.305,94.372L16.61,94.441C17.013,94.535 17.307,94.683 17.491,94.884C17.675,95.086 17.768,95.361 17.768,95.708C17.768,96.117 17.641,96.429 17.387,96.644C17.134,96.859 16.765,96.966 16.282,96.966C16.08,96.966 15.878,96.944 15.674,96.9C15.471,96.858 15.266,96.794 15.061,96.707L15.061,96.088C15.281,96.228 15.49,96.331 15.686,96.396C15.883,96.462 16.082,96.494 16.282,96.494C16.575,96.494 16.804,96.429 16.967,96.298C17.13,96.166 17.212,95.982 17.212,95.745C17.212,95.53 17.155,95.366 17.042,95.253C16.931,95.14 16.736,95.052 16.457,94.991L16.146,94.919C15.747,94.829 15.457,94.692 15.277,94.51C15.096,94.328 15.006,94.083 15.006,93.776C15.006,93.392 15.135,93.085 15.392,92.854C15.651,92.622 15.995,92.506 16.423,92.506C16.588,92.506 16.762,92.525 16.944,92.563C17.126,92.6 17.318,92.656 17.52,92.73Z" style="fill:white;fill-rule:nonzero;stroke:white;stroke-width:0.15px;stroke-linejoin:miter;"/>
            <path id="path1951" d="M18.721,92.584L21.272,92.584L21.272,93.073L19.302,93.073L19.302,94.346L21.186,94.346L21.186,94.835L19.302,94.835L19.302,96.393L21.327,96.393L21.327,96.883L18.721,96.883L18.721,92.584Z" style="fill:white;fill-rule:nonzero;stroke:white;stroke-width:0.15px;stroke-linejoin:miter;"/>
            <path id="path1953" d="M21.949,92.584L22.726,92.584L23.469,94.772L24.218,92.584L24.998,92.584L24.998,96.883L24.46,96.883L24.46,93.085L23.694,95.351L23.253,95.351L22.484,93.085L22.484,96.883L21.949,96.883L21.949,92.584Z" style="fill:white;fill-rule:nonzero;stroke:white;stroke-width:0.15px;stroke-linejoin:miter;"/>
            <path id="path1955" d="M25.828,92.584L28.215,92.584L28.215,93.073L27.314,93.073L27.314,96.393L28.215,96.393L28.215,96.883L25.828,96.883L25.828,96.393L26.729,96.393L26.729,93.073L25.828,93.073L25.828,92.584Z" style="fill:white;fill-rule:nonzero;stroke:white;stroke-width:0.15px;stroke-linejoin:miter;"/>
            <path id="path1957" d="M28.932,92.584L32.212,92.584L32.212,93.073L30.867,93.073L30.867,96.883L30.282,96.883L30.282,93.073L28.932,93.073L28.932,92.584Z" style="fill:white;fill-rule:nonzero;stroke:white;stroke-width:0.15px;stroke-linejoin:miter;"/>
            <rect id="path1959" x="33.752" y="96.005" width="0.726" height="0.878" style="fill:white;fill-rule:nonzero;stroke:white;stroke-width:0.15px;stroke-linejoin:miter;"/>
        </g>
        <g id="text1686-5">
            <path id="path1940" d="M15.376,133.065L18.289,133.065L18.289,133.629L16.049,133.629L16.049,135.087L18.081,135.087L18.081,135.651L16.049,135.651L16.049,138.014L15.376,138.014L15.376,133.065Z" style="fill:white;fill-rule:nonzero;stroke:white;stroke-width:0.17px;stroke-linejoin:miter;"/>
            <path id="path1942" d="M19.354,133.065L22.102,133.065L22.102,133.629L21.064,133.629L21.064,137.451L22.102,137.451L22.102,138.014L19.354,138.014L19.354,137.451L20.391,137.451L20.391,133.629L19.354,133.629L19.354,133.065Z" style="fill:white;fill-rule:nonzero;stroke:white;stroke-width:0.17px;stroke-linejoin:miter;"/>
            <path id="path1944" d="M23.232,133.065L24.081,133.065L25.751,137.139L25.751,133.065L26.398,133.065L26.398,138.014L25.549,138.014L23.878,133.94L23.878,138.014L23.232,138.014L23.232,133.065Z" style="fill:white;fill-rule:nonzero;stroke:white;stroke-width:0.17px;stroke-linejoin:miter;"/>
            <path id="path1946" d="M27.508,133.065L30.445,133.065L30.445,133.629L28.178,133.629L28.178,135.094L30.346,135.094L30.346,135.658L28.178,135.658L28.178,137.451L30.508,137.451L30.508,138.014L27.508,138.014L27.508,133.065Z" style="fill:white;fill-rule:nonzero;stroke:white;stroke-width:0.17px;stroke-linejoin:miter;"/>
        </g>
        <g id="text1686-78">
            <path id="path1927" d="M49.657,55.32C49.657,54.625 49.585,54.129 49.441,53.832C49.3,53.534 49.067,53.385 48.742,53.385C48.419,53.385 48.186,53.534 48.042,53.832C47.901,54.129 47.83,54.625 47.83,55.32C47.83,56.012 47.901,56.507 48.042,56.804C48.186,57.102 48.419,57.251 48.742,57.251C49.067,57.251 49.3,57.103 49.441,56.807C49.585,56.51 49.657,56.014 49.657,55.32ZM50.325,55.32C50.325,56.143 50.194,56.757 49.932,57.162C49.673,57.567 49.276,57.77 48.742,57.77C48.208,57.77 47.811,57.568 47.552,57.165C47.292,56.762 47.162,56.147 47.162,55.32C47.162,54.494 47.292,53.879 47.552,53.474C47.813,53.069 48.21,52.866 48.742,52.866C49.276,52.866 49.673,53.069 49.932,53.474C50.194,53.879 50.325,54.494 50.325,55.32Z" style="fill:white;fill-rule:nonzero;stroke:white;stroke-width:0.16px;stroke-linejoin:miter;"/>
            <path id="path1929" d="M54.089,57.51C53.926,57.597 53.759,57.661 53.588,57.703C53.417,57.748 53.236,57.77 53.044,57.77C52.438,57.77 51.968,57.556 51.632,57.127C51.299,56.699 51.132,56.096 51.132,55.32C51.132,54.547 51.3,53.946 51.635,53.515C51.973,53.082 52.442,52.866 53.044,52.866C53.236,52.866 53.417,52.888 53.588,52.933C53.759,52.975 53.926,53.039 54.089,53.126L54.089,53.781C53.932,53.652 53.765,53.554 53.585,53.487C53.406,53.419 53.225,53.385 53.044,53.385C52.628,53.385 52.317,53.546 52.11,53.867C51.903,54.187 51.8,54.672 51.8,55.32C51.8,55.965 51.903,56.449 52.11,56.769C52.317,57.09 52.628,57.251 53.044,57.251C53.23,57.251 53.411,57.217 53.588,57.149C53.768,57.082 53.935,56.984 54.089,56.855L54.089,57.51Z" style="fill:white;fill-rule:nonzero;stroke:white;stroke-width:0.16px;stroke-linejoin:miter;"/>
            <path id="path1931" d="M54.741,52.952L58.346,52.952L58.346,53.49L56.868,53.49L56.868,57.678L56.225,57.678L56.225,53.49L54.741,53.49L54.741,52.952Z" style="fill:white;fill-rule:nonzero;stroke:white;stroke-width:0.16px;stroke-linejoin:miter;"/>
            <path id="path1933" d="M60.442,53.515L59.768,55.934L61.116,55.934L60.442,53.515ZM60.056,52.952L60.831,52.952L62.278,57.678L61.617,57.678L61.268,56.447L59.613,56.447L59.271,57.678L58.609,57.678L60.056,52.952Z" style="fill:white;fill-rule:nonzero;stroke:white;stroke-width:0.16px;stroke-linejoin:miter;"/>
            <path id="path1935" d="M64.342,57.14L65.453,52.952L66.115,52.952L64.732,57.678L63.956,57.678L62.573,52.952L63.234,52.952L64.342,57.14Z" style="fill:white;fill-rule:nonzero;stroke:white;stroke-width:0.16px;stroke-linejoin:miter;"/>
            <path id="path1937" d="M66.916,52.952L69.721,52.952L69.721,53.49L67.555,53.49L67.555,54.889L69.626,54.889L69.626,55.427L67.555,55.427L67.555,57.14L69.781,57.14L69.781,57.678L66.916,57.678L66.916,52.952Z" style="fill:white;fill-rule:nonzero;stroke:white;stroke-width:0.16px;stroke-linejoin:miter;"/>
        </g>
        <g id="text1686-1-9">
            <path id="path1914" d="M53.122,92.971L53.122,93.561C52.945,93.448 52.768,93.362 52.589,93.305C52.413,93.247 52.234,93.218 52.054,93.218C51.779,93.218 51.562,93.283 51.403,93.411C51.244,93.538 51.164,93.71 51.164,93.927C51.164,94.117 51.216,94.262 51.319,94.362C51.425,94.461 51.621,94.545 51.907,94.612L52.212,94.681C52.615,94.775 52.909,94.923 53.093,95.125C53.278,95.326 53.37,95.601 53.37,95.948C53.37,96.357 53.243,96.669 52.99,96.884C52.736,97.099 52.368,97.207 51.884,97.207C51.682,97.207 51.48,97.185 51.276,97.14C51.073,97.098 50.868,97.034 50.663,96.948L50.663,96.328C50.884,96.469 51.092,96.571 51.288,96.637C51.485,96.702 51.684,96.734 51.884,96.734C52.178,96.734 52.406,96.669 52.569,96.539C52.732,96.406 52.814,96.222 52.814,95.986C52.814,95.771 52.757,95.607 52.644,95.493C52.533,95.38 52.338,95.293 52.059,95.231L51.748,95.159C51.349,95.069 51.059,94.933 50.879,94.75C50.698,94.568 50.608,94.323 50.608,94.016C50.608,93.632 50.737,93.325 50.994,93.095C51.253,92.862 51.597,92.746 52.025,92.746C52.19,92.746 52.364,92.765 52.546,92.804C52.729,92.84 52.921,92.896 53.122,92.971Z" style="fill:white;fill-rule:nonzero;stroke:white;stroke-width:0.15px;stroke-linejoin:miter;"/>
            <path id="path1916" d="M54.323,92.824L56.874,92.824L56.874,93.313L54.905,93.313L54.905,94.586L56.788,94.586L56.788,95.076L54.905,95.076L54.905,96.634L56.929,96.634L56.929,97.123L54.323,97.123L54.323,92.824Z" style="fill:white;fill-rule:nonzero;stroke:white;stroke-width:0.15px;stroke-linejoin:miter;"/>
            <path id="path1918" d="M57.551,92.824L58.328,92.824L59.071,95.012L59.82,92.824L60.601,92.824L60.601,97.123L60.062,97.123L60.062,93.325L59.296,95.591L58.855,95.591L58.087,93.325L58.087,97.123L57.551,97.123L57.551,92.824Z" style="fill:white;fill-rule:nonzero;stroke:white;stroke-width:0.15px;stroke-linejoin:miter;"/>
            <path id="path1920" d="M61.43,92.824L63.817,92.824L63.817,93.313L62.916,93.313L62.916,96.634L63.817,96.634L63.817,97.123L61.43,97.123L61.43,96.634L62.331,96.634L62.331,93.313L61.43,93.313L61.43,92.824Z" style="fill:white;fill-rule:nonzero;stroke:white;stroke-width:0.15px;stroke-linejoin:miter;"/>
            <path id="path1922" d="M64.534,92.824L67.814,92.824L67.814,93.313L66.469,93.313L66.469,97.123L65.885,97.123L65.885,93.313L64.534,93.313L64.534,92.824Z" style="fill:white;fill-rule:nonzero;stroke:white;stroke-width:0.15px;stroke-linejoin:miter;"/>
            <rect id="path1924" x="69.355" y="96.245" width="0.726" height="0.878" style="fill:white;fill-rule:nonzero;stroke:white;stroke-width:0.15px;stroke-linejoin:miter;"/>
        </g>
        <g id="text1686-5-3">
            <path id="path1905" d="M50.978,133.306L53.892,133.306L53.892,133.869L51.651,133.869L51.651,135.328L53.683,135.328L53.683,135.891L51.651,135.891L51.651,138.255L50.978,138.255L50.978,133.306Z" style="fill:white;fill-rule:nonzero;stroke:white;stroke-width:0.17px;stroke-linejoin:miter;"/>
            <path id="path1907" d="M54.956,133.306L57.704,133.306L57.704,133.869L56.666,133.869L56.666,137.691L57.704,137.691L57.704,138.255L54.956,138.255L54.956,137.691L55.993,137.691L55.993,133.869L54.956,133.869L54.956,133.306Z" style="fill:white;fill-rule:nonzero;stroke:white;stroke-width:0.17px;stroke-linejoin:miter;"/>
            <path id="path1909" d="M58.834,133.306L59.683,133.306L61.353,137.38L61.353,133.306L62,133.306L62,138.255L61.151,138.255L59.481,134.181L59.481,138.255L58.834,138.255L58.834,133.306Z" style="fill:white;fill-rule:nonzero;stroke:white;stroke-width:0.17px;stroke-linejoin:miter;"/>
            <path id="path1911" d="M63.11,133.306L66.047,133.306L66.047,133.869L63.78,133.869L63.78,135.334L65.948,135.334L65.948,135.898L63.78,135.898L63.78,137.691L66.11,137.691L66.11,138.255L63.11,138.255L63.11,133.306Z" style="fill:white;fill-rule:nonzero;stroke:white;stroke-width:0.17px;stroke-linejoin:miter;"/>
        </g>
        <g id="text1686-78-4">
            <path id="path1892" d="M84.958,54.608C84.958,53.914 84.886,53.418 84.743,53.12C84.601,52.823 84.368,52.674 84.043,52.674C83.72,52.674 83.487,52.823 83.343,53.12C83.202,53.418 83.131,53.914 83.131,54.608C83.131,55.3 83.202,55.795 83.343,56.093C83.487,56.39 83.72,56.539 84.043,56.539C84.368,56.539 84.601,56.391 84.743,56.096C84.886,55.798 84.958,55.302 84.958,54.608ZM85.626,54.608C85.626,55.431 85.495,56.045 85.233,56.45C84.974,56.856 84.577,57.058 84.043,57.058C83.509,57.058 83.112,56.857 82.853,56.454C82.593,56.05 82.463,55.435 82.463,54.608C82.463,53.783 82.593,53.168 82.853,52.762C83.114,52.357 83.511,52.155 84.043,52.155C84.577,52.155 84.974,52.357 85.233,52.762C85.495,53.168 85.626,53.783 85.626,54.608Z" style="fill:white;fill-rule:nonzero;stroke:white;stroke-width:0.16px;stroke-linejoin:miter;"/>
            <path id="path1894" d="M89.39,56.799C89.227,56.885 89.06,56.949 88.89,56.992C88.719,57.036 88.537,57.058 88.345,57.058C87.739,57.058 87.269,56.844 86.933,56.416C86.6,55.987 86.433,55.385 86.433,54.608C86.433,53.836 86.601,53.234 86.936,52.804C87.274,52.371 87.744,52.155 88.345,52.155C88.537,52.155 88.719,52.177 88.89,52.221C89.06,52.263 89.227,52.328 89.39,52.414L89.39,53.069C89.234,52.941 89.066,52.843 88.886,52.775C88.707,52.707 88.527,52.674 88.345,52.674C87.929,52.674 87.618,52.834 87.411,53.155C87.204,53.476 87.101,53.96 87.101,54.608C87.101,55.254 87.204,55.737 87.411,56.058C87.618,56.379 87.929,56.539 88.345,56.539C88.531,56.539 88.712,56.505 88.89,56.438C89.069,56.37 89.236,56.272 89.39,56.143L89.39,56.799Z" style="fill:white;fill-rule:nonzero;stroke:white;stroke-width:0.16px;stroke-linejoin:miter;"/>
            <path id="path1896" d="M90.042,52.24L93.647,52.24L93.647,52.778L92.169,52.778L92.169,56.966L91.527,56.966L91.527,52.778L90.042,52.778L90.042,52.24Z" style="fill:white;fill-rule:nonzero;stroke:white;stroke-width:0.16px;stroke-linejoin:miter;"/>
            <path id="path1898" d="M95.743,52.804L95.069,55.222L96.417,55.222L95.743,52.804ZM95.357,52.24L96.133,52.24L97.579,56.966L96.918,56.966L96.569,55.735L94.914,55.735L94.572,56.966L93.91,56.966L95.357,52.24Z" style="fill:white;fill-rule:nonzero;stroke:white;stroke-width:0.16px;stroke-linejoin:miter;"/>
            <path id="path1900" d="M99.643,56.428L100.754,52.24L101.416,52.24L100.033,56.966L99.257,56.966L97.874,52.24L98.535,52.24L99.643,56.428Z" style="fill:white;fill-rule:nonzero;stroke:white;stroke-width:0.16px;stroke-linejoin:miter;"/>
            <path id="path1902" d="M102.217,52.24L105.022,52.24L105.022,52.778L102.856,52.778L102.856,54.177L104.927,54.177L104.927,54.716L102.856,54.716L102.856,56.428L105.082,56.428L105.082,56.966L102.217,56.966L102.217,52.24Z" style="fill:white;fill-rule:nonzero;stroke:white;stroke-width:0.16px;stroke-linejoin:miter;"/>
        </g>
        <g id="text1686-1-9-2">
            <path id="path1879" d="M88.423,92.259L88.423,92.849C88.247,92.736 88.069,92.651 87.89,92.593C87.714,92.536 87.535,92.507 87.355,92.507C87.08,92.507 86.863,92.571 86.704,92.7C86.545,92.826 86.465,92.998 86.465,93.215C86.465,93.405 86.517,93.55 86.621,93.65C86.726,93.75 86.922,93.833 87.208,93.901L87.513,93.97C87.916,94.064 88.21,94.212 88.394,94.413C88.579,94.615 88.671,94.889 88.671,95.237C88.671,95.646 88.544,95.958 88.291,96.173C88.037,96.388 87.669,96.495 87.185,96.495C86.983,96.495 86.781,96.473 86.577,96.429C86.374,96.387 86.169,96.322 85.964,96.236L85.964,95.617C86.185,95.757 86.393,95.86 86.589,95.925C86.787,95.99 86.985,96.023 87.185,96.023C87.479,96.023 87.707,95.958 87.87,95.827C88.033,95.695 88.115,95.51 88.115,95.274C88.115,95.059 88.058,94.895 87.945,94.782C87.834,94.668 87.639,94.581 87.361,94.52L87.05,94.448C86.65,94.357 86.36,94.221 86.18,94.039C85.999,93.856 85.909,93.612 85.909,93.304C85.909,92.921 86.038,92.613 86.295,92.383C86.554,92.151 86.898,92.035 87.326,92.035C87.491,92.035 87.665,92.054 87.847,92.092C88.03,92.129 88.222,92.184 88.423,92.259L88.423,92.259Z" style="fill:white;fill-rule:nonzero;stroke:white;stroke-width:0.15px;stroke-linejoin:miter;"/>
            <path id="path1881" d="M89.624,92.112L92.175,92.112L92.175,92.602L90.206,92.602L90.206,93.875L92.089,93.875L92.089,94.364L90.206,94.364L90.206,95.922L92.23,95.922L92.23,96.412L89.624,96.412L89.624,92.112Z" style="fill:white;fill-rule:nonzero;stroke:white;stroke-width:0.15px;stroke-linejoin:miter;"/>
            <path id="path1883" d="M92.852,92.112L93.63,92.112L94.373,94.301L95.121,92.112L95.902,92.112L95.902,96.412L95.363,96.412L95.363,92.613L94.597,94.88L94.157,94.88L93.388,92.613L93.388,96.412L92.852,96.412L92.852,92.112Z" style="fill:white;fill-rule:nonzero;stroke:white;stroke-width:0.15px;stroke-linejoin:miter;"/>
            <path id="path1885" d="M96.731,92.112L99.118,92.112L99.118,92.602L98.217,92.602L98.217,95.922L99.118,95.922L99.118,96.412L96.731,96.412L96.731,95.922L97.632,95.922L97.632,92.602L96.731,92.602L96.731,92.112Z" style="fill:white;fill-rule:nonzero;stroke:white;stroke-width:0.15px;stroke-linejoin:miter;"/>
            <path id="path1887" d="M99.835,92.112L103.115,92.112L103.115,92.602L101.77,92.602L101.77,96.412L101.186,96.412L101.186,92.602L99.835,92.602L99.835,92.112Z" style="fill:white;fill-rule:nonzero;stroke:white;stroke-width:0.15px;stroke-linejoin:miter;"/>
            <rect id="path1889" x="104.656" y="95.533" width="0.726" height="0.878" style="fill:white;fill-rule:nonzero;stroke:white;stroke-width:0.15px;stroke-linejoin:miter;"/>
        </g>
        <g id="text1686-5-3-0">
            <path id="path1870" d="M86.279,132.594L89.193,132.594L89.193,133.158L86.952,133.158L86.952,134.616L88.984,134.616L88.984,135.18L86.952,135.18L86.952,137.543L86.279,137.543L86.279,132.594Z" style="fill:white;fill-rule:nonzero;stroke:white;stroke-width:0.17px;stroke-linejoin:miter;"/>
            <path id="path1872" d="M90.257,132.594L93.005,132.594L93.005,133.158L91.967,133.158L91.967,136.98L93.005,136.98L93.005,137.543L90.257,137.543L90.257,136.98L91.294,136.98L91.294,133.158L90.257,133.158L90.257,132.594Z" style="fill:white;fill-rule:nonzero;stroke:white;stroke-width:0.17px;stroke-linejoin:miter;"/>
            <path id="path1874" d="M94.135,132.594L94.984,132.594L96.655,136.668L96.655,132.594L97.301,132.594L97.301,137.543L96.452,137.543L94.782,133.469L94.782,137.543L94.135,137.543L94.135,132.594Z" style="fill:white;fill-rule:nonzero;stroke:white;stroke-width:0.17px;stroke-linejoin:miter;"/>
            <path id="path1876" d="M98.411,132.594L101.348,132.594L101.348,133.158L99.081,133.158L99.081,134.623L101.249,134.623L101.249,135.186L99.081,135.186L99.081,136.98L101.411,136.98L101.411,137.543L98.411,137.543L98.411,132.594Z" style="fill:white;fill-rule:nonzero;stroke:white;stroke-width:0.17px;stroke-linejoin:miter;"/>
        </g>
        <g id="text1686-5-0" transform="matrix(1,0,0,1,26.6869,-1.80235)">
            <path id="path1984" d="M67.164,328.849L67.164,329.528C66.961,329.398 66.756,329.3 66.551,329.233C66.347,329.167 66.142,329.134 65.934,329.134C65.618,329.134 65.368,329.208 65.185,329.356C65.002,329.502 64.91,329.7 64.91,329.949C64.91,330.168 64.97,330.335 65.089,330.45C65.21,330.565 65.436,330.661 65.765,330.738L66.117,330.818C66.581,330.926 66.919,331.096 67.131,331.328C67.343,331.56 67.449,331.876 67.449,332.276C67.449,332.747 67.303,333.106 67.012,333.354C66.72,333.601 66.296,333.725 65.739,333.725C65.507,333.725 65.273,333.7 65.039,333.649C64.805,333.6 64.57,333.526 64.333,333.427L64.333,332.714C64.587,332.875 64.827,332.994 65.052,333.069C65.28,333.144 65.509,333.181 65.739,333.181C66.077,333.181 66.34,333.106 66.528,332.956C66.715,332.803 66.809,332.591 66.809,332.32C66.809,332.072 66.744,331.883 66.614,331.753C66.486,331.622 66.261,331.522 65.941,331.451L65.583,331.368C65.123,331.264 64.789,331.107 64.582,330.897C64.374,330.687 64.27,330.406 64.27,330.052C64.27,329.61 64.418,329.257 64.714,328.991C65.013,328.724 65.408,328.59 65.901,328.59C66.091,328.59 66.291,328.612 66.501,328.657C66.711,328.699 66.932,328.763 67.164,328.849L67.164,328.849Z" style="fill:white;fill-rule:nonzero;stroke:white;stroke-width:0.17px;stroke-linejoin:miter;"/>
            <path id="path1986" d="M71.45,333.453C71.28,333.544 71.105,333.611 70.926,333.655C70.747,333.702 70.557,333.725 70.356,333.725C69.722,333.725 69.229,333.501 68.878,333.052C68.529,332.603 68.354,331.972 68.354,331.159C68.354,330.35 68.53,329.721 68.881,329.27C69.235,328.817 69.726,328.59 70.356,328.59C70.557,328.59 70.747,328.613 70.926,328.66C71.105,328.704 71.28,328.771 71.45,328.862L71.45,329.548C71.287,329.413 71.111,329.311 70.923,329.24C70.735,329.169 70.546,329.134 70.356,329.134C69.921,329.134 69.595,329.302 69.378,329.638C69.162,329.974 69.053,330.481 69.053,331.159C69.053,331.835 69.162,332.342 69.378,332.677C69.595,333.013 69.921,333.181 70.356,333.181C70.551,333.181 70.741,333.146 70.926,333.075C71.114,333.005 71.289,332.902 71.45,332.767L71.45,333.453Z" style="fill:white;fill-rule:nonzero;stroke:white;stroke-width:0.17px;stroke-linejoin:miter;"/>
            <path id="path1988" d="M74.019,329.27L73.313,331.802L74.725,331.802L74.019,329.27ZM73.615,328.68L74.427,328.68L75.942,333.629L75.249,333.629L74.884,332.339L73.151,332.339L72.793,333.629L72.1,333.629L73.615,328.68Z" style="fill:white;fill-rule:nonzero;stroke:white;stroke-width:0.17px;stroke-linejoin:miter;"/>
            <path id="path1990" d="M76.774,328.68L77.447,328.68L77.447,333.065L79.837,333.065L79.837,333.629L76.774,333.629L76.774,328.68Z" style="fill:white;fill-rule:nonzero;stroke:white;stroke-width:0.17px;stroke-linejoin:miter;"/>
            <path id="path1992" d="M80.798,328.68L83.735,328.68L83.735,329.243L81.468,329.243L81.468,330.708L83.636,330.708L83.636,331.272L81.468,331.272L81.468,333.065L83.798,333.065L83.798,333.629L80.798,333.629L80.798,328.68Z" style="fill:white;fill-rule:nonzero;stroke:white;stroke-width:0.17px;stroke-linejoin:miter;"/>
        </g>
        <g id="text1686-5-3-6" transform="matrix(1,0,0,1,-27.4309,-1.24429)">
            <path id="path1975" d="M93.782,331.377C93.955,331.421 94.102,331.505 94.223,331.629C94.345,331.75 94.496,331.995 94.677,332.361L95.35,333.714L94.631,333.714L94.041,332.464C93.871,332.108 93.717,331.88 93.58,331.778C93.445,331.674 93.269,331.622 93.05,331.622L92.41,331.622L92.41,333.714L91.737,333.714L91.737,328.765L93.116,328.765C93.66,328.765 94.076,328.887 94.366,329.133C94.655,329.378 94.8,329.733 94.8,330.197C94.8,330.524 94.711,330.791 94.532,330.999C94.355,331.205 94.105,331.33 93.782,331.377ZM92.41,329.315L92.41,331.072L93.143,331.072C93.463,331.072 93.702,331 93.859,330.856C94.016,330.713 94.094,330.493 94.094,330.197C94.094,329.912 94.01,329.694 93.842,329.544C93.676,329.391 93.434,329.315 93.116,329.315L92.41,329.315Z" style="fill:white;fill-rule:nonzero;stroke:white;stroke-width:0.17px;stroke-linejoin:miter;"/>
            <path id="path1977" d="M98.347,331.244C98.347,330.517 98.272,329.998 98.122,329.686C97.974,329.375 97.729,329.219 97.389,329.219C97.051,329.219 96.807,329.375 96.656,329.686C96.508,329.998 96.434,330.517 96.434,331.244C96.434,331.969 96.508,332.487 96.656,332.799C96.807,333.111 97.051,333.266 97.389,333.266C97.729,333.266 97.974,333.112 98.122,332.802C98.272,332.491 98.347,331.971 98.347,331.244ZM99.046,331.244C99.046,332.106 98.909,332.749 98.635,333.174C98.364,333.598 97.948,333.81 97.389,333.81C96.83,333.81 96.414,333.599 96.143,333.177C95.871,332.755 95.735,332.111 95.735,331.244C95.735,330.38 95.871,329.736 96.143,329.312C96.417,328.887 96.832,328.675 97.389,328.675C97.948,328.675 98.364,328.887 98.635,329.312C98.909,329.736 99.046,330.38 99.046,331.244Z" style="fill:white;fill-rule:nonzero;stroke:white;stroke-width:0.17px;stroke-linejoin:miter;"/>
            <path id="path1979" d="M102.431,331.244C102.431,330.517 102.356,329.998 102.206,329.686C102.057,329.375 101.813,329.219 101.473,329.219C101.135,329.219 100.891,329.375 100.74,329.686C100.592,329.998 100.518,330.517 100.518,331.244C100.518,331.969 100.592,332.487 100.74,332.799C100.891,333.111 101.135,333.266 101.473,333.266C101.813,333.266 102.057,333.112 102.206,332.802C102.356,332.491 102.431,331.971 102.431,331.244ZM103.13,331.244C103.13,332.106 102.993,332.749 102.719,333.174C102.447,333.598 102.032,333.81 101.473,333.81C100.914,333.81 100.498,333.599 100.227,333.177C99.955,332.755 99.819,332.111 99.819,331.244C99.819,330.38 99.955,329.736 100.227,329.312C100.501,328.887 100.916,328.675 101.473,328.675C102.032,328.675 102.447,328.887 102.719,329.312C102.993,329.736 103.13,330.38 103.13,331.244Z" style="fill:white;fill-rule:nonzero;stroke:white;stroke-width:0.17px;stroke-linejoin:miter;"/>
            <path id="path1981" d="M103.671,328.765L107.446,328.765L107.446,329.328L105.898,329.328L105.898,333.714L105.225,333.714L105.225,329.328L103.671,329.328L103.671,328.765Z" style="fill:white;fill-rule:nonzero;stroke:white;stroke-width:0.17px;stroke-linejoin:miter;"/>
        </g>
        <path id="path1838" d="M25,160L25,250" style="fill:none;fill-rule:nonzero;stroke:white;stroke-width:1px;stroke-linejoin:miter;"/>
        <path id="path1838-6" d="M60,160L60,250" style="fill:none;fill-rule:nonzero;stroke:white;stroke-width:1px;stroke-linejoin:miter;"/>
        <path id="path1838-6-2" d="M95,160L95,250" style="fill:none;fill-rule:nonzero;stroke:white;stroke-width:1px;stroke-linejoin:miter;"/>
    </g>
</svg>
