<?xml version="1.0" encoding="UTF-8" standalone="no"?>
<svg
   xmlns:serif="http://www.serif.com/"
   xmlns:dc="http://purl.org/dc/elements/1.1/"
   xmlns:cc="http://creativecommons.org/ns#"
   xmlns:rdf="http://www.w3.org/1999/02/22-rdf-syntax-ns#"
   xmlns:svg="http://www.w3.org/2000/svg"
   xmlns="http://www.w3.org/2000/svg"
   xmlns:sodipodi="http://sodipodi.sourceforge.net/DTD/sodipodi-0.dtd"
   xmlns:inkscape="http://www.inkscape.org/namespaces/inkscape"
   width="90"
   height="380"
   viewBox="0 0 22950 144400"
   version="1.1"
   xml:space="preserve"
   style="clip-rule:evenodd;fill-rule:evenodd"
   id="svg15475"
   sodipodi:docname="QuePasa.svg"
   inkscape:version="0.92.3 (2405546, 2018-03-11)"><metadata
   id="metadata15481"><rdf:RDF><cc:Work
       rdf:about=""><dc:format>image/svg+xml</dc:format><dc:type
         rdf:resource="http://purl.org/dc/dcmitype/StillImage" /><dc:title></dc:title></cc:Work></rdf:RDF></metadata><defs
   id="defs15479" /><sodipodi:namedview
   pagecolor="#ffffff"
   bordercolor="#666666"
   borderopacity="1"
   objecttolerance="10"
   gridtolerance="10"
   guidetolerance="10"
   inkscape:pageopacity="0"
   inkscape:pageshadow="2"
   inkscape:window-width="1045"
   inkscape:window-height="787"
   id="namedview15477"
   showgrid="true"
   inkscape:zoom="1.7566021"
   inkscape:cx="-20.961375"
   inkscape:cy="59.615224"
   inkscape:window-x="775"
   inkscape:window-y="88"
   inkscape:window-maximized="0"
   inkscape:current-layer="layer2"
   units="px"><inkscape:grid
     type="xygrid"
     id="grid16040" /></sodipodi:namedview>
    
    <g
   id="Layer-6"
   serif:id="Layer 6"
   transform="translate(0,144020)">
        
        
        
        
        
        
        
        
        
        
        
        
        
        
        
        
        
        
        
        
        
        
        
        
        
        
        
    </g>
    
<g
   inkscape:groupmode="layer"
   id="layer1"
   inkscape:label="Layer 1"
   transform="translate(0,144020)"><rect
     style="opacity:1;fill:#b7c4c8;fill-opacity:1;stroke:#903a3a;stroke-width:0.99174148;stroke-miterlimit:4;stroke-dasharray:none;stroke-opacity:1"
     id="rect16038"
     width="255"
     height="380"
     x="-1.8873791e-015"
     y="2.4877419e-014" /><rect
     style="opacity:1;fill:#242834;fill-opacity:1;stroke:#242834;stroke-width:394.05996704;stroke-miterlimit:4;stroke-dasharray:none;stroke-opacity:1"
     id="rect4551"
     width="34200.008"
     height="144400"
     x="-5625"
     y="-144020"
     ry="1900" /></g><g
   inkscape:groupmode="layer"
   id="layer2"
   inkscape:label="Layer 2"
   transform="translate(0,144020)"><g
     style="clip-rule:evenodd;fill:#ffffff;fill-opacity:1;fill-rule:evenodd"
     id="text996"
     transform="matrix(430.30196,0,0,430.30196,-112494.77,-177245.03)"><path
       inkscape:connector-curvature="0"
       id="path1000"
       d="m 271.966,386.268 v -6.794 h -0.849 v 6.794 z m -4.246,2.547 -1.698,-1.698 v -8.492 l 1.698,-1.698 h 4.246 v -5.095 h 5.095 v 16.983 z"
       style="fill:#ffffff;fill-opacity:1;fill-rule:nonzero" /><path
       inkscape:connector-curvature="0"
       id="path1002"
       d="m 285.552,378.625 v -3.396 h -0.849 v 3.396 z m -6.793,10.19 v -5.095 h -0.849 v -11.888 h 12.737 l 1.698,1.699 v 5.094 l -1.698,1.699 1.698,1.698 v 0.849 h -0.425 v 4.67 l -0.424,0.425 v -3.397 h -0.849 v 4.246 h -0.425 v -9.34 h -0.849 v 9.34 h -0.424 v -5.944 h -0.85 v 5.944 h -0.424 v -7.642 h -0.849 v 7.642 h -0.425 v -5.095 h -0.849 v -1.698 h -0.849 v 3.396 h 0.849 v 3.397 h -0.425 v -1.698 h -0.849 v 1.698 h -0.424 v -1.698 h -0.849 v 1.698 h -0.425 v -5.944 h -0.849 v 5.944 h -0.425 v -8.491 h -0.849 v 8.491 h -0.424 v -3.397 h -0.85 v 3.397 z"
       style="fill:#ffffff;fill-opacity:1;fill-rule:nonzero" /><path
       inkscape:connector-curvature="0"
       id="path1004"
       d="m 293.194,388.815 v -11.888 h 5.095 v 11.888 z m 0,-12.737 v -4.246 h 5.095 v 4.246 z"
       style="fill:#ffffff;fill-opacity:1;fill-rule:nonzero" /><path
       inkscape:connector-curvature="0"
       id="path1006-6"
       d="m 299.138,388.815 v -5.944 l 1.698,-1.698 h 4.246 v -1.699 h -0.849 v 0.85 h -5.095 v -1.699 l 1.698,-1.698 h 9.341 v 5.095 l -1.698,1.698 h -4.246 v 2.548 h 0.849 v -1.699 h 5.095 v 2.548 l -1.698,1.698 z"
       style="fill:#ffffff;fill-opacity:1;fill-rule:nonzero" /></g></g></svg>