<?xml version="1.0" encoding="UTF-8" standalone="no"?>
<!-- Created with Inkscape (http://www.inkscape.org/) -->

<svg
   xmlns:dc="http://purl.org/dc/elements/1.1/"
   xmlns:cc="http://creativecommons.org/ns#"
   xmlns:rdf="http://www.w3.org/1999/02/22-rdf-syntax-ns#"
   xmlns:svg="http://www.w3.org/2000/svg"
   xmlns="http://www.w3.org/2000/svg"
   xmlns:sodipodi="http://sodipodi.sourceforge.net/DTD/sodipodi-0.dtd"
   xmlns:inkscape="http://www.inkscape.org/namespaces/inkscape"
   width="210"
   height="380"
   viewBox="0 0 55.562502 100.54167"
   version="1.1"
   id="svg8"
   inkscape:version="0.92.4 (5da689c313, 2019-01-14)"
   sodipodi:docname="Remix.svg"
   enable-background="new">
  <defs
     id="defs2" />
  <sodipodi:namedview
     id="base"
     pagecolor="#ffffff"
     bordercolor="#666666"
     borderopacity="1.0"
     inkscape:pageopacity="0.0"
     inkscape:pageshadow="2"
     inkscape:zoom="1.5893067"
     inkscape:cx="-31.74059"
     inkscape:cy="229.12694"
     inkscape:document-units="mm"
     inkscape:current-layer="layer4"
     showgrid="true"
     units="px"
     inkscape:snap-bbox="true"
     inkscape:snap-page="true"
     inkscape:bbox-nodes="true"
     inkscape:snap-bbox-edge-midpoints="true"
     inkscape:window-width="1783"
     inkscape:window-height="625"
     inkscape:window-x="-7"
     inkscape:window-y="215"
     inkscape:window-maximized="0"
     inkscape:snap-grids="false">
    <inkscape:grid
       type="xygrid"
       id="grid829" />
  </sodipodi:namedview>
  <metadata
     id="metadata5">
    <rdf:RDF>
      <cc:Work
         rdf:about="">
        <dc:format>image/svg+xml</dc:format>
        <dc:type
           rdf:resource="http://purl.org/dc/dcmitype/StillImage" />
        <dc:title />
      </cc:Work>
    </rdf:RDF>
  </metadata>
  <g
     inkscape:label="Layer 1"
     inkscape:groupmode="layer"
     id="layer1"
     transform="translate(0,-196.45832)"
     style="display:inline">
    <path
       style="opacity:1;vector-effect:none;fill:#242834;fill-opacity:1;fill-rule:evenodd;stroke:none;stroke-width:0.74248528;stroke-linecap:butt;stroke-linejoin:round;stroke-miterlimit:4;stroke-dasharray:none;stroke-dashoffset:0;stroke-opacity:1;paint-order:normal"
       d="M 0,196.45831 H 55.5625 V 296.99999 H 0 Z"
       id="rect817"
       inkscape:connector-curvature="0" />
  </g>
  <g
     inkscape:groupmode="layer"
     id="layer3"
     inkscape:label="Layer 3"
     style="display:inline">
    <rect
       style="display:inline;opacity:1;fill:#e7e7e7;fill-opacity:1;stroke:#000000;stroke-width:0.13229167;stroke-miterlimit:4;stroke-dasharray:none;stroke-opacity:1"
       id="rect2094"
       width="55.5625"
       height="11.409932"
       x="0"
       y="4.0854726"
       rx="2.0043244"
       ry="1.7381934" />
    <path
       style="fill:#000000;fill-opacity:0.97695851;stroke:#022b3a;stroke-width:0.21909578px;stroke-linecap:butt;stroke-linejoin:miter;stroke-opacity:1"
       d="m 14.552083,9.2604166 h 6.349999"
       id="path898"
       inkscape:connector-curvature="0" />
    <path
       style="fill:#000000;fill-opacity:0.97695851;stroke:#022b3a;stroke-width:0.27749732px;stroke-linecap:butt;stroke-linejoin:miter;stroke-opacity:1"
       d="m 34.925,9.2604166 h 8.731249"
       id="path900"
       inkscape:connector-curvature="0" />
    <path
       style="fill:#000000;fill-opacity:0.97695851;stroke:#022b3a;stroke-width:0.26458332px;stroke-linecap:butt;stroke-linejoin:miter;stroke-opacity:0"
       d="m 20.902082,9.2604166 v -0.79375 l 1.322917,0.79375 -1.322917,0.7937504 z"
       id="path904"
       inkscape:connector-curvature="0" />
    <path
       style="fill:#000000;fill-opacity:0.97695851;stroke:#022b3a;stroke-width:0.26458332px;stroke-linecap:butt;stroke-linejoin:miter;stroke-opacity:0"
       d="m 36.247916,9.2604166 v -0.79375 l -1.322916,0.79375 1.322916,0.7937504 z"
       id="path908"
       inkscape:connector-curvature="0" />
    <path
       style="opacity:0.98999999;fill:none;fill-opacity:1;fill-rule:nonzero;stroke:#ffffff;stroke-width:0.30718124;stroke-linecap:square;stroke-linejoin:miter;stroke-miterlimit:4;stroke-dasharray:none;stroke-dashoffset:0;stroke-opacity:1;paint-order:fill markers stroke"
       d="m 15.684529,52.791009 a 1.7197917,1.7197917 0 0 1 -2.428939,0.04467 1.7197917,1.7197917 0 0 1 -0.05027,-2.42883 1.7197917,1.7197917 0 0 1 2.428707,-0.05586 1.7197917,1.7197917 0 0 1 0.06146,2.428572"
       id="path850"
       inkscape:connector-curvature="0" />
    <path
       style="display:inline;opacity:0.98999999;fill:none;fill-opacity:1;fill-rule:nonzero;stroke:#ffffff;stroke-width:0.30718124;stroke-linecap:square;stroke-linejoin:miter;stroke-miterlimit:4;stroke-dasharray:none;stroke-dashoffset:0;stroke-opacity:1;paint-order:fill markers stroke"
       d="m 19.653279,52.791009 a 1.7197917,1.7197917 0 0 1 -2.428939,0.04467 1.7197917,1.7197917 0 0 1 -0.05027,-2.42883 1.7197917,1.7197917 0 0 1 2.428707,-0.05586 1.7197917,1.7197917 0 0 1 0.06146,2.428572"
       id="path850-9"
       inkscape:connector-curvature="0" />
    <path
       style="display:inline;opacity:0.98999999;fill:none;fill-opacity:1;fill-rule:nonzero;stroke:#ffffff;stroke-width:0.30718124;stroke-linecap:square;stroke-linejoin:miter;stroke-miterlimit:4;stroke-dasharray:none;stroke-dashoffset:0;stroke-opacity:1;paint-order:fill markers stroke"
       d="m 23.622029,52.791009 a 1.7197917,1.7197917 0 0 1 -2.428939,0.04467 1.7197917,1.7197917 0 0 1 -0.05027,-2.42883 1.7197917,1.7197917 0 0 1 2.428707,-0.05586 1.7197917,1.7197917 0 0 1 0.06146,2.428572"
       id="path850-9-3"
       inkscape:connector-curvature="0" />
    <path
       style="display:inline;opacity:0.98999999;fill:none;fill-opacity:1;fill-rule:nonzero;stroke:#ffffff;stroke-width:0.30718124;stroke-linecap:square;stroke-linejoin:miter;stroke-miterlimit:4;stroke-dasharray:none;stroke-dashoffset:0;stroke-opacity:1;paint-order:fill markers stroke"
       d="m 35.543874,52.791009 a 1.7197917,1.7197917 0 0 1 -2.428939,0.04467 1.7197917,1.7197917 0 0 1 -0.05027,-2.42883 1.7197917,1.7197917 0 0 1 2.428707,-0.05586 1.7197917,1.7197917 0 0 1 0.06146,2.428572"
       id="path850-6"
       inkscape:connector-curvature="0" />
    <path
       style="display:inline;opacity:0.98999999;fill:none;fill-opacity:1;fill-rule:nonzero;stroke:#ffffff;stroke-width:0.30718124;stroke-linecap:square;stroke-linejoin:miter;stroke-miterlimit:4;stroke-dasharray:none;stroke-dashoffset:0;stroke-opacity:1;paint-order:fill markers stroke"
       d="m 39.512624,52.791009 a 1.7197917,1.7197917 0 0 1 -2.428939,0.04467 1.7197917,1.7197917 0 0 1 -0.05027,-2.42883 1.7197917,1.7197917 0 0 1 2.428707,-0.05586 1.7197917,1.7197917 0 0 1 0.06146,2.428572"
       id="path850-9-8"
       inkscape:connector-curvature="0" />
    <path
       style="display:inline;opacity:0.98999999;fill:none;fill-opacity:1;fill-rule:nonzero;stroke:#ffffff;stroke-width:0.30718124;stroke-linecap:square;stroke-linejoin:miter;stroke-miterlimit:4;stroke-dasharray:none;stroke-dashoffset:0;stroke-opacity:1;paint-order:fill markers stroke"
       d="m 43.481374,52.791009 a 1.7197917,1.7197917 0 0 1 -2.428939,0.04467 1.7197917,1.7197917 0 0 1 -0.05027,-2.42883 1.7197917,1.7197917 0 0 1 2.428707,-0.05586 1.7197917,1.7197917 0 0 1 0.06146,2.428572"
       id="path850-9-3-4"
       inkscape:connector-curvature="0" />
    <path
       style="fill:#022b3a;fill-opacity:1;stroke:#ffffff;stroke-width:0.26458332px;stroke-linecap:butt;stroke-linejoin:miter;stroke-opacity:1"
       d="M 10.456156,57.8853 V 68.935557"
       id="path972"
       inkscape:connector-curvature="0" />
    <path
       style="fill:#022b3a;fill-opacity:1;stroke:#ffffff;stroke-width:0.26458332px;stroke-linecap:butt;stroke-linejoin:miter;stroke-opacity:1"
       d="M 28.99207,58.24176 V 69.410836"
       id="path974"
       inkscape:connector-curvature="0" />
    <path
       style="fill:#242834;fill-opacity:1;stroke:#ffffff;stroke-width:0.26458332px;stroke-linecap:butt;stroke-linejoin:miter;stroke-opacity:1"
       d="m 46.577424,68.697916 h 6.535097 v 19.367653 h -6.297456"
       id="path980"
       inkscape:connector-curvature="0" />
    <path
       style="fill:#022b3a;fill-opacity:1;stroke:#ffffff;stroke-width:0.26458332px;stroke-linecap:butt;stroke-linejoin:miter;stroke-opacity:1"
       d="M 46.577424,57.8853 V 68.697916"
       id="path976"
       inkscape:connector-curvature="0" />
    <path
       style="fill:#242834;fill-opacity:1;stroke:#ffffff;stroke-width:0.26458332px;stroke-linecap:butt;stroke-linejoin:miter;stroke-opacity:1"
       d="M 10.456156,68.935557 H 3.9210588 V 87.94675 h 6.5350972"
       id="path978"
       inkscape:connector-curvature="0" />
    <path
       style="fill:#022b3a;fill-opacity:1;stroke:#ffffff;stroke-width:0.17002229px;stroke-linecap:butt;stroke-linejoin:miter;stroke-opacity:1"
       d="m 28.99207,69.410836 v 7.654219"
       id="path982"
       inkscape:connector-curvature="0" />
    <rect
       style="fill:#69737a;fill-opacity:1;stroke:#000000;stroke-width:0.13229167;stroke-miterlimit:4;stroke-dasharray:none;stroke-opacity:1"
       id="rect1122"
       width="55.264004"
       height="16.286385"
       x="0.29849464"
       y="30.917458"
       ry="1.6434884" />
    <rect
       style="fill:#4c5c68;fill-opacity:1;stroke:#000000;stroke-width:0.13229167;stroke-miterlimit:4;stroke-dasharray:none;stroke-opacity:1"
       id="rect1120"
       width="55.28096"
       height="13.239324"
       x="0.28153831"
       y="17.678135"
       ry="1.6434895" />
    <g
       aria-label="I"
       style="font-style:normal;font-variant:normal;font-weight:normal;font-stretch:normal;font-size:3.10471606px;line-height:1.25;font-family:'DejaVu Math TeX Gyre';-inkscape-font-specification:'DejaVu Math TeX Gyre';letter-spacing:0px;word-spacing:0px;display:inline;fill:#000000;fill-opacity:1;stroke:none;stroke-width:0.19404475"
       id="text864-9-7"
       transform="translate(-1.6973676,-17.094706)">
      <path
         d="m 10.682142,47.09849 h 0.133406 v 0.266811 H 10.269797 V 47.09849 h 0.133406 v -1.831298 h -0.133406 v -0.266811 h 0.545751 v 0.266811 h -0.133406 z"
         style="font-style:normal;font-variant:normal;font-weight:normal;font-stretch:normal;font-family:'MS Gothic';-inkscape-font-specification:'MS Gothic';fill:#ffffff;fill-opacity:1;stroke-width:0.19404475"
         id="path1070"
         inkscape:connector-curvature="0" />
    </g>
    <g
       aria-label="II"
       style="font-style:normal;font-variant:normal;font-weight:normal;font-stretch:normal;font-size:3.10471606px;line-height:1.25;font-family:'DejaVu Math TeX Gyre';-inkscape-font-specification:'DejaVu Math TeX Gyre';letter-spacing:0px;word-spacing:0px;display:inline;fill:#000000;fill-opacity:1;stroke:none;stroke-width:0.19404475"
       id="text864-9-7-9"
       transform="translate(-2.2265343,-17.094706)">
      <path
         d="m 17.062274,47.09849 h 0.133406 v 0.266811 H 16.649929 V 47.09849 h 0.133405 v -1.831298 h -0.133405 v -0.266811 h 0.545751 v 0.266811 h -0.133406 z"
         style="font-style:normal;font-variant:normal;font-weight:normal;font-stretch:normal;font-family:'MS Gothic';-inkscape-font-specification:'MS Gothic';fill:#ffffff;fill-opacity:1;stroke-width:0.19404475"
         id="path1065"
         inkscape:connector-curvature="0" />
      <path
         d="m 18.614632,47.09849 h 0.133406 v 0.266811 H 18.202287 V 47.09849 h 0.133405 v -1.831298 h -0.133405 v -0.266811 h 0.545751 v 0.266811 h -0.133406 z"
         style="font-style:normal;font-variant:normal;font-weight:normal;font-stretch:normal;font-family:'MS Gothic';-inkscape-font-specification:'MS Gothic';fill:#ffffff;fill-opacity:1;stroke-width:0.19404475"
         id="path1067"
         inkscape:connector-curvature="0" />
    </g>
    <g
       aria-label="III"
       style="font-style:normal;font-variant:normal;font-weight:normal;font-stretch:normal;font-size:3.10471606px;line-height:1.25;font-family:'DejaVu Math TeX Gyre';-inkscape-font-specification:'DejaVu Math TeX Gyre';letter-spacing:0px;word-spacing:0px;display:inline;fill:#ffffff;fill-opacity:1;stroke:none;stroke-width:0.19404475"
       id="text864-9-7-9-1"
       transform="translate(-1.6973676,-17.094706)">
      <path
         d="m 23.699839,47.09849 h 0.133406 v 0.266811 H 23.287494 V 47.09849 H 23.4209 v -1.831298 h -0.133406 v -0.266811 h 0.545751 v 0.266811 h -0.133406 z"
         style="font-style:normal;font-variant:normal;font-weight:normal;font-stretch:normal;font-family:'MS Gothic';-inkscape-font-specification:'MS Gothic';fill:#ffffff;fill-opacity:1;stroke-width:0.19404475"
         id="path1058"
         inkscape:connector-curvature="0" />
      <path
         d="m 25.252197,47.09849 h 0.133406 v 0.266811 H 24.839852 V 47.09849 h 0.133406 v -1.831298 h -0.133406 v -0.266811 h 0.545751 v 0.266811 h -0.133406 z"
         style="font-style:normal;font-variant:normal;font-weight:normal;font-stretch:normal;font-family:'MS Gothic';-inkscape-font-specification:'MS Gothic';fill:#ffffff;fill-opacity:1;stroke-width:0.19404475"
         id="path1060"
         inkscape:connector-curvature="0" />
      <path
         d="m 26.804555,47.09849 h 0.133406 v 0.266811 H 26.39221 V 47.09849 h 0.133406 V 45.267192 H 26.39221 v -0.266811 h 0.545751 v 0.266811 h -0.133406 z"
         style="font-style:normal;font-variant:normal;font-weight:normal;font-stretch:normal;font-family:'MS Gothic';-inkscape-font-specification:'MS Gothic';fill:#ffffff;fill-opacity:1;stroke-width:0.19404475"
         id="path1062"
         inkscape:connector-curvature="0" />
    </g>
    <g
       aria-label="IV"
       style="font-style:normal;font-variant:normal;font-weight:normal;font-stretch:normal;font-size:3.10471606px;line-height:1.25;font-family:'DejaVu Math TeX Gyre';-inkscape-font-specification:'DejaVu Math TeX Gyre';letter-spacing:0px;word-spacing:0px;display:inline;fill:#ffffff;fill-opacity:1;stroke:none;stroke-width:0.19404475"
       id="text864-9-7-9-1-2"
       transform="translate(-0.6390342,-17.094706)">
      <path
         d="m 33.246564,47.09849 h 0.133405 v 0.266811 h -0.54575 V 47.09849 h 0.133405 v -1.831298 h -0.133405 v -0.266811 h 0.54575 v 0.266811 h -0.133405 z"
         style="font-style:normal;font-variant:normal;font-weight:normal;font-stretch:normal;font-family:'MS Gothic';-inkscape-font-specification:'MS Gothic';fill:#ffffff;fill-opacity:1;stroke-width:0.19404475"
         id="path1053"
         inkscape:connector-curvature="0" />
      <path
         d="m 34.228915,45.000381 0.412345,1.794914 h 0.02426 l 0.412345,-1.794914 H 35.3568 l -0.570006,2.36492 h -0.266812 l -0.570006,-2.36492 z"
         style="font-style:normal;font-variant:normal;font-weight:normal;font-stretch:normal;font-family:'MS Gothic';-inkscape-font-specification:'MS Gothic';fill:#ffffff;fill-opacity:1;stroke-width:0.19404475"
         id="path1055"
         inkscape:connector-curvature="0" />
    </g>
    <g
       aria-label="V"
       style="font-style:normal;font-variant:normal;font-weight:normal;font-stretch:normal;font-size:3.10471606px;line-height:1.25;font-family:'DejaVu Math TeX Gyre';-inkscape-font-specification:'DejaVu Math TeX Gyre';letter-spacing:0px;word-spacing:0px;display:inline;fill:#000000;fill-opacity:1;stroke:none;stroke-width:0.19404475"
       id="text864-9-7-9-8"
       transform="translate(-0.6390342,-17.094706)">
      <path
         d="m 40.679136,45.000381 0.412345,1.794914 h 0.02426 l 0.412345,-1.794914 h 0.278939 l -0.570006,2.36492 h -0.266812 l -0.570006,-2.36492 z"
         style="font-style:normal;font-variant:normal;font-weight:normal;font-stretch:normal;font-family:'MS Gothic';-inkscape-font-specification:'MS Gothic';fill:#ffffff;fill-opacity:1;stroke-width:0.19404475"
         id="path1050"
         inkscape:connector-curvature="0" />
    </g>
    <g
       aria-label="VI"
       style="font-style:normal;font-variant:normal;font-weight:normal;font-stretch:normal;font-size:3.10471606px;line-height:1.25;font-family:'DejaVu Math TeX Gyre';-inkscape-font-specification:'DejaVu Math TeX Gyre';letter-spacing:0px;word-spacing:0px;display:inline;fill:#000000;fill-opacity:1;stroke:none;stroke-width:0.19404475"
       id="text864-9-7-9-8-2"
       transform="translate(-0.6390342,-17.094706)">
      <path
         d="m 47.808336,45.000381 0.412345,1.794914 h 0.02426 l 0.412345,-1.794914 h 0.278939 l -0.570006,2.36492 h -0.266812 l -0.570006,-2.36492 z"
         style="font-style:normal;font-variant:normal;font-weight:normal;font-stretch:normal;font-family:'MS Gothic';-inkscape-font-specification:'MS Gothic';fill:#ffffff;fill-opacity:1;stroke-width:0.19404475"
         id="path1045"
         inkscape:connector-curvature="0" />
      <path
         d="m 49.9307,47.09849 h 0.133406 v 0.266811 H 49.518355 V 47.09849 h 0.133406 v -1.831298 h -0.133406 v -0.266811 h 0.545751 v 0.266811 H 49.9307 Z"
         style="font-style:normal;font-variant:normal;font-weight:normal;font-stretch:normal;font-family:'MS Gothic';-inkscape-font-specification:'MS Gothic';fill:#ffffff;fill-opacity:1;stroke-width:0.19404475"
         id="path1047"
         inkscape:connector-curvature="0" />
    </g>
    <path
       style="display:inline;fill:#242834;fill-opacity:1;stroke:#ffffff;stroke-width:0.26458332px;stroke-linecap:butt;stroke-linejoin:miter;stroke-opacity:1"
       d="M 34.391084,62.151616 28.99207,58.24176 22.622707,62.265874"
       id="path1127"
       inkscape:connector-curvature="0" />
    <path
       style="display:inline;fill:#022b3a;fill-opacity:1;stroke:#ffffff;stroke-width:0.26458332px;stroke-linecap:butt;stroke-linejoin:miter;stroke-opacity:1"
       d="m 28.99207,58.24176 0.02898,-6.601703"
       id="path1129"
       inkscape:connector-curvature="0" />
    <path
       style="display:inline;fill:#022b3a;fill-opacity:1;stroke:#ffffff;stroke-width:0.26458332px;stroke-linecap:butt;stroke-linejoin:miter;stroke-opacity:1"
       d="m 21.908607,62.665768 v 1.428203"
       id="path1131"
       inkscape:connector-curvature="0" />
    <path
       style="display:inline;fill:#022b3a;fill-opacity:1;stroke:#ffffff;stroke-width:0.26458332px;stroke-linecap:butt;stroke-linejoin:miter;stroke-opacity:1"
       d="m 28.478332,50.040471 v 1.428203"
       id="path1131-6"
       inkscape:connector-curvature="0" />
    <path
       style="display:inline;fill:#022b3a;fill-opacity:1;stroke:#ffffff;stroke-width:0.28496492px;stroke-linecap:butt;stroke-linejoin:miter;stroke-opacity:1"
       d="m 29.007499,49.811959 v 1.656715"
       id="path1131-66"
       inkscape:connector-curvature="0" />
    <path
       style="display:inline;fill:#022b3a;fill-opacity:1;stroke:#ffffff;stroke-width:0.26458332px;stroke-linecap:butt;stroke-linejoin:miter;stroke-opacity:1"
       d="m 29.536666,50.040471 v 1.428203"
       id="path1131-66-4"
       inkscape:connector-curvature="0" />
    <path
       style="display:inline;fill:#022b3a;fill-opacity:1;stroke:#ffffff;stroke-width:0.24837101px;stroke-linecap:butt;stroke-linejoin:miter;stroke-opacity:1"
       d="m 33.262073,62.778304 v 1.25854"
       id="path1131-6-3"
       inkscape:connector-curvature="0" />
    <path
       style="display:inline;fill:#022b3a;fill-opacity:1;stroke:#ffffff;stroke-width:0.25974891px;stroke-linecap:butt;stroke-linejoin:miter;stroke-opacity:1"
       d="m 33.79124,62.660356 v 1.376488"
       id="path1131-66-8"
       inkscape:connector-curvature="0" />
    <path
       style="display:inline;fill:#022b3a;fill-opacity:1;stroke:#ffffff;stroke-width:0.27909169px;stroke-linecap:butt;stroke-linejoin:miter;stroke-opacity:1"
       d="m 34.320407,62.447716 v 1.589128"
       id="path1131-66-4-2"
       inkscape:connector-curvature="0" />
    <path
       style="display:inline;fill:#022b3a;fill-opacity:1;stroke:#ffffff;stroke-width:0.27909169px;stroke-linecap:butt;stroke-linejoin:miter;stroke-opacity:1"
       d="m 34.849574,62.447716 v 1.589128"
       id="path1131-6-3-1"
       inkscape:connector-curvature="0" />
    <path
       style="display:inline;fill:#022b3a;fill-opacity:1;stroke:#ffffff;stroke-width:0.25974891px;stroke-linecap:butt;stroke-linejoin:miter;stroke-opacity:1"
       d="m 35.378741,62.660356 v 1.376488"
       id="path1131-66-8-3"
       inkscape:connector-curvature="0" />
    <path
       style="display:inline;fill:#022b3a;fill-opacity:1;stroke:#ffffff;stroke-width:0.24837101px;stroke-linecap:butt;stroke-linejoin:miter;stroke-opacity:1"
       d="m 35.907908,62.778304 v 1.25854"
       id="path1131-66-4-2-6"
       inkscape:connector-curvature="0" />
    <g
       transform="matrix(0.26458333,0,0,0.26458333,3.2119319,0.61117288)"
       aria-label="dBiz"
       style="font-style:normal;font-variant:normal;font-weight:normal;font-stretch:normal;font-size:25.73079109px;line-height:1.25;font-family:'DejaVu Math TeX Gyre';-inkscape-font-specification:'DejaVu Math TeX Gyre';letter-spacing:0px;word-spacing:0px;display:inline;fill:#000000;fill-opacity:1;stroke:none;stroke-width:1.60817444;enable-background:new"
       id="text996">
      <path
         inkscape:connector-curvature="0"
         d="m 82.106012,375.2778 v -6.4327 h -0.804087 v 6.4327 z m -4.020436,2.41226 -1.608174,-1.60817 v -8.04087 l 1.608174,-1.60818 h 4.020436 v -4.82452 h 4.824524 v 16.08174 z"
         style="font-style:normal;font-variant:normal;font-weight:normal;font-stretch:normal;font-family:'High Volume';-inkscape-font-specification:'High Volume';fill:#ffffff;fill-opacity:1;stroke-width:1.60817444"
         id="path1000" />
      <path
         inkscape:connector-curvature="0"
         d="m 94.971408,368.04102 v -3.21635 h -0.804087 v 3.21635 z m -6.432698,9.64904 v -4.82452 h -0.804087 v -11.25722 h 12.061308 l 1.608179,1.60817 v 4.82453 l -1.608179,1.60817 1.608179,1.60818 v 0.80408 h -0.40205 v 4.42248 l -0.40204,0.40205 v -3.21635 h -0.804089 v 4.02043 H 99.393888 V 368.8451 H 98.5898 v 8.84496 h -0.402043 v -5.62861 H 97.38367 v 5.62861 h -0.402044 v -7.23678 h -0.804087 v 7.23678 h -0.402044 v -4.82452 h -0.804087 v -1.60817 h -0.804087 v 3.21634 h 0.804087 v 3.21635 h -0.402044 v -1.60817 h -0.804087 v 1.60817 h -0.402043 v -1.60817 h -0.804088 v 1.60817 h -0.402043 v -5.62861 h -0.804088 v 5.62861 h -0.402043 v -8.04087 h -0.804087 v 8.04087 h -0.402044 v -3.21635 h -0.804087 v 3.21635 z"
         style="font-style:normal;font-variant:normal;font-weight:normal;font-stretch:normal;font-family:'High Volume';-inkscape-font-specification:'High Volume';fill:#ffffff;fill-opacity:1;stroke-width:1.60817444"
         id="path1002" />
      <path
         inkscape:connector-curvature="0"
         d="m 102.20819,377.69006 v -11.25722 h 4.82453 v 11.25722 z m 0,-12.0613 v -4.02044 h 4.82453 v 4.02044 z"
         style="font-style:normal;font-variant:normal;font-weight:normal;font-stretch:normal;font-family:'High Volume';-inkscape-font-specification:'High Volume';fill:#ffffff;fill-opacity:1;stroke-width:1.60817444"
         id="path1004" />
      <path
         inkscape:connector-curvature="0"
         d="m 107.8368,377.69006 v -5.62861 l 1.60818,-1.60817 h 4.02043 v -1.60818 h -0.80408 v 0.80409 h -4.82453 v -1.60817 l 1.60818,-1.60818 h 8.84496 v 4.82453 l -1.60818,1.60817 h -4.02043 v 2.41226 h 0.80408 v -1.60817 h 4.82453 v 2.41226 l -1.60818,1.60817 z"
         style="font-style:normal;font-variant:normal;font-weight:normal;font-stretch:normal;font-family:'High Volume';-inkscape-font-specification:'High Volume';fill:#ffffff;fill-opacity:1;stroke-width:1.60817444"
         id="path1006" />
    </g>
    <g
       aria-label="INPUTS"
       style="font-style:normal;font-variant:normal;font-weight:normal;font-stretch:normal;font-size:1.7532382px;line-height:1.25;font-family:Oswald;-inkscape-font-specification:Oswald;letter-spacing:0px;word-spacing:0px;fill:#ffffff;fill-opacity:1;stroke:none;stroke-width:0.04383096"
       id="text2133">
      <path
         d="m 26.036941,26.900652 v -1.41937 h 0.313323 v 1.41937 z"
         style="fill:#ffffff;fill-opacity:1;stroke-width:0.04383096"
         id="path2363"
         inkscape:connector-curvature="0" />
      <path
         d="m 26.561714,26.900652 v -1.41937 h 0.220867 l 0.291921,0.681435 v -0.681435 h 0.260246 v 1.41937 h -0.212306 l -0.292777,-0.734511 v 0.734511 z"
         style="fill:#ffffff;fill-opacity:1;stroke-width:0.04383096"
         id="path2365"
         inkscape:connector-curvature="0" />
      <path
         d="m 27.857809,26.077965 h 0.10016 q 0.08475,0 0.112146,-0.0428 0.02825,-0.04366 0.02825,-0.147245 0,-0.03681 -0.0026,-0.06164 -0.0017,-0.02483 -0.01027,-0.05051 -0.0077,-0.02568 -0.02311,-0.04024 -0.01455,-0.01541 -0.04109,-0.02483 -0.02654,-0.0094 -0.06421,-0.0094 h -0.0993 z m -0.313323,0.822687 v -1.41937 h 0.473409 q 0.188336,0 0.281648,0.105297 0.09331,0.105297 0.09331,0.306475 0,0.07961 -0.01455,0.142964 -0.0137,0.06335 -0.04109,0.107009 -0.02739,0.04366 -0.06335,0.07448 -0.03595,0.02996 -0.08389,0.04708 -0.04794,0.01712 -0.09845,0.02483 -0.04965,0.0068 -0.110434,0.0068 h -0.123274 v 0.604388 z"
         style="fill:#ffffff;fill-opacity:1;stroke-width:0.04383096"
         id="path2367"
         inkscape:connector-curvature="0" />
      <path
         d="m 28.951014,26.920342 q -0.09674,0 -0.169502,-0.01969 -0.07191,-0.02055 -0.11985,-0.05736 -0.04708,-0.03681 -0.07705,-0.09502 -0.02911,-0.05907 -0.04109,-0.129267 -0.01199,-0.07105 -0.01199,-0.165222 v -0.9725 h 0.309898 v 1.018728 q 0,0.03339 0.0017,0.05736 0.0017,0.02311 0.0077,0.05051 0.0068,0.02739 0.01798,0.04537 0.01113,0.01712 0.03167,0.02911 0.0214,0.01113 0.05051,0.01113 0.02911,0 0.04965,-0.01113 0.02054,-0.01198 0.03167,-0.02911 0.01113,-0.01798 0.01712,-0.04537 0.0068,-0.02739 0.0086,-0.05137 0.0017,-0.02397 0.0017,-0.0565 v -1.018728 h 0.310754 v 0.9725 q 0,0.118138 -0.02054,0.201177 -0.01969,0.08304 -0.06677,0.144676 -0.04708,0.06164 -0.129267,0.0916 -0.08218,0.02911 -0.20289,0.02911 z"
         style="fill:#ffffff;fill-opacity:1;stroke-width:0.04383096"
         id="path2369"
         inkscape:connector-curvature="0" />
      <path
         d="m 29.702647,26.900652 v -1.187374 h -0.218299 v -0.231996 h 0.748208 v 0.231996 h -0.21573 v 1.187374 z"
         style="fill:#ffffff;fill-opacity:1;stroke-width:0.04383096"
         id="path2371"
         inkscape:connector-curvature="0" />
      <path
         d="m 30.732503,26.920342 q -0.202033,0 -0.301338,-0.10701 -0.09845,-0.107865 -0.106153,-0.343285 l 0.268807,-0.04109 q 0.0017,0.133547 0.03167,0.194328 0.03082,0.05992 0.0916,0.05992 0.07962,0 0.07962,-0.102728 0,-0.05736 -0.02055,-0.105298 -0.02055,-0.0488 -0.05051,-0.08304 -0.02996,-0.03424 -0.0839,-0.08047 l -0.125842,-0.108721 q -0.04537,-0.03938 -0.07534,-0.07191 -0.02996,-0.03253 -0.05907,-0.07705 -0.02825,-0.04537 -0.04195,-0.10016 -0.0137,-0.05479 -0.0137,-0.120707 0,-0.177207 0.106153,-0.273943 0.106154,-0.09674 0.291065,-0.09759 0.06335,0 0.114714,0.0137 0.05222,0.0137 0.08732,0.03595 0.03596,0.02226 0.06249,0.0565 0.02739,0.03339 0.0428,0.06763 0.01627,0.03339 0.02654,0.07619 0.01113,0.04195 0.01455,0.07705 0.0043,0.0351 0.006,0.07533 l -0.271375,0.0351 q -8.57e-4,-0.03595 -0.0026,-0.05907 -8.56e-4,-0.02397 -0.0043,-0.05051 -0.0034,-0.02654 -0.0094,-0.0428 -0.006,-0.01627 -0.01627,-0.02996 -0.0094,-0.01455 -0.02483,-0.02055 -0.01455,-0.006 -0.0351,-0.0051 -0.04109,8.56e-4 -0.06335,0.0351 -0.0214,0.03339 -0.0214,0.07533 0,0.04023 0.0094,0.07362 0.01027,0.03253 0.03424,0.06335 0.02483,0.03082 0.04024,0.04623 0.01541,0.01541 0.05136,0.04794 l 0.120706,0.106153 q 0.04965,0.04452 0.08561,0.08561 0.03596,0.04023 0.06848,0.09246 0.03253,0.05136 0.0488,0.113858 0.01712,0.06164 0.01712,0.132691 0,0.154093 -0.102729,0.255966 -0.102729,0.101017 -0.269663,0.101017 z"
         style="fill:#ffffff;fill-opacity:1;stroke-width:0.04383096"
         id="path2373"
         inkscape:connector-curvature="0" />
    </g>
    <g
       aria-label="LEVELS"
       style="font-style:normal;font-variant:normal;font-weight:normal;font-stretch:normal;font-size:1.75323832px;line-height:1.25;font-family:Oswald;-inkscape-font-specification:Oswald;letter-spacing:0px;word-spacing:0px;display:inline;fill:#ffffff;fill-opacity:1;stroke:none;stroke-width:0.04383096"
       id="text2133-0"
       transform="translate(0,5.8208336)">
      <path
         d="M 25.776993,35.168819 V 33.74945 h 0.313323 v 1.207063 h 0.325308 v 0.212306 z"
         style="fill:#ffffff;fill-opacity:1;stroke-width:0.04383096"
         id="path2350"
         inkscape:connector-curvature="0" />
      <path
         d="M 26.554308,35.168819 V 33.74945 h 0.637774 v 0.214018 h -0.324451 v 0.35099 h 0.247405 v 0.218299 h -0.247405 v 0.423756 h 0.327876 v 0.212306 z"
         style="fill:#ffffff;fill-opacity:1;stroke-width:0.04383096"
         id="path2352"
         inkscape:connector-curvature="0" />
      <path
         d="M 27.530231,35.168819 27.273409,33.74945 h 0.267951 l 0.152381,0.95709 0.141253,-0.95709 h 0.285072 l -0.260246,1.419369 z"
         style="fill:#ffffff;fill-opacity:1;stroke-width:0.04383096"
         id="path2354"
         inkscape:connector-curvature="0" />
      <path
         d="M 28.26303,35.168819 V 33.74945 h 0.637775 v 0.214018 h -0.324452 v 0.35099 h 0.247405 v 0.218299 h -0.247405 v 0.423756 h 0.327876 v 0.212306 z"
         style="fill:#ffffff;fill-opacity:1;stroke-width:0.04383096"
         id="path2356"
         inkscape:connector-curvature="0" />
      <path
         d="M 29.047194,35.168819 V 33.74945 h 0.313322 v 1.207063 h 0.325308 v 0.212306 z"
         style="fill:#ffffff;fill-opacity:1;stroke-width:0.04383096"
         id="path2358"
         inkscape:connector-curvature="0" />
      <path
         d="m 30.20118,35.188509 q -0.202033,0 -0.301338,-0.107009 -0.09845,-0.107865 -0.106153,-0.343285 l 0.268807,-0.04109 q 0.0017,0.133547 0.03167,0.194329 0.03082,0.05992 0.0916,0.05992 0.07962,0 0.07962,-0.102729 0,-0.05736 -0.02055,-0.105297 -0.02055,-0.0488 -0.05051,-0.08304 -0.02996,-0.03424 -0.0839,-0.08047 L 29.984594,34.47112 q -0.04537,-0.03938 -0.07534,-0.07191 -0.02996,-0.03253 -0.05907,-0.07705 -0.02825,-0.04537 -0.04195,-0.100161 -0.0137,-0.05479 -0.0137,-0.120706 0,-0.177207 0.106154,-0.273944 0.106153,-0.09674 0.291064,-0.09759 0.06335,0 0.114714,0.0137 0.05222,0.0137 0.08732,0.03596 0.03596,0.02226 0.06249,0.0565 0.02739,0.03339 0.0428,0.06763 0.01627,0.03339 0.02654,0.07619 0.01113,0.04195 0.01455,0.07705 0.0043,0.0351 0.006,0.07533 l -0.271375,0.0351 q -8.56e-4,-0.03596 -0.0026,-0.05907 -8.56e-4,-0.02397 -0.0043,-0.05051 -0.0034,-0.02654 -0.0094,-0.0428 -0.006,-0.01626 -0.01627,-0.02996 -0.0094,-0.01455 -0.02483,-0.02055 -0.01455,-0.006 -0.0351,-0.0051 -0.04109,8.56e-4 -0.06335,0.0351 -0.0214,0.03339 -0.0214,0.07533 0,0.04024 0.0094,0.07362 0.01027,0.03253 0.03424,0.06335 0.02483,0.03082 0.04024,0.04623 0.01541,0.01541 0.05136,0.04794 l 0.120706,0.106153 q 0.04965,0.04452 0.08561,0.08561 0.03596,0.04024 0.06849,0.09246 0.03253,0.05136 0.0488,0.113858 0.01712,0.06164 0.01712,0.132692 0,0.154093 -0.102729,0.255965 -0.102728,0.101017 -0.269663,0.101017 z"
         style="fill:#ffffff;fill-opacity:1;stroke-width:0.04383096"
         id="path2360"
         inkscape:connector-curvature="0" />
    </g>
    <g
       aria-label="OUT A"
       style="font-style:normal;font-variant:normal;font-weight:normal;font-stretch:normal;font-size:2.65776348px;line-height:1.25;font-family:Oswald;-inkscape-font-specification:Oswald;letter-spacing:0px;word-spacing:0px;display:inline;fill:#000000;fill-opacity:0.97695851;stroke:none;stroke-width:0.06644409"
       id="text2133-3">
      <path
         d="m 8.3641399,14.579726 q -0.1790875,0 -0.3062657,-0.04672 Q 7.9319938,14.484991 7.8567251,14.391554 7.7827542,14.29682 7.749013,14.169641 7.7165696,14.042463 7.7165696,13.869864 V 13.07565 q 0,-0.173897 0.032443,-0.299777 0.033741,-0.127178 0.1077121,-0.220615 0.075269,-0.09344 0.2011491,-0.140156 0.1271782,-0.04672 0.3062657,-0.04672 0.349091,0 0.4996284,0.179087 0.1518351,0.17779 0.1518351,0.528179 v 0.794214 q 0,0.350389 -0.1518351,0.530774 -0.1505374,0.179088 -0.4996284,0.179088 z M 8.290169,14.22804 q 0.031146,0.01557 0.073971,0.01557 0.042825,0 0.073971,-0.01428 0.031146,-0.01557 0.048016,-0.03763 0.016871,-0.02336 0.025955,-0.0597 0.010382,-0.03634 0.012977,-0.06748 0.0026,-0.03244 0.0026,-0.07657 v -1.0317 q 0,-0.04283 -0.0026,-0.07397 Q 8.522459,12.84984 8.512082,12.8148 8.503002,12.77846 8.486127,12.7564 8.469257,12.73434 8.438111,12.72006 8.406965,12.70449 8.36414,12.70449 q -0.042825,0 -0.073971,0.01557 -0.029848,0.01427 -0.046719,0.03634 -0.016871,0.02076 -0.025955,0.0584 -0.00908,0.03634 -0.01168,0.06619 -0.0013,0.02985 -0.0013,0.07527 v 1.0317 q 0,0.04542 0.0013,0.07657 0.0026,0.02985 0.01168,0.06748 0.00908,0.03634 0.025955,0.0584 0.01687,0.02206 0.046719,0.03763 z"
         style="fill:#000000;fill-opacity:0.97695851;stroke-width:0.06644409"
         id="path2341"
         inkscape:connector-curvature="0" />
      <path
         d="m 9.9253164,14.579726 q -0.1466442,0 -0.2569517,-0.02985 -0.1090099,-0.03115 -0.1816831,-0.08695 -0.071376,-0.0558 -0.1167962,-0.144049 -0.044123,-0.08954 -0.062291,-0.195958 -0.018168,-0.107712 -0.018168,-0.250463 v -1.474228 h 0.4697805 v 1.544306 q 0,0.05061 0.0026,0.08695 0.0026,0.03504 0.01168,0.07657 0.010382,0.04153 0.027252,0.06878 0.01687,0.02595 0.048016,0.04412 0.032443,0.01687 0.076566,0.01687 0.044123,0 0.075269,-0.01687 0.03115,-0.01817 0.04802,-0.04412 0.01687,-0.02725 0.02595,-0.06878 0.01038,-0.04153 0.01298,-0.07786 0.0026,-0.03634 0.0026,-0.08565 v -1.544306 h 0.471078 v 1.474228 q 0,0.179087 -0.03115,0.304968 -0.02985,0.12588 -0.101223,0.219317 -0.07138,0.09344 -0.195958,0.138858 -0.124583,0.04412 -0.3075693,0.04412 z"
         style="fill:#000000;fill-opacity:0.97695851;stroke-width:0.06644409"
         id="path2343"
         inkscape:connector-curvature="0" />
      <path
         d="m 11.064729,14.549878 v -1.79996 h -0.330923 v -0.351686 h 1.134221 v 0.351686 h -0.327029 v 1.79996 z"
         style="fill:#000000;fill-opacity:0.97695851;stroke-width:0.06644409"
         id="path2345"
         inkscape:connector-curvature="0" />
      <path
         d="m 13.2021,13.808871 h 0.229699 l -0.115498,-0.833147 z m -0.564515,0.741007 0.407489,-2.151646 h 0.537263 l 0.404894,2.151646 h -0.438635 l -0.07397,-0.456803 h -0.314052 l -0.07267,0.456803 z"
         style="fill:#000000;fill-opacity:0.97695851;stroke-width:0.06644409"
         id="path2347"
         inkscape:connector-curvature="0" />
    </g>
    <g
       aria-label="OUT B"
       style="font-style:normal;font-variant:normal;font-weight:normal;font-stretch:normal;font-size:2.65776348px;line-height:1.25;font-family:Oswald;-inkscape-font-specification:Oswald;letter-spacing:0px;word-spacing:0px;display:inline;fill:#000000;fill-opacity:0.97695851;stroke:none;stroke-width:0.06644409"
       id="text2133-3-6">
      <path
         d="m 26.35581,14.579726 q -0.179088,0 -0.306266,-0.04672 -0.125881,-0.04802 -0.201149,-0.141454 -0.07397,-0.09473 -0.107712,-0.221913 -0.03244,-0.127178 -0.03244,-0.299777 V 13.07565 q 0,-0.173897 0.03244,-0.299777 0.03374,-0.127178 0.107712,-0.220615 0.07527,-0.09344 0.201149,-0.140156 0.127178,-0.04672 0.306266,-0.04672 0.349091,0 0.499628,0.179087 0.151835,0.17779 0.151835,0.528179 v 0.794214 q 0,0.350389 -0.151835,0.530774 -0.150537,0.179088 -0.499628,0.179088 z M 26.28184,14.22804 q 0.03114,0.01557 0.07397,0.01557 0.04282,0 0.07397,-0.01428 0.03115,-0.01557 0.04802,-0.03763 0.01687,-0.02336 0.02595,-0.0597 0.01038,-0.03634 0.01298,-0.06748 0.0026,-0.03244 0.0026,-0.07657 v -1.0317 q 0,-0.04283 -0.0026,-0.07397 -0.0026,-0.03244 -0.01298,-0.06748 -0.0091,-0.03634 -0.02595,-0.0584 -0.01687,-0.02206 -0.04802,-0.03634 -0.03115,-0.01557 -0.07397,-0.01557 -0.04283,0 -0.07397,0.01557 -0.02985,0.01427 -0.04672,0.03634 -0.01687,0.02076 -0.02595,0.0584 -0.0091,0.03634 -0.01168,0.06619 -0.0013,0.02985 -0.0013,0.07527 v 1.0317 q 0,0.04542 0.0013,0.07657 0.0026,0.02985 0.01168,0.06748 0.0091,0.03634 0.02595,0.0584 0.01687,0.02206 0.04672,0.03763 z"
         style="fill:#000000;fill-opacity:0.97695851;stroke-width:0.06644409"
         id="path2332"
         inkscape:connector-curvature="0" />
      <path
         d="m 27.916986,14.579726 q -0.146644,0 -0.256952,-0.02985 -0.109009,-0.03115 -0.181683,-0.08695 -0.07137,-0.0558 -0.116796,-0.144049 -0.04412,-0.08954 -0.06229,-0.195958 -0.01817,-0.107712 -0.01817,-0.250463 v -1.474228 h 0.469781 v 1.544306 q 0,0.05061 0.0026,0.08695 0.0026,0.03504 0.01168,0.07657 0.01038,0.04153 0.02725,0.06878 0.01687,0.02595 0.04802,0.04412 0.03244,0.01687 0.07657,0.01687 0.04412,0 0.07527,-0.01687 0.03114,-0.01817 0.04802,-0.04412 0.01687,-0.02725 0.02595,-0.06878 0.01038,-0.04153 0.01298,-0.07786 0.0026,-0.03634 0.0026,-0.08565 v -1.544306 h 0.471078 v 1.474228 q 0,0.179087 -0.03115,0.304968 -0.02985,0.12588 -0.101223,0.219317 -0.07138,0.09344 -0.195958,0.138858 -0.124583,0.04412 -0.307564,0.04412 z"
         style="fill:#000000;fill-opacity:0.97695851;stroke-width:0.06644409"
         id="path2334"
         inkscape:connector-curvature="0" />
      <path
         d="m 29.056398,14.549878 v -1.79996 h -0.330922 v -0.351686 h 1.134221 v 0.351686 h -0.327029 v 1.79996 z"
         style="fill:#000000;fill-opacity:0.97695851;stroke-width:0.06644409"
         id="path2336"
         inkscape:connector-curvature="0" />
      <path
         d="m 31.206747,13.258631 h 0.09084 q 0.153133,0 0.207637,-0.06878 0.0558,-0.06878 0.0558,-0.21802 0,-0.254356 -0.279013,-0.254356 h -0.07527 z m 0,0.959027 h 0.09993 q 0.15443,0 0.216722,-0.07527 0.06229,-0.07527 0.06229,-0.237486 0,-0.181683 -0.06359,-0.256951 -0.06359,-0.07527 -0.221913,-0.07527 h -0.09344 z m -0.474971,0.33222 v -2.151646 h 0.560622 q 0.120689,0 0.214126,0.01298 0.09474,0.01168 0.186874,0.04802 0.09344,0.03634 0.153133,0.09733 0.06099,0.05969 0.09733,0.163514 0.03374,0.09603 0.03244,0.223211 0,0.0091 0,0.01817 -0.0052,0.376344 -0.31535,0.432146 0.185576,0.02466 0.282906,0.155729 0.09733,0.131071 0.09993,0.362068 0,0.0078 0,0.01428 -0.0013,0.31535 -0.164813,0.468483 -0.168705,0.155728 -0.485353,0.155728 z"
         style="fill:#000000;fill-opacity:0.97695851;stroke-width:0.06644409"
         id="path2338"
         inkscape:connector-curvature="0" />
    </g>
    <g
       aria-label="OUT C"
       style="font-style:normal;font-variant:normal;font-weight:normal;font-stretch:normal;font-size:2.65776348px;line-height:1.25;font-family:Oswald;-inkscape-font-specification:Oswald;letter-spacing:0px;word-spacing:0px;display:inline;fill:#000000;fill-opacity:0.97695851;stroke:none;stroke-width:0.06644409"
       id="text2133-3-6-2">
      <path
         d="m 44.347476,14.579726 q -0.179087,0 -0.306265,-0.04672 -0.125881,-0.04802 -0.201149,-0.141454 -0.07397,-0.09473 -0.107713,-0.221913 -0.03244,-0.127178 -0.03244,-0.299777 V 13.07565 q 0,-0.173897 0.03244,-0.299777 0.03374,-0.127178 0.107713,-0.220615 0.07527,-0.09344 0.201149,-0.140156 0.127178,-0.04672 0.306265,-0.04672 0.349091,0 0.499629,0.179087 0.151835,0.17779 0.151835,0.528179 v 0.794214 q 0,0.350389 -0.151835,0.530774 -0.150538,0.179088 -0.499629,0.179088 z m -0.07397,-0.351686 q 0.03115,0.01557 0.07397,0.01557 0.04283,0 0.07397,-0.01428 0.03115,-0.01557 0.04802,-0.03763 0.01687,-0.02336 0.02595,-0.0597 0.01038,-0.03634 0.01298,-0.06748 0.0026,-0.03244 0.0026,-0.07657 v -1.0317 q 0,-0.04283 -0.0026,-0.07397 -0.0026,-0.03244 -0.01298,-0.06748 -0.0091,-0.03634 -0.02595,-0.0584 -0.01687,-0.02206 -0.04802,-0.03634 -0.03115,-0.01557 -0.07397,-0.01557 -0.04283,0 -0.07397,0.01557 -0.02985,0.01427 -0.04672,0.03634 -0.01687,0.02076 -0.02596,0.0584 -0.0091,0.03634 -0.01168,0.06619 -0.0013,0.02985 -0.0013,0.07527 v 1.0317 q 0,0.04542 0.0013,0.07657 0.0026,0.02985 0.01168,0.06748 0.0091,0.03634 0.02596,0.0584 0.01687,0.02206 0.04672,0.03763 z"
         style="fill:#000000;fill-opacity:0.97695851;stroke-width:0.06644409"
         id="path2323"
         inkscape:connector-curvature="0" />
      <path
         d="m 45.908653,14.579726 q -0.146644,0 -0.256952,-0.02985 -0.10901,-0.03115 -0.181683,-0.08695 -0.07138,-0.0558 -0.116796,-0.144049 -0.04412,-0.08954 -0.06229,-0.195958 -0.01817,-0.107712 -0.01817,-0.250463 v -1.474228 h 0.469781 v 1.544306 q 0,0.05061 0.0026,0.08695 0.0026,0.03504 0.01168,0.07657 0.01038,0.04153 0.02725,0.06878 0.01687,0.02595 0.04802,0.04412 0.03244,0.01687 0.07657,0.01687 0.04412,0 0.07527,-0.01687 0.03115,-0.01817 0.04802,-0.04412 0.01687,-0.02725 0.02596,-0.06878 0.01038,-0.04153 0.01298,-0.07786 0.0026,-0.03634 0.0026,-0.08565 v -1.544306 h 0.471079 v 1.474228 q 0,0.179087 -0.03115,0.304968 -0.02985,0.12588 -0.101224,0.219317 -0.07138,0.09344 -0.195958,0.138858 -0.124582,0.04412 -0.307563,0.04412 z"
         style="fill:#000000;fill-opacity:0.97695851;stroke-width:0.06644409"
         id="path2325"
         inkscape:connector-curvature="0" />
      <path
         d="m 47.048065,14.549878 v -1.79996 h -0.330922 v -0.351686 h 1.134221 v 0.351686 h -0.32703 v 1.79996 z"
         style="fill:#000000;fill-opacity:0.97695851;stroke-width:0.06644409"
         id="path2327"
         inkscape:connector-curvature="0" />
      <path
         d="m 49.339867,14.579726 q -0.180385,0 -0.307563,-0.04931 -0.127178,-0.05061 -0.201149,-0.147942 -0.07267,-0.09733 -0.105117,-0.224508 -0.03244,-0.127178 -0.03244,-0.298479 v -0.766962 q 0,-0.175195 0.03244,-0.303671 0.03244,-0.129773 0.105117,-0.225806 0.07397,-0.09733 0.199851,-0.145346 0.127178,-0.04931 0.308861,-0.04931 0.173897,0 0.295884,0.04412 0.123285,0.04412 0.192065,0.129773 0.07008,0.08565 0.09993,0.194661 0.03114,0.10901 0.03114,0.253058 v 0.18947 h -0.464589 v -0.216722 q 0,-0.05061 -0.0013,-0.07657 -0.0013,-0.02595 -0.0091,-0.06618 -0.0078,-0.04153 -0.02336,-0.06229 -0.01428,-0.02076 -0.04542,-0.03634 -0.03115,-0.01687 -0.07527,-0.01687 -0.04412,0 -0.07527,0.01687 -0.03115,0.01557 -0.04802,0.03893 -0.01557,0.02206 -0.02595,0.06229 -0.0091,0.03893 -0.01168,0.07138 -0.0013,0.03244 -0.0013,0.08046 v 1.00315 q 0,0.129773 0.03374,0.198553 0.03374,0.06748 0.128476,0.06748 0.04283,0 0.07267,-0.01557 0.03115,-0.01687 0.04672,-0.03893 0.01557,-0.02206 0.02336,-0.06229 0.0091,-0.04023 0.01038,-0.07008 0.0013,-0.02985 0.0013,-0.07916 V 13.75177 h 0.464589 v 0.185577 q 0,0.115498 -0.01817,0.208935 -0.01817,0.09344 -0.06229,0.176492 -0.04283,0.08176 -0.112903,0.13756 -0.06878,0.0558 -0.176492,0.08825 -0.107713,0.03115 -0.249166,0.03115 z"
         style="fill:#000000;fill-opacity:0.97695851;stroke-width:0.06644409"
         id="path2329"
         inkscape:connector-curvature="0" />
    </g>
    <g
       aria-label="CH SELECT"
       style="font-style:normal;font-variant:normal;font-weight:normal;font-stretch:normal;font-size:1.75323832px;line-height:1.25;font-family:Oswald;-inkscape-font-specification:Oswald;letter-spacing:0px;word-spacing:0px;display:inline;fill:#ffffff;fill-opacity:1;stroke:none;stroke-width:0.04383096"
       id="text2133-0-1">
      <path
         d="m 3.3123353,51.816939 q -0.1189942,0 -0.2028894,-0.03253 -0.083895,-0.03339 -0.1326913,-0.09759 -0.04794,-0.06421 -0.069342,-0.1481 -0.021402,-0.0839 -0.021402,-0.196897 v -0.50594 q 0,-0.115569 0.021402,-0.200321 0.021402,-0.08561 0.069342,-0.148957 0.048796,-0.06421 0.1318353,-0.09588 0.083895,-0.03253 0.2037454,-0.03253 0.1147139,0 0.1951848,0.02911 0.081327,0.02911 0.1266988,0.08561 0.046228,0.0565 0.065918,0.128411 0.020546,0.07191 0.020546,0.166935 v 0.124986 H 3.4142081 v -0.142964 q 0,-0.03339 -8.561e-4,-0.05051 -8.561e-4,-0.01712 -0.00599,-0.04366 -0.00514,-0.02739 -0.015409,-0.04109 -0.00942,-0.0137 -0.029963,-0.02397 -0.020546,-0.01113 -0.049652,-0.01113 -0.029107,0 -0.049652,0.01113 -0.020546,0.01027 -0.031675,0.02568 -0.010273,0.01455 -0.017122,0.04109 -0.00599,0.02568 -0.0077,0.04708 -8.56e-4,0.0214 -8.56e-4,0.05308 v 0.661744 q 0,0.08561 0.022258,0.13098 0.022258,0.04452 0.084751,0.04452 0.02825,0 0.04794,-0.01027 0.020546,-0.01113 0.030819,-0.02568 0.010273,-0.01455 0.015409,-0.04109 0.00599,-0.02654 0.00685,-0.04623 8.561e-4,-0.01969 8.561e-4,-0.05222 V 51.27078 h 0.3064742 v 0.122418 q 0,0.07619 -0.011985,0.137828 -0.011985,0.06164 -0.041091,0.116426 -0.02825,0.05393 -0.074478,0.09074 -0.045372,0.03681 -0.116426,0.05821 -0.071054,0.02055 -0.1643661,0.02055 z"
         style="fill:#ffffff;fill-opacity:1;stroke-width:0.04383096"
         id="path2398"
         inkscape:connector-curvature="0" />
      <path
         d="m 3.8978896,51.797249 v -1.41937 h 0.3141789 v 0.573569 h 0.2182987 v -0.573569 h 0.314179 v 1.41937 H 4.4303672 V 51.17574 H 4.2120685 v 0.621509 z"
         style="fill:#ffffff;fill-opacity:1;stroke-width:0.04383096"
         id="path2400"
         inkscape:connector-curvature="0" />
      <path
         d="m 5.7889557,51.816939 q -0.2020333,0 -0.3013378,-0.10701 -0.098448,-0.107865 -0.1061531,-0.343285 l 0.2688071,-0.04109 q 0.00171,0.133548 0.031675,0.194329 0.030819,0.05992 0.0916,0.05992 0.079615,0 0.079615,-0.102729 0,-0.05736 -0.020546,-0.105297 -0.020546,-0.0488 -0.050508,-0.08304 -0.029963,-0.03424 -0.083895,-0.08047 L 5.5723692,51.099549 q -0.045372,-0.03938 -0.075334,-0.07191 -0.029963,-0.03253 -0.059069,-0.07705 -0.02825,-0.04537 -0.041948,-0.10016 -0.013697,-0.05479 -0.013697,-0.120707 0,-0.177207 0.1061531,-0.273943 0.1061531,-0.09674 0.2910649,-0.09759 0.063349,0 0.1147139,0.0137 0.05222,0.0137 0.087319,0.03596 0.035955,0.02226 0.062493,0.0565 0.027394,0.03339 0.042804,0.06763 0.016265,0.03339 0.026538,0.07619 0.011129,0.04195 0.014553,0.07705 0.00428,0.0351 0.00599,0.07534 l -0.2713752,0.0351 q -8.561e-4,-0.03596 -0.00257,-0.05907 -8.56e-4,-0.02397 -0.00428,-0.05051 -0.00342,-0.02654 -0.00942,-0.0428 -0.00599,-0.01626 -0.016265,-0.02996 -0.00942,-0.01455 -0.024826,-0.02054 -0.014553,-0.006 -0.035099,-0.0051 -0.041092,8.56e-4 -0.063349,0.0351 -0.021402,0.03339 -0.021402,0.07534 0,0.04024 0.00942,0.07362 0.010273,0.03253 0.034243,0.06335 0.024826,0.03082 0.040236,0.04623 0.015409,0.01541 0.051364,0.04794 l 0.1207063,0.106154 q 0.049652,0.04451 0.085607,0.08561 0.035955,0.04024 0.068486,0.09246 0.032531,0.05136 0.048796,0.113858 0.017122,0.06164 0.017122,0.132691 0,0.154093 -0.1027288,0.255966 -0.1027288,0.101017 -0.2696632,0.101017 z"
         style="fill:#ffffff;fill-opacity:1;stroke-width:0.04383096"
         id="path2402"
         inkscape:connector-curvature="0" />
      <path
         d="m 6.3128727,51.797249 v -1.41937 h 0.6377747 v 0.214018 H 6.6261955 v 0.350991 h 0.2474053 v 0.218298 H 6.6261955 v 0.423757 h 0.3278762 v 0.212306 z"
         style="fill:#ffffff;fill-opacity:1;stroke-width:0.04383096"
         id="path2404"
         inkscape:connector-curvature="0" />
      <path
         d="m 7.0970362,51.797249 v -1.41937 H 7.410359 v 1.207064 h 0.3253079 v 0.212306 z"
         style="fill:#ffffff;fill-opacity:1;stroke-width:0.04383096"
         id="path2406"
         inkscape:connector-curvature="0" />
      <path
         d="m 7.8743503,51.797249 v -1.41937 H 8.512125 v 0.214018 H 8.1876732 v 0.350991 h 0.2474052 v 0.218298 H 8.1876732 v 0.423757 h 0.3278761 v 0.212306 z"
         style="fill:#ffffff;fill-opacity:1;stroke-width:0.04383096"
         id="path2408"
         inkscape:connector-curvature="0" />
      <path
         d="m 9.0651487,51.816939 q -0.1189942,0 -0.2028894,-0.03253 -0.083895,-0.03339 -0.1326914,-0.09759 -0.04794,-0.06421 -0.069342,-0.1481 -0.021402,-0.0839 -0.021402,-0.196897 v -0.50594 q 0,-0.115569 0.021402,-0.200321 0.021402,-0.08561 0.069342,-0.148957 0.048796,-0.06421 0.1318353,-0.09588 0.083895,-0.03253 0.2037455,-0.03253 0.1147138,0 0.1951847,0.02911 0.081327,0.02911 0.1266989,0.08561 0.046228,0.0565 0.065918,0.128411 0.020546,0.07191 0.020546,0.166935 v 0.124986 H 9.1670214 v -0.142964 q 0,-0.03339 -8.561e-4,-0.05051 -8.56e-4,-0.01712 -0.00599,-0.04366 -0.00514,-0.02739 -0.015409,-0.04109 -0.00942,-0.0137 -0.029963,-0.02397 -0.020546,-0.01113 -0.049652,-0.01113 -0.029106,0 -0.049652,0.01113 -0.020546,0.01027 -0.031675,0.02568 -0.010273,0.01455 -0.017122,0.04109 -0.00599,0.02568 -0.0077,0.04708 -8.561e-4,0.0214 -8.561e-4,0.05308 v 0.661744 q 0,0.08561 0.022258,0.13098 0.022258,0.04452 0.084751,0.04452 0.02825,0 0.04794,-0.01027 0.020546,-0.01113 0.030819,-0.02568 0.010273,-0.01455 0.015409,-0.04109 0.00599,-0.02654 0.00685,-0.04623 8.561e-4,-0.01969 8.561e-4,-0.05222 V 51.27078 h 0.3064743 v 0.122418 q 0,0.07619 -0.011985,0.137828 -0.011985,0.06164 -0.041092,0.116426 -0.02825,0.05393 -0.074478,0.09074 -0.045372,0.03681 -0.116426,0.05821 -0.071054,0.02055 -0.1643661,0.02055 z"
         style="fill:#ffffff;fill-opacity:1;stroke-width:0.04383096"
         id="path2410"
         inkscape:connector-curvature="0" />
      <path
         d="M 9.7756896,51.797249 V 50.609875 H 9.5573908 v -0.231996 h 0.7482082 v 0.231996 h -0.215731 v 1.187374 z"
         style="fill:#ffffff;fill-opacity:1;stroke-width:0.04383096"
         id="path2412"
         inkscape:connector-curvature="0" />
    </g>
    <g
       aria-label="RANGE"
       style="font-style:normal;font-variant:normal;font-weight:normal;font-stretch:normal;font-size:1.75323832px;line-height:1.25;font-family:Oswald;-inkscape-font-specification:Oswald;letter-spacing:0px;word-spacing:0px;display:inline;fill:#ffffff;fill-opacity:1;stroke:none;stroke-width:0.04383096"
       id="text2133-0-1-4"
       transform="translate(0,1.0583333)">
      <path
         d="m 26.916797,47.468735 h 0.08047 q 0.09588,0 0.135259,-0.04965 0.03938,-0.04965 0.03938,-0.149812 0,-0.09845 -0.03596,-0.145533 -0.0351,-0.04794 -0.122419,-0.04794 h -0.09674 z m -0.313323,0.815838 v -1.41937 h 0.386945 q 0.08989,0 0.15923,0.01027 0.06934,0.01027 0.130123,0.03596 0.06078,0.02568 0.100161,0.06763 0.03938,0.04195 0.06164,0.107865 0.02226,0.06592 0.02226,0.154093 0,0.13954 -0.03767,0.224291 -0.03767,0.08475 -0.136115,0.131836 l 0.195185,0.687427 h -0.324452 l -0.155806,-0.635207 h -0.08817 v 0.635207 z"
         style="fill:#ffffff;fill-opacity:1;stroke-width:0.04383096"
         id="path2387"
         inkscape:connector-curvature="0" />
      <path
         d="m 27.95607,47.795755 h 0.151525 l -0.07619,-0.549599 z m -0.372392,0.488818 0.268807,-1.41937 h 0.354414 l 0.267095,1.41937 h -0.289353 l -0.0488,-0.301338 h -0.207169 l -0.04794,0.301338 z"
         style="fill:#ffffff;fill-opacity:1;stroke-width:0.04383096"
         id="path2389"
         inkscape:connector-curvature="0" />
      <path
         d="m 28.616958,48.284573 v -1.41937 h 0.220867 l 0.291921,0.681434 v -0.681434 h 0.260247 v 1.41937 h -0.212307 l -0.292777,-0.734511 v 0.734511 z"
         style="fill:#ffffff;fill-opacity:1;stroke-width:0.04383096"
         id="path2391"
         inkscape:connector-curvature="0" />
      <path
         d="m 29.970411,48.305118 q -0.107866,0 -0.184912,-0.03424 -0.07619,-0.0351 -0.120707,-0.101872 -0.04451,-0.06677 -0.06506,-0.154094 -0.01969,-0.08732 -0.01969,-0.202033 V 47.34118 q 0,-0.09417 0.01284,-0.168647 0.0137,-0.07448 0.04366,-0.136971 0.03082,-0.06249 0.07962,-0.103585 0.0488,-0.04109 0.121562,-0.06335 0.07277,-0.02311 0.168647,-0.02311 0.09246,0 0.16351,0.01969 0.07105,0.01969 0.118138,0.05479 0.04794,0.0351 0.0779,0.08817 0.02996,0.05222 0.0428,0.114714 0.01284,0.06164 0.01284,0.138684 v 0.08989 h -0.306474 v -0.113858 q 0,-0.03253 -0.0017,-0.05308 -8.56e-4,-0.02054 -0.0068,-0.04537 -0.0051,-0.02483 -0.01626,-0.03852 -0.01027,-0.0137 -0.03082,-0.02311 -0.01969,-0.01027 -0.0488,-0.01027 -0.02996,0 -0.05136,0.01113 -0.02055,0.01113 -0.03168,0.02739 -0.01113,0.01541 -0.01798,0.04195 -0.006,0.02654 -0.0077,0.0488 -8.56e-4,0.0214 -8.56e-4,0.05308 v 0.64976 q 0,0.08475 0.02483,0.134403 0.02568,0.0488 0.09246,0.0488 0.123274,0 0.123274,-0.189192 v -0.15923 h -0.128411 v -0.18748 h 0.411772 v 0.737936 H 30.21696 l -0.01798,-0.118995 q -0.06249,0.13954 -0.228571,0.13954 z"
         style="fill:#ffffff;fill-opacity:1;stroke-width:0.04383096"
         id="path2393"
         inkscape:connector-curvature="0" />
      <path
         d="m 30.62017,48.284573 v -1.41937 h 0.637775 v 0.214018 h -0.324452 v 0.35099 h 0.247405 v 0.218299 h -0.247405 v 0.423756 h 0.327876 v 0.212307 z"
         style="fill:#ffffff;fill-opacity:1;stroke-width:0.04383096"
         id="path2395"
         inkscape:connector-curvature="0" />
    </g>
    <g
       aria-label="LEVEL"
       style="font-style:normal;font-variant:normal;font-weight:normal;font-stretch:normal;font-size:1.75323832px;line-height:1.25;font-family:Oswald;-inkscape-font-specification:Oswald;letter-spacing:0px;word-spacing:0px;display:inline;fill:#ffffff;fill-opacity:1;stroke:none;stroke-width:0.04383096"
       id="text2133-0-1-9">
      <path
         d="m 46.511042,51.81694 v -1.419369 h 0.313323 v 1.207063 h 0.325308 v 0.212306 z"
         style="fill:#ffffff;fill-opacity:1;stroke-width:0.04383096"
         id="path2376"
         inkscape:connector-curvature="0" />
      <path
         d="m 47.288357,51.81694 v -1.419369 h 0.637774 v 0.214018 h -0.324452 v 0.35099 h 0.247406 v 0.218299 h -0.247406 v 0.423756 h 0.327877 v 0.212306 z"
         style="fill:#ffffff;fill-opacity:1;stroke-width:0.04383096"
         id="path2378"
         inkscape:connector-curvature="0" />
      <path
         d="m 48.26428,51.81694 -0.256822,-1.419369 h 0.267951 l 0.152381,0.95709 0.141252,-0.95709 h 0.285073 l -0.260246,1.419369 z"
         style="fill:#ffffff;fill-opacity:1;stroke-width:0.04383096"
         id="path2380"
         inkscape:connector-curvature="0" />
      <path
         d="m 48.997079,51.81694 v -1.419369 h 0.637775 v 0.214018 h -0.324452 v 0.35099 h 0.247405 v 0.218299 h -0.247405 v 0.423756 h 0.327876 v 0.212306 z"
         style="fill:#ffffff;fill-opacity:1;stroke-width:0.04383096"
         id="path2382"
         inkscape:connector-curvature="0" />
      <path
         d="m 49.781242,51.81694 v -1.419369 h 0.313323 v 1.207063 h 0.325308 v 0.212306 z"
         style="fill:#ffffff;fill-opacity:1;stroke-width:0.04383096"
         id="path2384"
         inkscape:connector-curvature="0" />
    </g>
  </g>
  <g
     inkscape:groupmode="layer"
     id="layer4"
     inkscape:label="Layer 4"
     style="display:inline">
    <rect
       transform="translate(0,-196.45832)"
       style="display:inline;opacity:1;fill:#e7e7e7;fill-opacity:1;stroke:#022b3a;stroke-width:0.13229167;stroke-miterlimit:4;stroke-dasharray:none;stroke-opacity:0"
       id="rect2469"
       width="8.2921534"
       height="12.923806"
       x="6.7233677"
       y="278.9216"
       ry="1.4193785" />
    <rect
       transform="translate(0,-196.45832)"
       style="display:inline;opacity:1;fill:#e7e7e7;fill-opacity:1;stroke:#022b3a;stroke-width:0.13229167;stroke-miterlimit:4;stroke-dasharray:none;stroke-opacity:0"
       id="rect2469-2"
       width="8.2921534"
       height="12.923806"
       x="43.23587"
       y="278.9216"
       ry="1.4193785" />
    <rect
       transform="translate(0,-196.45832)"
       style="display:inline;opacity:1;fill:#e7e7e7;fill-opacity:1;stroke:#022b3a;stroke-width:0.13229167;stroke-miterlimit:4;stroke-dasharray:none;stroke-opacity:0"
       id="rect2486"
       width="15.68786"
       height="18.676058"
       x="21.888298"
       y="271.30179"
       ry="1.4193785" />
    <g
       aria-label="CV-RANGE"
       style="font-style:normal;font-variant:normal;font-weight:normal;font-stretch:normal;font-size:1.75323832px;line-height:1.25;font-family:Oswald;-inkscape-font-specification:Oswald;letter-spacing:0px;word-spacing:0px;display:inline;fill:#000000;fill-opacity:1;stroke:none;stroke-width:0.04383096"
       id="text2133-0-1-4-5"
       transform="matrix(0.74409993,0,0,0.74409993,6.4214661,16.936618)">
      <path
         d="m 33.935381,80.55506 q -0.118994,0 -0.20289,-0.03253 -0.0839,-0.03339 -0.132691,-0.09759 -0.04794,-0.06421 -0.06934,-0.1481 -0.0214,-0.08389 -0.0214,-0.196897 v -0.50594 q 0,-0.115569 0.0214,-0.200321 0.0214,-0.08561 0.06934,-0.148957 0.0488,-0.06421 0.131835,-0.09588 0.0839,-0.03253 0.203746,-0.03253 0.114714,0 0.195185,0.02911 0.08133,0.02911 0.126698,0.08561 0.04623,0.0565 0.06592,0.128411 0.02055,0.07191 0.02055,0.166935 v 0.124986 H 34.03726 v -0.142964 q 0,-0.03339 -8.57e-4,-0.05051 -8.56e-4,-0.01712 -0.006,-0.04366 -0.0051,-0.02739 -0.01541,-0.04109 -0.0094,-0.0137 -0.02996,-0.02397 -0.02055,-0.01113 -0.04965,-0.01113 -0.02911,0 -0.04965,0.01113 -0.02055,0.01027 -0.03167,0.02568 -0.01027,0.01455 -0.01712,0.04109 -0.006,0.02568 -0.0077,0.04708 -8.56e-4,0.0214 -8.56e-4,0.05308 v 0.661745 q 0,0.08561 0.02226,0.130979 0.02226,0.04452 0.08475,0.04452 0.02825,0 0.04794,-0.01027 0.02055,-0.01113 0.03082,-0.02568 0.01027,-0.01455 0.01541,-0.04109 0.006,-0.02654 0.0068,-0.04623 8.57e-4,-0.01969 8.57e-4,-0.05222 V 80.0089 h 0.306474 v 0.122418 q 0,0.07619 -0.01198,0.137828 -0.01199,0.06164 -0.04109,0.116426 -0.02825,0.05393 -0.07448,0.09074 -0.04537,0.03681 -0.116426,0.05821 -0.07105,0.02055 -0.164366,0.02055 z"
         style="fill:#000000;fill-opacity:1;stroke-width:0.04383096"
         id="path2452"
         inkscape:connector-curvature="0" />
      <path
         d="M 34.706703,80.53537 34.449881,79.116 h 0.267951 l 0.152381,0.95709 0.141252,-0.95709 h 0.285073 l -0.260247,1.41937 z"
         style="fill:#000000;fill-opacity:1;stroke-width:0.04383096"
         id="path2454"
         inkscape:connector-curvature="0" />
      <path
         d="M 35.44635,80.017445 V 79.83339 h 0.454575 v 0.184055 z"
         style="fill:#000000;fill-opacity:1;stroke-width:0.04383096"
         id="path2456"
         inkscape:connector-curvature="0" />
      <path
         d="m 36.430835,79.719532 h 0.08047 q 0.09588,0 0.135259,-0.04965 0.03938,-0.04965 0.03938,-0.149813 0,-0.09845 -0.03595,-0.145533 -0.0351,-0.04794 -0.122419,-0.04794 h -0.09674 z M 36.117512,80.53537 V 79.116 h 0.386945 q 0.08989,0 0.15923,0.01027 0.06934,0.01027 0.130123,0.03596 0.06078,0.02568 0.100161,0.06763 0.03938,0.04195 0.06164,0.107865 0.02226,0.06592 0.02226,0.154093 0,0.13954 -0.03767,0.224292 -0.03767,0.08475 -0.136116,0.131835 l 0.195185,0.687427 H 36.674816 L 36.51901,79.900163 h -0.08817 v 0.635207 z"
         style="fill:#000000;fill-opacity:1;stroke-width:0.04383096"
         id="path2458"
         inkscape:connector-curvature="0" />
      <path
         d="m 37.470108,80.046552 h 0.151525 l -0.07619,-0.549599 z M 37.097716,80.53537 37.366523,79.116 h 0.354414 l 0.267095,1.41937 h -0.289353 l -0.0488,-0.301338 h -0.20717 l -0.04794,0.301338 z"
         style="fill:#000000;fill-opacity:1;stroke-width:0.04383096"
         id="path2460"
         inkscape:connector-curvature="0" />
      <path
         d="M 38.130996,80.53537 V 79.116 h 0.220867 l 0.291921,0.681435 V 79.116 h 0.260247 v 1.41937 h -0.212306 l -0.292778,-0.734511 v 0.734511 z"
         style="fill:#000000;fill-opacity:1;stroke-width:0.04383096"
         id="path2462"
         inkscape:connector-curvature="0" />
      <path
         d="m 39.484449,80.555916 q -0.107866,0 -0.184912,-0.03424 -0.07619,-0.0351 -0.120707,-0.101873 -0.04451,-0.06677 -0.06506,-0.154093 -0.01969,-0.08732 -0.01969,-0.202034 V 79.59198 q 0,-0.09417 0.01284,-0.168646 0.0137,-0.07448 0.04366,-0.136972 0.03082,-0.06249 0.07962,-0.103585 0.0488,-0.04109 0.121562,-0.06335 0.07277,-0.02311 0.168647,-0.02311 0.09246,0 0.16351,0.01969 0.07105,0.01969 0.118138,0.05479 0.04794,0.0351 0.0779,0.08818 0.02996,0.05222 0.0428,0.114714 0.01284,0.06164 0.01284,0.138684 v 0.08989 h -0.306474 v -0.113858 q 0,-0.03253 -0.0017,-0.05308 -8.56e-4,-0.02055 -0.0068,-0.04537 -0.0051,-0.02483 -0.01627,-0.03852 -0.01027,-0.0137 -0.03082,-0.02311 -0.01969,-0.01027 -0.0488,-0.01027 -0.02996,0 -0.05136,0.01113 -0.02055,0.01113 -0.03167,0.02739 -0.01113,0.01541 -0.01798,0.04195 -0.006,0.02654 -0.0077,0.0488 -8.56e-4,0.0214 -8.56e-4,0.05308 v 0.64976 q 0,0.08475 0.02483,0.134403 0.02568,0.0488 0.09246,0.0488 0.123274,0 0.123274,-0.189193 V 79.984948 H 39.52732 v -0.18748 h 0.411772 v 0.737935 h -0.208026 l -0.01798,-0.118994 q -0.06249,0.13954 -0.228571,0.13954 z"
         style="fill:#000000;fill-opacity:1;stroke-width:0.04383096"
         id="path2464"
         inkscape:connector-curvature="0" />
      <path
         d="M 40.134208,80.53537 V 79.116 h 0.637775 v 0.214019 h -0.324452 v 0.35099 h 0.247406 v 0.218298 h -0.247406 v 0.423757 h 0.327876 v 0.212306 z"
         style="fill:#000000;fill-opacity:1;stroke-width:0.04383096"
         id="path2466"
         inkscape:connector-curvature="0" />
    </g>
    <g
       aria-label="SLOPE"
       style="font-style:normal;font-variant:normal;font-weight:normal;font-stretch:normal;font-size:1.75323832px;line-height:1.25;font-family:Oswald;-inkscape-font-specification:Oswald;letter-spacing:0px;word-spacing:0px;display:inline;fill:#000000;fill-opacity:1;stroke:none;stroke-width:0.04383096"
       id="text2133-0-1-4-5-7">
      <path
         d="m 27.047018,93.280745 q -0.202033,0 -0.301338,-0.107009 -0.09845,-0.107866 -0.106153,-0.343286 l 0.268807,-0.04109 q 0.0017,0.133547 0.03167,0.194328 0.03082,0.05992 0.0916,0.05992 0.07961,0 0.07961,-0.102728 0,-0.05736 -0.02054,-0.105297 -0.02055,-0.0488 -0.05051,-0.08304 -0.02996,-0.03424 -0.08389,-0.08047 l -0.125843,-0.108721 q -0.04537,-0.03938 -0.07533,-0.07191 -0.02996,-0.03253 -0.05907,-0.07705 -0.02825,-0.04537 -0.04195,-0.10016 -0.0137,-0.05479 -0.0137,-0.120707 0,-0.177207 0.106153,-0.273943 0.106153,-0.09674 0.291065,-0.09759 0.06335,0 0.114714,0.0137 0.05222,0.0137 0.08732,0.03595 0.03596,0.02226 0.06249,0.0565 0.02739,0.03339 0.0428,0.06763 0.01627,0.03339 0.02654,0.07619 0.01113,0.04195 0.01455,0.07705 0.0043,0.0351 0.006,0.07533 l -0.271375,0.0351 q -8.56e-4,-0.03596 -0.0026,-0.05907 -8.56e-4,-0.02397 -0.0043,-0.05051 -0.0034,-0.02654 -0.0094,-0.0428 -0.006,-0.01627 -0.01627,-0.02996 -0.0094,-0.01455 -0.02483,-0.02054 -0.01455,-0.006 -0.0351,-0.0051 -0.04109,8.56e-4 -0.06335,0.0351 -0.0214,0.03339 -0.0214,0.07533 0,0.04023 0.0094,0.07362 0.01027,0.03253 0.03424,0.06335 0.02483,0.03082 0.04023,0.04623 0.01541,0.01541 0.05137,0.04794 l 0.120706,0.106153 q 0.04965,0.04452 0.08561,0.08561 0.03596,0.04024 0.06849,0.09246 0.03253,0.05136 0.0488,0.113858 0.01712,0.06164 0.01712,0.132691 0,0.154093 -0.102729,0.255966 -0.102729,0.101017 -0.269663,0.101017 z"
         style="fill:#000000;fill-opacity:1;stroke-width:0.04383096"
         id="path2441"
         inkscape:connector-curvature="0" />
      <path
         d="m 27.570935,93.261055 v -1.41937 h 0.313323 v 1.207064 h 0.325308 v 0.212306 z"
         style="fill:#000000;fill-opacity:1;stroke-width:0.04383096"
         id="path2443"
         inkscape:connector-curvature="0" />
      <path
         d="m 28.738619,93.280745 q -0.118138,0 -0.202033,-0.03082 -0.08304,-0.03168 -0.132692,-0.09331 -0.0488,-0.06249 -0.07105,-0.146389 -0.0214,-0.0839 -0.0214,-0.197752 v -0.523917 q 0,-0.114714 0.0214,-0.197753 0.02226,-0.0839 0.07105,-0.145533 0.04965,-0.06164 0.132692,-0.09246 0.0839,-0.03082 0.202033,-0.03082 0.230284,0 0.329588,0.118138 0.100161,0.117282 0.100161,0.348422 v 0.523917 q 0,0.231139 -0.100161,0.350134 -0.0993,0.118138 -0.329588,0.118138 z m -0.0488,-0.231996 q 0.02054,0.01027 0.0488,0.01027 0.02825,0 0.0488,-0.0094 0.02055,-0.01027 0.03167,-0.02483 0.01113,-0.01541 0.01712,-0.03938 0.0068,-0.02397 0.0086,-0.04452 0.0017,-0.0214 0.0017,-0.05051 v -0.680578 q 0,-0.02825 -0.0017,-0.0488 -0.0017,-0.0214 -0.0086,-0.04452 -0.006,-0.02397 -0.01712,-0.03852 -0.01113,-0.01455 -0.03167,-0.02397 -0.02055,-0.01027 -0.0488,-0.01027 -0.02825,0 -0.0488,0.01027 -0.01969,0.0094 -0.03082,0.02397 -0.01113,0.0137 -0.01712,0.03852 -0.006,0.02397 -0.0077,0.04366 -8.56e-4,0.01969 -8.56e-4,0.04965 v 0.680578 q 0,0.02996 8.56e-4,0.05051 0.0017,0.01969 0.0077,0.04452 0.006,0.02397 0.01712,0.03852 0.01113,0.01455 0.03082,0.02483 z"
         style="fill:#000000;fill-opacity:1;stroke-width:0.04383096"
         id="path2445"
         inkscape:connector-curvature="0" />
      <path
         d="M 29.671739,92.438368 H 29.7719 q 0.08475,0 0.112145,-0.0428 0.02825,-0.04366 0.02825,-0.147245 0,-0.03681 -0.0026,-0.06164 -0.0017,-0.02483 -0.01027,-0.05051 -0.0077,-0.02568 -0.02311,-0.04024 -0.01455,-0.01541 -0.04109,-0.02483 -0.02654,-0.0094 -0.06421,-0.0094 h -0.0993 z m -0.313323,0.822687 v -1.41937 h 0.473409 q 0.188336,0 0.281648,0.105297 0.09331,0.105297 0.09331,0.306475 0,0.07961 -0.01455,0.142964 -0.0137,0.06335 -0.04109,0.107009 -0.02739,0.04366 -0.06335,0.07448 -0.03595,0.02996 -0.0839,0.04708 -0.04794,0.01712 -0.09845,0.02483 -0.04965,0.0068 -0.110433,0.0068 h -0.123275 v 0.604388 z"
         style="fill:#000000;fill-opacity:1;stroke-width:0.04383096"
         id="path2447"
         inkscape:connector-curvature="0" />
      <path
         d="m 30.354885,93.261055 v -1.41937 h 0.637775 v 0.214019 h -0.324452 v 0.35099 h 0.247405 v 0.218298 h -0.247405 v 0.423757 h 0.327876 v 0.212306 z"
         style="fill:#000000;fill-opacity:1;stroke-width:0.04383096"
         id="path2449"
         inkscape:connector-curvature="0" />
    </g>
    <g
       aria-label="CV-SEL"
       style="font-style:normal;font-variant:normal;font-weight:normal;font-stretch:normal;font-size:1.75323832px;line-height:1.25;font-family:Oswald;-inkscape-font-specification:Oswald;letter-spacing:0px;word-spacing:0px;display:inline;fill:#000000;fill-opacity:1;stroke:none;stroke-width:0.04383096"
       id="text2133-0-1-4-5-7-1">
      <path
         d="m 8.5914601,93.707693 q -0.1189942,0 -0.2028894,-0.03253 -0.083895,-0.03339 -0.1326914,-0.09759 -0.04794,-0.06421 -0.069342,-0.148101 -0.021402,-0.08389 -0.021402,-0.196897 v -0.505939 q 0,-0.11557 0.021402,-0.200321 0.021402,-0.08561 0.069342,-0.148957 0.048796,-0.06421 0.1318353,-0.09588 0.083895,-0.03253 0.2037455,-0.03253 0.1147138,0 0.1951847,0.02911 0.081327,0.02911 0.1266989,0.08561 0.046228,0.0565 0.065918,0.128411 0.020546,0.07191 0.020546,0.166934 V 92.78399 H 8.6933328 v -0.142964 q 0,-0.03339 -8.561e-4,-0.05051 -8.56e-4,-0.01712 -0.00599,-0.04366 -0.00514,-0.02739 -0.015409,-0.04109 -0.00942,-0.0137 -0.029963,-0.02397 -0.020546,-0.01113 -0.049652,-0.01113 -0.029107,0 -0.049652,0.01113 -0.020546,0.01027 -0.031675,0.02568 -0.010273,0.01455 -0.017121,0.04109 -0.00599,0.02568 -0.0077,0.04708 -8.561e-4,0.0214 -8.561e-4,0.05308 v 0.661745 q 0,0.08561 0.022258,0.130979 0.022258,0.04452 0.084751,0.04452 0.02825,0 0.04794,-0.01027 0.020546,-0.01113 0.030819,-0.02568 0.010273,-0.01455 0.015409,-0.04109 0.00599,-0.02654 0.00685,-0.04623 8.561e-4,-0.01969 8.561e-4,-0.05222 V 93.161523 H 8.999816 v 0.122419 q 0,0.07619 -0.011985,0.137828 -0.011985,0.06164 -0.041092,0.116426 -0.02825,0.05393 -0.074478,0.09074 -0.045372,0.03681 -0.1164259,0.05821 -0.071054,0.02055 -0.1643661,0.02055 z"
         style="fill:#000000;fill-opacity:1;stroke-width:0.04383096"
         id="path2428"
         inkscape:connector-curvature="0" />
      <path
         d="m 9.3627822,93.688004 -0.256822,-1.41937 h 0.267951 l 0.152381,0.95709 0.1412522,-0.95709 h 0.2850724 l -0.2602463,1.41937 z"
         style="fill:#000000;fill-opacity:1;stroke-width:0.04383096"
         id="path2430"
         inkscape:connector-curvature="0" />
      <path
         d="m 10.10243,93.170079 v -0.184056 h 0.454575 v 0.184056 z"
         style="fill:#000000;fill-opacity:1;stroke-width:0.04383096"
         id="path2432"
         inkscape:connector-curvature="0" />
      <path
         d="m 11.150264,93.707693 q -0.202034,0 -0.301338,-0.107009 -0.09845,-0.107865 -0.106153,-0.343285 l 0.268807,-0.04109 q 0.0017,0.133548 0.03167,0.194329 0.03082,0.05993 0.0916,0.05993 0.07961,0 0.07961,-0.102729 0,-0.05736 -0.02055,-0.105297 -0.02055,-0.0488 -0.05051,-0.08304 -0.02996,-0.03424 -0.0839,-0.08047 l -0.125843,-0.108721 q -0.04537,-0.03938 -0.07533,-0.07191 -0.02996,-0.03253 -0.05907,-0.07705 -0.02825,-0.04537 -0.04195,-0.100161 -0.0137,-0.05479 -0.0137,-0.120706 0,-0.177207 0.106153,-0.273943 0.106153,-0.09674 0.291065,-0.09759 0.06335,0 0.114714,0.0137 0.05222,0.0137 0.08732,0.03596 0.03596,0.02226 0.06249,0.0565 0.02739,0.03339 0.0428,0.06763 0.01627,0.03339 0.02654,0.07619 0.01113,0.04195 0.01455,0.07705 0.0043,0.0351 0.006,0.07533 l -0.271375,0.0351 q -8.56e-4,-0.03596 -0.0026,-0.05907 -8.56e-4,-0.02397 -0.0043,-0.05051 -0.0034,-0.02654 -0.0094,-0.0428 -0.006,-0.01627 -0.01627,-0.02996 -0.0094,-0.01455 -0.02483,-0.02055 -0.01455,-0.006 -0.0351,-0.0051 -0.04109,8.56e-4 -0.06335,0.0351 -0.0214,0.03339 -0.0214,0.07533 0,0.04024 0.0094,0.07362 0.01027,0.03253 0.03424,0.06335 0.02483,0.03082 0.04024,0.04623 0.01541,0.01541 0.05136,0.04794 l 0.120707,0.106153 q 0.04965,0.04452 0.08561,0.08561 0.03595,0.04023 0.06849,0.09246 0.03253,0.05136 0.0488,0.113858 0.01712,0.06164 0.01712,0.132692 0,0.154093 -0.102729,0.255966 -0.102729,0.101016 -0.269663,0.101016 z"
         style="fill:#000000;fill-opacity:1;stroke-width:0.04383096"
         id="path2434"
         inkscape:connector-curvature="0" />
      <path
         d="m 11.67418,93.688004 v -1.41937 h 0.637775 v 0.214018 h -0.324452 v 0.35099 h 0.247405 v 0.218299 h -0.247405 v 0.423756 h 0.327876 v 0.212307 z"
         style="fill:#000000;fill-opacity:1;stroke-width:0.04383096"
         id="path2436"
         inkscape:connector-curvature="0" />
      <path
         d="m 12.458344,93.688004 v -1.41937 h 0.313323 v 1.207063 h 0.325308 v 0.212307 z"
         style="fill:#000000;fill-opacity:1;stroke-width:0.04383096"
         id="path2438"
         inkscape:connector-curvature="0" />
    </g>
    <g
       aria-label="CV-LEV"
       style="font-style:normal;font-variant:normal;font-weight:normal;font-stretch:normal;font-size:1.75323832px;line-height:1.25;font-family:Oswald;-inkscape-font-specification:Oswald;letter-spacing:0px;word-spacing:0px;display:inline;fill:#000000;fill-opacity:1;stroke:none;stroke-width:0.04383096"
       id="text2133-0-1-4-5-7-1-7">
      <path
         d="m 45.102438,93.613577 q -0.118994,0 -0.20289,-0.03253 -0.0839,-0.03339 -0.132691,-0.09759 -0.04794,-0.06421 -0.06934,-0.148101 -0.0214,-0.08389 -0.0214,-0.196897 V 92.63252 q 0,-0.11557 0.0214,-0.200321 0.0214,-0.08561 0.06934,-0.148957 0.0488,-0.06421 0.131835,-0.09588 0.0839,-0.03253 0.203746,-0.03253 0.114714,0 0.195185,0.02911 0.08133,0.02911 0.126698,0.08561 0.04623,0.0565 0.06592,0.128411 0.02055,0.07191 0.02055,0.166934 v 0.124987 h -0.30648 V 92.54691 q 0,-0.03339 -8.57e-4,-0.05051 -8.56e-4,-0.01712 -0.006,-0.04366 -0.0051,-0.02739 -0.01541,-0.04109 -0.0094,-0.0137 -0.02996,-0.02397 -0.02055,-0.01113 -0.04965,-0.01113 -0.02911,0 -0.04965,0.01113 -0.02055,0.01027 -0.03167,0.02568 -0.01027,0.01455 -0.01712,0.04109 -0.006,0.02568 -0.0077,0.04708 -8.56e-4,0.0214 -8.56e-4,0.05308 v 0.661745 q 0,0.08561 0.02226,0.130979 0.02226,0.04452 0.08475,0.04452 0.02825,0 0.04794,-0.01027 0.02055,-0.01113 0.03082,-0.02568 0.01027,-0.01455 0.01541,-0.04109 0.006,-0.02654 0.0068,-0.04623 8.57e-4,-0.01969 8.57e-4,-0.05222 v -0.148957 h 0.306474 v 0.122419 q 0,0.07619 -0.01198,0.137828 -0.01199,0.06164 -0.04109,0.116425 -0.02825,0.05393 -0.07448,0.09074 -0.04537,0.03681 -0.116426,0.05821 -0.07105,0.02055 -0.164366,0.02055 z"
         style="fill:#000000;fill-opacity:1;stroke-width:0.04383096"
         id="path2415"
         inkscape:connector-curvature="0" />
      <path
         d="m 45.87376,93.593887 -0.256822,-1.419369 h 0.267951 l 0.152381,0.95709 0.141252,-0.95709 h 0.285073 l -0.260247,1.419369 z"
         style="fill:#000000;fill-opacity:1;stroke-width:0.04383096"
         id="path2417"
         inkscape:connector-curvature="0" />
      <path
         d="m 46.613407,93.075963 v -0.184056 h 0.454575 v 0.184056 z"
         style="fill:#000000;fill-opacity:1;stroke-width:0.04383096"
         id="path2419"
         inkscape:connector-curvature="0" />
      <path
         d="m 47.284569,93.593887 v -1.419369 h 0.313323 v 1.207063 H 47.9232 v 0.212306 z"
         style="fill:#000000;fill-opacity:1;stroke-width:0.04383096"
         id="path2421"
         inkscape:connector-curvature="0" />
      <path
         d="m 48.061884,93.593887 v -1.419369 h 0.637774 v 0.214018 h -0.324451 v 0.35099 h 0.247405 v 0.218299 h -0.247405 v 0.423756 h 0.327876 v 0.212306 z"
         style="fill:#000000;fill-opacity:1;stroke-width:0.04383096"
         id="path2423"
         inkscape:connector-curvature="0" />
      <path
         d="m 49.037807,93.593887 -0.256822,-1.419369 h 0.267951 l 0.152381,0.95709 0.141252,-0.95709 h 0.285073 l -0.260247,1.419369 z"
         style="fill:#000000;fill-opacity:1;stroke-width:0.04383096"
         id="path2425"
         inkscape:connector-curvature="0" />
    </g>
  </g>
</svg>
