<?xml version="1.0" encoding="UTF-8" standalone="no"?>
<!-- Created with Inkscape (http://www.inkscape.org/) -->

<svg
   xmlns:dc="http://purl.org/dc/elements/1.1/"
   xmlns:cc="http://creativecommons.org/ns#"
   xmlns:rdf="http://www.w3.org/1999/02/22-rdf-syntax-ns#"
   xmlns:svg="http://www.w3.org/2000/svg"
   xmlns="http://www.w3.org/2000/svg"
   xmlns:sodipodi="http://sodipodi.sourceforge.net/DTD/sodipodi-0.dtd"
   xmlns:inkscape="http://www.inkscape.org/namespaces/inkscape"
   width="60"
   height="380"
   viewBox="0 0 59.999999 380.00001"
   id="svg14650"
   version="1.1"
   inkscape:version="0.92.2 (5c3e80d, 2017-08-06)"
   sodipodi:docname="Transpose.svg">
  <defs
     id="defs14652" />
  <sodipodi:namedview
     id="base"
     pagecolor="#ffffff"
     bordercolor="#666666"
     borderopacity="1.0"
     inkscape:pageopacity="0.0"
     inkscape:pageshadow="2"
     inkscape:zoom="2.8451984"
     inkscape:cx="-158.26245"
     inkscape:cy="254.81238"
     inkscape:document-units="px"
     inkscape:current-layer="layer1"
     showgrid="true"
     units="px"
     objecttolerance="2"
     inkscape:window-width="1920"
     inkscape:window-height="1017"
     inkscape:window-x="1912"
     inkscape:window-y="-8"
     inkscape:window-maximized="1"
     inkscape:snap-grids="false"
     inkscape:snap-to-guides="false">
    <inkscape:grid
       type="xygrid"
       id="grid15198"
       spacingx="4.9999999"
       spacingy="5.0000001"
       empspacing="3" />
  </sodipodi:namedview>
  <metadata
     id="metadata14655">
    <rdf:RDF>
      <cc:Work
         rdf:about="">
        <dc:format>image/svg+xml</dc:format>
        <dc:type
           rdf:resource="http://purl.org/dc/dcmitype/StillImage" />
        <dc:title />
      </cc:Work>
    </rdf:RDF>
  </metadata>
  <g
     inkscape:label="Layer 1"
     inkscape:groupmode="layer"
     id="layer1"
     transform="translate(0,-672.36216)">
    <rect
       style="fill:#ffd558;fill-opacity:0.85207101;stroke:none;stroke-width:3.89763784;stroke-linejoin:round;stroke-miterlimit:4;stroke-dasharray:none;stroke-opacity:1"
       id="rect15200"
       width="60"
       height="380"
       x="0"
       y="672.36218"
       sodipodi:insensitive="true" />
    <rect
       style="fill:#c8c4b7;fill-opacity:1;stroke:none;stroke-width:1.278;stroke-miterlimit:4;stroke-dasharray:none;stroke-opacity:1"
       id="rect849"
       width="60"
       height="379.99997"
       x="0"
       y="672.36218" />
    <path
       style="display:inline;fill:none;fill-rule:evenodd;stroke:#000000;stroke-width:1px;stroke-linecap:butt;stroke-linejoin:miter;stroke-opacity:1"
       d="M 0,992.36216 H 15"
       id="path815"
       inkscape:connector-type="polyline"
       inkscape:connector-curvature="0" />
    <path
       style="display:inline;fill:none;fill-rule:evenodd;stroke:#000000;stroke-width:1px;stroke-linecap:butt;stroke-linejoin:miter;stroke-opacity:1"
       d="m 15,947.36216 v 45"
       id="path817"
       inkscape:connector-type="polyline"
       inkscape:connector-curvature="0" />
    <path
       style="fill:none;fill-rule:evenodd;stroke:#000000;stroke-width:1px;stroke-linecap:butt;stroke-linejoin:miter;stroke-opacity:1"
       d="M 20,947.36216 H 15"
       id="path819"
       inkscape:connector-type="polyline"
       inkscape:connector-curvature="0" />
    <path
       style="display:inline;fill:none;fill-rule:evenodd;stroke:#000000;stroke-width:1px;stroke-linecap:butt;stroke-linejoin:miter;stroke-opacity:1"
       d="m 20,997.36216 v -50"
       id="path821"
       inkscape:connector-type="polyline"
       inkscape:connector-curvature="0" />
    <path
       style="display:inline;fill:none;fill-rule:evenodd;stroke:#000000;stroke-width:1px;stroke-linecap:butt;stroke-linejoin:miter;stroke-opacity:1"
       d="M 34.999999,997.36216 H 20"
       id="path823"
       inkscape:connector-type="polyline"
       inkscape:connector-curvature="0" />
    <path
       style="display:inline;fill:none;fill-rule:evenodd;stroke:#000000;stroke-width:1px;stroke-linecap:butt;stroke-linejoin:miter;stroke-opacity:1"
       d="m 34.999999,967.36216 v 30"
       id="path825"
       inkscape:connector-type="polyline"
       inkscape:connector-curvature="0" />
    <path
       style="fill:none;fill-rule:evenodd;stroke:#000000;stroke-width:1px;stroke-linecap:butt;stroke-linejoin:miter;stroke-opacity:1"
       d="m 59.999999,967.36216 h -25"
       id="path827"
       inkscape:connector-type="polyline"
       inkscape:connector-curvature="0" />
    <path
       style="display:inline;fill:none;fill-rule:evenodd;stroke:#757575;stroke-width:1px;stroke-linecap:butt;stroke-linejoin:miter;stroke-opacity:0.50505048"
       d="M 1.1050362,993.80879 H 16.105036"
       id="path815-6"
       inkscape:connector-type="polyline"
       inkscape:connector-curvature="0" />
    <path
       style="display:inline;fill:none;fill-rule:evenodd;stroke:#757575;stroke-width:1px;stroke-linecap:butt;stroke-linejoin:miter;stroke-opacity:0.50505048"
       d="m 16.105036,948.80876 v 45.00003"
       id="path817-2"
       inkscape:connector-type="polyline"
       inkscape:connector-curvature="0" />
    <path
       style="fill:none;fill-rule:evenodd;stroke:#757575;stroke-width:1px;stroke-linecap:butt;stroke-linejoin:miter;stroke-opacity:0.50505048"
       d="m 21.105036,948.80876 h -5"
       id="path819-8"
       inkscape:connector-type="polyline"
       inkscape:connector-curvature="0" />
    <path
       style="display:inline;fill:none;fill-rule:evenodd;stroke:#757575;stroke-width:1px;stroke-linecap:butt;stroke-linejoin:miter;stroke-opacity:0.50505048"
       d="M 21.105036,998.80879 V 948.80876"
       id="path821-6"
       inkscape:connector-type="polyline"
       inkscape:connector-curvature="0" />
    <path
       style="display:inline;fill:none;fill-rule:evenodd;stroke:#757575;stroke-width:1px;stroke-linecap:butt;stroke-linejoin:miter;stroke-opacity:0.50505048"
       d="M 36.105035,998.80879 H 21.105036"
       id="path823-4"
       inkscape:connector-type="polyline"
       inkscape:connector-curvature="0" />
    <path
       style="display:inline;fill:none;fill-rule:evenodd;stroke:#757575;stroke-width:1px;stroke-linecap:butt;stroke-linejoin:miter;stroke-opacity:0.50505048"
       d="m 36.105035,968.80876 v 30.00003"
       id="path825-3"
       inkscape:connector-type="polyline"
       inkscape:connector-curvature="0" />
    <path
       style="fill:none;fill-rule:evenodd;stroke:#757575;stroke-width:1px;stroke-linecap:butt;stroke-linejoin:miter;stroke-opacity:0.50505048"
       d="m 61.105035,968.80876 h -25"
       id="path827-7"
       inkscape:connector-type="polyline"
       inkscape:connector-curvature="0" />
  </g>
  <g
     inkscape:groupmode="layer"
     id="layer3"
     inkscape:label="Layer 3">
    <g
       aria-label="Octave"
       transform="scale(1.017975,0.98234242)"
       style="font-style:normal;font-weight:normal;font-size:12.81280327px;line-height:1.25;font-family:sans-serif;letter-spacing:0px;word-spacing:0px;fill:#000000;fill-opacity:1;stroke:none;stroke-width:0.8008002"
       id="text844">
      <path
         d="m 10.796502,14.584537 q 0,1.526526 -0.07508,2.164663 -0.06882,0.631882 -0.450451,1.157407 -0.3753747,0.525525 -1.0197686,0.807056 -0.6443939,0.281532 -1.5015004,0.281532 -0.8133127,0 -1.4639628,-0.262763 -0.644394,-0.269019 -1.0385378,-0.8008 Q 4.8530625,17.399851 4.7779875,16.774225 4.7029125,16.1486 4.7029125,14.584537 v -1.732981 q 0,-1.526526 0.068819,-2.158407 0.075075,-0.638138 0.4504501,-1.163663 0.3816313,-0.5255251 1.0260252,-0.8070564 0.644394,-0.2815313 1.5015004,-0.2815313 0.8133127,0 1.4577067,0.2690188 0.6506501,0.2627625 1.0447943,0.7945439 0.394144,0.531781 0.469219,1.157407 0.07508,0.625625 0.07508,2.189688 z M 8.1626196,11.256211 q 0,-0.706956 -0.081331,-0.9009 -0.075075,-0.2002 -0.3190689,-0.2002 -0.2064563,0 -0.3190688,0.162663 -0.1063563,0.156406 -0.1063563,0.938437 v 4.729727 q 0,0.882131 0.068819,1.088587 0.075075,0.206457 0.3378376,0.206457 0.2690188,0 0.3440938,-0.237738 0.075075,-0.237737 0.075075,-1.132381 z"
         style="font-style:normal;font-variant:normal;font-weight:normal;font-stretch:normal;font-family:Impact;-inkscape-font-specification:Impact;stroke-width:0.8008002"
         id="path867" />
      <path
         d="m 17.296747,13.614818 h -2.383632 v -0.957206 q 0,-0.5005 -0.08133,-0.675675 -0.08133,-0.181432 -0.3003,-0.181432 -0.218969,0 -0.294044,0.156407 -0.07508,0.156406 -0.07508,0.7007 v 3.916413 q 0,0.444194 0.112613,0.669419 0.112612,0.218969 0.331581,0.218969 0.256506,0 0.344094,-0.231481 0.09384,-0.231482 0.09384,-0.875875 v -0.988488 h 2.252251 q -0.0063,0.994744 -0.07507,1.495244 -0.06256,0.494244 -0.419169,1.019769 -0.35035,0.519269 -0.919669,0.788288 -0.569319,0.262762 -1.407656,0.262762 -1.069819,0 -1.695445,-0.362862 -0.625625,-0.369119 -0.888387,-1.026026 -0.256507,-0.663162 -0.256507,-1.876875 v -2.358607 q 0,-1.057307 0.212713,-1.595344 0.212712,-0.538038 0.907156,-0.957207 0.694444,-0.425425 1.689188,-0.425425 0.988488,0 1.689188,0.419169 0.7007,0.419169 0.932182,1.057307 0.231481,0.638137 0.231481,1.808056 z"
         style="font-style:normal;font-variant:normal;font-weight:normal;font-stretch:normal;font-family:Impact;-inkscape-font-specification:Impact;stroke-width:0.8008002"
         id="path869" />
      <path
         d="m 20.706404,9.3730797 v 1.3075563 h 0.681931 v 1.313813 h -0.681931 v 4.441939 q 0,0.819569 0.08133,0.913413 0.08759,0.09384 0.706957,0.09384 v 1.338838 h -1.019769 q -0.863363,0 -1.232482,-0.06882 -0.369119,-0.07508 -0.65065,-0.331581 -0.281531,-0.262763 -0.35035,-0.594344 -0.06882,-0.337837 -0.06882,-1.576575 v -4.216714 h -0.544294 v -1.313813 h 0.544294 V 9.3730797 Z"
         style="font-style:normal;font-variant:normal;font-weight:normal;font-stretch:normal;font-family:Impact;-inkscape-font-specification:Impact;stroke-width:0.8008002"
         id="path871" />
      <path
         d="m 24.203649,13.69615 h -2.37112 v -0.556807 q 0,-0.963463 0.218969,-1.482731 0.225225,-0.525526 0.894644,-0.925926 0.669419,-0.4004 1.739238,-0.4004 1.282532,0 1.933182,0.456707 0.65065,0.45045 0.782031,1.113612 0.131382,0.656907 0.131382,2.715214 v 4.166663 h -2.458707 v -0.738238 q -0.231482,0.444194 -0.6006,0.669419 -0.362863,0.218969 -0.869619,0.218969 -0.663163,0 -1.219969,-0.369119 -0.550551,-0.375375 -0.550551,-1.632881 V 16.2487 q 0,-0.932181 0.294044,-1.270019 0.294044,-0.337837 1.457707,-0.788288 1.244994,-0.487987 1.332581,-0.656906 0.08759,-0.168919 0.08759,-0.688188 0,-0.65065 -0.1001,-0.844594 -0.09384,-0.2002 -0.319069,-0.2002 -0.256506,0 -0.319069,0.168919 -0.06256,0.162663 -0.06256,0.857107 z m 0.8008,1.138637 q -0.606856,0.444194 -0.706956,0.744494 -0.09384,0.3003 -0.09384,0.863363 0,0.644394 0.08133,0.832082 0.08759,0.187687 0.337838,0.187687 0.237737,0 0.306556,-0.143894 0.07508,-0.15015 0.07508,-0.775775 z"
         style="font-style:normal;font-variant:normal;font-weight:normal;font-stretch:normal;font-family:Impact;-inkscape-font-specification:Impact;stroke-width:0.8008002"
         id="path873" />
      <path
         d="m 33.625563,10.480436 -1.182431,8.302046 h -3.297045 l -1.270019,-8.302046 h 2.258507 l 0.706957,6.056052 q 0.08133,-0.663163 0.275275,-3.253251 0.112612,-1.445194 0.25025,-2.802801 z"
         style="font-style:normal;font-variant:normal;font-weight:normal;font-stretch:normal;font-family:Impact;-inkscape-font-specification:Impact;stroke-width:0.8008002"
         id="path875" />
      <path
         d="m 39.731666,14.778481 h -3.27202 v 1.795544 q 0,0.563063 0.08133,0.725726 0.08133,0.162662 0.312812,0.162662 0.287788,0 0.381631,-0.212712 0.1001,-0.218969 0.1001,-0.838338 v -1.094844 h 2.396145 v 0.613112 q 0,0.769519 -0.1001,1.182432 -0.09384,0.412913 -0.45045,0.882131 -0.356607,0.469219 -0.907157,0.706957 -0.544294,0.231481 -1.370119,0.231481 -0.8008,0 -1.413913,-0.231481 -0.613112,-0.231481 -0.957206,-0.631882 -0.337838,-0.406656 -0.469219,-0.888387 -0.131381,-0.487988 -0.131381,-1.413913 V 13.3458 q 0,-1.088588 0.294043,-1.714213 0.294044,-0.631882 0.963463,-0.963463 0.669419,-0.337838 1.539038,-0.337838 1.063563,0 1.751751,0.406657 0.694443,0.4004 0.969719,1.069819 0.281531,0.663162 0.281531,1.870619 z m -2.533782,-1.35135 v -0.606857 q 0,-0.644394 -0.06882,-0.832081 -0.06882,-0.187688 -0.281531,-0.187688 -0.262763,0 -0.325325,0.162663 -0.06256,0.156406 -0.06256,0.857106 v 0.606857 z"
         style="font-style:normal;font-variant:normal;font-weight:normal;font-stretch:normal;font-family:Impact;-inkscape-font-specification:Impact;stroke-width:0.8008002"
         id="path877" />
    </g>
    <g
       aria-label="Semitone"
       transform="matrix(0.96925714,0,0,1.031718,0,-1.054408)"
       style="font-style:normal;font-weight:normal;font-size:12.19961262px;line-height:1.25;font-family:sans-serif;letter-spacing:0px;word-spacing:0px;fill:#000000;fill-opacity:1;stroke:none;stroke-width:0.76247579"
       id="text848">
      <path
         d="M 9.1805022,137.14968 H 6.851377 v -0.71482 q 0,-0.50038 -0.089353,-0.63738 -0.089353,-0.13701 -0.2978422,-0.13701 -0.22636,0 -0.3454968,0.18466 -0.11318,0.18466 -0.11318,0.55994 0,0.48251 0.1310505,0.72674 0.1250937,0.24423 0.7088642,0.58973 1.6738727,0.99479 2.1087221,1.63217 0.4348495,0.63738 0.4348495,2.05511 0,1.03054 -0.2442305,1.519 -0.2382737,0.48846 -0.9292674,0.82204 -0.6909937,0.32763 -1.6083473,0.32763 -1.0067064,0 -1.7215274,-0.38124 -0.7088642,-0.38124 -0.9292674,-0.97097 -0.2204031,-0.58972 -0.2204031,-1.67387 v -0.63142 h 2.3291252 v 1.17349 q 0,0.54208 0.095309,0.69695 0.1012663,0.15488 0.3514537,0.15488 0.2501874,0 0.3693242,-0.19657 0.1250937,-0.19658 0.1250937,-0.58377 0,-0.85183 -0.2323169,-1.11393 -0.2382736,-0.2621 -1.1734979,-0.87566 -0.9352242,-0.61951 -1.2390231,-0.89948 -0.303799,-0.27997 -0.5063316,-0.77439 -0.1965758,-0.49442 -0.1965758,-1.26285 0,-1.10798 0.2799716,-1.62026 0.2859284,-0.51229 0.9173537,-0.79822 0.6314252,-0.29189 1.5249516,-0.29189 0.9769221,0 1.6619589,0.31572 0.6909937,0.31571 0.9113968,0.79821 0.22636,0.47655 0.22636,1.62622 z"
         style="font-style:normal;font-variant:normal;font-weight:normal;font-stretch:normal;font-family:Impact;-inkscape-font-specification:Impact;stroke-width:0.76247579"
         id="path850"
         inkscape:connector-curvature="0" />
      <path
         d="m 15.56028,140.06258 h -3.115428 v 1.70961 q 0,0.53611 0.07744,0.69099 0.07744,0.15488 0.297842,0.15488 0.274015,0 0.363367,-0.20253 0.09531,-0.20849 0.09531,-0.79822 v -1.04245 h 2.28147 v 0.58377 q 0,0.7327 -0.09531,1.12585 -0.08935,0.39315 -0.428893,0.83991 -0.33954,0.44677 -0.863742,0.67313 -0.518245,0.2204 -1.304548,0.2204 -0.762476,0 -1.346247,-0.2204 -0.58377,-0.22041 -0.911396,-0.60165 -0.32167,-0.38719 -0.446764,-0.84587 -0.125093,-0.46463 -0.125093,-1.34624 v -2.3053 q 0,-1.03649 0.279971,-1.63218 0.279972,-0.60164 0.917354,-0.91735 0.637382,-0.32167 1.465383,-0.32167 1.012663,0 1.667916,0.3872 0.661209,0.38123 0.92331,1.01862 0.268058,0.63142 0.268058,1.78109 z m -2.412521,-1.28668 v -0.57782 q 0,-0.61355 -0.06553,-0.79226 -0.06552,-0.1787 -0.268058,-0.1787 -0.250187,0 -0.309756,0.15488 -0.05957,0.14892 -0.05957,0.81608 v 0.57782 z"
         style="font-style:normal;font-variant:normal;font-weight:normal;font-stretch:normal;font-family:Impact;-inkscape-font-specification:Impact;stroke-width:0.76247579"
         id="path852"
         inkscape:connector-curvature="0" />
      <path
         d="m 18.729321,135.97022 -0.0417,0.75057 q 0.279972,-0.44677 0.667166,-0.66717 0.387195,-0.22636 0.881613,-0.22636 0.965008,0 1.518995,0.89353 0.303799,-0.44677 0.685037,-0.66717 0.381238,-0.22636 0.845871,-0.22636 0.613555,0 1.012663,0.29784 0.405066,0.29784 0.518246,0.73269 0.11318,0.4289 0.11318,1.39986 v 5.6173 H 22.59531 v -5.15266 q 0,-1.01267 -0.07148,-1.25094 -0.06553,-0.24423 -0.315712,-0.24423 -0.256144,0 -0.333583,0.23827 -0.07148,0.23828 -0.07148,1.2569 v 5.15266 h -2.335083 v -5.02161 q 0,-1.16159 -0.05957,-1.3939 -0.05361,-0.23232 -0.309756,-0.23232 -0.160835,0 -0.274015,0.12509 -0.11318,0.11914 -0.125093,0.29784 -0.01191,0.17275 -0.01191,0.74461 v 5.48029 h -2.335082 v -7.90473 z"
         style="font-style:normal;font-variant:normal;font-weight:normal;font-stretch:normal;font-family:Impact;-inkscape-font-specification:Impact;stroke-width:0.76247579"
         id="path854"
         inkscape:connector-curvature="0" />
      <path
         d="m 28.242397,134.23083 v 1.25689 h -2.478046 v -1.25689 z m 0,1.73939 v 7.90473 h -2.478046 v -7.90473 z"
         style="font-style:normal;font-variant:normal;font-weight:normal;font-stretch:normal;font-family:Impact;-inkscape-font-specification:Impact;stroke-width:0.76247579"
         id="path856"
         inkscape:connector-curvature="0" />
      <path
         d="m 31.637798,134.91586 v 1.24498 h 0.649296 v 1.25094 h -0.649296 v 4.22936 q 0,0.78034 0.07744,0.8697 0.0834,0.0893 0.673123,0.0893 v 1.27476 h -0.970965 q -0.822044,0 -1.173498,-0.0655 -0.351453,-0.0715 -0.619511,-0.31571 -0.268058,-0.25019 -0.333584,-0.5659 -0.06553,-0.32167 -0.06553,-1.50113 v -4.01491 h -0.518245 v -1.25094 h 0.518245 v -1.24498 z"
         style="font-style:normal;font-variant:normal;font-weight:normal;font-stretch:normal;font-family:Impact;-inkscape-font-specification:Impact;stroke-width:0.76247579"
         id="path858"
         inkscape:connector-curvature="0" />
      <path
         d="m 38.261807,138.74611 v 1.93598 q 0,1.06627 -0.107223,1.56665 -0.107224,0.49441 -0.458677,0.92926 -0.351454,0.4289 -0.90544,0.63739 -0.54803,0.20253 -1.262851,0.20253 -0.798217,0 -1.352203,-0.17275 -0.553986,-0.17871 -0.863742,-0.53016 -0.303799,-0.35741 -0.434849,-0.85778 -0.131051,-0.50634 -0.131051,-1.51304 v -2.02533 q 0,-1.10201 0.238274,-1.72153 0.238273,-0.61951 0.857785,-0.99479 0.619512,-0.37528 1.58452,-0.37528 0.81013,0 1.387944,0.24423 0.583771,0.23827 0.899483,0.62547 0.315713,0.38719 0.428893,0.79822 0.119137,0.41102 0.119137,1.25093 z m -2.406564,-0.59568 q 0,-0.6076 -0.06553,-0.76248 -0.06553,-0.16083 -0.279971,-0.16083 -0.214447,0 -0.285929,0.16083 -0.07148,0.15488 -0.07148,0.76248 v 3.56815 q 0,0.55994 0.07148,0.73269 0.07148,0.16679 0.279972,0.16679 0.214446,0 0.279971,-0.15488 0.07148,-0.15488 0.07148,-0.66716 z"
         style="font-style:normal;font-variant:normal;font-weight:normal;font-stretch:normal;font-family:Impact;-inkscape-font-specification:Impact;stroke-width:0.76247579"
         id="path860"
         inkscape:connector-curvature="0" />
      <path
         d="m 41.508286,135.97022 -0.0417,0.72674 q 0.262102,-0.43485 0.637383,-0.6493 0.381237,-0.2204 0.875655,-0.2204 0.619512,0 1.012664,0.29189 0.393151,0.29188 0.506331,0.73864 0.11318,0.44081 0.11318,1.4773 v 5.53986 h -2.406564 v -5.47433 q 0,-0.81609 -0.05361,-0.9948 -0.05361,-0.1787 -0.297842,-0.1787 -0.256144,0 -0.321669,0.20849 -0.06553,0.20253 -0.06553,1.09606 v 5.34328 H 39.06002 v -7.90473 z"
         style="font-style:normal;font-variant:normal;font-weight:normal;font-stretch:normal;font-family:Impact;-inkscape-font-specification:Impact;stroke-width:0.76247579"
         id="path862"
         inkscape:connector-curvature="0" />
      <path
         d="m 50.896269,140.06258 h -3.115428 v 1.70961 q 0,0.53611 0.07744,0.69099 0.07744,0.15488 0.297842,0.15488 0.274015,0 0.363367,-0.20253 0.09531,-0.20849 0.09531,-0.79822 v -1.04245 h 2.28147 v 0.58377 q 0,0.7327 -0.09531,1.12585 -0.08935,0.39315 -0.428893,0.83991 -0.33954,0.44677 -0.863742,0.67313 -0.518245,0.2204 -1.304548,0.2204 -0.762476,0 -1.346247,-0.2204 -0.58377,-0.22041 -0.911396,-0.60165 -0.32167,-0.38719 -0.446764,-0.84587 -0.125093,-0.46463 -0.125093,-1.34624 v -2.3053 q 0,-1.03649 0.279971,-1.63218 0.279972,-0.60164 0.917354,-0.91735 0.637382,-0.32167 1.465383,-0.32167 1.012663,0 1.667916,0.3872 0.661209,0.38123 0.92331,1.01862 0.268058,0.63142 0.268058,1.78109 z m -2.412521,-1.28668 v -0.57782 q 0,-0.61355 -0.06553,-0.79226 -0.06553,-0.1787 -0.268058,-0.1787 -0.250187,0 -0.309756,0.15488 -0.05957,0.14892 -0.05957,0.81608 v 0.57782 z"
         style="font-style:normal;font-variant:normal;font-weight:normal;font-stretch:normal;font-family:Impact;-inkscape-font-specification:Impact;stroke-width:0.76247579"
         id="path864"
         inkscape:connector-curvature="0" />
    </g>
  </g>
</svg>
