<?xml version="1.0" encoding="UTF-8" standalone="no"?>
<!-- Created with Inkscape (http://www.inkscape.org/) -->

<svg
   xmlns:dc="http://purl.org/dc/elements/1.1/"
   xmlns:cc="http://creativecommons.org/ns#"
   xmlns:rdf="http://www.w3.org/1999/02/22-rdf-syntax-ns#"
   xmlns:svg="http://www.w3.org/2000/svg"
   xmlns="http://www.w3.org/2000/svg"
   xmlns:sodipodi="http://sodipodi.sourceforge.net/DTD/sodipodi-0.dtd"
   xmlns:inkscape="http://www.inkscape.org/namespaces/inkscape"
   width="60"
   height="380"
   viewBox="0 0 59.999999 380.00001"
   id="svg14650"
   version="1.1"
   inkscape:version="0.92.2 (5c3e80d, 2017-08-06)"
   sodipodi:docname="Transpose.svg">
  <defs
     id="defs14652" />
  <sodipodi:namedview
     id="base"
     pagecolor="#ffffff"
     bordercolor="#666666"
     borderopacity="1.0"
     inkscape:pageopacity="0.0"
     inkscape:pageshadow="2"
     inkscape:zoom="1.6587339"
     inkscape:cx="-18.731613"
     inkscape:cy="124.38678"
     inkscape:document-units="px"
     inkscape:current-layer="layer2"
     showgrid="true"
     units="px"
     objecttolerance="2"
     inkscape:window-width="958"
     inkscape:window-height="778"
     inkscape:window-x="789"
     inkscape:window-y="260"
     inkscape:window-maximized="0"
     inkscape:snap-grids="false"
     inkscape:snap-to-guides="true">
    <inkscape:grid
       type="xygrid"
       id="grid15198"
       spacingx="4.9999999"
       spacingy="5.0000001"
       empspacing="3" />
  </sodipodi:namedview>
  <metadata
     id="metadata14655">
    <rdf:RDF>
      <cc:Work
         rdf:about="">
        <dc:format>image/svg+xml</dc:format>
        <dc:type
           rdf:resource="http://purl.org/dc/dcmitype/StillImage" />
        <dc:title />
      </cc:Work>
    </rdf:RDF>
  </metadata>
  <g
     inkscape:label="Layer 1"
     inkscape:groupmode="layer"
     id="layer1"
     transform="translate(0,-672.36216)"
     style="display:inline">
    <rect
       style="fill:#ffd558;fill-opacity:0.85207101;stroke:none;stroke-width:3.89763784;stroke-linejoin:round;stroke-miterlimit:4;stroke-dasharray:none;stroke-opacity:1"
       id="rect15200"
       width="60"
       height="380"
       x="0"
       y="672.36218"
       sodipodi:insensitive="true" />
    <rect
       style="fill:#000022;fill-opacity:1;stroke:none;stroke-width:1.278;stroke-miterlimit:4;stroke-dasharray:none;stroke-opacity:1"
       id="rect849"
       width="60"
       height="379.99997"
       x="-1.2e-006"
       y="672.36218" />
  </g>
  <g
     inkscape:groupmode="layer"
     id="layer2"
     inkscape:label="Layer 4"
     style="display:inline"
     sodipodi:insensitive="true">
    <rect
       style="fill:#001242;fill-opacity:1;stroke:none;stroke-width:1.27623296;stroke-miterlimit:4;stroke-dasharray:none;stroke-opacity:0.50505048"
       id="rect831"
       width="60"
       height="119.35421"
       x="-3.3040113e-015"
       y="15.645785" />
    <rect
       style="fill:#0094c6;fill-opacity:1;stroke:none;stroke-width:1.27968097;stroke-miterlimit:4;stroke-dasharray:none;stroke-opacity:0.50505048"
       id="rect831-9"
       width="60"
       height="120"
       x="-2.6504948e-015"
       y="135" />
    <rect
       style="fill:#005e7c;fill-opacity:1;stroke:none;stroke-width:1.27968097;stroke-miterlimit:4;stroke-dasharray:none;stroke-opacity:0.50505048"
       id="rect831-9-7"
       width="60"
       height="120"
       x="-2.6504948e-015"
       y="255" />
  </g>
  <g
     inkscape:groupmode="layer"
     id="layer4"
     inkscape:label="Layer 5"
     style="display:inline">
    <g
       aria-label="oct"
       transform="scale(0.93674752,1.0675235)"
       style="font-style:normal;font-weight:normal;font-size:10.12997532px;line-height:1.25;font-family:sans-serif;letter-spacing:0px;word-spacing:0px;fill:#ffffff;fill-opacity:1;stroke:none;stroke-width:0.25324938"
       id="text873">
      <path
         d="m 33.804094,40.834418 v 1.60754 q 0,0.885384 -0.08903,1.300871 -0.08903,0.410541 -0.380863,0.771619 -0.291831,0.356132 -0.751834,0.529252 -0.455058,0.168173 -1.048611,0.168173 -0.662801,0 -1.122805,-0.143442 -0.460004,-0.148388 -0.71721,-0.440219 -0.25226,-0.296776 -0.361078,-0.712263 -0.108818,-0.420434 -0.108818,-1.256355 V 40.97786 q 0,-0.915061 0.197851,-1.429474 0.197851,-0.514413 0.712263,-0.826028 0.514413,-0.311616 1.31571,-0.311616 0.672694,0 1.152483,0.202798 0.484735,0.197851 0.746888,0.519359 0.262152,0.321508 0.356131,0.662801 0.09893,0.341293 0.09893,1.038718 z M 31.805798,40.33979 q 0,-0.50452 -0.05441,-0.633123 -0.05441,-0.13355 -0.232475,-0.13355 -0.178066,0 -0.237421,0.13355 -0.05936,0.128603 -0.05936,0.633123 v 2.96282 q 0,0.46495 0.05936,0.608392 0.05936,0.138496 0.232475,0.138496 0.178066,0 0.232475,-0.128603 0.05936,-0.128603 0.05936,-0.553983 z"
         style="font-style:normal;font-variant:normal;font-weight:normal;font-stretch:normal;font-family:Impact;-inkscape-font-specification:Impact;fill:#ffffff;fill-opacity:1;stroke-width:0.25324938"
         id="path929"
         inkscape:connector-curvature="0" />
      <path
         d="m 38.88392,41.007538 h -1.884531 v -0.756781 q 0,-0.395702 -0.0643,-0.534198 -0.0643,-0.143442 -0.237421,-0.143442 -0.17312,0 -0.232475,0.123657 -0.05935,0.123657 -0.05935,0.553983 v 3.09637 q 0,0.351185 0.08903,0.529251 0.08903,0.17312 0.262152,0.17312 0.202798,0 0.272046,-0.183012 0.07419,-0.183012 0.07419,-0.692479 v -0.781512 h 1.780659 q -0.0049,0.786458 -0.05936,1.18216 -0.04946,0.390756 -0.3314,0.806244 -0.276992,0.410541 -0.727103,0.623231 -0.450111,0.207743 -1.112913,0.207743 -0.845813,0 -1.340441,-0.286884 Q 34.818081,44.633159 34.610337,44.1138 34.40754,43.589494 34.40754,42.629917 V 40.76517 q 0,-0.835921 0.168173,-1.2613 0.168174,-0.42538 0.71721,-0.756781 0.549037,-0.336347 1.335495,-0.336347 0.781512,0 1.335495,0.331401 0.553983,0.3314 0.736995,0.835921 0.183012,0.50452 0.183012,1.429474 z"
         style="font-style:normal;font-variant:normal;font-weight:normal;font-stretch:normal;font-family:Impact;-inkscape-font-specification:Impact;fill:#ffffff;fill-opacity:1;stroke-width:0.25324938"
         id="path931"
         inkscape:connector-curvature="0" />
      <path
         d="m 41.579642,37.653962 v 1.033772 h 0.539144 v 1.038718 h -0.539144 v 3.511857 q 0,0.647962 0.0643,0.722156 0.06925,0.07419 0.558929,0.07419 v 1.058504 H 41.39663 q -0.682587,0 -0.974417,-0.05441 Q 40.130383,44.979398 39.9078,44.776601 39.685218,44.568857 39.630809,44.306704 39.5764,44.039606 39.5764,43.060243 V 39.726452 H 39.146074 V 38.687734 H 39.5764 v -1.033772 z"
         style="font-style:normal;font-variant:normal;font-weight:normal;font-stretch:normal;font-family:Impact;-inkscape-font-specification:Impact;fill:#ffffff;fill-opacity:1;stroke-width:0.25324938"
         id="path933"
         inkscape:connector-curvature="0" />
    </g>
    <g
       aria-label="oct"
       transform="scale(0.93674752,1.0675235)"
       style="font-style:normal;font-weight:normal;font-size:10.12997532px;line-height:1.25;font-family:sans-serif;letter-spacing:0px;word-spacing:0px;display:inline;fill:#ffffff;fill-opacity:1;stroke:none;stroke-width:0.25324938"
       id="text873-0">
      <path
         d="m 33.321411,97.191542 v 1.60754 q 0,0.885384 -0.08903,1.300868 -0.08903,0.41054 -0.380863,0.77162 -0.291831,0.35613 -0.751835,0.52925 -0.455057,0.16818 -1.04861,0.16818 -0.662801,0 -1.122805,-0.14344 -0.460004,-0.14839 -0.71721,-0.44022 -0.25226,-0.29678 -0.361079,-0.71227 -0.108818,-0.420431 -0.108818,-1.256351 v -1.681735 q 0,-0.915061 0.197851,-1.429474 0.197851,-0.514412 0.712264,-0.826028 0.514413,-0.311615 1.31571,-0.311615 0.672694,0 1.152483,0.202797 0.484735,0.197851 0.746887,0.519359 0.262153,0.321508 0.356132,0.662801 0.09893,0.341293 0.09893,1.038718 z m -1.998296,-0.494627 q 0,-0.504521 -0.05441,-0.633124 -0.05441,-0.133549 -0.232475,-0.133549 -0.178066,0 -0.237421,0.133549 -0.05936,0.128603 -0.05936,0.633124 v 2.96282 q 0,0.464945 0.05936,0.608395 0.05936,0.13849 0.232475,0.13849 0.178066,0 0.232475,-0.1286 0.05936,-0.1286 0.05936,-0.553984 z"
         style="font-style:normal;font-variant:normal;font-weight:normal;font-stretch:normal;font-family:Impact;-inkscape-font-specification:Impact;fill:#ffffff;fill-opacity:1;stroke-width:0.25324938"
         id="path936"
         inkscape:connector-curvature="0" />
      <path
         d="m 38.401237,97.364662 h -1.884531 v -0.75678 q 0,-0.395702 -0.0643,-0.534198 -0.0643,-0.143442 -0.237421,-0.143442 -0.17312,0 -0.232475,0.123657 -0.05936,0.123657 -0.05936,0.553983 v 3.096369 q 0,0.351189 0.08903,0.529249 0.08903,0.17312 0.262153,0.17312 0.202797,0 0.272045,-0.18301 0.07419,-0.18301 0.07419,-0.692479 V 98.74962 h 1.78066 q -0.0049,0.786458 -0.05936,1.18216 -0.04946,0.39076 -0.331401,0.80624 -0.276991,0.41054 -0.727102,0.62323 -0.450112,0.20775 -1.112913,0.20775 -0.845813,0 -1.340441,-0.28689 -0.494627,-0.29183 -0.702371,-0.81119 -0.202797,-0.524301 -0.202797,-1.483879 v -1.864747 q 0,-0.83592 0.168173,-1.2613 0.168173,-0.42538 0.71721,-0.756781 0.549037,-0.336346 1.335495,-0.336346 0.781512,0 1.335495,0.3314 0.553983,0.331401 0.736995,0.835921 0.183012,0.50452 0.183012,1.429474 z"
         style="font-style:normal;font-variant:normal;font-weight:normal;font-stretch:normal;font-family:Impact;-inkscape-font-specification:Impact;fill:#ffffff;fill-opacity:1;stroke-width:0.25324938"
         id="path938"
         inkscape:connector-curvature="0" />
      <path
         d="m 41.096959,94.011086 v 1.033772 h 0.539144 v 1.038718 h -0.539144 v 3.511857 q 0,0.647967 0.0643,0.722157 0.06925,0.0742 0.55893,0.0742 v 1.05851 h -0.806244 q -0.682586,0 -0.974416,-0.0544 -0.29183,-0.0594 -0.514413,-0.26215 -0.222582,-0.20775 -0.276991,-0.4699 -0.05441,-0.2671 -0.05441,-1.246463 V 96.083576 H 38.66339 v -1.038718 h 0.430327 v -1.033772 z"
         style="font-style:normal;font-variant:normal;font-weight:normal;font-stretch:normal;font-family:Impact;-inkscape-font-specification:Impact;fill:#ffffff;fill-opacity:1;stroke-width:0.25324938"
         id="path940"
         inkscape:connector-curvature="0" />
    </g>
    <g
       aria-label="sem"
       transform="matrix(0.93674752,0,0,1.0675235,-2.86363,-0.30143474)"
       style="font-style:normal;font-weight:normal;font-size:10.12997532px;line-height:1.25;font-family:sans-serif;letter-spacing:0px;word-spacing:0px;display:inline;fill:#ffffff;fill-opacity:1;stroke:none;stroke-width:0.25324938"
       id="text873-3">
      <path
         d="m 34.707238,152.74044 h -1.770767 v -0.35614 q 0,-0.45505 -0.05441,-0.57376 -0.04946,-0.12366 -0.257206,-0.12366 -0.168174,0 -0.252261,0.11376 -0.08409,0.10882 -0.08409,0.3314 0,0.30173 0.03957,0.44517 0.04452,0.13849 0.25226,0.30667 0.21269,0.16817 0.865599,0.48968 0.870544,0.42538 1.14259,0.8013 0.272045,0.37591 0.272045,1.09312 0,0.8013 -0.207744,1.21184 -0.207743,0.4056 -0.697425,0.62818 -0.484735,0.21764 -1.172268,0.21764 -0.761726,0 -1.305817,-0.23743 -0.539144,-0.23742 -0.741941,-0.64301 -0.202798,-0.4056 -0.202798,-1.22668 v -0.31656 h 1.770768 v 0.41549 q 0,0.52925 0.0643,0.68753 0.06925,0.15828 0.267099,0.15828 0.21269,0 0.296777,-0.10387 0.08409,-0.10882 0.08409,-0.45011 0,-0.4699 -0.108818,-0.58861 -0.113764,-0.11871 -1.162375,-0.70237 -0.880437,-0.49463 -1.073342,-0.89528 -0.192905,-0.40559 -0.192905,-0.95958 0,-0.78645 0.207744,-1.15742 0.207744,-0.37592 0.702371,-0.57872 0.499574,-0.2028 1.157429,-0.2028 0.652909,0 1.107966,0.16818 0.460004,0.16322 0.702372,0.43527 0.247313,0.27205 0.296776,0.50452 0.05441,0.23248 0.05441,0.7271 z"
         style="font-style:normal;font-variant:normal;font-weight:normal;font-stretch:normal;font-family:Impact;-inkscape-font-specification:Impact;fill:#ffffff;fill-opacity:1;stroke-width:0.25324938"
         id="path943"
         inkscape:connector-curvature="0" />
      <path
         d="m 39.920614,154.04131 h -2.586903 v 1.41958 q 0,0.44516 0.0643,0.57377 0.0643,0.1286 0.247314,0.1286 0.227528,0 0.301722,-0.16817 0.07914,-0.17312 0.07914,-0.6628 v -0.8656 h 1.894424 v 0.48473 q 0,0.60839 -0.07914,0.93485 -0.07419,0.32645 -0.356132,0.69742 -0.281938,0.37097 -0.717211,0.55893 -0.430326,0.18302 -1.083234,0.18302 -0.633124,0 -1.117859,-0.18302 -0.484735,-0.18301 -0.75678,-0.49957 -0.267099,-0.32151 -0.370971,-0.70237 -0.103872,-0.38581 -0.103872,-1.11786 v -1.91421 q 0,-0.86065 0.232475,-1.35528 0.232475,-0.49957 0.761727,-0.76173 0.529252,-0.2671 1.216784,-0.2671 0.840867,0 1.384958,0.32151 0.549036,0.31656 0.766673,0.84582 0.222582,0.5243 0.222582,1.47893 z m -2.003242,-1.0684 v -0.47979 q 0,-0.50946 -0.05441,-0.65785 -0.05441,-0.14839 -0.222583,-0.14839 -0.207743,0 -0.257206,0.1286 -0.04946,0.12366 -0.04946,0.67764 v 0.47979 z"
         style="font-style:normal;font-variant:normal;font-weight:normal;font-stretch:normal;font-family:Impact;-inkscape-font-specification:Impact;fill:#ffffff;fill-opacity:1;stroke-width:0.25324938"
         id="path945"
         inkscape:connector-curvature="0" />
      <path
         d="m 42.552033,150.64321 -0.03462,0.62324 q 0.232475,-0.37098 0.553983,-0.55399 0.321508,-0.18796 0.732049,-0.18796 0.801297,0 1.261301,0.74195 0.25226,-0.37098 0.568822,-0.55399 0.316562,-0.18796 0.702371,-0.18796 0.509467,0 0.840867,0.24732 0.336347,0.24731 0.430326,0.60839 0.09398,0.35613 0.09398,1.16238 v 4.66433 h -1.938941 v -4.27853 q 0,-0.84086 -0.05935,-1.03871 -0.05441,-0.2028 -0.262153,-0.2028 -0.21269,0 -0.276991,0.19785 -0.05936,0.19785 -0.05936,1.04366 v 4.27853 h -1.93894 v -4.16971 q 0,-0.96452 -0.04946,-1.15743 -0.04452,-0.1929 -0.257207,-0.1929 -0.133549,0 -0.227528,0.10387 -0.09398,0.0989 -0.103872,0.24731 -0.0099,0.14345 -0.0099,0.61829 v 4.55057 h -1.93894 v -6.56371 z"
         style="font-style:normal;font-variant:normal;font-weight:normal;font-stretch:normal;font-family:Impact;-inkscape-font-specification:Impact;fill:#ffffff;fill-opacity:1;stroke-width:0.25324938"
         id="path947"
         inkscape:connector-curvature="0" />
    </g>
    <g
       aria-label="sem"
       transform="matrix(0.93674752,0,0,1.0675235,-2.86363,-0.30143474)"
       style="font-style:normal;font-weight:normal;font-size:10.12997532px;line-height:1.25;font-family:sans-serif;letter-spacing:0px;word-spacing:0px;display:inline;fill:#ffffff;fill-opacity:1;stroke:none;stroke-width:0.25324938"
       id="text873-0-6">
      <path
         d="M 34.224557,209.09755 H 32.45379 v -0.35613 q 0,-0.45506 -0.05441,-0.57377 -0.04946,-0.12365 -0.257207,-0.12365 -0.168173,0 -0.25226,0.11376 -0.08409,0.10882 -0.08409,0.3314 0,0.30172 0.03957,0.44517 0.04452,0.13849 0.25226,0.30667 0.21269,0.16817 0.865598,0.48968 0.870545,0.42538 1.14259,0.80129 0.272045,0.37592 0.272045,1.09313 0,0.8013 -0.207743,1.21184 -0.207744,0.40559 -0.697425,0.62818 -0.484735,0.21763 -1.172268,0.21763 -0.761727,0 -1.305817,-0.23742 -0.539144,-0.23742 -0.741942,-0.64302 -0.202797,-0.40559 -0.202797,-1.22667 v -0.31656 h 1.770767 v 0.41548 q 0,0.52925 0.0643,0.68754 0.06925,0.15828 0.267099,0.15828 0.21269,0 0.296776,-0.10388 0.08409,-0.10881 0.08409,-0.45011 0,-0.46989 -0.108818,-0.5886 -0.113764,-0.11871 -1.162375,-0.70237 -0.880437,-0.49463 -1.073342,-0.89528 -0.192905,-0.4056 -0.192905,-0.95958 0,-0.78646 0.207744,-1.15743 0.207743,-0.37591 0.702371,-0.57871 0.499574,-0.2028 1.157429,-0.2028 0.652908,0 1.107966,0.16817 0.460004,0.16323 0.702371,0.43528 0.247314,0.27204 0.296777,0.50452 0.05441,0.23247 0.05441,0.7271 z"
         style="font-style:normal;font-variant:normal;font-weight:normal;font-stretch:normal;font-family:Impact;-inkscape-font-specification:Impact;fill:#ffffff;fill-opacity:1;stroke-width:0.25324938"
         id="path950"
         inkscape:connector-curvature="0" />
      <path
         d="M 39.437933,210.39842 H 36.85103 v 1.41959 q 0,0.44516 0.0643,0.57376 0.0643,0.12861 0.247314,0.12861 0.227529,0 0.301723,-0.16818 0.07914,-0.17312 0.07914,-0.6628 v -0.8656 h 1.894424 v 0.48474 q 0,0.60839 -0.07914,0.93485 -0.07419,0.32645 -0.356132,0.69742 -0.281937,0.37097 -0.71721,0.55893 -0.430326,0.18301 -1.083234,0.18301 -0.633124,0 -1.117859,-0.18301 -0.484735,-0.18301 -0.75678,-0.49957 -0.267099,-0.32151 -0.370971,-0.70238 -0.103872,-0.38581 -0.103872,-1.11785 v -1.91421 q 0,-0.86066 0.232475,-1.35528 0.232475,-0.49958 0.761727,-0.76173 0.529251,-0.2671 1.216784,-0.2671 0.840867,0 1.384957,0.32151 0.549037,0.31656 0.766673,0.84581 0.222583,0.52431 0.222583,1.47894 z m -2.003242,-1.06839 v -0.47979 q 0,-0.50947 -0.05441,-0.65786 -0.05441,-0.14838 -0.222582,-0.14838 -0.207744,0 -0.257206,0.1286 -0.04946,0.12366 -0.04946,0.67764 v 0.47979 z"
         style="font-style:normal;font-variant:normal;font-weight:normal;font-stretch:normal;font-family:Impact;-inkscape-font-specification:Impact;fill:#ffffff;fill-opacity:1;stroke-width:0.25324938"
         id="path952"
         inkscape:connector-curvature="0" />
      <path
         d="m 42.069352,207.00033 -0.03462,0.62323 q 0.232475,-0.37097 0.553983,-0.55398 0.321508,-0.18796 0.732049,-0.18796 0.801297,0 1.261301,0.74194 0.25226,-0.37097 0.568822,-0.55398 0.316561,-0.18796 0.702371,-0.18796 0.509466,0 0.840867,0.24731 0.336347,0.24732 0.430326,0.6084 0.09398,0.35613 0.09398,1.16237 v 4.66434 h -1.93894 v -4.27853 q 0,-0.84087 -0.05936,-1.03872 -0.05441,-0.20279 -0.262152,-0.20279 -0.21269,0 -0.276992,0.19785 -0.05935,0.19785 -0.05935,1.04366 v 4.27853 H 42.68269 v -4.16971 q 0,-0.96452 -0.04946,-1.15743 -0.04452,-0.1929 -0.257207,-0.1929 -0.133549,0 -0.227529,0.10387 -0.09398,0.0989 -0.103871,0.24731 -0.0099,0.14344 -0.0099,0.61829 v 4.55057 h -1.938941 v -6.56371 z"
         style="font-style:normal;font-variant:normal;font-weight:normal;font-stretch:normal;font-family:Impact;-inkscape-font-specification:Impact;fill:#ffffff;fill-opacity:1;stroke-width:0.25324938"
         id="path954"
         inkscape:connector-curvature="0" />
    </g>
    <g
       aria-label="fin"
       transform="scale(0.93674752,1.0675235)"
       style="font-style:normal;font-weight:normal;font-size:10.12997532px;line-height:1.25;font-family:sans-serif;letter-spacing:0px;word-spacing:0px;display:inline;fill:#ffffff;fill-opacity:1;stroke:none;stroke-width:0.25324938"
       id="text873-8">
      <path
         d="m 32.019529,261.7566 v 1.01398 q -0.618285,0 -0.732049,0.0594 -0.108818,0.0544 -0.108818,0.32151 v 0.20774 h 0.840867 v 1.03872 h -0.474843 v 5.36671 H 29.54639 v -5.36671 h -0.410541 v -1.03872 h 0.410541 q 0,-0.64796 0.04452,-0.8656 0.04452,-0.21764 0.217636,-0.38581 0.178066,-0.17312 0.494628,-0.26215 0.316561,-0.089 0.984309,-0.089 z"
         style="font-style:normal;font-variant:normal;font-weight:normal;font-stretch:normal;font-family:Impact;-inkscape-font-specification:Impact;fill:#ffffff;fill-opacity:1;stroke-width:0.25324938"
         id="path957"
         inkscape:connector-curvature="0" />
      <path
         d="m 34.458043,261.7566 v 1.04366 h -2.057651 v -1.04366 z m 0,1.44431 v 6.56371 h -2.057651 v -6.56371 z"
         style="font-style:normal;font-variant:normal;font-weight:normal;font-stretch:normal;font-family:Impact;-inkscape-font-specification:Impact;fill:#ffffff;fill-opacity:1;stroke-width:0.25324938"
         id="path959"
         inkscape:connector-curvature="0" />
      <path
         d="m 37.203227,263.20091 -0.03462,0.60344 q 0.217636,-0.36107 0.529252,-0.53914 0.316561,-0.18301 0.727102,-0.18301 0.514413,0 0.840867,0.24237 0.326455,0.24236 0.420434,0.61333 0.09398,0.36603 0.09398,1.22668 v 4.60004 h -1.998296 v -4.54563 q 0,-0.67764 -0.04452,-0.82603 -0.04452,-0.14839 -0.247314,-0.14839 -0.21269,0 -0.267099,0.17312 -0.05441,0.16818 -0.05441,0.91012 v 4.43681 h -1.998296 v -6.56371 z"
         style="font-style:normal;font-variant:normal;font-weight:normal;font-stretch:normal;font-family:Impact;-inkscape-font-specification:Impact;fill:#ffffff;fill-opacity:1;stroke-width:0.25324938"
         id="path961"
         inkscape:connector-curvature="0" />
    </g>
    <g
       aria-label="fin"
       transform="scale(0.93674752,1.0675235)"
       style="font-style:normal;font-weight:normal;font-size:10.12997532px;line-height:1.25;font-family:sans-serif;letter-spacing:0px;word-spacing:0px;display:inline;fill:#ffffff;fill-opacity:1;stroke:none;stroke-width:0.25324938"
       id="text873-0-0">
      <path
         d="m 31.536844,318.11371 v 1.01399 q -0.618285,0 -0.732049,0.0593 -0.108819,0.0544 -0.108819,0.32151 v 0.20775 h 0.840868 v 1.03871 h -0.474843 v 5.36671 h -1.998296 v -5.36671 h -0.410541 v -1.03871 h 0.410541 q 0,-0.64797 0.04452,-0.8656 0.04452,-0.21764 0.217636,-0.38581 0.178066,-0.17312 0.494627,-0.26215 0.316562,-0.089 0.98431,-0.089 z"
         style="font-style:normal;font-variant:normal;font-weight:normal;font-stretch:normal;font-family:Impact;-inkscape-font-specification:Impact;fill:#ffffff;fill-opacity:1;stroke-width:0.25324938"
         id="path964"
         inkscape:connector-curvature="0" />
      <path
         d="m 33.975358,318.11371 v 1.04367 h -2.057651 v -1.04367 z m 0,1.44432 v 6.5637 h -2.057651 v -6.5637 z"
         style="font-style:normal;font-variant:normal;font-weight:normal;font-stretch:normal;font-family:Impact;-inkscape-font-specification:Impact;fill:#ffffff;fill-opacity:1;stroke-width:0.25324938"
         id="path966"
         inkscape:connector-curvature="0" />
      <path
         d="m 36.720542,319.55803 -0.03462,0.60344 q 0.217636,-0.36108 0.529252,-0.53914 0.316561,-0.18302 0.727102,-0.18302 0.514413,0 0.840867,0.24237 0.326455,0.24237 0.420434,0.61334 0.09398,0.36602 0.09398,1.22668 v 4.60003 h -1.998296 v -4.54562 q 0,-0.67764 -0.04452,-0.82603 -0.04452,-0.14839 -0.247314,-0.14839 -0.21269,0 -0.267099,0.17312 -0.05441,0.16817 -0.05441,0.91011 v 4.43681 h -1.998296 v -6.5637 z"
         style="font-style:normal;font-variant:normal;font-weight:normal;font-stretch:normal;font-family:Impact;-inkscape-font-specification:Impact;fill:#ffffff;fill-opacity:1;stroke-width:0.25324938"
         id="path968"
         inkscape:connector-curvature="0" />
    </g>
  </g>
</svg>
