<?xml version="1.0" encoding="UTF-8" standalone="no"?>
<svg
   xmlns:dc="http://purl.org/dc/elements/1.1/"
   xmlns:cc="http://creativecommons.org/ns#"
   xmlns:rdf="http://www.w3.org/1999/02/22-rdf-syntax-ns#"
   xmlns:svg="http://www.w3.org/2000/svg"
   xmlns="http://www.w3.org/2000/svg"
   xmlns:sodipodi="http://sodipodi.sourceforge.net/DTD/sodipodi-0.dtd"
   xmlns:inkscape="http://www.inkscape.org/namespaces/inkscape"
   width="13mm"
   height="13mm"
   viewBox="0 0 13 13"
   version="1.1"
   id="svg16908"
   inkscape:version="1.0.2-2 (e86c870879, 2021-01-15)"
   sodipodi:docname="DKnob.svg">
  <defs
     id="defs16902">
    <clipPath
       clipPathUnits="userSpaceOnUse"
       id="clipPath6367">
      <path
         d="M 0,3193 H 2089 V 0 H 0 Z"
         id="path6365"
         inkscape:connector-curvature="0" />
    </clipPath>
    <linearGradient
       id="SVGID_1_"
       gradientUnits="userSpaceOnUse"
       x1="18.00001"
       y1="-0.01729"
       x2="18.00001"
       y2="36.017311">
      <stop
         offset="0"
         style="stop-color:#B0ACAE"
         id="stop3" />
      <stop
         offset="1"
         style="stop-color:#000000"
         id="stop5" />
    </linearGradient>
    <linearGradient
       id="SVGID_2_"
       gradientUnits="userSpaceOnUse"
       x1="5.4805198"
       y1="-4113.208"
       x2="34.955521"
       y2="-4113.208"
       gradientTransform="rotate(90,-2046.495,-2048.713)">
      <stop
         offset="0"
         style="stop-color:#232223"
         id="stop14" />
      <stop
         offset="1"
         style="stop-color:#1F1E1F"
         id="stop16" />
    </linearGradient>
    <clipPath
       clipPathUnits="userSpaceOnUse"
       id="clipPath6367-1">
      <path
         d="M 0,3193 H 2089 V 0 H 0 Z"
         id="path6365-6"
         inkscape:connector-curvature="0" />
    </clipPath>
    <clipPath
       id="clip82">
      <path
         inkscape:connector-curvature="0"
         id="path22604"
         d="m 979.55859,272.09375 h 26.63281 v 27.13281 h -26.63281 z m 0,0" />
    </clipPath>
    <clipPath
       id="clip83">
      <path
         inkscape:connector-curvature="0"
         id="path22607"
         d="m 992,272.09375 h 2 V 287 h -2 z m 0,0" />
    </clipPath>
  </defs>
  <sodipodi:namedview
     id="base"
     pagecolor="#ffffff"
     bordercolor="#666666"
     borderopacity="1.0"
     inkscape:pageopacity="0.0"
     inkscape:pageshadow="2"
     inkscape:zoom="12.154993"
     inkscape:cx="54.414855"
     inkscape:cy="26.765105"
     inkscape:document-units="px"
     inkscape:current-layer="layer2"
     showgrid="true"
     fit-margin-top="0"
     fit-margin-left="0"
     fit-margin-right="0"
     fit-margin-bottom="0"
     inkscape:window-width="1721"
     inkscape:window-height="1385"
     inkscape:window-x="2533"
     inkscape:window-y="217"
     inkscape:window-maximized="0"
     inkscape:snap-grids="true"
     showguides="false"
     inkscape:snap-bbox="true"
     inkscape:document-rotation="0"
     inkscape:snap-global="false">
    <inkscape:grid
       type="xygrid"
       id="grid823" />
  </sodipodi:namedview>
  <metadata
     id="metadata16905">
    <rdf:RDF>
      <cc:Work
         rdf:about="">
        <dc:format>image/svg+xml</dc:format>
        <dc:type
           rdf:resource="http://purl.org/dc/dcmitype/StillImage" />
        <dc:title />
      </cc:Work>
    </rdf:RDF>
  </metadata>
  <g
     inkscape:label="Layer 1"
     inkscape:groupmode="layer"
     id="layer1"
     transform="translate(-230.09585,-119.75783)"
     style="display:inline">
    <g
       inkscape:label="Layer 1"
       id="layer1-4"
       transform="matrix(0.40659822,0,0,0.40659822,214.94227,80.174768)">
      <g
         id="g909"
         transform="matrix(0.6507243,0,0,0.6507243,80.837463,95.791806)">
        <g
           id="g899"
           transform="matrix(1.1325599,0,0,1.1325599,-6.8857884,2.4174282)">
          <g
             id="g895"
             transform="matrix(0.97359963,0,0,0.97359963,0.57214529,0.57490127)">
            <g
               id="g871"
               transform="matrix(5.6013133,0,0,5.6013133,-55.066583,-0.53742672)">
              <g
                 inkscape:label="Layer 1"
                 id="layer1-1"
                 transform="translate(-230.09585,-124.82033)"
                 style="display:inline" />
              <g
                 id="layer2"
                 inkscape:label="Layer 2"
                 style="display:inline"
                 transform="translate(0,-1.5878976)">
                <circle
                   style="display:inline;opacity:0.32;fill:#000000;fill-opacity:1;stroke:#424242;stroke-width:0.19089;stroke-miterlimit:4;stroke-dasharray:none;stroke-opacity:1"
                   id="circle965"
                   cx="3.981252"
                   cy="5.551897"
                   r="3.7070291" />
                <circle
                   style="display:inline;opacity:0.35;fill:none;fill-opacity:1;stroke:#4f4f4f;stroke-width:0.174396;stroke-miterlimit:4;stroke-dasharray:none;stroke-opacity:1"
                   id="circle920"
                   cx="3.981252"
                   cy="5.551897"
                   r="3.8837187" />
                <path
                   id="path916"
                   style="display:inline;opacity:0.56535948;fill:#424242;fill-opacity:1;fill-rule:evenodd;stroke:none;stroke-width:0.112495;stroke-linecap:round;stroke-linejoin:round;stroke-miterlimit:4;stroke-dasharray:none;stroke-opacity:1"
                   d="m 3.9705549,2.0574101 c -0.125281,0 -0.248909,0.00745 -0.370301,0.020239 -0.10833,0.066998 -0.217323,0.1543291 -0.332987,0.2428621 a 3.3093999,3.3093999 0 0 1 0.71404,-0.078108 3.3093999,3.3093999 0 0 1 0.6833661,0.071467 C 4.552365,2.2276612 4.445985,2.1429618 4.340541,2.0776488 4.2189579,2.0647818 4.0954469,2.0574098 3.9705549,2.0574101 Z M 2.1879852,2.7708176 c -0.147323,0.019699 -0.288927,0.034701 -0.415206,0.064194 -0.193946,0.1567946 -0.370429,0.3328793 -0.526833,0.5268337 -0.03049,0.129969 -0.0454,0.2758592 -0.06609,0.4281712 a 3.3093999,3.3093999 0 0 1 1.008131,-1.0191989 z m 3.5923357,0.00348 A 3.3093999,3.3093999 0 0 1 6.7552477,3.7473273 C 6.7374577,3.61088 6.7224277,3.4794125 6.6948477,3.3618453 6.5382447,3.1678909 6.3618437,2.9918062 6.1676979,2.8350116 6.0494949,2.8073916 5.9174489,2.7922096 5.7803199,2.7742956 Z M 0.75168316,4.8304039 c -0.09548,0.1258981 -0.191162,0.2423001 -0.2631,0.3589174 -0.01287,0.1215826 -0.01992,0.2450938 -0.01992,0.3699852 0,0.1250897 0.0072,0.2486453 0.01992,0.3706177 0.0732,0.1184856 0.170673,0.2368087 0.267844,0.3652419 a 3.3093999,3.3093999 0 0 1 -0.08443,-0.7431328 3.3093999,3.3093999 0 0 1 0.07969,-0.7216294 z m 6.46810154,0.039844 a 3.3093999,3.3093999 0 0 1 0.07084,0.681785 3.3093999,3.3093999 0 0 1 -0.07558,0.7026558 c 0.08648,-0.1125952 0.171475,-0.2190837 0.236854,-0.3247649 0.01265,-0.1219724 0.01992,-0.245528 0.01992,-0.3706177 0,-0.1248914 -0.0074,-0.2484026 -0.01992,-0.3699852 C 7.3877087,5.0854 7.3046107,4.9805812 7.2197877,4.8702479 Z m -6.0424605,2.439057 c 0.02218,0.1594994 0.03682,0.3119846 0.06862,0.4474609 0.156404,0.1941454 0.332887,0.3702305 0.526833,0.5268337 0.134751,0.03157 0.28611,0.046493 0.444299,0.068305 A 3.3093999,3.3093999 0 0 1 1.1773222,7.309305 Z m 5.5804535,0.043323 A 3.3093999,3.3093999 0 0 1 5.7509119,8.3481096 c 0.14804,-0.019798 0.290039,-0.034802 0.416787,-0.06451 0.1941458,-0.1566032 0.3705468,-0.3326883 0.5271498,-0.5268337 0.02885,-0.1229027 0.04397,-0.2608005 0.062929,-0.404138 z M 3.2400719,8.7772294 c 0.126337,0.095809 0.243218,0.1914859 0.360182,0.263733 0.121392,0.012647 0.24502,0.020239 0.370301,0.020239 0.124892,0 0.248403,-0.00759 0.3699861,-0.020239 C 4.454542,8.9704374 4.56875,8.8773637 4.691552,8.7838702 a 3.3093999,3.3093999 0 0 1 -0.7102451,0.077474 3.3093999,3.3093999 0 0 1 -0.741235,-0.084116 z" />
                <path
                   id="path958"
                   style="display:inline;opacity:1;fill:#181718;fill-opacity:1;fill-rule:evenodd;stroke:none;stroke-width:0.112495;stroke-linecap:round;stroke-linejoin:round;stroke-miterlimit:4;stroke-dasharray:none;stroke-opacity:1"
                   d="m 3.9813069,2.2424027 a 3.3093999,3.3093999 0 0 0 -0.71404,0.078108 C 3.1172829,2.4353139 2.9550579,2.5523938 2.7584581,2.6338914 2.5657091,2.7138444 2.3720191,2.7462098 2.1879862,2.7708176 a 3.3093999,3.3093999 0 0 0 -1.008132,1.0191989 c -0.02447,0.1800817 -0.05725,0.3694856 -0.135344,0.5575076 -0.07648,0.1850108 -0.18459304,0.3401628 -0.29282704,0.4828783 a 3.3093999,3.3093999 0 0 0 -0.07969,0.7216294 3.3093999,3.3093999 0 0 0 0.08443,0.7431328 c 0.106561,0.140846 0.212786,0.2937857 0.28808304,0.4759213 0.07525,0.1811677 0.10859,0.3640215 0.132815,0.5382179 a 3.3093999,3.3093999 0 0 0 1.039753,1.0425995 c 0.1752359,0.024163 0.3589819,0.056937 0.5413799,0.132499 0.184517,0.076594 0.3392068,0.1848296 0.4816128,0.292826 a 3.3093999,3.3093999 0 0 0 0.741236,0.084116 3.3093999,3.3093999 0 0 0 0.7102451,-0.077476 C 4.836348,8.6736274 4.993278,8.5626149 5.1817,8.4844015 5.373983,8.4048395 5.5674349,8.3726441 5.7509079,8.3481077 A 3.3093999,3.3093999 0 0 0 6.7577737,7.352626 C 6.7825357,7.1654015 6.8141047,6.9676483 6.8956486,6.7710851 6.9783646,6.5710015 7.098236,6.4067664 7.2150376,6.2546868 A 3.3093999,3.3093999 0 0 0 7.2906156,5.552031 3.3093999,3.3093999 0 0 0 7.2197806,4.870246 C 7.1015212,4.7164152 6.9794833,4.5503038 6.8956526,4.3475241 6.8113662,4.1443275 6.7803733,3.9400593 6.7552479,3.7473258 A 3.3093999,3.3093999 0 0 0 5.7803209,2.7742961 C 5.5881729,2.7491951 5.384447,2.7179051 5.181704,2.6338914 4.981288,2.5508134 4.81696,2.4307666 4.664673,2.31387 A 3.3093999,3.3093999 0 0 0 3.9813069,2.2424027 Z" />
                <circle
                   style="display:inline;opacity:1;fill:#fcfcfc;fill-opacity:1;stroke:none;stroke-width:0.211931;stroke-miterlimit:4;stroke-dasharray:none;stroke-opacity:1;paint-order:normal"
                   id="path6739"
                   cx="3.9702125"
                   cy="5.5592999"
                   r="2.5390339" />
                <path
                   style="opacity:1;fill:#e7e7e7;fill-opacity:1;stroke:none;stroke-width:0.234615;stroke-linejoin:round;stroke-miterlimit:4;stroke-dasharray:none;stroke-dashoffset:0;stroke-opacity:1;paint-order:normal"
                   id="path833"
                   sodipodi:type="arc"
                   sodipodi:cx="3.9663734"
                   sodipodi:cy="2.5686414"
                   sodipodi:rx="0.33985049"
                   sodipodi:ry="0.33985049"
                   sodipodi:start="2.4454564"
                   sodipodi:end="2.4435122"
                   sodipodi:open="true"
                   d="m 3.7055975,2.7865732 a 0.33985049,0.33985049 0 0 1 0.042717,-0.4786018 0.33985049,0.33985049 0 0 1 0.4786224,0.042485 0.33985049,0.33985049 0 0 1 -0.042252,0.478643 0.33985049,0.33985049 0 0 1 -0.4786635,-0.04202"
                   sodipodi:arc-type="arc" />
                <path
                   id="circle967"
                   style="display:inline;opacity:1;fill:#181718;fill-opacity:1;stroke:none;stroke-width:0.19089;stroke-miterlimit:4;stroke-dasharray:none;stroke-opacity:1"
                   d="M 3.9563254,1.8449057 A 3.7070292,3.7070292 0 0 0 0.27418104,5.5520318 3.7070292,3.7070292 0 0 0 3.9813074,9.2588415 3.7070292,3.7070292 0 0 0 7.6884322,5.5520318 3.7070292,3.7070292 0 0 0 3.9813074,1.8449057 a 3.7070292,3.7070292 0 0 0 -0.02498,0 z m 0.02498,0.2643656 a 3.4426064,3.4426064 0 0 1 0.710877,0.074313 c 0.158417,0.1216018 0.329419,0.2465649 0.537902,0.3329868 0.210904,0.087395 0.422768,0.1196691 0.622651,0.1457805 a 3.4426064,3.4426064 0 0 1 1.0141378,1.0122418 c 0.02614,0.2004911 0.05842,0.4131723 0.146098,0.6245479 0.0872,0.2109418 0.214083,0.3835711 0.337097,0.5435937 a 3.4426064,3.4426064 0 0 1 0.07368,0.7092966 3.4426064,3.4426064 0 0 1 -0.07843,0.7308 c -0.121503,0.158201 -0.246305,0.3291321 -0.332354,0.5372691 -0.08483,0.2044752 -0.117808,0.4101814 -0.143567,0.6049418 A 3.4426064,3.4426064 0 0 1 5.8220544,8.4606851 c -0.190858,0.025524 -0.391954,0.058905 -0.591977,0.1416696 -0.196006,0.081361 -0.359446,0.1968055 -0.510074,0.3114833 A 3.4426064,3.4426064 0 0 1 3.9813074,8.994476 3.4426064,3.4426064 0 0 1 3.2103464,8.907197 C 3.0622094,8.7948541 2.901071,8.6820318 2.709127,8.6023549 2.5193869,8.5237516 2.3282151,8.489616 2.1459271,8.46448 A 3.4426064,3.4426064 0 0 1 1.0644316,7.3801386 C 1.0392317,7.1989306 1.0045206,7.0085608 0.92624064,6.8201009 0.84791164,6.6306342 0.73762484,6.4717214 0.62677404,6.3252062 A 3.4426064,3.4426064 0 0 1 0.53886294,5.5520318 3.4426064,3.4426064 0 0 1 0.62171434,4.8013094 C 0.73430424,4.6528496 0.84668064,4.491599 0.92624064,4.2991415 1.0074825,4.1035513 1.0415015,3.9065118 1.0669616,3.7191817 A 3.4426064,3.4426064 0 0 1 2.1158856,2.6588733 C 2.3073255,2.6332751 2.5086199,2.5997425 2.709127,2.5165713 2.9136409,2.4317934 3.0824696,2.3099656 3.2384905,2.1905415 a 3.4426064,3.4426064 0 0 1 0.7428169,-0.08127 z" />
              </g>
            </g>
          </g>
        </g>
      </g>
    </g>
  </g>
</svg>
