<?xml version="1.0" encoding="UTF-8" standalone="no"?>
<svg
   xmlns:dc="http://purl.org/dc/elements/1.1/"
   xmlns:cc="http://creativecommons.org/ns#"
   xmlns:rdf="http://www.w3.org/1999/02/22-rdf-syntax-ns#"
   xmlns:svg="http://www.w3.org/2000/svg"
   xmlns="http://www.w3.org/2000/svg"
   xmlns:sodipodi="http://sodipodi.sourceforge.net/DTD/sodipodi-0.dtd"
   xmlns:inkscape="http://www.inkscape.org/namespaces/inkscape"
   width="25"
   height="25"
   viewBox="0 0 6.6145831 6.6145831"
   version="1.1"
   id="svg16908"
   inkscape:version="1.0.2-2 (e86c870879, 2021-01-15)"
   sodipodi:docname="MicroRound.svg">
  <defs
     id="defs16902">
    <clipPath
       clipPathUnits="userSpaceOnUse"
       id="clipPath6367">
      <path
         d="M 0,3193 H 2089 V 0 H 0 Z"
         id="path6365"
         inkscape:connector-curvature="0" />
    </clipPath>
    <linearGradient
       id="SVGID_1_"
       gradientUnits="userSpaceOnUse"
       x1="22.499969"
       y1="-7.8279836e-06"
       x2="22.499969"
       y2="44.999989">
      <stop
         offset="0"
         style="stop-color:#B0ACAE"
         id="stop3" />
      <stop
         offset="1"
         style="stop-color:#000000"
         id="stop5" />
    </linearGradient>
    <linearGradient
       id="SVGID_2_"
       gradientUnits="userSpaceOnUse"
       x1="4.65521"
       y1="-4108.708"
       x2="42.780788"
       y2="-4108.708"
       gradientTransform="rotate(90,-2042.495,-2043.713)">
      <stop
         offset="0"
         style="stop-color:#232223"
         id="stop14" />
      <stop
         offset="1"
         style="stop-color:#1F1E1F"
         id="stop16" />
    </linearGradient>
  </defs>
  <sodipodi:namedview
     id="base"
     pagecolor="#ffffff"
     bordercolor="#666666"
     borderopacity="1.0"
     inkscape:pageopacity="0.0"
     inkscape:pageshadow="2"
     inkscape:zoom="8.0174124"
     inkscape:cx="21.857908"
     inkscape:cy="42.748961"
     inkscape:document-units="px"
     inkscape:current-layer="layer2"
     showgrid="true"
     fit-margin-top="0"
     fit-margin-left="0"
     fit-margin-right="0"
     fit-margin-bottom="0"
     inkscape:window-width="1416"
     inkscape:window-height="1041"
     inkscape:window-x="86"
     inkscape:window-y="0"
     inkscape:window-maximized="0"
     inkscape:snap-grids="false"
     showguides="true"
     inkscape:document-rotation="0"
     units="px">
    <inkscape:grid
       type="xygrid"
       id="grid823" />
  </sodipodi:namedview>
  <metadata
     id="metadata16905">
    <rdf:RDF>
      <cc:Work
         rdf:about="">
        <dc:format>image/svg+xml</dc:format>
        <dc:type
           rdf:resource="http://purl.org/dc/dcmitype/StillImage" />
        <dc:title></dc:title>
      </cc:Work>
    </rdf:RDF>
  </metadata>
  <g
     inkscape:label="Layer 1"
     inkscape:groupmode="layer"
     id="layer1"
     transform="translate(-230.09585,-119.75783)"
     style="display:inline" />
  <g
     inkscape:groupmode="layer"
     id="layer2"
     inkscape:label="Layer 2"
     style="display:inline"
     transform="translate(0,3.4746026)">
    <g
       id="g15"
       transform="matrix(0.14797946,0,0,0.14797946,-0.01292926,-3.4875319)">
      <path
         opacity="0.4"
         enable-background="new    "
         d="M 23.38452,0.02234 V 1.52796 C 23.08887,1.51575 22.79858,1.4834 22.5,1.4834 c -0.29871,0 -0.58911,0.03235 -0.88477,0.04456 V 0.02234 C 9.59949,0.48767 0,10.37024 0,22.5 0,34.9264 10.07349,45 22.5,45 34.92627,45 45,34.9264 45,22.5 45,10.37024 35.40015,0.48767 23.38452,0.02234 Z M 22.5,2.48718 c 0.29858,0 0.58911,0.03174 0.88452,0.04456 V 3.48169 C 33.51929,3.94617 41.59937,12.2699 41.59937,22.5 41.59937,33.02808 33.04834,41.56275 22.5,41.56275 11.95166,41.56275 3.40051,33.02808 3.40051,22.5 c 0,-10.2301 8.0802,-18.55383 18.21472,-19.01831 V 2.53186 C 21.91077,2.51892 22.20129,2.48718 22.5,2.48718 Z"
         id="path3" />
      <path
         opacity="0.82"
         fill="#1e1d1e"
         enable-background="new    "
         d="M 22.5,1.4834 C 10.87061,1.4834 1.44299,10.8927 1.44299,22.5 1.44299,34.10706 10.8706,43.51648 22.5,43.51648 34.1294,43.51648 43.55688,34.10706 43.55688,22.5 43.55688,10.8927 34.12939,1.4834 22.5,1.4834 Z m 0,41.0293 C 11.42603,42.5127 2.44873,33.55274 2.44873,22.5 2.44873,11.44714 11.42602,2.48718 22.5,2.48718 c 11.07398,0 20.05115,8.95997 20.05115,20.01282 0,11.05274 -8.97718,20.0127 -20.05115,20.0127 z"
         id="path5" />
      <path
         fill="#ededed"
         d="m 23.38458,3.43714 h -1.76925 v 19.70013 c 0,0.28613 0.23196,0.51809 0.51809,0.51809 h 0.73308 c 0.28613,0 0.51809,-0.23196 0.51809,-0.51809 z"
         id="path7" />
      <rect
         x="21.61532"
         y="9.9999997e-06"
         opacity="0.71"
         fill="#ffffff"
         enable-background="new    "
         width="1.76925"
         height="1.4834"
         id="rect9" />
      <rect
         x="21.61533"
         y="1.48342"
         opacity="0.71"
         fill="#ffffff"
         enable-background="new    "
         width="1.76925"
         height="1.00378"
         id="rect11" />
      <rect
         x="21.61532"
         y="2.48719"
         opacity="0.71"
         fill="#ffffff"
         enable-background="new    "
         width="1.76925"
         height="0.94998997"
         id="rect13" />
    </g>
  </g>
</svg>
