<?xml version="1.0" encoding="UTF-8" standalone="no"?>
<svg
   version="1.0"
   id="svg15246"
   x="0px"
   y="0px"
   width="35"
   height="35"
   viewBox="0 0 35.000001 35"
   enable-background="new 0 0 34.29297 34.29298"
   xml:space="preserve"
   sodipodi:docname="VerboS.svg"
   inkscape:version="1.1.1 (3bf5ae0d25, 2021-09-20)"
   xmlns:inkscape="http://www.inkscape.org/namespaces/inkscape"
   xmlns:sodipodi="http://sodipodi.sourceforge.net/DTD/sodipodi-0.dtd"
   xmlns="http://www.w3.org/2000/svg"
   xmlns:svg="http://www.w3.org/2000/svg"
   xmlns:rdf="http://www.w3.org/1999/02/22-rdf-syntax-ns#"
   xmlns:cc="http://creativecommons.org/ns#"
   xmlns:dc="http://purl.org/dc/elements/1.1/"><metadata
   id="metadata56"><rdf:RDF><cc:Work
       rdf:about=""><dc:format>image/svg+xml</dc:format><dc:type
         rdf:resource="http://purl.org/dc/dcmitype/StillImage" /><dc:title /></cc:Work></rdf:RDF></metadata><defs
   id="defs54" />
<sodipodi:namedview
   bordercolor="#666666"
   borderopacity="1.0"
   fit-margin-bottom="0"
   fit-margin-left="0"
   fit-margin-right="0"
   fit-margin-top="0"
   id="base"
   inkscape:current-layer="g49"
   inkscape:cx="14.709821"
   inkscape:cy="18.013393"
   inkscape:document-units="mm"
   inkscape:pageopacity="0.0"
   inkscape:pageshadow="2"
   inkscape:window-height="1041"
   inkscape:window-maximized="0"
   inkscape:window-width="1904"
   inkscape:window-x="77"
   inkscape:window-y="0"
   inkscape:zoom="22.4"
   pagecolor="#ffffff"
   showgrid="false"
   units="px"
   inkscape:document-rotation="0"
   inkscape:pagecheckerboard="0">
	</sodipodi:namedview>
<g
   id="g51">
	<g
   opacity="0.32"
   id="g19"
   transform="matrix(1.0207564,0,0,1.0207602,-9.7347356e-5,0)">
		<g
   id="g5">
			<path
   d="m 29.53586,11.32326 c 0.04325,0.09226 0.07123,0.1924 0.11236,0.28577 0.13606,0.30774 0.2573,0.6228 0.37046,0.94208 0.07439,0.21076 0.14574,0.42184 0.20996,0.63719 0.11056,0.36916 0.20667,0.74415 0.28676,1.1256 0.01706,0.08171 0.04573,0.15877 0.06136,0.24098 0.07327,0.38598 0.44802,0.63905 0.83703,0.58439 l 0.42692,-0.06 c 3.1e-4,0.0021 3.7e-4,0.0043 6.8e-4,0.0065 l 1.09787,-0.1543 C 32.6788,13.04888 32.10242,11.26859 31.24491,9.65557 l -1.00276,0.5332 c 0.0019,0.0036 0.0044,0.0068 0.0063,0.01036 l -0.46086,0.24507 c -0.27813,0.19881 -0.39992,0.5627 -0.25176,0.87906 z"
   id="path3" />
		</g>
		<g
   id="g9">
			<path
   d="m 2.88377,15.13915 c 0.38908,0.05472 0.76382,-0.19835 0.8371,-0.58433 0.01564,-0.08227 0.04436,-0.15933 0.06142,-0.24104 0.07985,-0.38045 0.17577,-0.75439 0.28596,-1.12262 0.06471,-0.21722 0.13656,-0.43009 0.21163,-0.64265 0.11298,-0.31847 0.23384,-0.63285 0.3696,-0.93984 0.04114,-0.09331 0.06912,-0.19327 0.1123,-0.28546 0.14816,-0.31642 0.02643,-0.68025 -0.25177,-0.8791 L 4.04921,10.1991 C 4.05113,10.1955 4.05362,10.1923 4.05554,10.18874 L 3.05278,9.65553 c -0.85751,1.61302 -1.4339,3.3933 -1.69437,5.2759 l 1.09787,0.15431 c 3.1e-4,-0.0022 3.7e-4,-0.0043 6.8e-4,-0.0065 z"
   id="path7" />
		</g>
		<g
   id="g13">
			<path
   d="M 10.83857,30.08189 C 11.00472,29.74121 10.88783,29.32713 10.56564,29.13342 9.55389,28.57713 8.62174,27.90085 7.78676,27.11668 7.52556,26.87911 7.13555,26.88575 6.86082,27.09931 l -0.3843,0.37115 C 6.47422,27.4681 6.4723,27.46537 6.47,27.46301 L 5.68452,28.2215 c 1.28561,1.32892 2.80171,2.42605 4.48143,3.24602 l 0.48171,-0.98761 c -8.7e-4,-4.3e-4 -0.0018,-6.8e-4 -0.0027,-0.0011 z"
   id="path11" />
		</g>
		<g
   id="g17">
			<path
   d="m 26.51088,27.11672 c -0.83493,0.78411 -1.76708,1.46045 -2.77876,2.01667 -0.32226,0.19364 -0.43927,0.60784 -0.27312,0.94853 l 0.19357,0.3969 c -8.7e-4,4.3e-4 -0.0018,6.8e-4 -0.0027,0.0011 l 0.48171,0.98762 c 1.67972,-0.81997 3.19589,-1.91709 4.4815,-3.24601 -0.22224,-0.21455 -0.47997,-0.46347 -0.78547,-0.75849 -0.0023,0.0024 -0.0042,0.005 -0.0065,0.0074 l -0.38424,-0.37109 c -0.27461,-0.21362 -0.66481,-0.22032 -0.92601,0.01731 z"
   id="path15" />
		</g>
	</g>
	<g
   opacity="0.4"
   id="g35"
   transform="matrix(1.0207564,0,0,1.0207602,-9.7347356e-5,0)">
		<path
   opacity="0.4"
   d="m 2.45623,15.08576 c -0.09542,0.68186 -0.1437,1.36968 -0.1437,2.05825 -1e-5,3.84387 1.49375,7.54113 4.16393,10.30619 L 5.52452,28.35579 C 5.22857,28.64156 4.74674,28.63381 4.47436,28.32551 1.7512,25.24242 0.23808,21.26056 0.23808,17.1303 c 0,-0.53798 0.02563,-1.07559 0.07688,-1.61091 0.03909,-0.40825 0.42202,-0.69557 0.82816,-0.63849 z"
   id="path21" />
		<path
   opacity="0.4"
   d="m 23.65252,30.47884 c -2.02561,0.98792 -4.25001,1.50145 -6.50376,1.50145 -2.25275,0 -4.47603,-0.51324 -6.50108,-1.50036 l -0.58259,1.17412 c -0.18042,0.36997 -0.02414,0.82624 0.35352,0.9901 2.12159,0.92036 4.41225,1.39693 6.73021,1.39693 2.3179,0 4.60856,-0.47655 6.73022,-1.39691 0.3776,-0.16386 0.53389,-0.62013 0.35347,-0.9901 l -0.57992,-1.17524 c -8.7e-4,4.3e-4 -0.0018,6.8e-4 -0.0027,0.0011"
   id="path23" />
		<path
   opacity="0.4"
   d="m 27.82107,27.45024 c 2.67013,-2.76505 4.16397,-6.4623 4.16397,-10.30617 0,-0.69073 -0.04827,-1.38072 -0.14437,-2.06476 l 1.31384,-0.19841 c 0.40614,-0.05702 0.78914,0.23031 0.82816,0.63856 0.05125,0.53532 0.07693,1.07286 0.07693,1.61091 -1e-5,4.13026 -1.51321,8.11212 -4.23638,11.19514 -0.27231,0.30836 -0.75297,0.31729 -1.04885,0.03152 z"
   id="path25" />
		<g
   id="g29">
			<path
   opacity="0.4"
   d="M 31.71375,8.53757 C 30.53826,6.54505 28.96473,4.81221 27.08879,3.4493 25.21285,2.08639 23.0787,1.12525 20.82037,0.62308 20.6678,0.58909 20.52283,0.62041 20.39113,0.67987 20.3896,0.7064 20.39446,0.73239 20.38753,0.75905 L 19.9836,2.31339 v -0.004 h -0.01306 v 0.28154 c 2.12782,0.41272 4.14373,1.2752 5.89883,2.55041 1.82335,1.32466 3.32097,3.04763 4.37908,5.03762 L 31.41861,9.54309 C 31.78127,9.35033 31.9225,8.89122 31.71375,8.53757 Z"
   id="path27" />
		</g>
		<g
   id="g33">
			<path
   opacity="0.4"
   d="M 14.31419,2.31338 13.91034,0.75904 C 13.90341,0.73238 13.90827,0.70638 13.90674,0.67986 13.77503,0.6204 13.63,0.58894 13.47743,0.62307 11.2191,1.12523 9.08495,2.08623 7.20894,3.44927 5.33306,4.81218 3.75952,6.54502 2.58396,8.5374 2.37527,8.8912 2.51651,9.35017 2.87917,9.54293 l 1.17002,0.636 c 1.05805,-1.98998 2.5558,-3.71282 4.37909,-5.03761 1.7551,-1.2752 3.77115,-2.13768 5.8989,-2.55039 V 2.30939 h -0.013 v 0.00399 z"
   id="path31" />
		</g>
	</g>
	<path
   fill="#333333"
   d="M 14.18664,0.69880225 C 14.174309,0.51282994 14.292176,0.34071956 14.470227,0.28031097 6.2544444,1.7194094 0.00470021,8.8719376 0.00469,17.499913 0.00467979,27.165043 7.8397198,34.99999 17.50467,35 c 9.66495,1.1e-5 17.50001,-7.834926 17.50002,-17.500056 1.1e-5,-8.6279758 -6.249652,-15.7802488 -14.465301,-17.21963303 0.170619,0.0579077 0.285934,0.2184529 0.284362,0.39546293 0.134444,-0.0606842 0.27292,-0.0744645 0.428656,-0.0397688 2.305205,0.5125849 4.483652,1.4936784 6.39853,2.884893 1.914878,1.3912145 3.521079,3.1600287 4.720957,5.1939037 0.213094,0.361002 0.06892,0.829633 -0.301266,1.0263948 l -0.177305,0.1148457 c 0.872563,1.6413107 1.459171,3.4525787 1.726273,5.3675347 l 0.222953,-0.03375 c 0.414611,-0.05823 0.80555,0.235132 0.84535,0.651786 0.05231,0.546464 0.07858,1.095112 0.07858,1.644302 -1.1e-5,4.216087 -1.54464,8.28058 -4.324322,11.427676 -0.277993,0.314598 -0.76861,0.323857 -1.070621,0.03211 l -0.164648,-0.138252 c -1.310375,1.354468 -2.855749,2.472986 -4.567344,3.30956 l 0.09586,0.19418 c 0.184103,0.377599 0.02463,0.843382 -0.360868,1.010613 -2.165657,0.939447 -4.503863,1.426043 -6.869895,1.426033 -2.366093,0 -4.704298,-0.486596 -6.869884,-1.426053 -0.385489,-0.167231 -0.545033,-0.633014 -0.360868,-1.010614 l 0.09627,-0.194036 C 8.6582235,31.280422 7.1129209,30.162169 5.8024126,28.807426 l -0.1633108,0.137047 c -0.3020826,0.291601 -0.7939137,0.28371 -1.0719064,-0.03089 -2.779683,-3.147096 -4.32424045,-7.2116 -4.32423024,-11.427687 0,-0.549189 0.0261926,-1.097837 0.0784451,-1.644301 0.0399422,-0.416654 0.43081022,-0.710031 0.84534964,-0.651786 l 0.2228107,0.03483 C 1.6565494,13.309274 2.2433618,11.497598 3.1160677,9.8560219 L 2.9388338,9.7410435 C 2.5686463,9.5442817 2.4244746,9.0757834 2.6374963,8.7146384 3.8374566,6.6808962 5.4436576,4.912082 7.3584638,3.5208777 9.273413,2.1295304 11.45186,1.14859 13.757065,0.63600508 c 0.155747,-0.0348386 0.295141,0.002103 0.429575,0.0627972 z"
   id="path37"
   style="stroke-width:1.02075" />
	<g
   id="g41"
   transform="matrix(1.0207564,0,0,1.0207602,-9.7347356e-5,0)">
		<path
   fill="#424242"
   d="m 31.84071,15.07927 -0.42691,0.05999 c -0.38905,0.05465 -0.76377,-0.19836 -0.83709,-0.58441 -0.21502,-1.13256 -0.56541,-2.2166 -1.04085,-3.23159 -0.16223,-0.34633 -0.01126,-0.75957 0.3264,-0.939 l 0.38625,-0.20529 C 29.1904,8.18898 27.69271,6.46588 25.86936,5.14135 24.11786,3.86881 22.10641,3.00766 19.98352,2.59401 v 1.23428 l -5.66935,-1e-5 V 2.59414 C 12.19128,3.00778 10.17983,3.8688 8.42833,5.14134 6.60498,6.466 5.10722,8.18897 4.04917,10.17882 l 0.38619,0.20542 c 0.3376,0.17943 0.48863,0.59268 0.3264,0.939 C 4.28632,12.33823 3.93593,13.42227 3.72084,14.55483 3.64759,14.94088 3.2728,15.1939 2.88381,15.13924 L 2.45697,15.07925 c -0.09611,0.68399 -0.14444,1.37398 -0.14444,2.06477 0,3.84386 1.49381,7.54109 4.16399,10.30625 l 0.31893,-0.3082 c 0.27661,-0.26701 0.71872,-0.28301 0.99946,-0.02026 0.82716,0.77397 1.7511,1.44397 2.75109,1.99505 0.3398,0.18716 0.46264,0.61641 0.29254,0.96513 l -0.19356,0.39672 c 2.02564,0.98806 4.25004,1.50156 6.50377,1.50156 2.2538,0 4.4782,-0.51349 6.50378,-1.50141 l -0.19356,-0.39685 c -0.17003,-0.34873 -0.04719,-0.77797 0.29261,-0.96513 0.99999,-0.55108 1.92387,-1.22094 2.75103,-1.99505 0.28074,-0.26274 0.72292,-0.24675 0.99946,0.02026 l 0.319,0.3082 c 2.67018,-2.76502 4.16401,-6.46238 4.16401,-10.30624 0,-0.69067 -0.04825,-1.38066 -0.14437,-2.06478 z"
   id="path39" />
	</g>
	<g
   id="g49">
		<rect
   x="14.611153"
   y="3.3374572"
   fill="#DB1255"
   width="5.787066"
   height="11.115681"
   id="rect43"
   style="fill:#1982c4;fill-opacity:1;stroke-width:1.02075" />
		<path
   opacity="0.58"
   fill="#E3195A"
   d="M 20.810553,0.7747264 C 20.871349,0.54073753 20.720716,0.29839884 20.482492,0.2572622 19.514549,0.09014334 18.520363,0 17.504711,0 c -1.015653,0 -2.009788,0.09013313 -2.9777,0.25725199 -0.238234,0.0411366 -0.388867,0.28346512 -0.328071,0.5174642 l 0.412253,1.58669011 v -0.00408 l 5.787097,1.02e-5 v 0.00408 z"
   id="path45"
   style="fill:#1982c4;fill-opacity:1;stroke-width:1.02075" />
		<rect
   x="14.611162"
   y="2.3614676"
   opacity="0.58"
   fill="#EB5E8B"
   width="5.787066"
   height="0.97599989"
   id="rect47"
   style="fill:#1982c4;fill-opacity:1;stroke-width:1.02075" />
	</g>
</g>
</svg>
