<?xml version="1.0" encoding="UTF-8" standalone="no"?>
<svg
   xmlns:dc="http://purl.org/dc/elements/1.1/"
   xmlns:cc="http://creativecommons.org/ns#"
   xmlns:rdf="http://www.w3.org/1999/02/22-rdf-syntax-ns#"
   xmlns:svg="http://www.w3.org/2000/svg"
   xmlns="http://www.w3.org/2000/svg"
   xmlns:sodipodi="http://sodipodi.sourceforge.net/DTD/sodipodi-0.dtd"
   xmlns:inkscape="http://www.inkscape.org/namespaces/inkscape"
   width="27mm"
   height="27mm"
   viewBox="0 0 27 27"
   version="1.1"
   id="svg16908"
   inkscape:version="1.0.2-2 (e86c870879, 2021-01-15)"
   sodipodi:docname="VerboL.svg">
  <defs
     id="defs16902">
    <inkscape:path-effect
       effect="spiro"
       id="path-effect4691"
       is_visible="true" />
    <inkscape:path-effect
       effect="spiro"
       id="path-effect4687"
       is_visible="true" />
    <clipPath
       clipPathUnits="userSpaceOnUse"
       id="clipPath6367">
      <path
         d="M 0,3193 H 2089 V 0 H 0 Z"
         id="path6365"
         inkscape:connector-curvature="0" />
    </clipPath>
    <clipPath
       id="clip89">
      <rect
         id="rect4864"
         height="19"
         width="18"
         x="0"
         y="0" />
    </clipPath>
    <clipPath
       id="clip90">
      <path
         id="path4861"
         d="m 0.898438,0.128906 h 16.25 v 17.882813 h -16.25 z m 0,0"
         inkscape:connector-curvature="0" />
    </clipPath>
    <mask
       id="mask44">
      <g
         transform="matrix(0.26458333,0,0,0.26458333,89.358789,128.57765)"
         id="g4858"
         style="filter:url(#alpha)">
        <rect
           id="rect4856"
           style="fill:#000000;fill-opacity:0.14999402;stroke:none"
           height="3351.5"
           width="3052.8701"
           y="0"
           x="0" />
      </g>
    </mask>
    <filter
       height="1"
       width="1"
       y="0"
       x="0"
       filterUnits="objectBoundingBox"
       id="alpha">
      <feColorMatrix
         id="feColorMatrix4149"
         values="0 0 0 0 1 0 0 0 0 1 0 0 0 0 1 0 0 0 1 0"
         in="SourceGraphic"
         type="matrix" />
    </filter>
    <clipPath
       id="clipPath17821">
      <rect
         id="rect17819"
         height="19"
         width="18"
         x="0"
         y="0" />
    </clipPath>
    <clipPath
       id="clipPath17825">
      <path
         id="path17823"
         d="m 0.898438,0.128906 h 16.25 v 17.882813 h -16.25 z m 0,0"
         inkscape:connector-curvature="0" />
    </clipPath>
    <clipPath
       id="clip87">
      <rect
         id="rect4848"
         height="26"
         width="24"
         x="0"
         y="0" />
    </clipPath>
    <clipPath
       id="clip88">
      <path
         id="path4845"
         d="m 0.683594,0.921875 h 22.679687 v 24.9375 H 0.683594 Z m 0,0"
         inkscape:connector-curvature="0" />
    </clipPath>
    <mask
       id="mask43">
      <g
         transform="matrix(0.26458333,0,0,0.26458333,89.358789,128.57765)"
         id="g4842"
         style="filter:url(#alpha)">
        <rect
           id="rect4840"
           style="fill:#000000;fill-opacity:0.14999402;stroke:none"
           height="3351.5"
           width="3052.8701"
           y="0"
           x="0" />
      </g>
    </mask>
    <filter
       height="1"
       width="1"
       y="0"
       x="0"
       filterUnits="objectBoundingBox"
       id="filter17836">
      <feColorMatrix
         id="feColorMatrix17834"
         values="0 0 0 0 1 0 0 0 0 1 0 0 0 0 1 0 0 0 1 0"
         in="SourceGraphic"
         type="matrix" />
    </filter>
    <clipPath
       id="clipPath17840">
      <rect
         id="rect17838"
         height="26"
         width="24"
         x="0"
         y="0" />
    </clipPath>
    <clipPath
       id="clipPath17844">
      <path
         id="path17842"
         d="m 0.683594,0.921875 h 22.679687 v 24.9375 H 0.683594 Z m 0,0"
         inkscape:connector-curvature="0" />
    </clipPath>
    <clipPath
       id="clip95">
      <rect
         id="rect4912"
         height="18"
         width="18"
         x="0"
         y="0" />
    </clipPath>
    <clipPath
       id="clip96">
      <path
         id="path4909"
         d="M 0.140625,0.140625 H 17.199219 V 17.199219 H 0.140625 Z m 0,0"
         inkscape:connector-curvature="0" />
    </clipPath>
    <mask
       id="mask47">
      <g
         transform="matrix(0.26458333,0,0,0.26458333,88.611154,119.19859)"
         id="g4906"
         style="filter:url(#alpha-3)">
        <rect
           id="rect4904"
           style="fill:#000000;fill-opacity:0.33000201;stroke:none"
           height="3351.5"
           width="3052.8701"
           y="0"
           x="0" />
      </g>
    </mask>
    <filter
       height="1"
       width="1"
       y="0"
       x="0"
       filterUnits="objectBoundingBox"
       id="alpha-3">
      <feColorMatrix
         id="feColorMatrix4149-6"
         values="0 0 0 0 1 0 0 0 0 1 0 0 0 0 1 0 0 0 1 0"
         in="SourceGraphic"
         type="matrix" />
    </filter>
    <clipPath
       id="clipPath18541">
      <rect
         id="rect18539"
         height="18"
         width="18"
         x="0"
         y="0" />
    </clipPath>
    <clipPath
       id="clipPath18545">
      <path
         id="path18543"
         d="M 0.140625,0.140625 H 17.199219 V 17.199219 H 0.140625 Z m 0,0"
         inkscape:connector-curvature="0" />
    </clipPath>
    <clipPath
       id="clip93">
      <rect
         id="rect4896"
         height="24"
         width="22"
         x="0"
         y="0" />
    </clipPath>
    <clipPath
       id="clip94">
      <path
         id="path4893"
         d="M 0.0390625,0.0390625 H 21.300781 V 23.421875 H 0.0390625 Z m 0,0"
         inkscape:connector-curvature="0" />
    </clipPath>
    <mask
       id="mask46">
      <g
         transform="matrix(0.26458333,0,0,0.26458333,88.611154,119.19859)"
         id="g4890"
         style="filter:url(#alpha-3)">
        <rect
           id="rect4888"
           style="fill:#000000;fill-opacity:0.14999402;stroke:none"
           height="3351.5"
           width="3052.8701"
           y="0"
           x="0" />
      </g>
    </mask>
    <filter
       height="1"
       width="1"
       y="0"
       x="0"
       filterUnits="objectBoundingBox"
       id="filter18556">
      <feColorMatrix
         id="feColorMatrix18554"
         values="0 0 0 0 1 0 0 0 0 1 0 0 0 0 1 0 0 0 1 0"
         in="SourceGraphic"
         type="matrix" />
    </filter>
    <clipPath
       id="clipPath18560">
      <rect
         id="rect18558"
         height="24"
         width="22"
         x="0"
         y="0" />
    </clipPath>
    <clipPath
       id="clipPath18564">
      <path
         id="path18562"
         d="M 0.0390625,0.0390625 H 21.300781 V 23.421875 H 0.0390625 Z m 0,0"
         inkscape:connector-curvature="0" />
    </clipPath>
    <clipPath
       id="clip91">
      <rect
         id="rect4880"
         height="32"
         width="29"
         x="0"
         y="0" />
    </clipPath>
    <clipPath
       id="clip92">
      <path
         id="path4877"
         d="M 0.507812,0.5 H 28.855469 V 31.679688 H 0.507812 Z m 0,0"
         inkscape:connector-curvature="0" />
    </clipPath>
    <mask
       id="mask45">
      <g
         transform="matrix(0.26458333,0,0,0.26458333,88.611154,119.19859)"
         id="g4874"
         style="filter:url(#alpha-3)">
        <rect
           id="rect4872"
           style="fill:#000000;fill-opacity:0.14999402;stroke:none"
           height="3351.5"
           width="3052.8701"
           y="0"
           x="0" />
      </g>
    </mask>
    <filter
       height="1"
       width="1"
       y="0"
       x="0"
       filterUnits="objectBoundingBox"
       id="filter18575">
      <feColorMatrix
         id="feColorMatrix18573"
         values="0 0 0 0 1 0 0 0 0 1 0 0 0 0 1 0 0 0 1 0"
         in="SourceGraphic"
         type="matrix" />
    </filter>
    <clipPath
       id="clipPath18579">
      <rect
         id="rect18577"
         height="32"
         width="29"
         x="0"
         y="0" />
    </clipPath>
    <clipPath
       id="clipPath18583">
      <path
         id="path18581"
         d="M 0.507812,0.5 H 28.855469 V 31.679688 H 0.507812 Z m 0,0"
         inkscape:connector-curvature="0" />
    </clipPath>
    <clipPath
       id="clip202">
      <rect
         id="rect5795"
         height="18"
         width="18"
         x="0"
         y="0" />
    </clipPath>
    <clipPath
       id="clip203">
      <path
         id="path5792"
         d="M 0.855469,0.140625 H 17.914062 V 17.199219 H 0.855469 Z m 0,0"
         inkscape:connector-curvature="0" />
    </clipPath>
    <mask
       id="mask104">
      <g
         transform="matrix(0.26458333,0,0,0.26458333,74.416306,97.613551)"
         id="g5789"
         style="filter:url(#alpha-7)">
        <rect
           id="rect5787"
           style="fill:#000000;fill-opacity:0.33000201;stroke:none"
           height="3351.5"
           width="3052.8701"
           y="0"
           x="0" />
      </g>
    </mask>
    <filter
       height="1"
       width="1"
       y="0"
       x="0"
       filterUnits="objectBoundingBox"
       id="alpha-7">
      <feColorMatrix
         id="feColorMatrix4149-5"
         values="0 0 0 0 1 0 0 0 0 1 0 0 0 0 1 0 0 0 1 0"
         in="SourceGraphic"
         type="matrix" />
    </filter>
    <clipPath
       id="clipPath18765">
      <rect
         id="rect18763"
         height="18"
         width="18"
         x="0"
         y="0" />
    </clipPath>
    <clipPath
       id="clipPath18769">
      <path
         id="path18767"
         d="M 0.855469,0.140625 H 17.914062 V 17.199219 H 0.855469 Z m 0,0"
         inkscape:connector-curvature="0" />
    </clipPath>
    <linearGradient
       id="SVGID_1_"
       gradientUnits="userSpaceOnUse"
       x1="26.929609"
       y1="0.01122"
       x2="26.929609"
       y2="53.848221">
      <stop
         offset="0"
         style="stop-color:#B0ACAE"
         id="stop3" />
      <stop
         offset="1"
         style="stop-color:#000000"
         id="stop5" />
    </linearGradient>
    <linearGradient
       id="SVGID_2_"
       gradientUnits="userSpaceOnUse"
       x1="5.89048"
       y1="-4104.1377"
       x2="52.40498"
       y2="-4104.1377"
       gradientTransform="rotate(90,-2037.495,-2039.713)">
      <stop
         offset="0"
         style="stop-color:#232223"
         id="stop14" />
      <stop
         offset="1"
         style="stop-color:#1F1E1F"
         id="stop16" />
    </linearGradient>
    <linearGradient
       id="SVGID_1_-3"
       gradientUnits="userSpaceOnUse"
       x1="11.33881"
       y1="-0.0090399999"
       x2="11.33881"
       y2="22.666759">
      <stop
         offset="0"
         style="stop-color:#B0ACAE"
         id="stop3-2" />
      <stop
         offset="1"
         style="stop-color:#000000"
         id="stop5-5" />
    </linearGradient>
    <linearGradient
       id="SVGID_2_-3"
       gradientUnits="userSpaceOnUse"
       x1="4.5368199"
       y1="-4120.5469"
       x2="22.556919"
       y2="-4120.5469"
       gradientTransform="rotate(90,-2053.495,-2055.713)">
      <stop
         offset="0"
         style="stop-color:#232223"
         id="stop14-8" />
      <stop
         offset="1"
         style="stop-color:#1F1E1F"
         id="stop16-4" />
    </linearGradient>
  </defs>
  <sodipodi:namedview
     id="base"
     pagecolor="#ffffff"
     bordercolor="#666666"
     borderopacity="1.0"
     inkscape:pageopacity="0.0"
     inkscape:pageshadow="2"
     inkscape:zoom="4.7737871"
     inkscape:cx="20.272341"
     inkscape:cy="51.822077"
     inkscape:document-units="px"
     inkscape:current-layer="layer1"
     showgrid="true"
     fit-margin-top="0"
     fit-margin-left="0"
     fit-margin-right="0"
     fit-margin-bottom="0"
     inkscape:window-width="1607"
     inkscape:window-height="882"
     inkscape:window-x="195"
     inkscape:window-y="826"
     inkscape:window-maximized="0"
     inkscape:snap-grids="false"
     showguides="false"
     inkscape:document-rotation="0">
    <inkscape:grid
       type="xygrid"
       id="grid823" />
  </sodipodi:namedview>
  <metadata
     id="metadata16905">
    <rdf:RDF>
      <cc:Work
         rdf:about="">
        <dc:format>image/svg+xml</dc:format>
        <dc:type
           rdf:resource="http://purl.org/dc/dcmitype/StillImage" />
        <dc:title />
      </cc:Work>
    </rdf:RDF>
  </metadata>
  <g
     inkscape:label="Layer 1"
     inkscape:groupmode="layer"
     id="layer1"
     transform="translate(-230.09585,-105.75783)"
     style="display:inline">
    <g
       id="g29"
       transform="matrix(0.50033463,0,0,0.50033463,230.12144,137.61182)">
      <linearGradient
         id="linearGradient879"
         gradientUnits="userSpaceOnUse"
         x1="26.929609"
         y1="0.01122"
         x2="26.929609"
         y2="53.848221">
        <stop
           offset="0"
           style="stop-color:#B0ACAE"
           id="stop875" />
        <stop
           offset="1"
           style="stop-color:#000000"
           id="stop877" />
      </linearGradient>
      <linearGradient
         id="linearGradient888"
         gradientUnits="userSpaceOnUse"
         x1="5.89048"
         y1="-4104.1377"
         x2="52.40498"
         y2="-4104.1377"
         gradientTransform="rotate(90,-2037.495,-2039.713)">
        <stop
           offset="0"
           style="stop-color:#232223"
           id="stop884" />
        <stop
           offset="1"
           style="stop-color:#1F1E1F"
           id="stop886" />
      </linearGradient>
      <g
         id="g15"
         transform="matrix(1.0002108,0,0,1.0002108,-0.04121035,-63.488351)">
        <path
           opacity="0.4"
           enable-background="new    "
           d="m 27.78839,0.03321 0.0016,1.61194 c -0.608088,-0.032841 -1.203775,-0.017282 -1.76933,0.0017 L 26.0191,0.03491 C 11.56338,0.51658 -0.00286,12.38609 0.01114,26.95603 0.02542,41.82261 12.08888,53.8629 26.95545,53.84861 41.82214,53.83433 53.86244,41.77087 53.84815,26.9043 53.83415,12.33437 42.24513,0.4871 27.78839,0.03321 Z m 0.0026,2.73694 8.9e-4,0.92432 C 40.25108,4.14734 50.2194,14.35933 50.23145,26.90778 50.24379,39.75238 39.82118,50.17499 26.95193,50.18736 14.08267,50.19973 3.64006,39.79716 3.62772,26.95256 3.61566,14.4041 13.56433,4.17298 26.02262,3.69617 l -8.9e-4,-0.92432 c 0.607989,-0.034259 1.203727,-0.019637 1.76928,-0.0017 z"
           id="path3"
           sodipodi:nodetypes="ccccssscccsssccc" />
        <path
           opacity="0.82"
           fill="#1e1d1e"
           enable-background="new    "
           d="M 26.90527,1.62366 C 12.90198,1.63712 1.56107,12.9781 1.57449,26.95453 1.58791,40.93096 12.95061,52.25013 26.9539,52.23667 40.95719,52.22321 52.29823,40.88224 52.2848,26.9058 52.27137,12.92936 40.90856,1.61021 26.90527,1.62366 Z m 0.04755,49.48802 C 13.57209,51.12453 2.7144,40.30854 2.70157,26.95345 2.68874,13.59836 13.52562,2.76152 26.90635,2.74866 40.28708,2.73581 51.14477,13.5518 51.1576,26.90689 51.17043,40.26198 40.33355,51.09882 26.95282,51.11168 Z"
           id="path5" />
        <rect
           style="fill:#000000;stroke:none;stroke-width:0.584215;fill-opacity:0.40000001"
           id="rect2121"
           width="1.7727799"
           height="3.65956"
           x="26.0191"
           y="0.034909997" />
      </g>
    </g>
    <path
       style="display:inline;fill:#ffffff;fill-opacity:1;stroke:none;stroke-width:0.140908px;stroke-linecap:butt;stroke-linejoin:miter;stroke-opacity:1;opacity:0.58169935"
       d="m 243.6659,106.634 -0.73007,5.79173 1.48532,-0.0228 z"
       id="path4693"
       inkscape:connector-curvature="0" />
  </g>
</svg>
