<?xml version="1.0" encoding="UTF-8" standalone="no"?>
<svg
   xmlns:serif="http://www.serif.com/"
   xmlns:dc="http://purl.org/dc/elements/1.1/"
   xmlns:cc="http://creativecommons.org/ns#"
   xmlns:rdf="http://www.w3.org/1999/02/22-rdf-syntax-ns#"
   xmlns:svg="http://www.w3.org/2000/svg"
   xmlns="http://www.w3.org/2000/svg"
   xmlns:sodipodi="http://sodipodi.sourceforge.net/DTD/sodipodi-0.dtd"
   xmlns:inkscape="http://www.inkscape.org/namespaces/inkscape"
   width="100%"
   height="100%"
   viewBox="0 0 255 380"
   version="1.1"
   xml:space="preserve"
   style="fill-rule:evenodd;clip-rule:evenodd;"
   id="svg136"
   sodipodi:docname="Smorph.svg"
   inkscape:version="0.92.4 (5da689c313, 2019-01-14)"><metadata
   id="metadata142"><rdf:RDF><cc:Work
       rdf:about=""><dc:format>image/svg+xml</dc:format><dc:type
         rdf:resource="http://purl.org/dc/dcmitype/StillImage" /></cc:Work></rdf:RDF></metadata><defs
   id="defs140" /><sodipodi:namedview
   pagecolor="#ffffff"
   bordercolor="#666666"
   borderopacity="1"
   objecttolerance="10"
   gridtolerance="10"
   guidetolerance="10"
   inkscape:pageopacity="0"
   inkscape:pageshadow="2"
   inkscape:window-width="1254"
   inkscape:window-height="1008"
   id="namedview138"
   showgrid="true"
   inkscape:zoom="1.7566021"
   inkscape:cx="108.1234"
   inkscape:cy="212.49867"
   inkscape:window-x="-7"
   inkscape:window-y="0"
   inkscape:window-maximized="0"
   inkscape:current-layer="layer2"><inkscape:grid
     type="xygrid"
     id="grid1070" /></sodipodi:namedview>
    <g
   inkscape:groupmode="layer"
   id="layer2"
   inkscape:label="Layer 2"
   style="display:inline"><rect
     id="rect844"
     x="0.55400002"
     y="-0.42199999"
     width="255.099"
     height="380.198"
     style="clip-rule:evenodd;fill:#dfe0e2;fill-opacity:1;fill-rule:nonzero" /><g
     transform="matrix(1,0,0,0.93080764,31.863894,26.915314)"
     aria-label="dBiz"
     style="font-style:normal;font-variant:normal;font-weight:normal;font-stretch:normal;font-size:25.73079109px;line-height:1.25;font-family:'DejaVu Math TeX Gyre';-inkscape-font-specification:'DejaVu Math TeX Gyre';letter-spacing:0px;word-spacing:0px;display:inline;fill:#071013;fill-opacity:1;stroke:none;stroke-width:1.60817444;enable-background:new"
     id="text996-7"><path
       inkscape:connector-curvature="0"
       d="m 82.106012,375.2778 v -6.4327 h -0.804087 v 6.4327 z m -4.020436,2.41226 -1.608174,-1.60817 v -8.04087 l 1.608174,-1.60818 h 4.020436 v -4.82452 h 4.824524 v 16.08174 z"
       style="font-style:normal;font-variant:normal;font-weight:normal;font-stretch:normal;font-family:'High Volume';-inkscape-font-specification:'High Volume';fill:#071013;fill-opacity:1;stroke-width:1.60817444"
       id="path1000-8" /><path
       inkscape:connector-curvature="0"
       d="m 94.971408,368.04102 v -3.21635 h -0.804087 v 3.21635 z m -6.432698,9.64904 v -4.82452 h -0.804087 v -11.25722 h 12.061308 l 1.608179,1.60817 v 4.82453 l -1.608179,1.60817 1.608179,1.60818 v 0.80408 h -0.40205 v 4.42248 l -0.40204,0.40205 v -3.21635 h -0.804089 v 4.02043 H 99.393888 V 368.8451 H 98.5898 v 8.84496 h -0.402043 v -5.62861 H 97.38367 v 5.62861 h -0.402044 v -7.23678 h -0.804087 v 7.23678 h -0.402044 v -4.82452 h -0.804087 v -1.60817 h -0.804087 v 3.21634 h 0.804087 v 3.21635 h -0.402044 v -1.60817 h -0.804087 v 1.60817 h -0.402043 v -1.60817 h -0.804088 v 1.60817 h -0.402043 v -5.62861 h -0.804088 v 5.62861 h -0.402043 v -8.04087 h -0.804087 v 8.04087 h -0.402044 v -3.21635 h -0.804087 v 3.21635 z"
       style="font-style:normal;font-variant:normal;font-weight:normal;font-stretch:normal;font-family:'High Volume';-inkscape-font-specification:'High Volume';fill:#071013;fill-opacity:1;stroke-width:1.60817444"
       id="path1002-9" /><path
       inkscape:connector-curvature="0"
       d="m 102.20819,377.69006 v -11.25722 h 4.82453 v 11.25722 z m 0,-12.0613 v -4.02044 h 4.82453 v 4.02044 z"
       style="font-style:normal;font-variant:normal;font-weight:normal;font-stretch:normal;font-family:'High Volume';-inkscape-font-specification:'High Volume';fill:#071013;fill-opacity:1;stroke-width:1.60817444"
       id="path1004-6" /><path
       inkscape:connector-curvature="0"
       d="m 107.8368,377.69006 v -5.62861 l 1.60818,-1.60817 h 4.02043 v -1.60818 h -0.80408 v 0.80409 h -4.82453 v -1.60817 l 1.60818,-1.60818 h 8.84496 v 4.82453 l -1.60818,1.60817 h -4.02043 v 2.41226 h 0.80408 v -1.60817 h 4.82453 v 2.41226 l -1.60818,1.60817 z"
       style="font-style:normal;font-variant:normal;font-weight:normal;font-stretch:normal;font-family:'High Volume';-inkscape-font-specification:'High Volume';fill:#071013;fill-opacity:1;stroke-width:1.60817444"
       id="path1006-2" /></g><path
     style="display:inline;fill:none;stroke:#071013;stroke-width:1.17041123px;stroke-linecap:butt;stroke-linejoin:miter;stroke-opacity:1;enable-background:new"
     d="M -3.6045282,368.50229 H 107.11073"
     id="path1057"
     inkscape:connector-curvature="0"
     sodipodi:nodetypes="cc" /><path
     style="display:inline;fill:none;stroke:#071013;stroke-width:3.24434566;stroke-linecap:butt;stroke-linejoin:miter;stroke-miterlimit:4;stroke-dasharray:none;stroke-opacity:1;enable-background:new"
     d="M -3.6045282,364.38499 H 107.11073"
     id="path1057-3"
     inkscape:connector-curvature="0"
     sodipodi:nodetypes="cc" /><path
     style="display:inline;fill:none;stroke:#071013;stroke-width:1.17041123px;stroke-linecap:butt;stroke-linejoin:miter;stroke-opacity:1;enable-background:new"
     d="m 151.86705,368.50229 h 105.1759"
     id="path1057-5"
     inkscape:connector-curvature="0"
     sodipodi:nodetypes="cc" /><path
     style="display:inline;fill:none;stroke:#071013;stroke-width:3.24434566;stroke-linecap:butt;stroke-linejoin:miter;stroke-miterlimit:4;stroke-dasharray:none;stroke-opacity:1;enable-background:new"
     d="m 151.86705,364.38499 h 105.1759"
     id="path1057-3-9"
     inkscape:connector-curvature="0"
     sodipodi:nodetypes="cc" /></g>
    
    
<g
   inkscape:groupmode="layer"
   id="layer1"
   inkscape:label="Layer 1"
   style="display:inline"
   sodipodi:insensitive="true"><g
     id="Layer-4"
     serif:id="Layer 4"
     style="clip-rule:evenodd;fill:#e7e7e7;fill-opacity:1;fill-rule:evenodd">
        
    </g><g
     style="clip-rule:evenodd;fill-rule:evenodd"
     id="Layer-6"
     serif:id="Layer 6">
        <path
   id="path1595"
   d="M 28.23,97.695 C 19.189,93.314 14.298,83.216 16.465,73.406 18.632,63.597 27.321,56.499 37.366,56.334 47.411,56.169 56.329,62.976 58.817,72.71 61.306,82.443 56.75,92.696 47.858,97.372"
   style="fill:none;fill-rule:nonzero;stroke:#071013;stroke-width:1.50999999px;stroke-opacity:1"
   inkscape:connector-curvature="0" />
        <path
   id="path1595-5"
   d="M 78.23,97.695 C 69.189,93.314 64.298,83.216 66.465,73.406 68.632,63.597 77.321,56.499 87.366,56.334 c 10.045,-0.165 18.963,6.642 21.451,16.376 2.489,9.733 -2.067,19.986 -10.959,24.662"
   style="fill:none;fill-rule:nonzero;stroke:#071013;stroke-width:1.50999999px;stroke-opacity:1"
   inkscape:connector-curvature="0" />
        <path
   id="path1595-5-6"
   d="m 128.23,97.695 c -9.041,-4.381 -13.932,-14.479 -11.765,-24.289 2.167,-9.809 10.856,-16.907 20.901,-17.072 10.045,-0.165 18.963,6.642 21.451,16.376 2.489,9.733 -2.067,19.986 -10.959,24.662"
   style="fill:none;fill-rule:nonzero;stroke:#071013;stroke-width:1.50999999px;stroke-opacity:1"
   inkscape:connector-curvature="0" />
        <path
   id="path1595-2"
   d="m 28.23,157.695 c -9.041,-4.381 -13.932,-14.479 -11.765,-24.289 2.167,-9.809 10.856,-16.907 20.901,-17.072 10.045,-0.166 18.963,6.642 21.451,16.376 2.489,9.733 -2.067,19.986 -10.959,24.662"
   style="fill:none;fill-rule:nonzero;stroke:#071013;stroke-width:1.50999999px;stroke-opacity:1"
   inkscape:connector-curvature="0" />
        <path
   id="path1595-5-2"
   d="m 78.23,157.695 c -9.041,-4.381 -13.932,-14.479 -11.765,-24.289 2.167,-9.809 10.856,-16.907 20.901,-17.072 10.045,-0.166 18.963,6.642 21.451,16.376 2.489,9.733 -2.067,19.986 -10.959,24.662"
   style="fill:none;fill-rule:nonzero;stroke:#071013;stroke-width:1.50999999px;stroke-opacity:1"
   inkscape:connector-curvature="0" />
        <path
   id="path1595-5-6-2"
   d="m 128.23,157.695 c -9.041,-4.381 -13.932,-14.479 -11.765,-24.289 2.167,-9.809 10.856,-16.907 20.901,-17.072 10.045,-0.166 18.963,6.642 21.451,16.376 2.489,9.733 -2.067,19.986 -10.959,24.662"
   style="fill:none;fill-rule:nonzero;stroke:#071013;stroke-width:1.50999999px;stroke-opacity:1"
   inkscape:connector-curvature="0" />
        <path
   id="path1595-58"
   d="m 28.23,217.695 c -9.041,-4.381 -13.932,-14.479 -11.765,-24.289 2.167,-9.809 10.856,-16.907 20.901,-17.072 10.045,-0.166 18.963,6.642 21.451,16.376 2.489,9.733 -2.067,19.986 -10.959,24.662"
   style="fill:none;fill-rule:nonzero;stroke:#071013;stroke-width:1.50999999px;stroke-opacity:1"
   inkscape:connector-curvature="0" />
        <path
   id="path1595-5-61"
   d="m 78.23,217.695 c -9.041,-4.381 -13.932,-14.479 -11.765,-24.289 2.167,-9.809 10.856,-16.907 20.901,-17.072 10.045,-0.166 18.963,6.642 21.451,16.376 2.489,9.733 -2.067,19.986 -10.959,24.662"
   style="fill:none;fill-rule:nonzero;stroke:#071013;stroke-width:1.50999999px;stroke-opacity:1"
   inkscape:connector-curvature="0" />
        <path
   id="path1595-5-6-8"
   d="m 128.23,217.695 c -9.041,-4.381 -13.932,-14.479 -11.765,-24.289 2.167,-9.809 10.856,-16.907 20.901,-17.072 10.045,-0.166 18.963,6.642 21.451,16.376 2.489,9.733 -2.067,19.986 -10.959,24.662"
   style="fill:none;fill-rule:nonzero;stroke:#071013;stroke-width:1.50999999px;stroke-opacity:1"
   inkscape:connector-curvature="0" />
        <path
   id="path1595-2-9"
   d="m 28.23,277.695 c -9.041,-4.381 -13.932,-14.479 -11.765,-24.289 2.167,-9.809 10.856,-16.907 20.901,-17.072 10.045,-0.166 18.963,6.642 21.451,16.376 2.489,9.733 -2.067,19.986 -10.959,24.662"
   style="fill:none;fill-rule:nonzero;stroke:#071013;stroke-width:1.50999999px;stroke-opacity:1"
   inkscape:connector-curvature="0" />
        <path
   id="path1595-5-2-9"
   d="m 78.23,277.695 c -9.041,-4.381 -13.932,-14.479 -11.765,-24.289 2.167,-9.809 10.856,-16.907 20.901,-17.072 10.045,-0.166 18.963,6.642 21.451,16.376 2.489,9.733 -2.067,19.986 -10.959,24.662"
   style="fill:none;fill-rule:nonzero;stroke:#071013;stroke-width:1.50999999px;stroke-opacity:1"
   inkscape:connector-curvature="0" />
        <path
   id="path1595-5-6-2-4"
   d="m 128.23,277.695 c -9.041,-4.381 -13.932,-14.479 -11.765,-24.289 2.167,-9.809 10.856,-16.907 20.901,-17.072 10.045,-0.166 18.963,6.642 21.451,16.376 2.489,9.733 -2.067,19.986 -10.959,24.662"
   style="fill:none;fill-rule:nonzero;stroke:#071013;stroke-width:1.50999999px;stroke-opacity:1"
   inkscape:connector-curvature="0" />
        <path
   id="path1595-5-6-3"
   d="M 187.901,97.081 C 178.86,92.7 173.969,82.602 176.136,72.793 c 2.167,-9.81 10.856,-16.908 20.901,-17.073 10.045,-0.165 18.963,6.643 21.451,16.376 2.489,9.733 -2.067,19.986 -10.959,24.662"
   style="fill:none;fill-rule:nonzero;stroke:#071013;stroke-width:1.50999999px;stroke-opacity:1"
   inkscape:connector-curvature="0" />
        <path
   id="path1595-5-6-2-9"
   d="m 187.901,157.081 c -9.041,-4.381 -13.932,-14.479 -11.765,-24.288 2.167,-9.81 10.856,-16.908 20.901,-17.073 10.045,-0.165 18.963,6.642 21.451,16.376 2.489,9.733 -2.067,19.986 -10.959,24.662"
   style="fill:none;fill-rule:nonzero;stroke:#071013;stroke-width:1.50999999px;stroke-opacity:1"
   inkscape:connector-curvature="0" />
        <path
   id="path1595-5-6-8-5"
   d="m 187.901,217.081 c -9.041,-4.381 -13.932,-14.479 -11.765,-24.288 2.167,-9.81 10.856,-16.908 20.901,-17.073 10.045,-0.165 18.963,6.642 21.451,16.376 2.489,9.733 -2.067,19.986 -10.959,24.662"
   style="fill:none;fill-rule:nonzero;stroke:#071013;stroke-width:1.50999999px;stroke-opacity:1"
   inkscape:connector-curvature="0" />
        <path
   id="path1595-5-6-2-4-3"
   d="m 187.901,277.081 c -9.041,-4.381 -13.932,-14.479 -11.765,-24.288 2.167,-9.81 10.856,-16.908 20.901,-17.073 10.045,-0.165 18.963,6.642 21.451,16.376 2.489,9.733 -2.067,19.986 -10.959,24.662"
   style="fill:none;fill-rule:nonzero;stroke:#071013;stroke-width:1.50999999px;stroke-opacity:1"
   inkscape:connector-curvature="0" />
        <path
   id="path1702"
   d="M 38.156,79.479 V 296.425"
   style="fill:none;fill-rule:nonzero;stroke:#071013;stroke-width:2px;stroke-opacity:1"
   inkscape:connector-curvature="0" />
        <path
   id="path1702-4"
   d="M 88.158,78.263 V 295.209"
   style="fill:none;fill-rule:nonzero;stroke:#071013;stroke-width:2px;stroke-opacity:1"
   inkscape:connector-curvature="0" />
        <path
   id="path1702-4-9"
   d="M 138.158,78.263 V 295.209"
   style="fill:none;fill-rule:nonzero;stroke:#071013;stroke-width:2px;stroke-opacity:1"
   inkscape:connector-curvature="0" />
        
        
        <path
   id="path1595-0"
   d="M 53.491,53.141 C 44.45,48.759 39.559,38.662 41.726,28.852 c 2.167,-9.81 10.856,-16.907 20.901,-17.073 10.045,-0.165 18.963,6.643 21.452,16.376 2.488,9.734 -2.068,19.986 -10.96,24.663"
   style="fill:none;fill-rule:nonzero;stroke:#071013;stroke-width:1.50999999px;stroke-opacity:1"
   inkscape:connector-curvature="0" />
        <path
   id="path1595-5-0"
   d="M 98.083,53.141 C 89.042,48.759 84.151,38.662 86.318,28.852 c 2.167,-9.81 10.856,-16.907 20.901,-17.073 10.045,-0.165 18.963,6.643 21.451,16.376 2.489,9.734 -2.067,19.986 -10.959,24.663"
   style="fill:none;fill-rule:nonzero;stroke:#071013;stroke-width:1.50999999px;stroke-opacity:1"
   inkscape:connector-curvature="0" />
        <path
   id="rect1627"
   d="m 138.443,20.741 h 98.188 c 1.633,0 2.949,1.252 2.949,2.808 v 19.106 c 0,1.556 -1.316,2.808 -2.949,2.808 h -98.188 c -1.633,0 -2.948,-1.252 -2.948,-2.808 V 23.549 c 0,-1.556 1.315,-2.808 2.948,-2.808 z"
   style="fill-rule:nonzero;stroke:#ffffff;stroke-width:1.38px;stroke-opacity:1"
   inkscape:connector-curvature="0" />
        <path
   id="path6500"
   d="M 40.085,300.215 H 140.299"
   style="fill:none;fill-rule:nonzero;stroke:#071013;stroke-width:2.1400001px;stroke-opacity:1"
   inkscape:connector-curvature="0" />
        
        <g
   transform="matrix(0.530107,0,0,0.530107,19.3913,21.4342)"
   id="g74"
   style="fill:#071013;fill-opacity:1">
            <g
   transform="matrix(12,0,0,12,12.302,49.7412)"
   id="g40"
   style="fill:#071013;fill-opacity:1">
                <path
   d="m 0.06,0 v -0.81 h 0.126 l 0.166,0.389 V -0.81 H 0.5 V 0 H 0.379 L 0.212,-0.419 V 0 Z"
   style="fill:#071013;fill-opacity:1;fill-rule:nonzero"
   id="path38"
   inkscape:connector-curvature="0" />
            </g>
            <g
   transform="matrix(12,0,0,12,19.0168,49.7412)"
   id="g44"
   style="fill:#071013;fill-opacity:1">
                <path
   d="M 0.292,0.011 C 0.247,0.011 0.209,0.005 0.177,-0.007 0.145,-0.018 0.12,-0.036 0.101,-0.06 0.083,-0.083 0.069,-0.111 0.061,-0.143 0.052,-0.175 0.048,-0.213 0.048,-0.256 v -0.299 c 0,-0.043 0.004,-0.081 0.013,-0.113 0.008,-0.031 0.022,-0.059 0.04,-0.082 0.019,-0.024 0.044,-0.042 0.076,-0.053 0.032,-0.012 0.07,-0.018 0.115,-0.018 0.088,0 0.15,0.023 0.188,0.067 0.038,0.045 0.057,0.111 0.057,0.199 v 0.299 c 0,0.088 -0.019,0.155 -0.057,0.2 -0.038,0.045 -0.1,0.067 -0.188,0.067 z M 0.264,-0.121 c 0.008,0.004 0.017,0.006 0.028,0.006 0.011,0 0.02,-0.002 0.028,-0.006 0.008,-0.004 0.014,-0.008 0.018,-0.014 0.004,-0.006 0.007,-0.013 0.01,-0.022 0.002,-0.009 0.004,-0.018 0.005,-0.026 0,-0.008 0.001,-0.017 0.001,-0.028 V -0.6 C 0.354,-0.61 0.353,-0.62 0.353,-0.628 0.352,-0.636 0.35,-0.644 0.348,-0.653 0.345,-0.662 0.342,-0.669 0.338,-0.675 0.334,-0.68 0.328,-0.685 0.32,-0.689 0.312,-0.692 0.303,-0.694 0.292,-0.694 c -0.011,0 -0.02,0.002 -0.028,0.005 C 0.257,-0.685 0.251,-0.68 0.247,-0.675 0.242,-0.67 0.239,-0.662 0.237,-0.653 0.235,-0.644 0.233,-0.635 0.233,-0.628 0.232,-0.62 0.232,-0.611 0.232,-0.6 v 0.389 c 0,0.011 0,0.02 0.001,0.028 0,0.008 0.002,0.016 0.004,0.026 0.002,0.009 0.005,0.016 0.01,0.022 0.004,0.005 0.01,0.01 0.017,0.014 z"
   style="fill:#071013;fill-opacity:1;fill-rule:nonzero"
   id="path42"
   inkscape:connector-curvature="0" />
            </g>
            <g
   transform="matrix(12,0,0,12,26.0363,49.7412)"
   id="g48"
   style="fill:#071013;fill-opacity:1">
                <path
   d="M 0.134,0 V -0.677 H 0.01 V -0.81 h 0.427 v 0.133 H 0.313 V 0 Z"
   style="fill:#071013;fill-opacity:1;fill-rule:nonzero"
   id="path46"
   inkscape:connector-curvature="0" />
            </g>
            <g
   transform="matrix(12,0,0,12,31.3918,49.7412)"
   id="g52"
   style="fill:#071013;fill-opacity:1">
                <path
   d="m 0.06,0 v -0.81 h 0.363 v 0.122 H 0.238 v 0.201 h 0.141 v 0.124 H 0.238 v 0.242 H 0.425 V 0 Z"
   style="fill:#071013;fill-opacity:1;fill-rule:nonzero"
   id="path50"
   inkscape:connector-curvature="0" />
            </g>
            <g
   transform="matrix(12,0,0,12,9.21994,61.7412)"
   id="g56"
   style="fill:#071013;fill-opacity:1">
                <path
   d="m 0.238,-0.465 h 0.046 c 0.037,0 0.062,-0.01 0.077,-0.029 0.015,-0.019 0.023,-0.047 0.023,-0.085 0,-0.038 -0.007,-0.065 -0.02,-0.083 C 0.35,-0.68 0.327,-0.689 0.293,-0.689 H 0.238 Z M 0.06,0 v -0.81 h 0.22 c 0.034,0 0.065,0.002 0.091,0.006 0.026,0.004 0.051,0.011 0.074,0.021 0.023,0.01 0.042,0.022 0.057,0.038 0.015,0.016 0.027,0.037 0.036,0.062 0.008,0.025 0.012,0.054 0.012,0.088 0,0.053 -0.007,0.095 -0.021,0.128 -0.015,0.032 -0.04,0.057 -0.078,0.075 L 0.563,0 H 0.377 L 0.289,-0.362 H 0.238 V 0 Z"
   style="fill:#071013;fill-opacity:1;fill-rule:nonzero"
   id="path54"
   inkscape:connector-curvature="0" />
            </g>
            <g
   transform="matrix(12,0,0,12,16.3918,61.7412)"
   id="g60"
   style="fill:#071013;fill-opacity:1">
                <path
   d="M 0.233,-0.279 H 0.32 L 0.276,-0.592 Z M 0.021,0 0.174,-0.81 H 0.376 L 0.529,0 H 0.364 L 0.336,-0.172 H 0.218 L 0.19,0 Z"
   style="fill:#071013;fill-opacity:1;fill-rule:nonzero"
   id="path58"
   inkscape:connector-curvature="0" />
            </g>
            <g
   transform="matrix(12,0,0,12,22.9953,61.7412)"
   id="g64"
   style="fill:#071013;fill-opacity:1">
                <path
   d="m 0.06,0 v -0.81 h 0.126 l 0.166,0.389 V -0.81 H 0.5 V 0 H 0.379 L 0.212,-0.419 V 0 Z"
   style="fill:#071013;fill-opacity:1;fill-rule:nonzero"
   id="path62"
   inkscape:connector-curvature="0" />
            </g>
            <g
   transform="matrix(12,0,0,12,29.7102,61.7412)"
   id="g68"
   style="fill:#071013;fill-opacity:1">
                <path
   d="M 0.271,0.012 C 0.23,0.012 0.195,0.005 0.166,-0.008 0.137,-0.021 0.114,-0.041 0.097,-0.066 0.08,-0.091 0.067,-0.121 0.06,-0.154 0.052,-0.187 0.048,-0.225 0.048,-0.269 v -0.269 c 0,-0.036 0.003,-0.068 0.008,-0.096 0.005,-0.029 0.013,-0.055 0.025,-0.078 0.011,-0.024 0.026,-0.044 0.045,-0.059 0.019,-0.016 0.042,-0.028 0.069,-0.037 0.028,-0.008 0.06,-0.013 0.097,-0.013 0.035,0 0.066,0.004 0.093,0.011 0.027,0.008 0.049,0.018 0.067,0.032 0.018,0.013 0.033,0.03 0.045,0.05 0.011,0.02 0.019,0.042 0.024,0.065 0.005,0.024 0.007,0.05 0.007,0.08 v 0.051 H 0.354 V -0.597 C 0.354,-0.61 0.353,-0.62 0.353,-0.627 0.352,-0.635 0.351,-0.644 0.349,-0.653 0.347,-0.663 0.344,-0.67 0.34,-0.675 0.336,-0.681 0.33,-0.685 0.322,-0.689 0.314,-0.692 0.305,-0.694 0.294,-0.694 c -0.011,0 -0.021,0.002 -0.029,0.006 -0.008,0.004 -0.014,0.009 -0.018,0.015 -0.005,0.006 -0.008,0.014 -0.01,0.025 -0.003,0.01 -0.004,0.019 -0.005,0.027 0,0.008 -0.001,0.019 -0.001,0.031 v 0.37 c 0,0.032 0.005,0.058 0.015,0.077 0.009,0.018 0.027,0.028 0.052,0.028 0.047,0 0.071,-0.036 0.071,-0.108 V -0.314 H 0.295 V -0.421 H 0.53 V 0 H 0.412 L 0.401,-0.068 c -0.023,0.053 -0.067,0.08 -0.13,0.08 z"
   style="fill:#071013;fill-opacity:1;fill-rule:nonzero"
   id="path66"
   inkscape:connector-curvature="0" />
            </g>
            <g
   transform="matrix(12,0,0,12,36.6828,61.7412)"
   id="g72"
   style="fill:#071013;fill-opacity:1">
                <path
   d="m 0.06,0 v -0.81 h 0.363 v 0.122 H 0.238 v 0.201 h 0.141 v 0.124 H 0.238 v 0.242 H 0.425 V 0 Z"
   style="fill:#071013;fill-opacity:1;fill-rule:nonzero"
   id="path70"
   inkscape:connector-curvature="0" />
            </g>
        </g>
    </g><g
     style="clip-rule:evenodd;fill-rule:evenodd"
     id="Layer-7"
     serif:id="Layer 7">
        <g
   id="text6330"
   style="fill:#071013;fill-opacity:1">
            <path
   id="path6615"
   d="m 229.997,139.254 c -0.267,0.073 -0.628,0.109 -1.084,0.109 -0.595,0 -1.062,-0.081 -1.401,-0.242 -0.473,-0.217 -0.887,-0.592 -1.243,-1.126 -0.35,-0.539 -0.634,-1.271 -0.851,-2.193 -0.211,-0.923 -0.316,-2.002 -0.316,-3.236 0,-2.185 0.311,-3.901 0.934,-5.146 0.622,-1.245 1.434,-1.868 2.435,-1.868 0.228,0 0.442,0.031 0.642,0.092 0.206,0.061 0.5,0.197 0.884,0.408 v 2.127 c -0.417,-0.534 -0.837,-0.801 -1.259,-0.801 -0.545,0 -0.971,0.412 -1.276,1.235 -0.306,0.822 -0.459,2.046 -0.459,3.669 0,1.006 0.053,1.896 0.158,2.669 0.106,0.773 0.251,1.354 0.434,1.743 0.139,0.289 0.339,0.545 0.601,0.767 v -3.219 h -0.726 v -1.768 h 2.527 z"
   style="fill:#071013;fill-opacity:1;fill-rule:nonzero"
   inkscape:connector-curvature="0" />
            <path
   id="path6617"
   d="m 232.024,125.552 h 1.993 l 1.434,13.702 H 233.6 l -0.092,-2.443 h -1.017 l -0.184,2.443 h -1.826 z m 1.034,2.252 h -0.15 c -0.056,1.901 -0.098,3.119 -0.126,3.653 l -0.191,3.577 h 0.784 l -0.125,-2.76 z"
   style="fill:#071013;fill-opacity:1;fill-rule:nonzero"
   inkscape:connector-curvature="0" />
            <path
   id="path6619"
   d="m 234.763,125.66 h 4.412 v 1.777 h -1.284 v 11.817 h -1.835 v -11.817 h -1.293 z"
   style="fill:#071013;fill-opacity:1;fill-rule:nonzero"
   inkscape:connector-curvature="0" />
            <path
   id="path6621"
   d="m 239.821,125.66 h 3.128 v 1.802 h -1.293 v 4.286 h 1.293 v 1.768 h -1.293 v 3.954 h 1.293 v 1.784 h -3.128 z"
   style="fill:#071013;fill-opacity:1;fill-rule:nonzero"
   inkscape:connector-curvature="0" />
        </g>
        <g
   id="text6330-6"
   style="fill:#071013;fill-opacity:1">
            <path
   id="path6606"
   d="m 229.932,80.117 c -0.267,0.072 -0.628,0.109 -1.084,0.109 -0.595,0 -1.062,-0.081 -1.401,-0.242 -0.473,-0.217 -0.887,-0.592 -1.243,-1.126 -0.35,-0.539 -0.633,-1.271 -0.85,-2.194 -0.212,-0.922 -0.317,-2.001 -0.317,-3.235 0,-2.185 0.311,-3.901 0.934,-5.146 0.623,-1.245 1.434,-1.868 2.435,-1.868 0.228,0 0.442,0.03 0.642,0.092 0.206,0.061 0.501,0.197 0.884,0.408 v 2.127 c -0.417,-0.534 -0.836,-0.801 -1.259,-0.801 -0.545,0 -0.97,0.412 -1.276,1.235 -0.306,0.822 -0.459,2.046 -0.459,3.669 0,1.006 0.053,1.896 0.159,2.669 0.105,0.773 0.25,1.354 0.433,1.743 0.139,0.289 0.34,0.545 0.601,0.767 v -3.219 h -0.726 v -1.768 h 2.527 z"
   style="fill:#071013;fill-opacity:1;fill-rule:nonzero"
   inkscape:connector-curvature="0" />
            <path
   id="path6608"
   d="m 231.959,66.415 h 1.993 l 1.434,13.702 h -1.851 l -0.092,-2.443 h -1.017 l -0.184,2.443 h -1.826 z m 1.034,2.252 h -0.15 c -0.056,1.901 -0.097,3.119 -0.125,3.652 l -0.192,3.578 h 0.784 l -0.125,-2.76 z"
   style="fill:#071013;fill-opacity:1;fill-rule:nonzero"
   inkscape:connector-curvature="0" />
            <path
   id="path6610"
   d="m 234.698,66.523 h 4.412 V 68.3 h -1.284 v 11.817 h -1.835 V 68.3 h -1.293 z"
   style="fill:#071013;fill-opacity:1;fill-rule:nonzero"
   inkscape:connector-curvature="0" />
            <path
   id="path6612"
   d="m 239.757,66.523 h 3.127 v 1.802 h -1.293 v 4.286 h 1.293 v 1.768 h -1.293 v 3.953 h 1.293 v 1.785 h -3.127 z"
   style="fill:#071013;fill-opacity:1;fill-rule:nonzero"
   inkscape:connector-curvature="0" />
        </g>
        <g
   id="text6330-4"
   style="fill:#071013;fill-opacity:1">
            <path
   id="path6597"
   d="m 229.965,259.163 c -0.267,0.073 -0.629,0.109 -1.085,0.109 -0.594,0 -1.061,-0.081 -1.401,-0.242 -0.472,-0.217 -0.886,-0.592 -1.242,-1.126 -0.351,-0.539 -0.634,-1.27 -0.851,-2.193 -0.211,-0.923 -0.317,-2.002 -0.317,-3.236 0,-2.185 0.312,-3.9 0.934,-5.146 0.623,-1.245 1.435,-1.868 2.435,-1.868 0.228,0 0.442,0.031 0.643,0.092 0.205,0.061 0.5,0.197 0.884,0.408 v 2.127 c -0.417,-0.534 -0.837,-0.801 -1.26,-0.801 -0.545,0 -0.97,0.412 -1.276,1.235 -0.305,0.823 -0.458,2.046 -0.458,3.669 0,1.007 0.052,1.896 0.158,2.669 0.106,0.773 0.25,1.354 0.434,1.743 0.139,0.289 0.339,0.545 0.6,0.767 v -3.219 h -0.725 v -1.768 h 2.527 z"
   style="fill:#071013;fill-opacity:1;fill-rule:nonzero"
   inkscape:connector-curvature="0" />
            <path
   id="path6599"
   d="m 231.991,245.461 h 1.993 l 1.435,13.702 h -1.852 l -0.091,-2.443 h -1.018 l -0.183,2.443 h -1.827 z m 1.034,2.252 h -0.15 c -0.055,1.901 -0.097,3.119 -0.125,3.653 l -0.192,3.577 h 0.784 l -0.125,-2.76 z"
   style="fill:#071013;fill-opacity:1;fill-rule:nonzero"
   inkscape:connector-curvature="0" />
            <path
   id="path6601"
   d="m 234.731,245.569 h 4.412 v 1.777 h -1.285 v 11.817 h -1.835 v -11.817 h -1.292 z"
   style="fill:#071013;fill-opacity:1;fill-rule:nonzero"
   inkscape:connector-curvature="0" />
            <path
   id="path6603"
   d="m 239.789,245.569 h 3.127 v 1.802 h -1.292 v 4.287 h 1.292 v 1.768 h -1.292 v 3.953 h 1.292 v 1.784 h -3.127 z"
   style="fill:#071013;fill-opacity:1;fill-rule:nonzero"
   inkscape:connector-curvature="0" />
        </g>
        <g
   id="text6330-6-7"
   style="fill:#071013;fill-opacity:1">
            <path
   id="path6588"
   d="m 229.9,200.026 c -0.267,0.073 -0.628,0.109 -1.084,0.109 -0.595,0 -1.062,-0.081 -1.401,-0.242 -0.473,-0.217 -0.887,-0.592 -1.243,-1.126 -0.35,-0.539 -0.634,-1.271 -0.851,-2.193 -0.211,-0.923 -0.317,-2.002 -0.317,-3.236 0,-2.185 0.312,-3.901 0.935,-5.146 0.622,-1.245 1.434,-1.868 2.435,-1.868 0.228,0 0.442,0.031 0.642,0.092 0.206,0.061 0.5,0.197 0.884,0.408 v 2.127 c -0.417,-0.534 -0.837,-0.801 -1.259,-0.801 -0.545,0 -0.971,0.412 -1.276,1.235 -0.306,0.822 -0.459,2.046 -0.459,3.669 0,1.006 0.053,1.896 0.158,2.669 0.106,0.773 0.251,1.354 0.434,1.743 0.139,0.289 0.339,0.545 0.601,0.767 v -3.219 h -0.726 v -1.768 h 2.527 z"
   style="fill:#071013;fill-opacity:1;fill-rule:nonzero"
   inkscape:connector-curvature="0" />
            <path
   id="path6590"
   d="m 231.926,186.324 h 1.994 l 1.434,13.702 h -1.851 l -0.092,-2.443 h -1.017 l -0.184,2.443 h -1.826 z m 1.035,2.252 h -0.151 c -0.055,1.901 -0.097,3.119 -0.125,3.653 l -0.191,3.577 h 0.784 l -0.126,-2.76 z"
   style="fill:#071013;fill-opacity:1;fill-rule:nonzero"
   inkscape:connector-curvature="0" />
            <path
   id="path6592"
   d="m 234.666,186.432 h 4.412 v 1.777 h -1.284 v 11.817 h -1.835 v -11.817 h -1.293 z"
   style="fill:#071013;fill-opacity:1;fill-rule:nonzero"
   inkscape:connector-curvature="0" />
            <path
   id="path6594"
   d="m 239.724,186.432 h 3.128 v 1.802 h -1.293 v 4.286 h 1.293 v 1.768 h -1.293 v 3.954 h 1.293 v 1.784 h -3.128 z"
   style="fill:#071013;fill-opacity:1;fill-rule:nonzero"
   inkscape:connector-curvature="0" />
        </g>
        <g
   id="text6330-4-8"
   transform="matrix(1,0,0,0.73037531,-19.8861,94.889017)"
   style="fill:#071013;fill-opacity:1">
            <path
   id="path6583"
   d="m 162.452,365.448 c -0.233,0.195 -0.52,0.292 -0.859,0.292 -0.934,0 -1.682,-0.614 -2.243,-1.843 -0.556,-1.228 -0.834,-2.946 -0.834,-5.154 0,-2.468 0.411,-4.334 1.234,-5.596 0.534,-0.811 1.134,-1.217 1.801,-1.217 0.306,0 0.606,0.086 0.901,0.258 v 1.727 c -0.189,-0.101 -0.37,-0.151 -0.542,-0.151 -0.339,0 -0.628,0.212 -0.867,0.634 -0.412,0.734 -0.617,2.107 -0.617,4.12 0,2.124 0.136,3.536 0.408,4.237 0.278,0.695 0.645,1.042 1.101,1.042 0.172,0 0.345,-0.055 0.517,-0.167 z"
   style="fill:#071013;fill-opacity:1;fill-rule:nonzero"
   inkscape:connector-curvature="0" />
            <path
   id="path6585"
   d="m 162.752,352.038 h 1.877 l 0.659,7.848 0.542,-7.848 h 1.868 l -1.635,13.702 h -1.534 z"
   style="fill:#071013;fill-opacity:1;fill-rule:nonzero"
   inkscape:connector-curvature="0" />
        </g>
        <g
   id="text6330-4-8-5"
   transform="matrix(1,0,0,0.73037531,-19.8861,94.889017)"
   style="fill:#071013;fill-opacity:1">
            <path
   id="path6576"
   d="m 191.428,352.038 h 0.984 c 1.151,0 2.046,0.331 2.685,0.993 0.645,0.661 0.968,1.587 0.968,2.777 0,0.672 -0.131,1.27 -0.392,1.793 -0.184,0.372 -0.47,0.728 -0.859,1.067 0.283,0.312 0.492,0.606 0.625,0.884 0.278,0.59 0.498,1.346 0.659,2.269 0.167,0.923 0.309,2.193 0.425,3.811 h -1.851 c -0.078,-2.024 -0.261,-3.508 -0.551,-4.454 -0.216,-0.711 -0.503,-1.212 -0.859,-1.501 v 5.955 h -1.834 z m 1.985,1.952 v 3.919 c 0.294,-0.128 0.525,-0.364 0.692,-0.709 0.172,-0.35 0.258,-0.767 0.258,-1.251 0,-0.506 -0.083,-0.925 -0.25,-1.259 -0.167,-0.339 -0.4,-0.573 -0.7,-0.7 z"
   style="fill:#071013;fill-opacity:1;fill-rule:nonzero"
   inkscape:connector-curvature="0" />
            <path
   id="path6578"
   d="m 197.124,352.038 h 3.127 v 1.801 h -1.292 v 4.287 h 1.292 v 1.768 h -1.292 v 3.953 h 1.292 v 1.785 h -3.127 z"
   style="fill:#071013;fill-opacity:1;fill-rule:nonzero"
   inkscape:connector-curvature="0" />
            <path
   id="path6580"
   d="m 200.518,352.038 h 1.877 l 0.658,7.848 0.542,-7.848 h 1.869 l -1.635,13.702 h -1.535 z"
   style="fill:#071013;fill-opacity:1;fill-rule:nonzero"
   inkscape:connector-curvature="0" />
        </g>
        <g
   id="text6330-4-8-0"
   transform="matrix(1,0,0,0.73037531,-19.8861,94.889017)"
   style="fill:#071013;fill-opacity:1">
            <path
   id="path6569"
   d="m 230.948,365.448 c -0.233,0.195 -0.519,0.292 -0.859,0.292 -0.934,0 -1.681,-0.614 -2.243,-1.843 -0.556,-1.228 -0.834,-2.946 -0.834,-5.154 0,-2.468 0.412,-4.334 1.234,-5.596 0.534,-0.811 1.135,-1.217 1.802,-1.217 0.306,0 0.606,0.086 0.9,0.258 v 1.727 c -0.189,-0.101 -0.369,-0.151 -0.542,-0.151 -0.339,0 -0.628,0.212 -0.867,0.634 -0.411,0.734 -0.617,2.107 -0.617,4.12 0,2.124 0.136,3.536 0.409,4.237 0.278,0.695 0.644,1.042 1.1,1.042 0.173,0 0.345,-0.055 0.517,-0.167 z"
   style="fill:#071013;fill-opacity:1;fill-rule:nonzero"
   inkscape:connector-curvature="0" />
            <path
   id="path6571"
   d="m 231.599,352.038 h 1.835 v 11.784 h 1.067 v 1.81 h -2.902 z"
   style="fill:#071013;fill-opacity:1;fill-rule:nonzero"
   inkscape:connector-curvature="0" />
            <path
   id="path6573"
   d="m 235.168,352.038 h 1.835 v 5.996 c 0.217,-0.216 0.367,-0.414 0.45,-0.592 0.184,-0.394 0.32,-0.914 0.409,-1.559 0.089,-0.645 0.134,-1.543 0.134,-2.694 v -1.151 h 1.843 v 2.068 c 0,1.023 -0.128,1.957 -0.384,2.803 -0.172,0.561 -0.434,1.073 -0.784,1.534 0.367,0.389 0.653,0.954 0.859,1.693 0.206,0.739 0.309,1.899 0.309,3.478 v 2.018 h -1.843 v -1.735 c 0,-1.045 -0.05,-1.943 -0.151,-2.693 -0.094,-0.757 -0.233,-1.285 -0.417,-1.585 -0.094,-0.167 -0.236,-0.289 -0.425,-0.367 v 6.38 h -1.835 z"
   style="fill:#071013;fill-opacity:1;fill-rule:nonzero"
   inkscape:connector-curvature="0" />
        </g>
        <g
   id="text6330-4-8-5-2"
   transform="matrix(1,0,0,0.73037531,-19.8861,94.889017)"
   style="fill:#071013;fill-opacity:1">
            <path
   id="path6560"
   d="m 47.332,359.01 c 0,-2.624 0.281,-4.528 0.842,-5.713 0.434,-0.911 0.973,-1.367 1.618,-1.367 0.301,0 0.595,0.111 0.884,0.333 0.289,0.223 0.556,0.623 0.801,1.201 0.245,0.573 0.431,1.343 0.559,2.31 0.128,0.962 0.192,1.991 0.192,3.086 0,2.769 -0.337,4.726 -1.01,5.871 -0.394,0.673 -0.859,1.009 -1.392,1.009 -0.751,0 -1.332,-0.533 -1.743,-1.601 -0.501,-1.318 -0.751,-3.027 -0.751,-5.129 z m 2.46,-4.987 c -0.144,0.245 -0.253,0.514 -0.325,0.809 -0.072,0.289 -0.125,0.812 -0.158,1.568 -0.05,1.19 -0.075,2.126 -0.075,2.81 0,1.54 0.061,2.65 0.183,3.328 0.078,0.434 0.203,0.814 0.375,1.142 0.162,-0.322 0.276,-0.631 0.342,-0.925 0.067,-0.301 0.111,-0.826 0.134,-1.577 0.039,-1.389 0.058,-2.404 0.058,-3.044 0,-1.428 -0.058,-2.451 -0.175,-3.069 -0.078,-0.411 -0.197,-0.758 -0.359,-1.042 z"
   style="fill:#071013;fill-opacity:1;fill-rule:nonzero"
   inkscape:connector-curvature="0" />
            <path
   id="path6562"
   d="m 53.02,352.038 h 1.835 v 9.908 c 0,0.828 0.152,1.384 0.458,1.668 0.267,-0.356 0.401,-0.857 0.401,-1.501 v -10.075 h 1.843 v 9.908 c 0,1.245 -0.276,2.235 -0.826,2.969 -0.417,0.55 -0.89,0.825 -1.418,0.825 -0.361,0 -0.725,-0.139 -1.092,-0.417 -0.362,-0.283 -0.637,-0.695 -0.826,-1.234 -0.25,-0.734 -0.375,-1.448 -0.375,-2.143 z"
   style="fill:#071013;fill-opacity:1;fill-rule:nonzero"
   inkscape:connector-curvature="0" />
            <path
   id="path6564"
   d="m 58.232,352.038 h 4.412 v 1.776 H 61.36 v 11.818 h -1.835 v -11.818 h -1.293 z"
   style="fill:#071013;fill-opacity:1;fill-rule:nonzero"
   inkscape:connector-curvature="0" />
            <path
   id="path6566"
   d="m 67.331,351.93 h 1.993 l 1.435,13.702 h -1.852 l -0.092,-2.444 h -1.017 l -0.184,2.444 h -1.826 z m 1.034,2.251 h -0.15 c -0.056,1.902 -0.097,3.119 -0.125,3.653 l -0.192,3.578 h 0.784 l -0.125,-2.76 z"
   style="fill:#071013;fill-opacity:1;fill-rule:nonzero"
   inkscape:connector-curvature="0" />
        </g>
        <g
   id="text6330-4-8-5-2-4"
   transform="matrix(1,0,0,0.73037531,-19.8861,94.889017)"
   style="fill:#071013;fill-opacity:1">
            <path
   id="path6551"
   d="m 81.259,359.01 c 0,-2.624 0.28,-4.528 0.842,-5.713 0.434,-0.911 0.973,-1.367 1.618,-1.367 0.3,0 0.595,0.111 0.884,0.333 0.289,0.223 0.556,0.623 0.801,1.201 0.244,0.573 0.43,1.343 0.558,2.31 0.128,0.962 0.192,1.991 0.192,3.086 0,2.769 -0.336,4.726 -1.009,5.871 -0.395,0.673 -0.859,1.009 -1.393,1.009 -0.75,0 -1.331,-0.533 -1.743,-1.601 -0.5,-1.318 -0.75,-3.027 -0.75,-5.129 z m 2.46,-4.987 c -0.145,0.245 -0.253,0.514 -0.325,0.809 -0.073,0.289 -0.125,0.812 -0.159,1.568 -0.05,1.19 -0.075,2.126 -0.075,2.81 0,1.54 0.061,2.65 0.184,3.328 0.077,0.434 0.203,0.814 0.375,1.142 0.161,-0.322 0.275,-0.631 0.342,-0.925 0.067,-0.301 0.111,-0.826 0.133,-1.577 0.039,-1.389 0.059,-2.404 0.059,-3.044 0,-1.428 -0.059,-2.451 -0.175,-3.069 -0.078,-0.411 -0.198,-0.758 -0.359,-1.042 z"
   style="fill:#071013;fill-opacity:1;fill-rule:nonzero"
   inkscape:connector-curvature="0" />
            <path
   id="path6553"
   d="m 86.946,352.038 h 1.835 v 9.908 c 0,0.828 0.153,1.384 0.459,1.668 0.267,-0.356 0.4,-0.857 0.4,-1.501 v -10.075 h 1.843 v 9.908 c 0,1.245 -0.275,2.235 -0.825,2.969 -0.417,0.55 -0.89,0.825 -1.418,0.825 -0.362,0 -0.726,-0.139 -1.093,-0.417 -0.361,-0.283 -0.636,-0.695 -0.825,-1.234 -0.251,-0.734 -0.376,-1.448 -0.376,-2.143 z"
   style="fill:#071013;fill-opacity:1;fill-rule:nonzero"
   inkscape:connector-curvature="0" />
            <path
   id="path6555"
   d="m 92.159,352.038 h 4.412 v 1.776 h -1.285 v 11.818 h -1.835 v -11.818 h -1.292 z"
   style="fill:#071013;fill-opacity:1;fill-rule:nonzero"
   inkscape:connector-curvature="0" />
            <path
   id="path6557"
   d="m 99.99,352.038 h 1.159 c 1.051,0 1.885,0.331 2.502,0.993 0.617,0.656 0.926,1.573 0.926,2.752 0,1.245 -0.403,2.224 -1.21,2.935 0.445,0.317 0.773,0.673 0.985,1.068 0.305,0.561 0.458,1.237 0.458,2.026 0,0.784 -0.147,1.482 -0.442,2.094 -0.222,0.456 -0.595,0.859 -1.117,1.209 -0.517,0.345 -1.14,0.517 -1.868,0.517 H 99.99 Z m 1.835,1.952 v 3.811 c 0.606,-0.278 0.909,-0.909 0.909,-1.893 0,-0.59 -0.114,-1.073 -0.342,-1.451 -0.167,-0.267 -0.356,-0.423 -0.567,-0.467 z m 0,5.787 v 3.903 c 0.305,-0.094 0.561,-0.3 0.767,-0.617 0.206,-0.322 0.308,-0.742 0.308,-1.259 0,-0.45 -0.097,-0.856 -0.291,-1.218 -0.19,-0.361 -0.451,-0.631 -0.784,-0.809 z"
   style="fill:#071013;fill-opacity:1;fill-rule:nonzero"
   inkscape:connector-curvature="0" />
        </g>
        <g
   id="text6330-4-8-5-2-4-6"
   transform="matrix(1,0,0,0.73037531,-19.8861,94.889017)"
   style="fill:#071013;fill-opacity:1">
            <path
   id="path6542"
   d="m 117.755,359.01 c 0,-2.624 0.281,-4.528 0.843,-5.713 0.433,-0.911 0.973,-1.367 1.618,-1.367 0.3,0 0.594,0.111 0.884,0.333 0.289,0.223 0.556,0.623 0.8,1.201 0.245,0.573 0.431,1.343 0.559,2.31 0.128,0.962 0.192,1.991 0.192,3.086 0,2.769 -0.337,4.726 -1.009,5.871 -0.395,0.673 -0.859,1.009 -1.393,1.009 -0.751,0 -1.332,-0.533 -1.743,-1.601 -0.501,-1.318 -0.751,-3.027 -0.751,-5.129 z m 2.461,-4.987 c -0.145,0.245 -0.253,0.514 -0.326,0.809 -0.072,0.289 -0.125,0.812 -0.158,1.568 -0.05,1.19 -0.075,2.126 -0.075,2.81 0,1.54 0.061,2.65 0.183,3.328 0.078,0.434 0.203,0.814 0.376,1.142 0.161,-0.322 0.275,-0.631 0.341,-0.925 0.067,-0.301 0.112,-0.826 0.134,-1.577 0.039,-1.389 0.058,-2.404 0.058,-3.044 0,-1.428 -0.058,-2.451 -0.175,-3.069 -0.078,-0.411 -0.197,-0.758 -0.358,-1.042 z"
   style="fill:#071013;fill-opacity:1;fill-rule:nonzero"
   inkscape:connector-curvature="0" />
            <path
   id="path6544"
   d="m 123.443,352.038 h 1.835 v 9.908 c 0,0.828 0.153,1.384 0.458,1.668 0.267,-0.356 0.401,-0.857 0.401,-1.501 v -10.075 h 1.843 v 9.908 c 0,1.245 -0.275,2.235 -0.826,2.969 -0.417,0.55 -0.889,0.825 -1.418,0.825 -0.361,0 -0.725,-0.139 -1.092,-0.417 -0.361,-0.283 -0.637,-0.695 -0.826,-1.234 -0.25,-0.734 -0.375,-1.448 -0.375,-2.143 z"
   style="fill:#071013;fill-opacity:1;fill-rule:nonzero"
   inkscape:connector-curvature="0" />
            <path
   id="path6546"
   d="m 128.655,352.038 h 4.412 v 1.776 h -1.284 v 11.818 h -1.835 v -11.818 h -1.293 z"
   style="fill:#071013;fill-opacity:1;fill-rule:nonzero"
   inkscape:connector-curvature="0" />
            <path
   id="path6548"
   d="m 140.273,365.448 c -0.234,0.195 -0.52,0.292 -0.859,0.292 -0.934,0 -1.682,-0.614 -2.244,-1.843 -0.556,-1.228 -0.834,-2.946 -0.834,-5.154 0,-2.468 0.412,-4.334 1.235,-5.596 0.533,-0.811 1.134,-1.217 1.801,-1.217 0.306,0 0.606,0.086 0.901,0.258 v 1.727 c -0.189,-0.101 -0.37,-0.151 -0.542,-0.151 -0.34,0 -0.629,0.212 -0.868,0.634 -0.411,0.734 -0.617,2.107 -0.617,4.12 0,2.124 0.136,3.536 0.409,4.237 0.278,0.695 0.645,1.042 1.101,1.042 0.172,0 0.344,-0.055 0.517,-0.167 z"
   style="fill:#071013;fill-opacity:1;fill-rule:nonzero"
   inkscape:connector-curvature="0" />
        </g>
        <g
   id="text6330-4-8-5-0"
   style="fill:#071013;fill-opacity:1">
            <path
   id="path6531"
   d="m 215.106,295.473 h 0.985 c 1.15,0 2.046,0.331 2.685,0.993 0.645,0.662 0.967,1.587 0.967,2.777 0,0.673 -0.13,1.27 -0.392,1.793 -0.183,0.373 -0.469,0.728 -0.859,1.068 0.284,0.311 0.492,0.606 0.626,0.884 0.278,0.589 0.497,1.345 0.659,2.268 0.167,0.923 0.308,2.193 0.425,3.811 h -1.851 c -0.078,-2.023 -0.262,-3.508 -0.551,-4.453 -0.217,-0.712 -0.503,-1.212 -0.859,-1.501 v 5.954 h -1.835 z m 1.985,1.952 v 3.92 c 0.295,-0.128 0.526,-0.364 0.693,-0.709 0.172,-0.35 0.258,-0.767 0.258,-1.251 0,-0.506 -0.083,-0.926 -0.25,-1.259 -0.167,-0.34 -0.4,-0.573 -0.701,-0.701 z"
   style="fill:#071013;fill-opacity:1;fill-rule:nonzero"
   inkscape:connector-curvature="0" />
            <path
   id="path6533"
   d="m 220.803,295.473 h 3.127 v 1.802 h -1.293 v 4.287 h 1.293 v 1.768 h -1.293 v 3.953 h 1.293 v 1.784 h -3.127 z"
   style="fill:#071013;fill-opacity:1;fill-rule:nonzero"
   inkscape:connector-curvature="0" />
            <path
   id="path6535"
   d="m 224.305,307.091 c 0.284,0.122 0.545,0.183 0.784,0.183 0.328,0 0.587,-0.105 0.776,-0.317 0.194,-0.211 0.292,-0.522 0.292,-0.934 0,-0.328 -0.036,-0.642 -0.109,-0.942 -0.139,-0.595 -0.395,-1.365 -0.767,-2.31 -0.373,-0.951 -0.648,-1.813 -0.826,-2.586 -0.1,-0.439 -0.15,-0.928 -0.15,-1.467 0,-1.168 0.225,-2.019 0.676,-2.552 0.456,-0.534 1.048,-0.801 1.776,-0.801 0.339,0 0.728,0.07 1.168,0.209 v 1.809 c -0.256,-0.122 -0.49,-0.183 -0.701,-0.183 -0.311,0 -0.575,0.128 -0.792,0.383 -0.217,0.256 -0.325,0.629 -0.325,1.118 0,0.322 0.036,0.639 0.108,0.951 0.139,0.583 0.373,1.309 0.701,2.176 0.411,1.085 0.711,2.055 0.9,2.911 0.095,0.434 0.142,0.898 0.142,1.393 0,0.978 -0.239,1.732 -0.717,2.26 -0.473,0.522 -1.065,0.784 -1.777,0.784 -0.311,0 -0.697,-0.073 -1.159,-0.217 z"
   style="fill:#071013;fill-opacity:1;fill-rule:nonzero"
   inkscape:connector-curvature="0" />
            <path
   id="path6537"
   d="m 228.642,295.473 h 3.127 v 1.802 h -1.292 v 4.287 h 1.292 v 1.768 h -1.292 v 3.953 h 1.292 v 1.784 h -3.127 z"
   style="fill:#071013;fill-opacity:1;fill-rule:nonzero"
   inkscape:connector-curvature="0" />
            <path
   id="path6539"
   d="m 232.128,295.473 h 4.412 v 1.777 h -1.285 v 11.817 h -1.834 V 297.25 h -1.293 z"
   style="fill:#071013;fill-opacity:1;fill-rule:nonzero"
   inkscape:connector-curvature="0" />
        </g>
        <g
   id="text6330-4-8-5-0-2"
   style="fill:#071013;fill-opacity:1">
            <path
   id="path6520"
   d="m 157.062,309.067 c -0.267,0.073 -0.628,0.109 -1.084,0.109 -0.595,0 -1.062,-0.081 -1.401,-0.242 -0.473,-0.217 -0.887,-0.592 -1.243,-1.126 -0.35,-0.539 -0.634,-1.27 -0.851,-2.193 -0.211,-0.923 -0.317,-2.002 -0.317,-3.236 0,-2.185 0.312,-3.9 0.934,-5.146 0.623,-1.245 1.435,-1.868 2.436,-1.868 0.228,0 0.442,0.031 0.642,0.092 0.206,0.061 0.5,0.197 0.884,0.408 v 2.127 c -0.417,-0.534 -0.837,-0.801 -1.259,-0.801 -0.545,0 -0.971,0.412 -1.276,1.235 -0.306,0.823 -0.459,2.046 -0.459,3.669 0,1.007 0.053,1.896 0.158,2.669 0.106,0.773 0.251,1.354 0.434,1.743 0.139,0.289 0.339,0.545 0.6,0.767 v -3.219 h -0.725 v -1.768 h 2.527 z"
   style="fill:#071013;fill-opacity:1;fill-rule:nonzero"
   inkscape:connector-curvature="0" />
            <path
   id="path6522"
   d="m 157.821,295.473 h 1.835 v 11.785 h 1.067 v 1.809 h -2.902 z"
   style="fill:#071013;fill-opacity:1;fill-rule:nonzero"
   inkscape:connector-curvature="0" />
            <rect
   id="path6524"
   x="161.349"
   y="295.47299"
   width="1.835"
   height="13.594"
   style="fill:#071013;fill-opacity:1;fill-rule:nonzero" />
            <path
   id="path6526"
   d="m 164.059,295.473 h 0.542 c 0.689,0 1.282,0.123 1.776,0.367 0.495,0.245 0.923,0.651 1.285,1.218 0.361,0.562 0.645,1.27 0.85,2.127 0.206,0.85 0.309,1.865 0.309,3.044 0,1.206 -0.106,2.282 -0.317,3.227 -0.211,0.94 -0.52,1.699 -0.926,2.277 -0.3,0.428 -0.622,0.739 -0.967,0.934 -0.467,0.267 -1.034,0.4 -1.701,0.4 h -0.851 z m 1.835,2.277 v 9.099 c 0.2,-0.15 0.344,-0.303 0.433,-0.459 0.184,-0.322 0.326,-0.77 0.426,-1.342 0.1,-0.579 0.15,-1.518 0.15,-2.819 0,-1.068 -0.056,-1.968 -0.167,-2.702 -0.078,-0.534 -0.208,-0.962 -0.392,-1.285 -0.094,-0.172 -0.245,-0.336 -0.45,-0.492 z"
   style="fill:#071013;fill-opacity:1;fill-rule:nonzero"
   inkscape:connector-curvature="0" />
            <path
   id="path6528"
   d="m 169.555,295.473 h 3.127 v 1.802 h -1.292 v 4.287 h 1.292 v 1.768 h -1.292 v 3.953 h 1.292 v 1.784 h -3.127 z"
   style="fill:#071013;fill-opacity:1;fill-rule:nonzero"
   inkscape:connector-curvature="0" />
        </g>
    </g></g><g
   inkscape:groupmode="layer"
   id="layer3"
   inkscape:label="Layer 3"
   style="display:inline"
   sodipodi:insensitive="true"><g
     style="clip-rule:evenodd;display:inline;fill-rule:evenodd"
     id="rect1761"
     transform="matrix(0.857472,0,0,1,15.6251,0)">
            <path
   d="m 17.388,318.396 h 220.045 c 6.492,0 11.719,4.661 11.719,10.451 v 11.23 c 0,5.79 -5.227,10.451 -11.719,10.451 H 17.388 c -6.492,0 -11.719,-4.661 -11.719,-10.451 v -11.23 c 0,-5.79 5.227,-10.451 11.719,-10.451 z"
   style="fill:#b6c649;fill-rule:nonzero;stroke:#494949;stroke-width:1.20000005px"
   id="path23"
   inkscape:connector-curvature="0" />
        </g><g
     style="clip-rule:evenodd;display:inline;fill-rule:evenodd"
     id="rect1763"
     transform="translate(-19.8861)">
            <path
   d="m 51.784,318.405 h 82.036 c 6.492,0 11.719,4.661 11.719,10.451 v 11.258 c 0,5.79 -5.227,10.451 -11.719,10.451 H 51.784 c -6.493,0 -11.72,-4.661 -11.72,-10.451 v -11.258 c 0,-5.79 5.227,-10.451 11.72,-10.451 z"
   style="fill:#2c4251;fill-rule:nonzero;stroke:#494949;stroke-width:1.20000005px"
   id="path26"
   inkscape:connector-curvature="0" />
        </g></g></svg>