<?xml version="1.0" encoding="UTF-8" standalone="no"?>
<svg
   xmlns:dc="http://purl.org/dc/elements/1.1/"
   xmlns:cc="http://creativecommons.org/ns#"
   xmlns:rdf="http://www.w3.org/1999/02/22-rdf-syntax-ns#"
   xmlns:svg="http://www.w3.org/2000/svg"
   xmlns="http://www.w3.org/2000/svg"
   xmlns:sodipodi="http://sodipodi.sourceforge.net/DTD/sodipodi-0.dtd"
   xmlns:inkscape="http://www.inkscape.org/namespaces/inkscape"
   width="50"
   height="50"
   viewBox="0 0 13.229166 13.229166"
   version="1.1"
   id="svg16908"
   inkscape:version="1.0.2-2 (e86c870879, 2021-01-15)"
   sodipodi:docname="HRoundWhite.svg">
  <defs
     id="defs16902">
    <clipPath
       clipPathUnits="userSpaceOnUse"
       id="clipPath6367">
      <path
         d="M 0,3193 H 2089 V 0 H 0 Z"
         id="path6365"
         inkscape:connector-curvature="0" />
    </clipPath>
  </defs>
  <sodipodi:namedview
     id="base"
     pagecolor="#ffffff"
     bordercolor="#666666"
     borderopacity="1.0"
     inkscape:pageopacity="0.0"
     inkscape:pageshadow="2"
     inkscape:zoom="24.676754"
     inkscape:cx="29.056206"
     inkscape:cy="10.638001"
     inkscape:document-units="px"
     inkscape:current-layer="g886"
     showgrid="true"
     fit-margin-top="0"
     fit-margin-left="0"
     fit-margin-right="0"
     fit-margin-bottom="0"
     inkscape:window-width="1290"
     inkscape:window-height="1041"
     inkscape:window-x="589"
     inkscape:window-y="826"
     inkscape:window-maximized="0"
     inkscape:snap-grids="false"
     showguides="true"
     units="px"
     objecttolerance="10.0"
     gridtolerance="10.0"
     guidetolerance="10.0"
     inkscape:pagecheckerboard="0"
     inkscape:document-rotation="0">
    <inkscape:grid
       type="xygrid"
       id="grid823" />
  </sodipodi:namedview>
  <metadata
     id="metadata16905">
    <rdf:RDF>
      <cc:Work
         rdf:about="">
        <dc:format>image/svg+xml</dc:format>
        <dc:type
           rdf:resource="http://purl.org/dc/dcmitype/StillImage" />
      </cc:Work>
    </rdf:RDF>
  </metadata>
  <g
     inkscape:label="Layer 1"
     inkscape:groupmode="layer"
     id="layer1"
     transform="translate(-230.09585,-114.23701)"
     style="display:inline" />
  <g
     inkscape:groupmode="layer"
     id="layer2"
     inkscape:label="Layer 2"
     style="display:inline"
     transform="translate(0,8.9954357)">
    <g
       id="g886"
       transform="matrix(0.22279587,0,0,0.22279587,0.01639522,-8.9790436)">
      <path
         opacity="0.35"
         d="M 29.76366,2e-5 C 13.32567,2e-5 -1e-5,13.32571 0,29.7637 c 1e-5,16.43799 13.3257,29.76366 29.76369,29.76366 16.43799,0 29.76366,-13.3257 29.76366,-29.76369 C 59.52735,13.32568 46.20164,1e-5 29.76366,2e-5 Z m 3e-5,58.11376 C 14.10646,58.11379 1.41358,45.42093 1.41357,29.7637 1.41357,15.56766 11.84789,3.80911 25.46556,1.73781 L 25.36693,1.38527 C 25.3286,1.19045 25.38182,0.98683 25.5128,0.82765 25.6389,0.67433 25.822,0.57667 26.02879,0.55226 27.25926,0.40773 28.5161,0.334 29.76366,0.334 c 1.24707,0 2.50391,0.07373 3.73547,0.21826 0.20618,0.02441 0.38928,0.12207 0.5155,0.27539 0.13159,0.15967 0.1842,0.36279 0.14587,0.55762 L 34.062,1.73781 c 13.61744,2.07128 24.05177,13.82982 24.05177,28.02587 10e-6,15.65722 -12.69273,28.3501 -28.35008,28.3501 z"
         id="path844" />
      <path
         fill="#424242"
         d="m 53.09118,20.33863 -0.78784,0.31836 c -0.3844,0.15527 -0.81445,-0.02856 -0.98206,-0.40784 -0.69019,-1.5614 -1.54493,-3.03308 -2.54236,-4.39416 -0.24548,-0.33496 -0.18945,-0.79956 0.13757,-1.05518 l 0.66846,-0.52209 C 45.65965,9.26075 39.87523,5.77296 33.26488,4.85207 L 33.04283,6.43166 C 31.97069,6.28237 30.87706,6.19948 29.76366,6.19948 c -1.11328,0 -2.20679,0.08289 -3.27905,0.23218 L 26.26269,4.85207 c -6.61035,0.9209 -12.39477,4.4087 -16.32006,9.42554 l 0.66833,0.52222 c 0.32715,0.25549 0.38306,0.72021 0.1377,1.05493 C 9.7511,17.21609 8.89637,18.68777 8.2063,20.24917 8.03858,20.62844 7.60864,20.81228 7.22424,20.65701 L 6.43628,20.33865 c -1.17761,2.91187 -1.83203,6.09119 -1.83203,9.42505 0,3.33374 0.6543,6.51318 1.83204,9.4248 l 0.78784,-0.31836 c 0.3844,-0.15527 0.81445,0.02856 0.98206,0.40796 0.69019,1.5614 1.54492,3.03296 2.54248,4.39429 0.24536,0.33472 0.18945,0.79944 -0.13769,1.05493 l -0.66833,0.52222 c 3.9253,5.01709 9.70972,8.50488 16.32007,9.42553 l 0.11804,-0.84033 c 0.05774,-0.41101 0.43127,-0.69238 0.84375,-0.64722 0.83411,0.09094 1.68079,0.14013 2.53918,0.14013 0.85852,0 1.70508,-0.04919 2.53931,-0.14014 0.4126,-0.04517 0.78601,0.23621 0.84375,0.64722 l 0.11816,0.84033 c 6.61035,-0.92066 12.39465,-4.40845 16.31994,-9.42554 l -0.66833,-0.52209 c -0.32703,-0.25562 -0.38306,-0.72034 -0.13757,-1.05505 0.99744,-1.36121 1.85217,-2.83289 2.54235,-4.39429 0.1676,-0.37939 0.59766,-0.56323 0.98206,-0.40796 l 0.78784,0.31836 c 1.17761,-2.91162 1.83191,-6.09106 1.83191,-9.4248 -1e-5,-3.33388 -0.65431,-6.5132 -1.83193,-9.42506 z"
         id="path846" />
      <g
         opacity="0.32"
         id="g858">
        <path
           fill="#171717"
           d="m 10.61097,44.72732 c 0.32715,-0.25549 0.38306,-0.72021 0.13769,-1.05493 C 9.7511,42.31106 8.89636,40.8395 8.20618,39.2781 8.03858,38.89871 7.60852,38.71487 7.22412,38.87014 l -1.18848,0.48022 c -0.0603,0.02441 -0.1228,0.02051 -0.18457,0.03406 0.91406,2.26941 2.14099,4.37732 3.62854,6.27307 0.0415,-0.04492 0.06824,-0.09937 0.1178,-0.13818 z"
           id="path848" />
        <path
           fill="#171717"
           d="m 48.9165,14.79981 c -0.32703,0.25562 -0.38306,0.72021 -0.13757,1.05518 0.99744,1.36108 1.85218,2.83276 2.54236,4.39416 0.1676,0.37927 0.59766,0.56311 0.98206,0.40784 l 1.18835,-0.4801 c 0.0603,-0.02429 0.12305,-0.02039 0.18469,-0.03406 -0.91394,-2.26941 -2.141,-4.37732 -3.62854,-6.27307 -0.0415,0.04492 -0.06812,0.09949 -0.11768,0.13818 z"
           id="path850" />
        <path
           fill="#171717"
           d="m 33.14674,53.83473 c -0.05774,-0.41101 -0.43115,-0.69238 -0.84375,-0.64722 -0.83423,0.09094 -1.68079,0.14014 -2.53931,0.14014 -0.8584,0 -1.70508,-0.04919 -2.53918,-0.14013 -0.41248,-0.04517 -0.78601,0.23621 -0.84375,0.64722 l -0.17859,1.27124 c -0.009,0.0636 -0.04333,0.11511 -0.06201,0.17468 1.18445,0.16675 2.39307,0.25866 3.62354,0.25866 1.23059,0 2.43921,-0.09192 3.62378,-0.25867 -0.0188,-0.05957 -0.0531,-0.11108 -0.06201,-0.17468 z"
           id="path852" />
        <path
           fill="#171717"
           d="m 7.22424,20.65701 c 0.3844,0.15527 0.81433,-0.02856 0.98206,-0.40784 0.69006,-1.5614 1.5448,-3.03308 2.54236,-4.39441 0.24536,-0.33472 0.18945,-0.79944 -0.1377,-1.05493 L 9.5974,14.00796 C 9.54784,13.96926 9.52111,13.9147 9.4796,13.86978 c -1.48755,1.89575 -2.71448,4.00366 -3.62854,6.27307 0.06177,0.01367 0.12427,0.0098 0.18457,0.03406 z"
           id="path854" />
        <path
           fill="#171717"
           d="m 52.30335,38.87012 c -0.3844,-0.15527 -0.81445,0.02856 -0.98206,0.40796 -0.69019,1.56141 -1.54492,3.03308 -2.54235,4.39429 -0.24548,0.33472 -0.18945,0.79944 0.13757,1.05505 l 1.01367,0.79187 c 0.04956,0.03882 0.07617,0.09326 0.11768,0.13818 1.48755,-1.89576 2.7146,-4.00367 3.62854,-6.27308 -0.06165,-0.01355 -0.12439,-0.0096 -0.18469,-0.03406 z"
           id="path856" />
      </g>
      <g
         opacity="0.4"
         id="g872">
        <path
           d="M 26.04613,3.98537 C 25.81175,3.59963 25.36144,3.3694 24.89208,3.4562 c -2.99023,0.55371 -5.86719,1.61389 -8.50574,3.13709 -2.63855,1.52344 -4.99499,3.48487 -6.9696,5.79749 -0.41418,0.48511 -0.32202,1.22449 0.18067,1.61719 l 0.34521,0.26965 C 13.8247,9.31595 19.5266,5.85428 26.04613,4.88772 V 4.69057 Z"
           id="path860" />
        <path
           d="m 9.94263,45.24954 -0.34521,0.26978 c -0.50269,0.39282 -0.59485,1.13208 -0.18066,1.61719 1.97461,2.31274 4.33106,4.27417 6.96961,5.79736 2.63855,1.52344 5.51538,2.58349 8.5055,3.1372 0.6272,0.11621 1.22144,-0.33337 1.3103,-0.96509 l 0.06054,-0.43091 C 19.65236,53.75442 13.86793,50.26662 9.94263,45.24954 Z"
           id="path862" />
        <path
           d="M 54.98266,20.82911 C 54.76953,20.22779 54.08325,19.938 53.49169,20.17689 l -0.40051,0.16174 c 1.17761,2.91187 1.83191,6.09119 1.83191,9.42505 0,3.33374 -0.65429,6.51318 -1.83191,9.4248 l 0.40051,0.16187 c 0.59155,0.23901 1.27783,-0.05078 1.49097,-0.6521 1.01538,-2.86646 1.53588,-5.88794 1.53588,-8.93457 0,-3.04663 -0.5205,-6.06836 -1.53588,-8.93457 z"
           id="path864" />
        <path
           d="M 43.1411,6.59327 C 40.50267,5.07008 37.62572,4.0099 34.63548,3.45619 34.16606,3.3694 33.71556,3.59962 33.48124,3.98561 v 0.70496 0.19714 c 6.51953,0.96655 12.22156,4.42822 16.1037,9.39001 l 0.34521,-0.26978 c 0.50269,-0.3927 0.59473,-1.13208 0.18066,-1.61707 -1.97459,-2.31274 -4.33128,-4.27416 -6.96971,-5.7976 z"
           id="path866" />
        <path
           d="m 6.03564,20.17691 c -0.59131,-0.23889 -1.27759,0.0509 -1.49072,0.65198 -1.01562,2.86646 -1.53589,5.88818 -1.53588,8.93481 10e-6,3.04663 0.52027,6.06812 1.53589,8.93457 0.21314,0.60132 0.89941,0.89111 1.49072,0.6521 L 6.43628,39.1885 C 5.25854,36.27688 4.60425,33.09744 4.60424,29.7637 c 0,-3.33386 0.65442,-6.51318 1.83203,-9.42505 z"
           id="path868" />
        <path
           d="m 49.58485,45.24952 c -3.92529,5.01709 -9.70959,8.50489 -16.31994,9.42554 l 0.06055,0.43091 c 0.08875,0.63171 0.68286,1.0813 1.31018,0.96509 2.99011,-0.55371 5.86707,-1.61377 8.50549,-3.13721 2.63855,-1.5232 4.99512,-3.48462 6.96972,-5.79737 0.41406,-0.48511 0.3219,-1.22449 -0.18066,-1.61719 z"
           id="path870" />
      </g>
      <g
         id="g876">
        <path
           fill="#333333"
           d="M 34.06194,1.73781 33.48126,3.81496 V 4.06398 C 33.7,3.64064 34.14244,3.365 34.63549,3.45619 c 2.99023,0.55371 5.86719,1.61389 8.50562,3.13708 2.63843,1.52344 4.99512,3.48486 6.96973,5.7976 0.37329,0.43713 0.31641,1.0686 -0.06299,1.47888 1.48755,1.89575 2.7146,4.00366 3.62854,6.27307 0.54309,-0.11975 1.11487,0.14624 1.30627,0.68628 1.01538,2.86621 1.53589,5.88794 1.53589,8.93457 0,3.04663 -0.5205,6.06812 -1.53588,8.93457 -0.19141,0.53992 -0.76318,0.80591 -1.30627,0.68616 -0.91394,2.26941 -2.14099,4.37732 -3.62854,6.27308 0.37927,0.41028 0.43628,1.04175 0.06299,1.479 -1.97461,2.31274 -4.33117,4.27417 -6.96972,5.79737 -2.63843,1.52344 -5.51538,2.5835 -8.50549,3.13721 -0.56409,0.10449 -1.08118,-0.25879 -1.24817,-0.79041 -1.18457,0.16675 -2.39319,0.25867 -3.62378,0.25867 -1.23047,0 -2.43909,-0.09192 -3.62354,-0.25866 -0.16711,0.53162 -0.6842,0.8949 -1.24829,0.79041 -2.99011,-0.55371 -5.86695,-1.61377 -8.5055,-3.1372 -2.63855,-1.52319 -4.995,-3.48462 -6.96961,-5.79736 -0.37329,-0.43726 -0.31629,-1.0686 0.06287,-1.479 C 7.99207,43.76176 6.76514,41.65385 5.85108,39.38444 5.30787,39.50419 4.73633,39.2382 4.54493,38.69828 3.5293,35.83183 3.00904,32.81034 3.00904,29.76371 c 0,-3.04663 0.52026,-6.06836 1.53588,-8.93481 0.19141,-0.53979 0.76294,-0.80579 1.30615,-0.68604 0.91406,-2.26941 2.14099,-4.37732 3.62854,-6.27307 -0.37927,-0.41028 -0.43616,-1.04175 -0.06287,-1.479 1.97461,-2.31262 4.33105,-4.27405 6.9696,-5.79749 2.63855,-1.52319 5.5155,-2.58338 8.50574,-3.13709 0.4928,-0.09119 0.93512,0.18433 1.15405,0.60742 V 3.81496 L 25.4655,1.73781 C 11.84801,3.80911 1.41357,15.56766 1.41357,29.7637 c 1e-5,15.65723 12.69289,28.35009 28.35011,28.35008 15.65747,-10e-6 28.35009,-12.69288 28.35008,-28.35011 0,-14.19604 -10.43421,-25.95458 -24.05182,-28.02586 z"
           id="path874" />
      </g>
      <g
         id="g884"
         style="fill:#e7e7e7;fill-opacity:1">
        <rect
           x="26.046129"
           y="4.6905398"
           fill="#5e5e5e"
           width="7.4351201"
           height="13.24099"
           id="rect878"
           style="fill:#e7e7e7;fill-opacity:1" />
        <path
           opacity="0.58"
           fill="#5e5e5e"
           d="M 34.16052,1.38514 C 34.19885,1.19032 34.14624,0.98719 34.01465,0.82752 33.88849,0.6742 33.70538,0.57654 33.49915,0.55213 32.26752,0.4076 31.01068,0.33387 29.76374,0.33387 c -1.24756,0 -2.50439,0.07373 -3.73492,0.21826 -0.20673,0.02441 -0.38989,0.12207 -0.51599,0.27539 -0.13104,0.15918 -0.18427,0.36279 -0.14587,0.55762 l 0.6792,2.42993 7.43512,-2.4e-4 v 2.4e-4 z"
           id="path880"
           style="fill:#e7e7e7;fill-opacity:1" />
        <rect
           x="26.04612"
           y="3.81498"
           opacity="0.58"
           fill="#919191"
           width="7.4351201"
           height="0.87555999"
           id="rect882"
           style="fill:#e7e7e7;fill-opacity:1" />
      </g>
    </g>
  </g>
  <g
     inkscape:groupmode="layer"
     id="layer3"
     inkscape:label="Layer 3"
     style="display:none">
    <path
       transform="translate(0,8.9954358)"
       inkscape:connector-curvature="0"
       id="path6453"
       style="display:inline;fill:#2f3444;fill-opacity:1;fill-rule:evenodd;stroke:none;stroke-width:0.629552"
       d="M 9.5783705,-7.459024 C 9.4779211,-7.478502 9.3759264,-7.488887 9.270326,-7.488887 c -0.1061139,0 -0.2081094,0.0104 -0.3080445,0.029863 v 7.8578772 h 0.616089 z" />
  </g>
</svg>
