<?xml version="1.0" encoding="UTF-8" standalone="no"?>
<svg
   width="45"
   height="45"
   viewBox="0 0 11.90625 11.90625"
   version="1.1"
   id="svg16908"
   inkscape:version="1.3 (0e150ed6c4, 2023-07-21)"
   sodipodi:docname="LRoundWhite.svg"
   xmlns:inkscape="http://www.inkscape.org/namespaces/inkscape"
   xmlns:sodipodi="http://sodipodi.sourceforge.net/DTD/sodipodi-0.dtd"
   xmlns="http://www.w3.org/2000/svg"
   xmlns:svg="http://www.w3.org/2000/svg"
   xmlns:rdf="http://www.w3.org/1999/02/22-rdf-syntax-ns#"
   xmlns:cc="http://creativecommons.org/ns#"
   xmlns:dc="http://purl.org/dc/elements/1.1/">
  <defs
     id="defs16902">
    <clipPath
       clipPathUnits="userSpaceOnUse"
       id="clipPath6367">
      <path
         d="M 0,3193 H 2089 V 0 H 0 Z"
         id="path6365"
         inkscape:connector-curvature="0" />
    </clipPath>
  </defs>
  <sodipodi:namedview
     id="base"
     pagecolor="#ffffff"
     bordercolor="#666666"
     borderopacity="1.0"
     inkscape:pageopacity="0.0"
     inkscape:pageshadow="2"
     inkscape:zoom="16.774273"
     inkscape:cx="8.1970767"
     inkscape:cy="29.777744"
     inkscape:document-units="px"
     inkscape:current-layer="layer2"
     showgrid="true"
     fit-margin-top="0"
     fit-margin-left="0"
     fit-margin-right="0"
     fit-margin-bottom="0"
     inkscape:window-width="3840"
     inkscape:window-height="2097"
     inkscape:window-x="-8"
     inkscape:window-y="-8"
     inkscape:window-maximized="1"
     inkscape:snap-grids="false"
     showguides="false"
     units="px"
     inkscape:document-rotation="0"
     inkscape:showpageshadow="2"
     inkscape:pagecheckerboard="0"
     inkscape:deskcolor="#d1d1d1">
    <inkscape:grid
       type="xygrid"
       id="grid823"
       originx="0"
       originy="0"
       spacingy="1"
       spacingx="1"
       units="px"
       visible="true" />
  </sodipodi:namedview>
  <metadata
     id="metadata16905">
    <rdf:RDF>
      <cc:Work
         rdf:about="">
        <dc:format>image/svg+xml</dc:format>
        <dc:type
           rdf:resource="http://purl.org/dc/dcmitype/StillImage" />
        <dc:title />
      </cc:Work>
    </rdf:RDF>
  </metadata>
  <g
     inkscape:label="Layer 1"
     inkscape:groupmode="layer"
     id="layer1"
     transform="translate(-230.09585,-120.85159)"
     style="display:inline" />
  <g
     inkscape:groupmode="layer"
     id="layer2"
     inkscape:label="Layer 2"
     style="display:inline"
     transform="translate(0,2.3808524)">
    <path
       opacity="0.4"
       enable-background="new    "
       d="m 6.1777891,-2.3367881 v 0.396737 c -0.077903,-0.00321 -0.1543978,-0.011742 -0.2330753,-0.011742 -0.07871,0 -0.1552322,0.00852 -0.2331402,0.011742 v -0.396737 C 2.5453772,-2.2141717 0.01587197,0.38992584 0.01587197,3.586167 c 0,3.2744078 2.65440613,5.9288419 5.92884183,5.9288419 3.274373,0 5.9288422,-2.6544341 5.9288422,-5.9288419 0,-3.19624116 -2.5295996,-5.8003387 -5.6957669,-5.9229551 z m -0.2330753,0.6494954 c 0.078676,0 0.1552334,0.00837 0.2330753,0.011742 v 0.2503157 c 2.6705524,0.1223924 4.7996869,2.31572929 4.7996869,5.0114019 0,2.7741926 -2.2532312,5.0231132 -5.0327622,5.0231132 -2.779531,0 -5.03279318,-2.2489206 -5.03279318,-5.0231132 0,-2.69567261 2.12916558,-4.8890095 4.79965298,-5.0114019 v -0.2502844 c 0.07787,-0.00341 0.1544292,-0.011774 0.2331402,-0.011773 z"
       id="path3"
       style="display:inline;stroke-width:0.263504" />
    <path
       opacity="0.82"
       fill="#1e1d1e"
       enable-background="new    "
       d="m 5.9447138,-1.9517928 c -3.0643921,0 -5.54860806,2.47938898 -5.54860806,5.5379598 0,3.0585083 2.48421366,5.537929 5.54860806,5.537929 3.0643944,0 5.5485742,-2.4794207 5.5485742,-5.537929 0,-3.05857082 -2.484182,-5.5379598 -5.5485742,-5.5379598 z m 0,10.8113878 c -2.9180367,0 -5.28359186,-2.3609851 -5.28359186,-5.273428 0,-2.91247358 2.36555296,-5.2734597 5.28359186,-5.2734597 2.918039,0 5.2835602,2.36098869 5.2835602,5.2734597 0,2.9124429 -2.3655235,5.273428 -5.2835602,5.273428 z"
       id="path5"
       style="display:inline;stroke-width:0.263504" />
    <path
       fill="#ededed"
       d="M 6.1778047,-1.4369743 H 5.7115994 v 5.1910644 c 0,0.075394 0.061124,0.1365187 0.1365198,0.1365187 h 0.1931691 c 0.075394,0 0.1365187,-0.061124 0.1365187,-0.1365187 z"
       id="path7"
       style="display:inline;fill:#e5e5e5;fill-opacity:1;stroke-width:0.263504" />
    <rect
       x="5.711597"
       y="-2.3426721"
       opacity="0.71"
       fill="#ffffff"
       enable-background="new    "
       width="0.46620461"
       height="0.39088199"
       id="rect9"
       style="display:inline;fill:#4b4b4b;fill-opacity:1;stroke-width:0.263504" />
    <rect
       x="5.7115993"
       y="-1.9517877"
       opacity="0.71"
       fill="#ffffff"
       enable-background="new    "
       width="0.46620461"
       height="0.26450014"
       id="rect11"
       style="display:inline;fill:#161616;fill-opacity:1;stroke-width:0.263504" />
    <rect
       x="5.711597"
       y="-1.6872902"
       opacity="0.71"
       fill="#ffffff"
       enable-background="new    "
       width="0.46620461"
       height="0.25032625"
       id="rect13"
       style="display:inline;fill:#4b4b4b;fill-opacity:1;stroke-width:0.263504" />
  </g>
</svg>
