<?xml version="1.0" encoding="UTF-8" standalone="no"?>
<svg
   xmlns:dc="http://purl.org/dc/elements/1.1/"
   xmlns:cc="http://creativecommons.org/ns#"
   xmlns:rdf="http://www.w3.org/1999/02/22-rdf-syntax-ns#"
   xmlns:svg="http://www.w3.org/2000/svg"
   xmlns="http://www.w3.org/2000/svg"
   xmlns:sodipodi="http://sodipodi.sourceforge.net/DTD/sodipodi-0.dtd"
   xmlns:inkscape="http://www.inkscape.org/namespaces/inkscape"
   width="30"
   height="30"
   viewBox="0 0 7.9375001 7.9375001"
   version="1.1"
   id="svg16908"
   inkscape:version="1.0.2-2 (e86c870879, 2021-01-15)"
   sodipodi:docname="SDKnob.svg">
  <defs
     id="defs16902">
    <clipPath
       clipPathUnits="userSpaceOnUse"
       id="clipPath6367">
      <path
         d="M 0,3193 H 2089 V 0 H 0 Z"
         id="path6365"
         inkscape:connector-curvature="0" />
    </clipPath>
    <linearGradient
       id="SVGID_2_"
       gradientUnits="userSpaceOnUse"
       x1="5.4805198"
       y1="-4113.208"
       x2="34.955521"
       y2="-4113.208"
       gradientTransform="matrix(0,0.14622901,-0.14622901,0,-590.07759,2.7548734)">
      <stop
         offset="0"
         style="stop-color:#232223"
         id="stop14" />
      <stop
         offset="1"
         style="stop-color:#1F1E1F"
         id="stop16" />
    </linearGradient>
  </defs>
  <sodipodi:namedview
     id="base"
     pagecolor="#ffffff"
     bordercolor="#666666"
     borderopacity="1.0"
     inkscape:pageopacity="0.0"
     inkscape:pageshadow="2"
     inkscape:zoom="21.052627"
     inkscape:cx="32.831152"
     inkscape:cy="15.107294"
     inkscape:document-units="px"
     inkscape:current-layer="layer2"
     showgrid="true"
     fit-margin-top="0"
     fit-margin-left="0"
     fit-margin-right="0"
     fit-margin-bottom="0"
     inkscape:window-width="1381"
     inkscape:window-height="793"
     inkscape:window-x="2782"
     inkscape:window-y="428"
     inkscape:window-maximized="0"
     inkscape:snap-grids="false"
     showguides="false"
     units="px"
     inkscape:document-rotation="0">
    <inkscape:grid
       type="xygrid"
       id="grid823" />
  </sodipodi:namedview>
  <metadata
     id="metadata16905">
    <rdf:RDF>
      <cc:Work
         rdf:about="">
        <dc:format>image/svg+xml</dc:format>
        <dc:type
           rdf:resource="http://purl.org/dc/dcmitype/StillImage" />
        <dc:title />
      </cc:Work>
    </rdf:RDF>
  </metadata>
  <g
     inkscape:label="Layer 1"
     inkscape:groupmode="layer"
     id="layer1"
     transform="translate(-230.09585,-124.82033)"
     style="display:inline" />
  <g
     inkscape:groupmode="layer"
     id="layer2"
     inkscape:label="Layer 2"
     style="display:inline"
     transform="translate(0,-1.5878976)">
    <circle
       style="display:inline;opacity:0.32;fill:#000000;fill-opacity:1;stroke:#424242;stroke-width:0.190653;stroke-miterlimit:4;stroke-dasharray:none;stroke-opacity:1"
       id="circle965"
       cx="3.9741902"
       cy="5.5638742"
       r="3.7024186" />
    <circle
       style="display:inline;opacity:0.35;fill:none;fill-opacity:1;stroke:#4f4f4f;stroke-width:0.174179;stroke-miterlimit:4;stroke-dasharray:none;stroke-opacity:1"
       id="circle920"
       cx="3.9741902"
       cy="5.5638742"
       r="3.8788884" />
    <path
       id="path916"
       style="display:inline;opacity:0.565359;fill:#424242;fill-opacity:1;fill-rule:evenodd;stroke:none;stroke-width:0.112356;stroke-linecap:round;stroke-linejoin:round;stroke-miterlimit:4;stroke-dasharray:none;stroke-opacity:1"
       d="m 3.9635067,2.0737337 c -0.1251253,0 -0.2485996,0.00744 -0.3698405,0.020214 -0.1081953,0.066914 -0.2170528,0.1541372 -0.3325729,0.24256 A 3.3052839,3.3052839 0 0 1 3.9742452,2.2584971 3.3052839,3.3052839 0 0 1 4.6567614,2.329875 C 4.5445931,2.243773 4.4383454,2.159179 4.3330326,2.0939472 4.2116006,2.0810962 4.0882433,2.0737334 3.9635067,2.0737337 Z M 2.183154,2.7862539 C 2.0360142,2.8059283 1.8945863,2.8209117 1.7684644,2.850368 1.5747596,3.0069676 1.3984961,3.1828333 1.2422866,3.3765464 1.2118346,3.5063538 1.1969431,3.6520626 1.1762788,3.8041852 A 3.3052839,3.3052839 0 0 1 2.183156,2.7862539 Z m 3.5878676,0.00347 A 3.3052839,3.3052839 0 0 1 6.744736,3.761549 C 6.7269681,3.6252714 6.7119567,3.4939674 6.684411,3.3765464 6.5280029,3.1828333 6.3518212,3.0069676 6.1579169,2.850368 6.0398609,2.8227823 5.9079792,2.8076193 5.7710216,2.7897275 Z M 0.74863829,4.8432786 c -0.0953612,0.1257415 -0.19092422,0.2419987 -0.26277274,0.358471 -0.0128542,0.1214313 -0.019895,0.2447889 -0.019895,0.369525 0,0.1249342 0.007191,0.2483361 0.0198949,0.3701568 0.073109,0.1183382 0.17046079,0.2365141 0.26751091,0.3647876 A 3.3052839,3.3052839 0 0 1 0.66905144,5.5640105 3.3052839,3.3052839 0 0 1 0.74864232,4.8432786 Z M 7.2086952,4.883073 A 3.3052839,3.3052839 0 0 1 7.2794466,5.5640101 3.3052839,3.3052839 0 0 1 7.2039606,6.265792 C 7.2903333,6.1533368 7.3752223,6.0469807 7.44052,5.941431 7.4531546,5.8196103 7.460415,5.6962084 7.460415,5.5712742 7.460415,5.4465381 7.4530261,5.3231805 7.44052,5.2017492 7.3764103,5.0979576 7.2934157,4.993269 7.2086982,4.883073 Z M 1.1737499,7.3190965 c 0.022153,0.1593009 0.036774,0.3115965 0.068535,0.4469043 0.1562094,0.193904 0.3324729,0.3697701 0.5261777,0.5261785 0.1345834,0.031531 0.2857541,0.046435 0.4437464,0.068219 A 3.3052839,3.3052839 0 0 1 1.173748,7.3190966 Z m 5.5735129,0.043269 A 3.3052839,3.3052839 0 0 1 5.7416493,8.3566093 C 5.8895052,8.3368359 6.0313276,8.3218506 6.1579179,8.2921793 6.3518222,8.1357709 6.5280039,7.9599049 6.6844121,7.7660009 6.7132262,7.6432511 6.7283274,7.5055248 6.7472628,7.3623655 Z M 3.2339321,8.7851952 C 3.360112,8.8808852 3.4768476,8.9764428 3.5936662,9.0486 3.7149071,9.061232 3.8383814,9.068811 3.9635067,9.068811 4.0882433,9.068811 4.2116006,9.061231 4.3330326,9.0486 4.4468917,8.9781627 4.5609576,8.8852047 4.683607,8.7918276 A 3.3052839,3.3052839 0 0 1 3.9742452,8.8692054 3.3052839,3.3052839 0 0 1 3.2339321,8.785194 Z" />
    <path
       id="path958"
       style="display:inline;fill:#212021;fill-opacity:1;fill-rule:evenodd;stroke:none;stroke-width:0.112356;stroke-linecap:round;stroke-linejoin:round;stroke-miterlimit:4;stroke-dasharray:none;stroke-opacity:1"
       d="M 3.9742452,2.2584962 A 3.3052839,3.3052839 0 0 0 3.2610933,2.336507 C 3.1112958,2.4511674 2.9492726,2.5681018 2.7529174,2.6494979 2.560408,2.7293516 2.3669589,2.7616766 2.183155,2.7862539 A 3.3052839,3.3052839 0 0 0 1.1762768,3.8041852 C 1.1518373,3.9840429 1.119098,4.1732113 1.0411012,4.3609993 0.96471627,4.5457801 0.85673772,4.700739 0.74863829,4.8432771 A 3.3052839,3.3052839 0 0 0 0.66904739,5.564009 3.3052839,3.3052839 0 0 0 0.75337249,6.3062175 C 0.85980091,6.4468883 0.9658938,6.5996378 1.0410971,6.7815469 1.1162541,6.9624892 1.1495521,7.1451157 1.173747,7.3190954 a 3.3052839,3.3052839 0 0 0 1.0384598,1.0413025 c 0.1750179,0.024136 0.3585354,0.056864 0.5407065,0.1323348 0.1842875,0.076498 0.3387849,0.1845992 0.4810138,0.2924613 A 3.3052839,3.3052839 0 0 0 3.9742412,8.8692054 3.3052839,3.3052839 0 0 0 4.683603,8.791826 C 4.8282229,8.681722 4.9849577,8.5708476 5.1731453,8.4927314 5.3651893,8.4132682 5.5584005,8.3811132 5.7416454,8.3566075 A 3.3052839,3.3052839 0 0 0 6.7472589,7.3623636 C 6.7719898,7.175372 6.8035195,6.9778648 6.8849622,6.7815461 6.9675752,6.5817113 7.0872976,6.4176805 7.203954,6.2657901 A 3.3052839,3.3052839 0 0 0 7.279438,5.5640082 3.3052839,3.3052839 0 0 0 7.2086916,4.8830711 C 7.0905787,4.7294317 6.9686927,4.5635268 6.8849662,4.3609993 6.8007846,4.1580555 6.7698304,3.9540413 6.7447362,3.7615475 A 3.3052839,3.3052839 0 0 0 5.7710216,2.789728 C 5.5791127,2.7646582 5.3756401,2.7334072 5.1731493,2.6494979 4.9729826,2.5665233 4.808859,2.4466258 4.6567614,2.3298746 A 3.3052839,3.3052839 0 0 0 3.9742452,2.2584962 Z" />
    <circle
       style="display:inline;fill:#fcfcfc;fill-opacity:1;stroke:none;stroke-width:0.211668;stroke-miterlimit:4;stroke-dasharray:none;stroke-opacity:1;paint-order:normal"
       id="path6739"
       cx="3.9631643"
       cy="5.5712681"
       r="2.535876" />
    <path
       style="display:inline;fill:#e7e7e7;fill-opacity:1;stroke:none;stroke-width:0.234323;stroke-linejoin:round;stroke-miterlimit:4;stroke-dasharray:none;stroke-dashoffset:0;stroke-opacity:1;paint-order:normal"
       id="path833"
       sodipodi:type="arc"
       sodipodi:cx="3.9593301"
       sodipodi:cy="2.5843291"
       sodipodi:rx="0.3394278"
       sodipodi:ry="0.3394278"
       sodipodi:start="2.4454564"
       sodipodi:end="2.4435122"
       sodipodi:open="true"
       sodipodi:arc-type="arc"
       d="M 3.6988785,2.8019898 A 0.3394278,0.3394278 0 0 1 3.7415428,2.3239833 0.3394278,0.3394278 0 0 1 4.21957,2.3664153 0.3394278,0.3394278 0 0 1 4.1773703,2.8444631 0.3394278,0.3394278 0 0 1 3.6993021,2.8024958" />
    <path
       id="circle967"
       style="display:inline;fill:#212021;fill-opacity:1;stroke:none;stroke-width:0.190653;stroke-miterlimit:4;stroke-dasharray:none;stroke-opacity:1"
       d="M 3.9492948,1.8614935 A 3.7024186,3.7024186 0 0 0 0.27173006,5.564009 3.7024186,3.7024186 0 0 0 3.9742457,9.2662082 3.7024186,3.7024186 0 0 0 7.6767598,5.564009 3.7024186,3.7024186 0 0 0 3.9742457,1.8614935 a 3.7024186,3.7024186 0 0 0 -0.024949,0 z m 0.024949,0.2640368 a 3.4383247,3.4383247 0 0 1 0.7099927,0.074221 c 0.15822,0.1214506 0.3290093,0.2462583 0.537233,0.3325727 0.2106417,0.087286 0.4222421,0.1195202 0.6218766,0.1455992 A 3.4383247,3.4383247 0 0 1 6.8562225,3.688906 c 0.026107,0.2002418 0.058347,0.4126584 0.1459163,0.6237711 0.087091,0.2106795 0.2138168,0.3830941 0.3366777,0.5429176 a 3.4383247,3.4383247 0 0 1 0.073589,0.7084144 3.4383247,3.4383247 0 0 1 -0.078332,0.7298911 C 7.2127207,6.4519041 7.0880739,6.6226225 7.0021319,6.8305007 6.9174075,7.0347216 6.8844704,7.2401719 6.8587434,7.4346901 A 3.4383247,3.4383247 0 0 1 5.8127033,8.4690448 C 5.6220827,8.4945368 5.4212367,8.5278765 5.2214626,8.6105378 5.0257003,8.6917978 4.8624636,8.8070991 4.712023,8.9216339 a 3.4383247,3.4383247 0 0 1 -0.7377773,0.080538 3.4383247,3.4383247 0 0 1 -0.770002,-0.08717 C 3.0562909,8.8027982 2.8953528,8.6901158 2.7036476,8.6105384 2.5141435,8.5320325 2.3232095,8.4979399 2.1411482,8.4728346 A 3.4383247,3.4383247 0 0 1 1.0609978,7.3898421 C 1.0358292,7.2088594 1.0011613,7.0187264 0.9229787,6.8305009 0.84474714,6.6412698 0.73459746,6.4825547 0.62388457,6.3362217 A 3.4383247,3.4383247 0 0 1 0.5360828,5.564009 3.4383247,3.4383247 0 0 1 0.61883113,4.8142202 C 0.73128103,4.6659451 0.84351763,4.504895 0.9229787,4.3126769 1.0041195,4.1173299 1.0380962,3.9205355 1.0635246,3.7334384 A 3.4383247,3.4383247 0 0 1 2.111144,2.6744488 C 2.3023459,2.6488824 2.5033899,2.6153915 2.7036476,2.5323238 2.9079071,2.4476513 3.0765258,2.325975 3.2323527,2.2066995 a 3.4383247,3.4383247 0 0 1 0.741893,-0.081169 z" />
  </g>
</svg>
