<?xml version="1.0" encoding="UTF-8" standalone="no"?>
<svg
   xmlns:dc="http://purl.org/dc/elements/1.1/"
   xmlns:cc="http://creativecommons.org/ns#"
   xmlns:rdf="http://www.w3.org/1999/02/22-rdf-syntax-ns#"
   xmlns:svg="http://www.w3.org/2000/svg"
   xmlns="http://www.w3.org/2000/svg"
   xmlns:sodipodi="http://sodipodi.sourceforge.net/DTD/sodipodi-0.dtd"
   xmlns:inkscape="http://www.inkscape.org/namespaces/inkscape"
   version="1.0"
   id="svg111794"
   x="0px"
   y="0px"
   width="20"
   height="20"
   viewBox="0 0 20 19.999999"
   enable-background="new 0 0 17.85552 17.85938"
   xml:space="preserve"
   sodipodi:docname="Trim.svg"
   inkscape:version="1.0.2-2 (e86c870879, 2021-01-15)"><metadata
   id="metadata15"><rdf:RDF><cc:Work
       rdf:about=""><dc:format>image/svg+xml</dc:format><dc:type
         rdf:resource="http://purl.org/dc/dcmitype/StillImage" /><dc:title></dc:title></cc:Work></rdf:RDF></metadata><defs
   id="defs13" /><sodipodi:namedview
   pagecolor="#505050"
   bordercolor="#eeeeee"
   borderopacity="1"
   objecttolerance="10"
   gridtolerance="10"
   guidetolerance="10"
   inkscape:pageopacity="0"
   inkscape:pageshadow="2"
   inkscape:window-width="1336"
   inkscape:window-height="769"
   id="namedview11"
   showgrid="false"
   inkscape:zoom="16"
   inkscape:cx="15.529047"
   inkscape:cy="13.657918"
   inkscape:window-x="81"
   inkscape:window-y="0"
   inkscape:window-maximized="0"
   inkscape:current-layer="svg111794"><inkscape:grid
     type="xygrid"
     id="grid840" /></sodipodi:namedview>
<g
   id="g8"
   transform="matrix(1.173232,0,0,1.173232,-0.4843546,-0.4206827)">
	<path
   opacity="0.99"
   fill="#ededed"
   enable-background="new    "
   d="M 7.85074,2.01721 H 9.9412 v 4.45324 c 0,0.29768 -0.24131,0.53899 -0.53899,0.53899 H 8.38973 c -0.29768,0 -0.53899,-0.24131 -0.53899,-0.53899 z"
   id="path2" />
	<path
   opacity="0.4"
   d="m 9.94122,0.89518 v 1.20435 c 3.33276,0.49072 5.89355,3.354 5.89355,6.823 0,3.81384 -3.09167,6.90552 -6.9054,6.90552 -3.81373,0 -6.9054,-3.09167 -6.9054,-6.90552 0,-3.4458 2.52661,-6.29382 5.82678,-6.81274 V 0.90544 C 3.88995,1.434 0.83209,4.8173 0.83209,8.92253 c 0,4.47217 3.62524,8.09741 8.09729,8.09741 4.47205,0 8.09729,-3.62525 8.09729,-8.09741 0,-4.12842 -3.09204,-7.52832 -7.08545,-8.02735 z"
   id="path4" />
	<rect
   x="7.85074"
   y="0.82529002"
   opacity="0.58"
   fill="#ffffff"
   width="2.0904601"
   height="1.2845"
   id="rect6" />
</g>
</svg>
