<?xml version="1.0" encoding="UTF-8" standalone="no"?>
<svg
   width="100%"
   height="100%"
   viewBox="0 0 35 35"
   version="1.1"
   xml:space="preserve"
   style="fill-rule:evenodd;clip-rule:evenodd;stroke-miterlimit:10;"
   id="svg884"
   sodipodi:docname="VerboRS.svg"
   inkscape:version="1.1.1 (3bf5ae0d25, 2021-09-20)"
   xmlns:inkscape="http://www.inkscape.org/namespaces/inkscape"
   xmlns:sodipodi="http://sodipodi.sourceforge.net/DTD/sodipodi-0.dtd"
   xmlns="http://www.w3.org/2000/svg"
   xmlns:svg="http://www.w3.org/2000/svg"
   xmlns:rdf="http://www.w3.org/1999/02/22-rdf-syntax-ns#"
   xmlns:cc="http://creativecommons.org/ns#"
   xmlns:dc="http://purl.org/dc/elements/1.1/"><metadata
   id="metadata890">
  <rdf:RDF>
    <cc:Work
   rdf:about="">
      <dc:format>image/svg+xml</dc:format>

      <dc:type
   rdf:resource="http://purl.org/dc/dcmitype/StillImage" />

    </cc:Work>

  </rdf:RDF>

</metadata>

<defs
   id="defs888" />

<sodipodi:namedview
   pagecolor="#ffffff"
   bordercolor="#666666"
   inkscape:document-rotation="0"
   borderopacity="1"
   objecttolerance="10"
   gridtolerance="10"
   guidetolerance="10"
   inkscape:pageopacity="0"
   inkscape:pageshadow="2"
   inkscape:window-width="1361"
   inkscape:window-height="1041"
   id="namedview886"
   showgrid="false"
   inkscape:zoom="11.503176"
   inkscape:cx="31.208772"
   inkscape:cy="14.821993"
   inkscape:window-x="543"
   inkscape:window-y="0"
   inkscape:window-maximized="0"
   inkscape:current-layer="g49"
   inkscape:pagecheckerboard="0" />


    


    <g
   id="Layer1">
    </g>


    



<g
   id="g51"
   transform="matrix(1.1096349,0,0,1.1096349,0.15541996,0.03731085)"><g
     opacity="0.32"
     id="g19"><g
       id="g5"><path
         d="m 27.04653,10.36892 c 0.0396,0.08448 0.06522,0.17618 0.10289,0.26169 0.1246,0.2818 0.23561,0.57031 0.33924,0.86268 0.06812,0.193 0.13346,0.38628 0.19226,0.58349 0.10124,0.33805 0.18925,0.68144 0.2626,1.03073 0.01562,0.07483 0.04187,0.14539 0.05619,0.22067 0.0671,0.35344 0.41026,0.58519 0.76649,0.53514 l 0.39094,-0.05494 c 2.8e-4,0.0019 3.4e-4,0.004 6.2e-4,0.0059 l 1.00534,-0.1413 C 29.9246,11.94912 29.39679,10.31887 28.61155,8.8418 l -0.91824,0.48826 c 0.0018,0.0033 0.004,0.00619 0.0058,0.00949 l -0.42202,0.22442 c -0.2547,0.18203 -0.36623,0.51525 -0.23056,0.80495 z"
         id="path3" /></g><g
       id="g9"><path
         d="M 2.64072,13.8632 C 2.99701,13.91331 3.34017,13.68156 3.40727,13.32812 3.42159,13.25278 3.44789,13.18222 3.46352,13.10739 3.53664,12.759 3.62448,12.41658 3.72538,12.07938 3.78464,11.88047 3.85043,11.68554 3.91918,11.49089 4.02264,11.19926 4.13332,10.91138 4.25763,10.63026 4.2953,10.54481 4.32092,10.45328 4.36047,10.36886 4.49614,10.07911 4.38467,9.74594 4.12992,9.56385 L 3.70794,9.3395 C 3.7097,9.33621 3.71197,9.33331 3.71374,9.33001 L 2.79549,8.84174 c -0.78524,1.47707 -1.31305,3.10731 -1.55156,4.83124 l 1.00534,0.1413 c 2.8e-4,-0.002 3.4e-4,-0.004 6.2e-4,-0.006 z"
         id="path7" /></g><g
       id="g13"><path
         d="M 9.92508,27.54655 C 10.07723,27.23458 9.97019,26.8554 9.67515,26.67802 8.74867,26.16862 7.89509,25.54933 7.13048,24.83125 6.89129,24.61371 6.53415,24.61978 6.28258,24.81534 L 5.93067,25.1552 C 5.92857,25.153 5.92681,25.1505 5.9247,25.1484 L 5.20542,25.84296 C 6.38268,27.05988 7.771,28.06454 9.30915,28.8154 L 9.75026,27.911 c -8e-4,-4e-4 -0.00165,-6.3e-4 -0.00244,-0.001 z"
         id="path11" /></g><g
       id="g17"><path
         d="m 24.2765,24.83128 c -0.76456,0.71802 -1.61814,1.33736 -2.54457,1.8467 -0.2951,0.17732 -0.40225,0.55661 -0.2501,0.86858 l 0.17726,0.36345 c -8e-4,4e-4 -0.0016,6.3e-4 -0.0024,0.001 l 0.44111,0.90438 c 1.53815,-0.75086 2.92653,-1.75551 4.10379,-2.97243 -0.20351,-0.19647 -0.43952,-0.42441 -0.71927,-0.69456 -0.0021,0.0022 -0.0039,0.0046 -0.006,0.0068 L 25.12447,24.81543 C 24.873,24.61982 24.51569,24.61368 24.2765,24.83128 Z"
         id="path15" /></g></g><g
     opacity="0.4"
     id="g35"><path
       opacity="0.4"
       d="m 2.24922,13.81431 c -0.08738,0.62439 -0.13159,1.25424 -0.13159,1.88477 -1e-5,3.5199 1.36786,6.90555 3.81299,9.43757 L 5.05891,25.96592 C 4.7879,26.22761 4.34668,26.22051 4.09726,25.93819 1.60361,23.11495 0.21802,19.46868 0.21802,15.68652 c 0,-0.49264 0.02347,-0.98494 0.0704,-1.47514 0.03579,-0.37384 0.38646,-0.63695 0.75836,-0.58468 z"
       id="path21" /><path
       opacity="0.4"
       d="m 21.65905,27.91004 c -1.85489,0.90466 -3.89182,1.37491 -5.95561,1.3749 -2.06289,0 -4.09879,-0.46998 -5.95316,-1.37391 l -0.5335,1.07517 c -0.16522,0.33879 -0.0221,0.7566 0.32373,0.90665 1.94278,0.84279 4.04038,1.27919 6.16298,1.2792 2.12254,0 4.22015,-0.43639 6.16298,-1.27917 0.34578,-0.15005 0.48889,-0.56786 0.32368,-0.90665 L 21.6591,27.91004 c -8e-4,4e-4 -0.0016,6.3e-4 -0.0024,0.001"
       id="path23" /><path
       opacity="0.4"
       d="m 25.47627,25.13669 c 2.44509,-2.532 3.81302,-5.91765 3.81303,-9.43755 0,-0.63252 -0.0442,-1.26436 -0.1322,-1.89074 l 1.20311,-0.18169 c 0.37191,-0.05221 0.72263,0.2109 0.75836,0.58474 0.04693,0.4902 0.07045,0.98244 0.07045,1.47514 -10e-6,3.78216 -1.38567,7.42841 -3.87933,10.25159 -0.24936,0.28237 -0.6895,0.29055 -0.96045,0.02886 z"
       id="path25" /><g
       id="g29"><path
         opacity="0.4"
         d="M 29.04086,7.81801 C 27.96445,5.99342 26.52353,4.40663 24.8057,3.15858 23.08787,1.91053 21.13358,1.0304 19.06559,0.57056 c -0.13971,-0.03113 -0.27246,-0.00244 -0.39307,0.052 -0.0014,0.02429 0.0031,0.0481 -0.0033,0.07251 L 18.29935,2.11841 V 2.11475 h -0.01196 v 0.25781 c 1.94849,0.37793 3.79449,1.16773 5.40167,2.33545 1.66968,1.21301 3.04107,2.79077 4.01001,4.61304 L 28.7706,8.73878 c 0.33209,-0.17651 0.46143,-0.59692 0.27026,-0.92077 z"
         id="path27" /></g><g
       id="g33"><path
         opacity="0.4"
         d="M 13.10777,2.11841 12.73796,0.69507 C 12.73161,0.67066 12.73607,0.64685 12.73466,0.62256 12.61405,0.56812 12.48124,0.53931 12.34153,0.57056 10.27354,1.0304 8.31925,1.9104 6.60135,3.15857 4.88358,4.40661 3.44266,5.9934 2.36618,7.81786 2.17508,8.14183 2.30441,8.56212 2.6365,8.73864 l 1.07141,0.5824 C 4.67678,7.49878 6.04831,5.92114 7.71792,4.70801 9.3251,3.54029 11.17123,2.75049 13.11966,2.37257 V 2.11474 h -0.0119 v 0.00367 z"
         id="path31" /></g></g><path
     fill="#333333"
     d="M 12.7269,0.62689 C 12.71584,0.46005 12.82158,0.30566 12.98131,0.25146 5.61094,1.54247 0.00431,7.95897 0.0043,15.69908 c -10e-6,8.67053 7.02879,15.69923 15.6992,15.69923 8.67041,0 15.69923,-7.02867 15.69923,-15.6992 1e-5,-7.74011 -5.60655,-14.15638 -12.97678,-15.44764 0.15306,0.05195 0.25651,0.19597 0.2551,0.35477 0.12061,-0.05444 0.24483,-0.0668 0.38454,-0.03567 2.06799,0.45984 4.02228,1.33997 5.74011,2.58802 1.71783,1.24805 3.15875,2.83484 4.23516,4.65943 0.19116,0.32385 0.06183,0.74426 -0.27026,0.92078 l -0.15906,0.10303 c 0.78277,1.47241 1.30902,3.09729 1.54864,4.81519 l 0.20001,-0.03027 c 0.37195,-0.05225 0.72266,0.21094 0.75836,0.58472 0.04694,0.49023 0.07049,0.98242 0.07049,1.4751 0,3.78223 -1.38569,7.42847 -3.87934,10.2517 -0.24939,0.28223 -0.68951,0.29053 -0.96045,0.02881 l -0.14771,-0.12402 c -1.17554,1.21509 -2.56189,2.2185 -4.09735,2.96899 l 0.086,0.17419 c 0.16516,0.33875 0.02209,0.75659 -0.32373,0.90662 -1.94281,0.84277 -4.04041,1.27929 -6.16297,1.27929 -2.12262,0 -4.22021,-0.43653 -6.16296,-1.2793 C 9.1947,29.74283 9.05158,29.32498 9.2168,28.98623 L 9.30316,28.81216 C 7.76739,28.06155 6.3811,27.05837 5.20545,25.84304 L 5.0589,25.96596 C 4.7879,26.22756 4.34668,26.22048 4.09729,25.93825 1.60364,23.115 0.21802,19.46876 0.21803,15.68654 c 0,-0.49268 0.0235,-0.98486 0.07038,-1.4751 0.03583,-0.37378 0.38648,-0.63696 0.75836,-0.58472 l 0.19989,0.03125 c 0.2395,-1.71826 0.76593,-3.3435 1.54883,-4.81616 L 2.63649,8.73866 C 2.3044,8.56215 2.17506,8.14186 2.36617,7.81788 3.44265,5.99342 4.88357,4.40663 6.60134,3.15858 8.31924,1.91041 10.27352,1.03041 12.34152,0.57057 12.48124,0.5393 12.60629,0.57244 12.7269,0.62689 Z"
     id="path37" /><g
     id="g41"><path
       fill="#424242"
       d="M 29.15713,13.80836 28.7662,13.86329 C 28.40994,13.91334 28.0668,13.68165 27.99966,13.32813 27.80276,12.29102 27.4819,11.29834 27.04654,10.3689 26.89798,10.05176 27.03623,9.67334 27.34543,9.50904 l 0.3537,-0.18799 C 26.7302,7.49878 25.35874,5.9209 23.68906,4.70801 22.08518,3.54273 20.24326,2.75415 18.29929,2.37536 v 1.13025 l -5.19153,-1e-5 V 2.37547 C 11.1638,2.75427 9.32188,3.54272 7.71799,4.708 6.04831,5.92101 4.67679,7.49877 3.70791,9.32091 L 4.06155,9.50902 C 4.3707,9.67333 4.509,10.05175 4.36044,10.36889 3.92508,11.29833 3.60421,12.29101 3.40725,13.32812 3.34017,13.68164 2.99697,13.91332 2.64077,13.86328 L 2.2499,13.80835 c -0.08801,0.62634 -0.13226,1.25818 -0.13227,1.89075 0,3.5199 1.36791,6.90552 3.81304,9.43763 L 6.22272,24.8545 c 0.2533,-0.24451 0.65814,-0.25916 0.91522,-0.01855 0.75745,0.70874 1.60351,1.32227 2.51922,1.82691 0.31116,0.17139 0.42364,0.56445 0.26788,0.88379 l -0.17725,0.36328 c 1.85492,0.90479 3.89184,1.375 5.95563,1.37501 2.06384,0 4.10077,-0.47021 5.95563,-1.37487 l -0.17725,-0.3634 c -0.1557,-0.31934 -0.04321,-0.7124 0.26794,-0.88379 0.91571,-0.50464 1.76172,-1.11804 2.51917,-1.8269 0.25708,-0.2406 0.66199,-0.22595 0.91522,0.01855 l 0.29211,0.28223 c 2.44513,-2.53198 3.81306,-5.91772 3.81306,-9.43762 3e-5,-0.63248 -0.04416,-1.26431 -0.13217,-1.89078 z"
       id="path39" /></g><g
     id="g49"><rect
       x="13.10772"
       y="2.99402"
       fill="#e3e3e3"
       width="5.1915598"
       height="9.9718103"
       id="rect43"
       style="fill:#ff595e;fill-opacity:1" /><path
       opacity="0.58"
       fill="#ffffff"
       d="M 18.66919,0.695 C 18.72373,0.48509 18.5886,0.26769 18.37488,0.23079 17.50656,0.08086 16.61467,0 15.70353,0 14.7924,0 13.90056,0.08086 13.03224,0.23078 12.81852,0.26768 12.68339,0.48508 12.73793,0.69499 L 13.10776,2.1184 V 2.11474 l 5.19159,1e-5 v 0.00366 z"
       id="path45"
       style="fill:#ff595e;fill-opacity:1" /><rect
       x="13.10773"
       y="2.1184599"
       opacity="0.81"
       fill="#ffffff"
       width="5.1915598"
       height="0.87555999"
       id="rect47"
       style="fill:#ff595e;fill-opacity:1" /></g></g></svg>
