<?xml version="1.0" encoding="UTF-8" standalone="no"?>
<svg
   xmlns:serif="http://www.serif.com/"
   xmlns:dc="http://purl.org/dc/elements/1.1/"
   xmlns:cc="http://creativecommons.org/ns#"
   xmlns:rdf="http://www.w3.org/1999/02/22-rdf-syntax-ns#"
   xmlns:svg="http://www.w3.org/2000/svg"
   xmlns="http://www.w3.org/2000/svg"
   xmlns:xlink="http://www.w3.org/1999/xlink"
   xmlns:sodipodi="http://sodipodi.sourceforge.net/DTD/sodipodi-0.dtd"
   xmlns:inkscape="http://www.inkscape.org/namespaces/inkscape"
   width="25"
   height="25"
   viewBox="0 0 25 25"
   version="1.1"
   xml:space="preserve"
   style="clip-rule:evenodd;fill-rule:evenodd;stroke-miterlimit:10"
   id="svg884"
   sodipodi:docname="VerboXS.svg"
   inkscape:version="1.0.2-2 (e86c870879, 2021-01-15)"><metadata
   id="metadata890">
  <rdf:RDF>
    <cc:Work
   rdf:about="">
      <dc:format>image/svg+xml</dc:format>


      <dc:type
   rdf:resource="http://purl.org/dc/dcmitype/StillImage" />


    <dc:title /></cc:Work>


  </rdf:RDF>


</metadata>


<defs
   id="defs888"><linearGradient
     inkscape:collect="always"
     xlink:href="#linearGradient859"
     id="linearGradient861"
     x1="1.24393"
     y1="18.828569"
     x2="30.163099"
     y2="18.828569"
     gradientUnits="userSpaceOnUse" /><linearGradient
     inkscape:collect="always"
     id="linearGradient859"><stop
       style="stop-color:#844800;stop-opacity:1;"
       offset="0"
       id="stop855" /><stop
       style="stop-color:#844800;stop-opacity:0;"
       offset="1"
       id="stop857" /></linearGradient><linearGradient
     inkscape:collect="always"
     xlink:href="#linearGradient859"
     id="linearGradient3494"
     gradientUnits="userSpaceOnUse"
     x1="1.24393"
     y1="18.828569"
     x2="30.163099"
     y2="18.828569" /><linearGradient
     inkscape:collect="always"
     xlink:href="#linearGradient859"
     id="linearGradient3496"
     gradientUnits="userSpaceOnUse"
     x1="1.24393"
     y1="18.828569"
     x2="30.163099"
     y2="18.828569" /><linearGradient
     inkscape:collect="always"
     xlink:href="#linearGradient859"
     id="linearGradient3498"
     gradientUnits="userSpaceOnUse"
     x1="1.24393"
     y1="18.828569"
     x2="30.163099"
     y2="18.828569" /><linearGradient
     inkscape:collect="always"
     xlink:href="#linearGradient859"
     id="linearGradient3500"
     gradientUnits="userSpaceOnUse"
     x1="1.24393"
     y1="18.828569"
     x2="30.163099"
     y2="18.828569" /><linearGradient
     inkscape:collect="always"
     xlink:href="#linearGradient859"
     id="linearGradient3502"
     gradientUnits="userSpaceOnUse"
     x1="1.24393"
     y1="18.828569"
     x2="30.163099"
     y2="18.828569" /><linearGradient
     inkscape:collect="always"
     xlink:href="#linearGradient859"
     id="linearGradient3504"
     gradientUnits="userSpaceOnUse"
     x1="1.24393"
     y1="18.828569"
     x2="30.163099"
     y2="18.828569" /><linearGradient
     inkscape:collect="always"
     xlink:href="#linearGradient859"
     id="linearGradient3506"
     gradientUnits="userSpaceOnUse"
     x1="1.24393"
     y1="18.828569"
     x2="30.163099"
     y2="18.828569" /><linearGradient
     inkscape:collect="always"
     xlink:href="#linearGradient859"
     id="linearGradient3508"
     gradientUnits="userSpaceOnUse"
     x1="1.24393"
     y1="18.828569"
     x2="30.163099"
     y2="18.828569" /></defs>


<sodipodi:namedview
   pagecolor="#ffffff"
   bordercolor="#666666"
   inkscape:document-rotation="0"
   borderopacity="1"
   objecttolerance="10"
   gridtolerance="10"
   guidetolerance="10"
   inkscape:pageopacity="0"
   inkscape:pageshadow="2"
   inkscape:window-width="1416"
   inkscape:window-height="1041"
   id="namedview886"
   showgrid="false"
   inkscape:zoom="11.2"
   inkscape:cx="14.140369"
   inkscape:cy="22.131451"
   inkscape:window-x="277"
   inkscape:window-y="280"
   inkscape:window-maximized="0"
   inkscape:current-layer="path10768" />



    <g
   id="Layer-1"
   serif:id="Layer 1"
   transform="matrix(1.0314839,0,0,1.0314839,-672.77028,-353.08317)">
        



        <g
   id="path10768"
   transform="matrix(0.30762363,0,0,0.30762363,652.04872,342.26709)">
            



        <g
   opacity="0.32"
   id="g19"
   style="clip-rule:evenodd;fill:url(#linearGradient861);fill-opacity:1;fill-rule:evenodd;stroke-miterlimit:10"
   transform="matrix(2.5022667,0,0,2.5022667,1.128231,-0.46645565)"><g
     id="g5"
     style="fill:url(#linearGradient3496);fill-opacity:1"><path
       d="m 27.04653,10.36892 c 0.0396,0.08448 0.06522,0.17618 0.10289,0.26169 0.1246,0.2818 0.23561,0.57031 0.33924,0.86268 0.06812,0.193 0.13346,0.38628 0.19226,0.58349 0.10124,0.33805 0.18925,0.68144 0.2626,1.03073 0.01562,0.07483 0.04187,0.14539 0.05619,0.22067 0.0671,0.35344 0.41026,0.58519 0.76649,0.53514 l 0.39094,-0.05494 c 2.8e-4,0.0019 3.4e-4,0.004 6.2e-4,0.0059 l 1.00534,-0.1413 C 29.9246,11.94912 29.39679,10.31887 28.61155,8.8418 l -0.91824,0.48826 c 0.0018,0.0033 0.004,0.00619 0.0058,0.00949 l -0.42202,0.22442 c -0.2547,0.18203 -0.36623,0.51525 -0.23056,0.80495 z"
       id="path3"
       style="fill:url(#linearGradient3494);fill-opacity:1" /></g><g
     id="g9"
     style="fill:url(#linearGradient3500);fill-opacity:1"><path
       d="M 2.64072,13.8632 C 2.99701,13.91331 3.34017,13.68156 3.40727,13.32812 3.42159,13.25278 3.44789,13.18222 3.46352,13.10739 3.53664,12.759 3.62448,12.41658 3.72538,12.07938 3.78464,11.88047 3.85043,11.68554 3.91918,11.49089 4.02264,11.19926 4.13332,10.91138 4.25763,10.63026 4.2953,10.54481 4.32092,10.45328 4.36047,10.36886 4.49614,10.07911 4.38467,9.74594 4.12992,9.56385 L 3.70794,9.3395 C 3.7097,9.33621 3.71197,9.33331 3.71374,9.33001 L 2.79549,8.84174 c -0.78524,1.47707 -1.31305,3.10731 -1.55156,4.83124 l 1.00534,0.1413 c 2.8e-4,-0.002 3.4e-4,-0.004 6.2e-4,-0.006 z"
       id="path7"
       style="fill:url(#linearGradient3498);fill-opacity:1" /></g><g
     id="g13"
     style="fill:url(#linearGradient3504);fill-opacity:1"><path
       d="M 9.92508,27.54655 C 10.07723,27.23458 9.97019,26.8554 9.67515,26.67802 8.74867,26.16862 7.89509,25.54933 7.13048,24.83125 6.89129,24.61371 6.53415,24.61978 6.28258,24.81534 L 5.93067,25.1552 C 5.92857,25.153 5.92681,25.1505 5.9247,25.1484 L 5.20542,25.84296 C 6.38268,27.05988 7.771,28.06454 9.30915,28.8154 L 9.75026,27.911 c -8e-4,-4e-4 -0.00165,-6.3e-4 -0.00244,-0.001 z"
       id="path11"
       style="fill:url(#linearGradient3502);fill-opacity:1" /></g><g
     id="g17"
     style="fill:url(#linearGradient3508);fill-opacity:1"><path
       d="m 24.2765,24.83128 c -0.76456,0.71802 -1.61814,1.33736 -2.54457,1.8467 -0.2951,0.17732 -0.40225,0.55661 -0.2501,0.86858 l 0.17726,0.36345 c -8e-4,4e-4 -0.0016,6.3e-4 -0.0024,0.001 l 0.44111,0.90438 c 1.53815,-0.75086 2.92653,-1.75551 4.10379,-2.97243 -0.20351,-0.19647 -0.43952,-0.42441 -0.71927,-0.69456 -0.0021,0.0022 -0.0039,0.0046 -0.006,0.0068 L 25.12447,24.81543 C 24.873,24.61982 24.51569,24.61368 24.2765,24.83128 Z"
       id="path15"
       style="fill:url(#linearGradient3506);fill-opacity:1" /></g></g><g
   opacity="0.4"
   id="g35"
   style="clip-rule:evenodd;fill:#f56c00;fill-opacity:1;fill-rule:evenodd;stroke-miterlimit:10"
   transform="matrix(2.5022667,0,0,2.5022667,1.128231,-0.46645565)"><path
     opacity="0.4"
     d="m 2.24922,13.81431 c -0.08738,0.62439 -0.13159,1.25424 -0.13159,1.88477 -1e-5,3.5199 1.36786,6.90555 3.81299,9.43757 L 5.05891,25.96592 C 4.7879,26.22761 4.34668,26.22051 4.09726,25.93819 1.60361,23.11495 0.21802,19.46868 0.21802,15.68652 c 0,-0.49264 0.02347,-0.98494 0.0704,-1.47514 0.03579,-0.37384 0.38646,-0.63695 0.75836,-0.58468 z"
     id="path21"
     style="fill:#f56c00;fill-opacity:1" /><path
     opacity="0.4"
     d="m 21.65905,27.91004 c -1.85489,0.90466 -3.89182,1.37491 -5.95561,1.3749 -2.06289,0 -4.09879,-0.46998 -5.95316,-1.37391 l -0.5335,1.07517 c -0.16522,0.33879 -0.0221,0.7566 0.32373,0.90665 1.94278,0.84279 4.04038,1.27919 6.16298,1.2792 2.12254,0 4.22015,-0.43639 6.16298,-1.27917 0.34578,-0.15005 0.48889,-0.56786 0.32368,-0.90665 L 21.6591,27.91004 c -8e-4,4e-4 -0.0016,6.3e-4 -0.0024,0.001"
     id="path23"
     style="fill:#f56c00;fill-opacity:1" /><path
     opacity="0.4"
     d="m 25.47627,25.13669 c 2.44509,-2.532 3.81302,-5.91765 3.81303,-9.43755 0,-0.63252 -0.0442,-1.26436 -0.1322,-1.89074 l 1.20311,-0.18169 c 0.37191,-0.05221 0.72263,0.2109 0.75836,0.58474 0.04693,0.4902 0.07045,0.98244 0.07045,1.47514 -10e-6,3.78216 -1.38567,7.42841 -3.87933,10.25159 -0.24936,0.28237 -0.6895,0.29055 -0.96045,0.02886 z"
     id="path25"
     style="fill:#f56c00;fill-opacity:1" /><g
     id="g29"
     style="fill:#f56c00;fill-opacity:1"><path
       opacity="0.4"
       d="M 29.04086,7.81801 C 27.96445,5.99342 26.52353,4.40663 24.8057,3.15858 23.08787,1.91053 21.13358,1.0304 19.06559,0.57056 c -0.13971,-0.03113 -0.27246,-0.00244 -0.39307,0.052 -0.0014,0.02429 0.0031,0.0481 -0.0033,0.07251 L 18.29935,2.11841 V 2.11475 h -0.01196 v 0.25781 c 1.94849,0.37793 3.79449,1.16773 5.40167,2.33545 1.66968,1.21301 3.04107,2.79077 4.01001,4.61304 L 28.7706,8.73878 c 0.33209,-0.17651 0.46143,-0.59692 0.27026,-0.92077 z"
       id="path27"
       style="fill:#f56c00;fill-opacity:1" /></g><g
     id="g33"
     style="fill:#f56c00;fill-opacity:1"><path
       opacity="0.4"
       d="M 13.10777,2.11841 12.73796,0.69507 C 12.73161,0.67066 12.73607,0.64685 12.73466,0.62256 12.61405,0.56812 12.48124,0.53931 12.34153,0.57056 10.27354,1.0304 8.31925,1.9104 6.60135,3.15857 4.88358,4.40661 3.44266,5.9934 2.36618,7.81786 2.17508,8.14183 2.30441,8.56212 2.6365,8.73864 l 1.07141,0.5824 C 4.67678,7.49878 6.04831,5.92114 7.71792,4.70801 9.3251,3.54029 11.17123,2.75049 13.11966,2.37257 V 2.11474 h -0.0119 v 0.00367 z"
       id="path31"
       style="fill:#f56c00;fill-opacity:1" /></g></g><path
   fill="#333333"
   d="M 32.974329,1.1021903 C 32.946652,0.68471181 33.211243,0.29838735 33.61093,0.16276408 15.168299,3.3932159 1.1390156,19.44901 1.1389906,38.816829 c -2.5e-5,21.695978 17.5879074,39.283656 39.2835854,39.283656 21.695677,0 39.283659,-17.587603 39.283659,-39.283581 2.9e-5,-19.367819 -14.029083,-35.4230376 -32.471363,-38.65411488 0.382996,0.12999266 0.641856,0.4903694 0.638328,0.88772968 0.301798,-0.13622365 0.61263,-0.16715156 0.962222,-0.0892561 5.174662,1.1506422 10.064816,3.352962 14.363285,6.4759161 4.298469,3.1229542 7.904035,7.0935252 10.597502,11.6591362 0.478333,0.810359 0.154715,1.862337 -0.676267,2.304037 l -0.398006,0.257809 c 1.958698,3.684363 3.275512,7.750245 3.875108,12.048889 l 0.500479,-0.07574 c 0.930714,-0.130743 1.808284,0.527828 1.89762,1.463126 0.117456,1.226686 0.176381,2.458277 0.176381,3.691093 0,9.464149 -3.467363,18.588013 -9.707141,25.652488 -0.62404,0.706214 -1.725338,0.726983 -2.403302,0.07209 l -0.36961,-0.310331 c -2.941514,3.040479 -6.410532,5.551278 -10.252662,7.429208 l 0.215195,0.435866 c 0.413274,0.847646 0.05528,1.89319 -0.810059,2.268607 -4.861428,2.108834 -10.110183,3.201124 -15.421394,3.201124 -5.311361,0 -10.560091,-1.092312 -15.421369,-3.201153 -0.865359,-0.375388 -1.223484,-1.42096 -0.810059,-2.268599 l 0.216095,-0.435573 c -3.842906,-1.878227 -7.311773,-4.38845 -10.253563,-7.42953 L 13.786948,64.5073 C 13.108834,65.161893 12.004783,65.144178 11.380743,64.43796 5.1409659,57.373438 1.6737751,48.249573 1.6738002,38.78545 c 0,-1.232817 0.058803,-2.464382 0.1761094,-3.691093 0.089656,-0.935298 0.9670761,-1.593844 1.8976191,-1.463126 l 0.5001781,0.0782 C 4.8469996,29.409883 6.1642679,25.343099 8.1232927,21.658111 L 7.7254322,21.400002 C 6.8944543,20.958327 6.5708111,19.906649 7.0490193,19.095965 9.7426591,14.530679 13.348226,10.560107 17.646544,7.4371538 21.945188,4.3138999 26.835318,2.1119049 32.010005,0.96126267 c 0.349617,-0.078246 0.662525,0.004651 0.964324,0.14092763 z"
   id="path37"
   style="clip-rule:evenodd;fill:#f24800;fill-opacity:1;fill-rule:evenodd;stroke-width:2.50227;stroke-miterlimit:10" /><g
   id="g41"
   style="clip-rule:evenodd;fill:#ff4b00;fill-opacity:1;fill-rule:evenodd;stroke-miterlimit:10"
   transform="matrix(2.5022667,0,0,2.5022667,1.128231,-0.46645565)"><path
     fill="#424242"
     d="M 29.15713,13.80836 28.7662,13.86329 C 28.40994,13.91334 28.0668,13.68165 27.99966,13.32813 27.80276,12.29102 27.4819,11.29834 27.04654,10.3689 26.89798,10.05176 27.03623,9.67334 27.34543,9.50904 l 0.3537,-0.18799 C 26.7302,7.49878 25.35874,5.9209 23.68906,4.70801 22.08518,3.54273 20.24326,2.75415 18.29929,2.37536 v 1.13025 l -5.19153,-1e-5 V 2.37547 C 11.1638,2.75427 9.32188,3.54272 7.71799,4.708 6.04831,5.92101 4.67679,7.49877 3.70791,9.32091 L 4.06155,9.50902 C 4.3707,9.67333 4.509,10.05175 4.36044,10.36889 3.92508,11.29833 3.60421,12.29101 3.40725,13.32812 3.34017,13.68164 2.99697,13.91332 2.64077,13.86328 L 2.2499,13.80835 c -0.08801,0.62634 -0.13226,1.25818 -0.13227,1.89075 0,3.5199 1.36791,6.90552 3.81304,9.43763 L 6.22272,24.8545 c 0.2533,-0.24451 0.65814,-0.25916 0.91522,-0.01855 0.75745,0.70874 1.60351,1.32227 2.51922,1.82691 0.31116,0.17139 0.42364,0.56445 0.26788,0.88379 l -0.17725,0.36328 c 1.85492,0.90479 3.89184,1.375 5.95563,1.37501 2.06384,0 4.10077,-0.47021 5.95563,-1.37487 l -0.17725,-0.3634 c -0.1557,-0.31934 -0.04321,-0.7124 0.26794,-0.88379 0.91571,-0.50464 1.76172,-1.11804 2.51917,-1.8269 0.25708,-0.2406 0.66199,-0.22595 0.91522,0.01855 l 0.29211,0.28223 c 2.44513,-2.53198 3.81306,-5.91772 3.81306,-9.43762 3e-5,-0.63248 -0.04416,-1.26431 -0.13217,-1.89078 z"
     id="path39"
     style="fill:#ff4b00;fill-opacity:1" /></g><g
   id="g49"
   style="clip-rule:evenodd;fill:#dcdcdc;fill-opacity:1;fill-rule:evenodd;stroke-miterlimit:10"
   transform="matrix(2.5022667,0,0,2.5022667,1.128231,-0.46645565)"><rect
     x="13.10772"
     y="2.99402"
     fill="#e3e3e3"
     width="5.1915598"
     height="9.9718103"
     id="rect43"
     style="fill:#dcdcdc;fill-opacity:1" /><path
     opacity="0.58"
     fill="#ffffff"
     d="M 18.66919,0.695 C 18.72373,0.48509 18.5886,0.26769 18.37488,0.23079 17.50656,0.08086 16.61467,0 15.70353,0 14.7924,0 13.90056,0.08086 13.03224,0.23078 12.81852,0.26768 12.68339,0.48508 12.73793,0.69499 L 13.10776,2.1184 V 2.11474 l 5.19159,1e-5 v 0.00366 z"
     id="path45"
     style="fill:#dcdcdc;fill-opacity:1" /><rect
     x="13.10773"
     y="2.1184599"
     opacity="0.81"
     fill="#ffffff"
     width="5.1915598"
     height="0.87555999"
     id="rect47"
     style="fill:#dcdcdc;fill-opacity:1" /></g></g>



        



        



        



        



        
        
        
        
        
        



        



        
        






    
</g>



    <g
   id="Layer1">
    </g>



    



</svg>
