<?xml version="1.0" encoding="UTF-8" standalone="no"?>
<svg
   xmlns:serif="http://www.serif.com/"
   xmlns:dc="http://purl.org/dc/elements/1.1/"
   xmlns:cc="http://creativecommons.org/ns#"
   xmlns:rdf="http://www.w3.org/1999/02/22-rdf-syntax-ns#"
   xmlns:svg="http://www.w3.org/2000/svg"
   xmlns="http://www.w3.org/2000/svg"
   xmlns:sodipodi="http://sodipodi.sourceforge.net/DTD/sodipodi-0.dtd"
   xmlns:inkscape="http://www.inkscape.org/namespaces/inkscape"
   width="50"
   height="50"
   viewBox="0 0 50 50"
   version="1.1"
   xml:space="preserve"
   style="clip-rule:evenodd;fill-rule:evenodd;stroke-miterlimit:10"
   id="svg884"
   sodipodi:docname="VerboXDS.svg"
   inkscape:version="1.0 (4035a4fb49, 2020-05-01)"><metadata
   id="metadata890">
  <rdf:RDF>
    <cc:Work
   rdf:about="">
      <dc:format>image/svg+xml</dc:format>

      <dc:type
   rdf:resource="http://purl.org/dc/dcmitype/StillImage" />

    <dc:title /></cc:Work>

  </rdf:RDF>

</metadata>

<defs
   id="defs888" />

<sodipodi:namedview
   pagecolor="#ffffff"
   bordercolor="#666666"
   inkscape:document-rotation="0"
   borderopacity="1"
   objecttolerance="10"
   gridtolerance="10"
   guidetolerance="10"
   inkscape:pageopacity="0"
   inkscape:pageshadow="2"
   inkscape:window-width="1856"
   inkscape:window-height="1057"
   id="namedview886"
   showgrid="false"
   inkscape:zoom="11.503176"
   inkscape:cx="21.551154"
   inkscape:cy="29.199205"
   inkscape:window-x="56"
   inkscape:window-y="-8"
   inkscape:window-maximized="1"
   inkscape:current-layer="Layer-1" />


    <g
   id="Layer-1"
   serif:id="Layer 1"
   transform="matrix(1.4758364,0,0,1.4758364,-962.5273,-505.18836)">
        <g
   id="circle10766"
   transform="matrix(0.4222266,0,0,0.4222266,652.34827,342.56627)">
            <circle
   cx="39.685001"
   cy="39.685001"
   r="36.700001"
   style="fill:#13141a;fill-opacity:1"
   id="circle833" />


        </g>


        <g
   id="path10768"
   transform="matrix(0.430171,0,0,0.430171,652.033,342.251)">
            


        </g>


        


        


        


        


        
        
        
        
        
        <g
   id="path10792"
   transform="matrix(0.428764,0,0,0.428764,652.088,342.307)">
            <path
   d="m 34.005,2.683 c -0.034,-0.185 0.011,-0.377 0.121,-0.529 0.106,-0.144 0.257,-0.235 0.426,-0.259 1.698,-0.23 3.425,-0.346 5.132,-0.346 1.707,0 3.434,0.116 5.133,0.347 0.168,0.023 0.32,0.114 0.426,0.258 0.109,0.153 0.157,0.345 0.123,0.53 -4.758,9.943 -7.186,9.386 -11.361,-0.001 z"
   style="fill:#fcfcfc;fill-rule:nonzero"
   id="path866"
   inkscape:connector-curvature="0" />


        </g>


        <g
   id="path10798"
   transform="matrix(0.428764,0,0,0.428764,652.088,342.307)">
            <path
   d="m 35.18,21.489 c -0.656,0 -1.189,-0.531 -1.189,-1.185 V 2.735 c 0,-0.655 0.533,-1.186 1.189,-1.186 h 9.012 c 0.653,0 1.186,0.531 1.186,1.186 v 17.569 c 0,0.654 -0.533,1.185 -1.186,1.185 z"
   style="fill:#fcfcfc;fill-rule:nonzero"
   id="path869"
   inkscape:connector-curvature="0" />


        </g>


        
        <g
   style="stroke:#727272;stroke-width:0.315508;stroke-miterlimit:10;stroke-dasharray:none;stroke-opacity:1"
   id="circle10806"
   transform="matrix(0.91373365,0,0,0.91373365,653.69479,343.77503)">
            <circle
   cx="16.864"
   cy="17.028999"
   r="13.366"
   style="display:inline;fill:#ffffff;stroke:#727272;stroke-width:0.315508;stroke-miterlimit:10;stroke-dasharray:none;stroke-opacity:1"
   id="circle875" />


        </g>

<g
   id="path10800"
   transform="matrix(0.428764,0,0,0.428764,652.088,342.307)"
   style="fill:#ff1b00;fill-opacity:1">
            <path
   d="m 44.191,2.38 c 0.195,0 0.354,0.159 0.354,0.354 v 7.5435 c 0,0.157087 -0.08407,0.355 -0.354,0.355 h -9.012 c -0.124607,0 -0.354,-0.339688 -0.354,-0.355 V 2.734 c 0,-0.195 0.159,-0.354 0.354,-0.354 h 9.012 m 0,-1.662 h -9.012 c -1.114,0 -2.016,0.903 -2.016,2.016 v 7.5435 c 0,0.164141 0.902,2.017 2.016,2.017 h 9.012 c 1.602348,0 2.016,-0.903 2.016,-2.017 V 2.734 c 0,-1.113 -0.903,-2.016 -2.016,-2.016 z"
   style="fill:#13141a;fill-opacity:1;fill-rule:nonzero"
   id="path872"
   inkscape:connector-curvature="0"
   sodipodi:nodetypes="cssssssscsssssssss" />


        </g>


    <g
   transform="matrix(0.42129221,-0.05303669,0.05303669,0.42129221,650.28312,344.72895)"
   id="g3218"
   style="fill:none;stroke:#323343;stroke-width:3.85054;stroke-miterlimit:10;stroke-dasharray:15.4021, 15.40210000000000079;stroke-dashoffset:0;stroke-opacity:1">
            <path
   id="path4436"
   d="M 35.964844 1.2382812 C 30.578091 1.7470124 25.315947 3.409712 20.615234 6.0898438 L 22.521484 9.4335938 C 26.742333 7.0270586 31.488731 5.527166 36.326172 5.0703125 L 35.964844 1.2382812 z M 51.947266 3.0488281 L 50.728516 6.7011719 C 55.337187 8.239082 59.621139 10.774592 63.199219 14.066406 L 65.806641 11.232422 C 61.827695 7.5718137 57.080717 4.7618569 51.947266 3.0488281 z M 8.5878906 16.771484 C 5.3716948 21.120278 3.0909525 26.142946 1.9433594 31.431641 L 5.7070312 32.248047 C 6.7373047 27.500021 8.7954454 22.968411 11.685547 19.060547 L 8.5878906 16.771484 z M 75.138672 24.335938 L 71.607422 25.871094 C 73.493092 30.207446 74.463559 34.949131 74.458984 39.683594 L 76.384766 39.685547 L 74.458984 39.6875 C 74.463991 44.550675 73.440175 49.419273 71.453125 53.851562 L 74.964844 55.427734 C 77.179246 50.488314 78.315564 45.092107 78.310547 39.6875 C 78.310546 39.686851 78.310548 39.686196 78.310547 39.685547 C 78.310547 39.684898 78.310546 39.684243 78.310547 39.683594 C 78.315098 34.422665 77.239931 29.168066 75.138672 24.335938 z M 5.6269531 46.744141 L 1.8554688 47.517578 C 2.9431896 52.819139 5.1681911 57.867805 8.3359375 62.251953 L 11.457031 59.998047 C 8.6105285 56.058498 6.6033681 51.503196 5.6269531 46.744141 z M 62.914062 65.564453 C 59.300042 68.816592 54.986944 71.302569 50.361328 72.789062 L 51.541016 76.455078 C 56.693243 74.799352 61.46906 72.042548 65.488281 68.425781 L 62.914062 65.564453 z M 22.1875 69.742188 L 20.244141 73.066406 C 24.914543 75.798528 30.156074 77.521352 35.537109 78.089844 L 35.941406 74.259766 C 31.109544 73.749293 26.38145 72.195591 22.1875 69.742188 z "
   style="color:#000000;font-style:normal;font-variant:normal;font-weight:normal;font-stretch:normal;font-size:medium;line-height:normal;font-family:sans-serif;font-variant-ligatures:normal;font-variant-position:normal;font-variant-caps:normal;font-variant-numeric:normal;font-variant-alternates:normal;font-variant-east-asian:normal;font-feature-settings:normal;font-variation-settings:normal;text-indent:0;text-align:start;text-decoration:none;text-decoration-line:none;text-decoration-style:solid;text-decoration-color:#000000;letter-spacing:normal;word-spacing:normal;text-transform:none;writing-mode:lr-tb;direction:ltr;text-orientation:mixed;dominant-baseline:auto;baseline-shift:baseline;text-anchor:start;white-space:normal;shape-padding:0;shape-margin:0;inline-size:0;clip-rule:nonzero;display:inline;overflow:visible;visibility:visible;isolation:auto;mix-blend-mode:normal;color-interpolation:sRGB;color-interpolation-filters:linearRGB;solid-color:#000000;solid-opacity:1;vector-effect:none;fill:#323343;fill-opacity:1;fill-rule:nonzero;stroke:none;stroke-width:3.85054;stroke-linecap:butt;stroke-linejoin:miter;stroke-miterlimit:10;stroke-dasharray:15.4021, 15.40210000000000079;stroke-dashoffset:0;stroke-opacity:1;color-rendering:auto;image-rendering:auto;shape-rendering:auto;text-rendering:auto;enable-background:accumulate;stop-color:#000000;stop-opacity:1;opacity:1" />


        </g><g
   style="fill:none;stroke:#323343;stroke-width:3.85054;stroke-miterlimit:10;stroke-dasharray:15.4021, 15.4021;stroke-dashoffset:0;stroke-opacity:1"
   id="g3843"
   transform="matrix(0.38058953,-0.04791261,0.04791261,0.38058953,652.10489,346.15622)">
            <path
   id="path4432"
   d="M 35.964844 1.2382812 C 30.578091 1.7470124 25.315947 3.409712 20.615234 6.0898438 L 22.521484 9.4335938 C 26.742333 7.0270586 31.488731 5.527166 36.326172 5.0703125 L 35.964844 1.2382812 z M 51.947266 3.0488281 L 50.728516 6.7011719 C 55.337187 8.239082 59.621139 10.774592 63.199219 14.066406 L 65.806641 11.232422 C 61.827695 7.5718137 57.080717 4.7618569 51.947266 3.0488281 z M 8.5878906 16.771484 C 5.3716948 21.120278 3.0909525 26.142946 1.9433594 31.431641 L 5.7070312 32.248047 C 6.7373047 27.500021 8.7954454 22.968411 11.685547 19.060547 L 8.5878906 16.771484 z M 75.138672 24.335938 L 71.607422 25.871094 C 73.493092 30.207446 74.463559 34.949131 74.458984 39.683594 L 76.384766 39.685547 L 74.458984 39.6875 C 74.463991 44.550675 73.440175 49.419273 71.453125 53.851562 L 74.964844 55.427734 C 77.179246 50.488314 78.315564 45.092107 78.310547 39.6875 C 78.310546 39.686851 78.310548 39.686196 78.310547 39.685547 C 78.310547 39.684898 78.310546 39.684243 78.310547 39.683594 C 78.315098 34.422665 77.239931 29.168066 75.138672 24.335938 z M 5.6269531 46.744141 L 1.8554688 47.517578 C 2.9431896 52.819139 5.1681911 57.867805 8.3359375 62.251953 L 11.457031 59.998047 C 8.6105285 56.058498 6.6033681 51.503196 5.6269531 46.744141 z M 62.914062 65.564453 C 59.300042 68.816592 54.986944 71.302569 50.361328 72.789062 L 51.541016 76.455078 C 56.693243 74.799352 61.46906 72.042548 65.488281 68.425781 L 62.914062 65.564453 z M 22.1875 69.742188 L 20.244141 73.066406 C 24.914543 75.798528 30.156074 77.521352 35.537109 78.089844 L 35.941406 74.259766 C 31.109544 73.749293 26.38145 72.195591 22.1875 69.742188 z "
   style="color:#000000;font-style:normal;font-variant:normal;font-weight:normal;font-stretch:normal;font-size:medium;line-height:normal;font-family:sans-serif;font-variant-ligatures:normal;font-variant-position:normal;font-variant-caps:normal;font-variant-numeric:normal;font-variant-alternates:normal;font-variant-east-asian:normal;font-feature-settings:normal;font-variation-settings:normal;text-indent:0;text-align:start;text-decoration:none;text-decoration-line:none;text-decoration-style:solid;text-decoration-color:#000000;letter-spacing:normal;word-spacing:normal;text-transform:none;writing-mode:lr-tb;direction:ltr;text-orientation:mixed;dominant-baseline:auto;baseline-shift:baseline;text-anchor:start;white-space:normal;shape-padding:0;shape-margin:0;inline-size:0;clip-rule:nonzero;display:inline;overflow:visible;visibility:visible;isolation:auto;mix-blend-mode:normal;color-interpolation:sRGB;color-interpolation-filters:linearRGB;solid-color:#000000;solid-opacity:1;vector-effect:none;fill:#323343;fill-opacity:1;fill-rule:nonzero;stroke:none;stroke-width:3.85054;stroke-linecap:butt;stroke-linejoin:miter;stroke-miterlimit:10;stroke-dasharray:15.4021, 15.40210000000000079;stroke-dashoffset:0;stroke-opacity:1;color-rendering:auto;image-rendering:auto;shape-rendering:auto;text-rendering:auto;enable-background:accumulate;stop-color:#000000;stop-opacity:1;opacity:1" />


        </g><g
   transform="matrix(0.35330346,-0.04447755,0.04447755,0.35330346,653.32616,347.11304)"
   id="g4440"
   style="fill:none;stroke:#323343;stroke-width:3.85054;stroke-miterlimit:10;stroke-dasharray:15.4021, 15.4021;stroke-dashoffset:0;stroke-opacity:1">
            <path
   style="color:#000000;font-style:normal;font-variant:normal;font-weight:normal;font-stretch:normal;font-size:medium;line-height:normal;font-family:sans-serif;font-variant-ligatures:normal;font-variant-position:normal;font-variant-caps:normal;font-variant-numeric:normal;font-variant-alternates:normal;font-variant-east-asian:normal;font-feature-settings:normal;font-variation-settings:normal;text-indent:0;text-align:start;text-decoration:none;text-decoration-line:none;text-decoration-style:solid;text-decoration-color:#000000;letter-spacing:normal;word-spacing:normal;text-transform:none;writing-mode:lr-tb;direction:ltr;text-orientation:mixed;dominant-baseline:auto;baseline-shift:baseline;text-anchor:start;white-space:normal;shape-padding:0;shape-margin:0;inline-size:0;clip-rule:nonzero;display:inline;overflow:visible;visibility:visible;opacity:1;isolation:auto;mix-blend-mode:normal;color-interpolation:sRGB;color-interpolation-filters:linearRGB;solid-color:#000000;solid-opacity:1;vector-effect:none;fill:#323343;fill-opacity:1;fill-rule:nonzero;stroke:none;stroke-width:3.85054;stroke-linecap:butt;stroke-linejoin:miter;stroke-miterlimit:10;stroke-dasharray:15.4021, 15.4021;stroke-dashoffset:0;stroke-opacity:1;color-rendering:auto;image-rendering:auto;shape-rendering:auto;text-rendering:auto;enable-background:accumulate;stop-color:#000000;stop-opacity:1"
   d="M 35.964844,1.2382812 C 30.578091,1.7470124 25.315947,3.409712 20.615234,6.0898438 l 1.90625,3.34375 C 26.742333,7.0270586 31.488731,5.527166 36.326172,5.0703125 Z m 15.982422,1.8105469 -1.21875,3.6523438 c 4.608671,1.5379101 8.892623,4.0734201 12.470703,7.3652341 l 2.607422,-2.833984 C 61.827695,7.5718137 57.080717,4.7618569 51.947266,3.0488281 Z M 8.5878906,16.771484 C 5.3716948,21.120278 3.0909525,26.142946 1.9433594,31.431641 l 3.7636718,0.816406 c 1.0302735,-4.748026 3.0884142,-9.279636 5.9785158,-13.1875 z m 66.5507814,7.564454 -3.53125,1.535156 c 1.88567,4.336352 2.856137,9.078037 2.851562,13.8125 l 1.925782,0.002 -1.925782,0.002 c 0.005,4.863175 -1.018809,9.731773 -3.005859,14.164062 l 3.511719,1.576172 c 2.214402,-4.93942 3.35072,-10.335627 3.345703,-15.740234 -10e-7,-6.49e-4 10e-7,-0.0013 0,-0.002 0,-6.49e-4 -10e-7,-0.0013 0,-0.002 0.0046,-5.260929 -1.070616,-10.515528 -3.171875,-15.347656 z M 5.6269531,46.744141 1.8554688,47.517578 c 1.0877208,5.301561 3.3127223,10.350227 6.4804687,14.734375 L 11.457031,59.998047 C 8.6105285,56.058498 6.6033681,51.503196 5.6269531,46.744141 Z M 62.914062,65.564453 c -3.61402,3.252139 -7.927118,5.738116 -12.552734,7.224609 l 1.179688,3.666016 c 5.152227,-1.655726 9.928044,-4.41253 13.947265,-8.029297 z M 22.1875,69.742188 20.244141,73.066406 c 4.670402,2.732122 9.911933,4.454946 15.292968,5.023438 l 0.404297,-3.830078 C 31.109544,73.749293 26.38145,72.195591 22.1875,69.742188 Z"
   id="path4438" />


        </g></g>


    <g
   id="Layer1">
    </g>


    


<rect
   ry="2.6880975"
   rx="0.72103328"
   y="1.182134"
   x="21.422361"
   height="12.492765"
   width="7.3282523"
   id="rect1642"
   style="fill:#ffffff;fill-opacity:1;stroke:#13141a;stroke-width:0.445846;stroke-miterlimit:10;stroke-dasharray:none;stroke-opacity:1" />
</svg>
