<?xml version="1.0" encoding="UTF-8" standalone="no"?>
<svg
   inkscape:version="1.3 (0e150ed6c4, 2023-07-21)"
   sodipodi:docname="BigSmorph.svg"
   id="svg136"
   style="clip-rule:evenodd;fill-rule:evenodd"
   xml:space="preserve"
   version="1.1"
   viewBox="0 0 165 380"
   height="380"
   width="165"
   xmlns:inkscape="http://www.inkscape.org/namespaces/inkscape"
   xmlns:sodipodi="http://sodipodi.sourceforge.net/DTD/sodipodi-0.dtd"
   xmlns="http://www.w3.org/2000/svg"
   xmlns:svg="http://www.w3.org/2000/svg"
   xmlns:rdf="http://www.w3.org/1999/02/22-rdf-syntax-ns#"
   xmlns:cc="http://creativecommons.org/ns#"
   xmlns:dc="http://purl.org/dc/elements/1.1/"
   xmlns:serif="http://www.serif.com/"><metadata
   id="metadata142"><rdf:RDF><cc:Work
       rdf:about=""><dc:format>image/svg+xml</dc:format><dc:type
         rdf:resource="http://purl.org/dc/dcmitype/StillImage" /><dc:title /></cc:Work></rdf:RDF></metadata><defs
   id="defs140"><linearGradient
     id="bg"
     x1="60"
     y1="0"
     x2="60"
     y2="380"
     gradientUnits="userSpaceOnUse"
     gradientTransform="scale(1.1,1)">&#10;      <stop
   offset="0"
   stop-color="#2a2a2b"
   id="stop1" />&#10;      <stop
   offset="1"
   stop-color="#171717"
   id="stop2" />&#10;    </linearGradient></defs><sodipodi:namedview
   inkscape:snap-global="false"
   inkscape:document-rotation="0"
   inkscape:current-layer="layer2"
   inkscape:window-maximized="0"
   inkscape:window-y="0"
   inkscape:window-x="1665"
   inkscape:cy="184.96822"
   inkscape:cx="136.05932"
   inkscape:zoom="2.4842106"
   showgrid="false"
   id="namedview138"
   inkscape:window-height="2081"
   inkscape:window-width="2047"
   inkscape:pageshadow="2"
   inkscape:pageopacity="0"
   guidetolerance="10"
   gridtolerance="10"
   objecttolerance="10"
   borderopacity="1"
   bordercolor="#666666"
   pagecolor="#ffffff"
   inkscape:pagecheckerboard="0"
   inkscape:showpageshadow="2"
   inkscape:deskcolor="#d1d1d1"><inkscape:grid
     id="grid1070"
     type="xygrid"
     originx="0"
     originy="0"
     spacingy="1"
     spacingx="1"
     units="px"
     visible="false" /></sodipodi:namedview>&#10;    <g
   style="display:inline;mix-blend-mode:normal"
   inkscape:label="Layer 2"
   id="layer2"
   inkscape:groupmode="layer"><rect
     id="panel"
     style="clip-rule:evenodd;display:inline;mix-blend-mode:normal;fill:url(#bg);fill-rule:evenodd;stroke-width:1.04881"
     x="0"
     y="0"
     width="165"
     height="380" /><g
     id="text996-7"
     style="font-style:normal;font-variant:normal;font-weight:normal;font-stretch:normal;font-size:25.7308px;line-height:1.25;font-family:'DejaVu Math TeX Gyre';-inkscape-font-specification:'DejaVu Math TeX Gyre';letter-spacing:0px;word-spacing:0px;display:inline;fill:#ededed;fill-opacity:1;stroke:none;stroke-width:1.60817;enable-background:new"
     aria-label="dBiz"
     transform="matrix(1,0,0,0.93080764,-22.029754,26.915314)"><path
       id="path1000-8"
       style="font-style:normal;font-variant:normal;font-weight:normal;font-stretch:normal;font-family:'High Volume';-inkscape-font-specification:'High Volume';fill:#ededed;fill-opacity:1;stroke-width:1.60817"
       d="m 82.106012,375.2778 v -6.4327 h -0.804087 v 6.4327 z m -4.020436,2.41226 -1.608174,-1.60817 v -8.04087 l 1.608174,-1.60818 h 4.020436 v -4.82452 h 4.824524 v 16.08174 z"
       inkscape:connector-curvature="0" /><path
       id="path1002-9"
       style="font-style:normal;font-variant:normal;font-weight:normal;font-stretch:normal;font-family:'High Volume';-inkscape-font-specification:'High Volume';fill:#ededed;fill-opacity:1;stroke-width:1.60817"
       d="m 94.971408,368.04102 v -3.21635 h -0.804087 v 3.21635 z m -6.432698,9.64904 v -4.82452 h -0.804087 v -11.25722 h 12.061308 l 1.608179,1.60817 v 4.82453 l -1.608179,1.60817 1.608179,1.60818 v 0.80408 h -0.40205 v 4.42248 l -0.40204,0.40205 v -3.21635 h -0.804089 v 4.02043 H 99.393888 V 368.8451 H 98.5898 v 8.84496 h -0.402043 v -5.62861 H 97.38367 v 5.62861 h -0.402044 v -7.23678 h -0.804087 v 7.23678 h -0.402044 v -4.82452 h -0.804087 v -1.60817 h -0.804087 v 3.21634 h 0.804087 v 3.21635 h -0.402044 v -1.60817 h -0.804087 v 1.60817 h -0.402043 v -1.60817 h -0.804088 v 1.60817 h -0.402043 v -5.62861 h -0.804088 v 5.62861 h -0.402043 v -8.04087 h -0.804087 v 8.04087 h -0.402044 v -3.21635 h -0.804087 v 3.21635 z"
       inkscape:connector-curvature="0" /><path
       id="path1004-6"
       style="font-style:normal;font-variant:normal;font-weight:normal;font-stretch:normal;font-family:'High Volume';-inkscape-font-specification:'High Volume';fill:#ededed;fill-opacity:1;stroke-width:1.60817"
       d="m 102.20819,377.69006 v -11.25722 h 4.82453 v 11.25722 z m 0,-12.0613 v -4.02044 h 4.82453 v 4.02044 z"
       inkscape:connector-curvature="0" /><path
       id="path1006-2"
       style="font-style:normal;font-variant:normal;font-weight:normal;font-stretch:normal;font-family:'High Volume';-inkscape-font-specification:'High Volume';fill:#ededed;fill-opacity:1;stroke-width:1.60817"
       d="m 107.8368,377.69006 v -5.62861 l 1.60818,-1.60817 h 4.02043 v -1.60818 h -0.80408 v 0.80409 h -4.82453 v -1.60817 l 1.60818,-1.60818 h 8.84496 v 4.82453 l -1.60818,1.60817 h -4.02043 v 2.41226 h 0.80408 v -1.60817 h 4.82453 v 2.41226 l -1.60818,1.60817 z"
       inkscape:connector-curvature="0" /></g><path
     sodipodi:nodetypes="cc"
     inkscape:connector-curvature="0"
     id="path1057"
     d="M -57.035247,368.50229 H 53.680011"
     style="display:inline;fill:none;stroke:#ededed;stroke-width:1.17041px;stroke-linecap:butt;stroke-linejoin:miter;stroke-opacity:1;enable-background:new" /><path
     sodipodi:nodetypes="cc"
     inkscape:connector-curvature="0"
     id="path1057-3"
     d="M -57.035247,364.38499 H 53.680011"
     style="display:inline;fill:none;stroke:#ededed;stroke-width:3.24435;stroke-linecap:butt;stroke-linejoin:miter;stroke-miterlimit:4;stroke-dasharray:none;stroke-opacity:1;enable-background:new" /><path
     sodipodi:nodetypes="cc"
     inkscape:connector-curvature="0"
     id="path1057-5"
     d="M 98.436331,368.50229 H 203.61223"
     style="display:inline;fill:none;stroke:#ededed;stroke-width:1.17041px;stroke-linecap:butt;stroke-linejoin:miter;stroke-opacity:1;enable-background:new" /><path
     sodipodi:nodetypes="cc"
     inkscape:connector-curvature="0"
     id="path1057-3-9"
     d="M 98.436331,364.38499 H 203.61223"
     style="display:inline;fill:none;stroke:#ededed;stroke-width:3.24435;stroke-linecap:butt;stroke-linejoin:miter;stroke-miterlimit:4;stroke-dasharray:none;stroke-opacity:1;enable-background:new" /></g>&#10;    &#10;    &#10;<g
   style="display:inline"
   inkscape:label="Layer 1"
   id="layer1"
   inkscape:groupmode="layer"><g
     style="clip-rule:evenodd;fill:#e7e7e7;fill-opacity:1;fill-rule:evenodd"
     serif:id="Layer 4"
     id="Layer-4">&#10;        &#10;    </g><path
     inkscape:connector-curvature="0"
     style="clip-rule:evenodd;display:inline;fill:none;fill-rule:nonzero;stroke:#ededed;stroke-width:1.0396px;stroke-opacity:1"
     d="M 16.286933,75.976961 C 10.062428,72.960751 6.6950955,66.00853 8.1870225,59.254589 9.6789485,52.501335 15.661109,47.614538 22.576842,47.50094 c 6.915733,-0.113598 13.055554,4.572852 14.768481,11.27447 1.713615,6.700928 -1.423078,13.759864 -7.545,16.979173"
     id="path1595" /><path
     inkscape:connector-curvature="0"
     style="clip-rule:evenodd;display:inline;fill:none;fill-rule:nonzero;stroke:#ededed;stroke-width:1.0396px;stroke-opacity:1"
     d="m 46.555712,75.976961 c -6.224504,-3.01621 -9.591837,-9.968431 -8.099911,-16.722372 1.491926,-6.753254 7.474087,-11.640051 14.38982,-11.753649 6.915734,-0.113598 13.055556,4.572852 14.768487,11.27447 1.713608,6.700928 -1.423083,13.759864 -7.545005,16.979173"
     id="path1595-5" /><path
     inkscape:connector-curvature="0"
     style="clip-rule:evenodd;display:inline;fill:none;fill-rule:nonzero;stroke:#ededed;stroke-width:1.0396px;stroke-opacity:1"
     d="M 76.129803,75.976961 C 69.905295,72.960751 66.53796,66.00853 68.02989,59.254589 69.521819,52.501335 75.50398,47.614538 82.41971,47.50094 c 6.91573,-0.113598 13.055558,4.572852 14.768489,11.27447 1.7136,6.700928 -1.42309,13.759864 -7.545007,16.979173"
     id="path1595-5-6" /><path
     inkscape:connector-curvature="0"
     style="clip-rule:evenodd;display:inline;fill:none;fill-rule:nonzero;stroke:#ededed;stroke-width:1.0396px;stroke-opacity:1"
     d="M 16.286933,109.27028 C 10.062428,106.25408 6.6950955,99.301852 8.1870225,92.547911 9.6789485,85.794651 15.661109,80.907854 22.576842,80.79426 c 6.915733,-0.11429 13.055554,4.572849 14.768481,11.274472 1.713615,6.700927 -1.423078,13.759858 -7.545,16.979168"
     id="path1595-2" /><path
     inkscape:connector-curvature="0"
     style="clip-rule:evenodd;display:inline;fill:none;fill-rule:nonzero;stroke:#ededed;stroke-width:1.0396px;stroke-opacity:1"
     d="m 46.555712,109.27028 c -6.224504,-3.0162 -9.591837,-9.968428 -8.099911,-16.722369 1.491926,-6.75326 7.474087,-11.640057 14.38982,-11.753651 6.915734,-0.11429 13.055556,4.572849 14.768487,11.274472 1.713608,6.700927 -1.423083,13.759858 -7.545005,16.979168"
     id="path1595-5-2" /><path
     inkscape:connector-curvature="0"
     style="clip-rule:evenodd;display:inline;fill:none;fill-rule:nonzero;stroke:#ededed;stroke-width:1.0396px;stroke-opacity:1"
     d="m 76.129803,109.27028 c -6.224508,-3.0162 -9.591843,-9.968428 -8.099913,-16.722369 1.491929,-6.75326 7.47409,-11.640057 14.38982,-11.753651 6.91573,-0.11429 13.055558,4.572849 14.768489,11.274472 1.7136,6.700927 -1.42309,13.759858 -7.545007,16.979168"
     id="path1595-5-6-2" /><path
     inkscape:connector-curvature="0"
     style="clip-rule:evenodd;display:inline;fill:none;fill-rule:nonzero;stroke:#ededed;stroke-width:1.0396px;stroke-opacity:1"
     d="m 16.286933,141.98681 c -6.224505,-3.01621 -9.5918375,-9.96843 -8.0999105,-16.72237 1.491926,-6.75326 7.4740865,-11.64006 14.3898195,-11.75365 6.915733,-0.11429 13.055554,4.57285 14.768481,11.27447 1.713615,6.70093 -1.423078,13.75986 -7.545,16.97917"
     id="path1595-58" /><path
     inkscape:connector-curvature="0"
     style="clip-rule:evenodd;display:inline;fill:none;fill-rule:nonzero;stroke:#ededed;stroke-width:1.0396px;stroke-opacity:1"
     d="m 46.555712,141.98681 c -6.224504,-3.01621 -9.591837,-9.96843 -8.099911,-16.72237 1.491926,-6.75326 7.474087,-11.64006 14.38982,-11.75365 6.915734,-0.11429 13.055556,4.57285 14.768487,11.27447 1.713608,6.70093 -1.423083,13.75986 -7.545005,16.97917"
     id="path1595-5-61" /><path
     inkscape:connector-curvature="0"
     style="clip-rule:evenodd;display:inline;fill:none;fill-rule:nonzero;stroke:#ededed;stroke-width:1.0396px;stroke-opacity:1"
     d="m 76.129803,141.98681 c -6.224508,-3.01621 -9.591843,-9.96843 -8.099913,-16.72237 1.491929,-6.75326 7.47409,-11.64006 14.38982,-11.75365 6.91573,-0.11429 13.055558,4.57285 14.768489,11.27447 1.7136,6.70093 -1.42309,13.75986 -7.545007,16.97917"
     id="path1595-5-6-8" /><path
     inkscape:connector-curvature="0"
     style="clip-rule:evenodd;display:inline;fill:none;fill-rule:nonzero;stroke:#ededed;stroke-width:1.0396px;stroke-opacity:1"
     d="m 16.286933,174.98798 c -6.224505,-3.01621 -9.5918375,-9.96843 -8.0999105,-16.72237 1.491926,-6.75326 7.4740865,-11.64006 14.3898195,-11.75365 6.915733,-0.11429 13.055554,4.57285 14.768481,11.27447 1.713615,6.70093 -1.423078,13.75986 -7.545,16.97917"
     id="path1595-2-9" /><path
     inkscape:connector-curvature="0"
     style="clip-rule:evenodd;display:inline;fill:none;fill-rule:nonzero;stroke:#ededed;stroke-width:1.40491px;stroke-opacity:1"
     d="M 23.126782,63.470698 V 294.1414"
     id="path1702"
     sodipodi:nodetypes="cc" /><path
     inkscape:connector-curvature="0"
     style="clip-rule:evenodd;display:inline;fill:none;fill-rule:nonzero;stroke:#ededed;stroke-width:1.0396px;stroke-opacity:1"
     d="m 46.555712,174.98798 c -6.224504,-3.01621 -9.591837,-9.96843 -8.099911,-16.72237 1.491926,-6.75326 7.474087,-11.64006 14.38982,-11.75365 6.915734,-0.11429 13.055556,4.57285 14.768487,11.27447 1.713608,6.70093 -1.423083,13.75986 -7.545005,16.97917"
     id="path1595-5-2-9" /><path
     inkscape:connector-curvature="0"
     style="clip-rule:evenodd;display:inline;fill:none;fill-rule:nonzero;stroke:#ededed;stroke-width:1.40491px;stroke-opacity:1"
     d="M 52.250889,62.616514 V 293.28722"
     id="path1702-4"
     sodipodi:nodetypes="cc" /><path
     inkscape:connector-curvature="0"
     style="clip-rule:evenodd;display:inline;fill:none;fill-rule:nonzero;stroke:#ededed;stroke-width:1.0396px;stroke-opacity:1"
     d="m 76.129803,174.98798 c -6.224508,-3.01621 -9.591843,-9.96843 -8.099913,-16.72237 1.491929,-6.75326 7.47409,-11.64006 14.38982,-11.75365 6.91573,-0.11429 13.055558,4.57285 14.768489,11.27447 1.7136,6.70093 -1.42309,13.75986 -7.545007,16.97917"
     id="path1595-5-6-2-4" /><path
     inkscape:connector-curvature="0"
     style="clip-rule:evenodd;display:inline;fill:none;fill-rule:nonzero;stroke:#ededed;stroke-width:1.40491px;stroke-opacity:1"
     d="M 82.109619,62.616514 V 293.28722"
     id="path1702-4-9"
     sodipodi:nodetypes="cc" /><path
     inkscape:connector-curvature="0"
     style="clip-rule:evenodd;display:inline;fill:none;fill-rule:nonzero;stroke:#ededed;stroke-width:1.06071px;stroke-opacity:1"
     d="M 31.093829,41.77455 C 24.742942,38.696396 21.30724,31.603718 22.829457,24.712644 24.351675,17.82157 30.455298,12.836253 37.511449,12.719645 44.5676,12.60374 50.832085,17.386049 52.580493,24.223034 54.328198,31.060721 51.127818,38.26228 44.881597,41.547657"
     id="path1595-0" /><path
     inkscape:connector-curvature="0"
     style="clip-rule:evenodd;display:inline;fill:none;fill-rule:nonzero;stroke:#ededed;stroke-width:1.06071px;stroke-opacity:1"
     d="M 61.563739,41.77455 C 55.212852,38.696396 51.777149,31.603718 53.299367,24.712644 54.821585,17.82157 60.925208,12.836253 67.981379,12.719645 75.03753,12.60374 81.302015,17.386049 83.04972,24.223034 84.798128,31.060721 81.597748,38.26228 75.351527,41.547657"
     id="path1595-5-0" /><path
     inkscape:connector-curvature="0"
     style="clip-rule:evenodd;display:inline;fill:none;fill-rule:nonzero;stroke:#ededed;stroke-width:1.50325px;stroke-opacity:1"
     d="m 18.481816,320.52754 h 70.39573"
     id="path6500" /><g
     style="clip-rule:evenodd;display:inline;fill:#f5f4f3;fill-opacity:1;fill-rule:evenodd"
     id="g74"
     transform="matrix(0.37237579,0,0,0.37237579,9.9454435,22.696895)"><g
       style="fill:#f5f4f3;fill-opacity:1"
       id="g40"
       transform="matrix(12,0,0,12,12.302,49.7412)"><path
         inkscape:connector-curvature="0"
         id="path38"
         style="fill:#f5f4f3;fill-opacity:1;fill-rule:nonzero"
         d="m 0.06,0 v -0.81 h 0.126 l 0.166,0.389 V -0.81 H 0.5 V 0 H 0.379 L 0.212,-0.419 V 0 Z" /></g><g
       style="fill:#f5f4f3;fill-opacity:1"
       id="g44"
       transform="matrix(12,0,0,12,19.0168,49.7412)"><path
         inkscape:connector-curvature="0"
         id="path42"
         style="fill:#f5f4f3;fill-opacity:1;fill-rule:nonzero"
         d="M 0.292,0.011 C 0.247,0.011 0.209,0.005 0.177,-0.007 0.145,-0.018 0.12,-0.036 0.101,-0.06 0.083,-0.083 0.069,-0.111 0.061,-0.143 0.052,-0.175 0.048,-0.213 0.048,-0.256 v -0.299 c 0,-0.043 0.004,-0.081 0.013,-0.113 0.008,-0.031 0.022,-0.059 0.04,-0.082 0.019,-0.024 0.044,-0.042 0.076,-0.053 0.032,-0.012 0.07,-0.018 0.115,-0.018 0.088,0 0.15,0.023 0.188,0.067 0.038,0.045 0.057,0.111 0.057,0.199 v 0.299 c 0,0.088 -0.019,0.155 -0.057,0.2 -0.038,0.045 -0.1,0.067 -0.188,0.067 z M 0.264,-0.121 c 0.008,0.004 0.017,0.006 0.028,0.006 0.011,0 0.02,-0.002 0.028,-0.006 0.008,-0.004 0.014,-0.008 0.018,-0.014 0.004,-0.006 0.007,-0.013 0.01,-0.022 0.002,-0.009 0.004,-0.018 0.005,-0.026 0,-0.008 0.001,-0.017 0.001,-0.028 V -0.6 C 0.354,-0.61 0.353,-0.62 0.353,-0.628 0.352,-0.636 0.35,-0.644 0.348,-0.653 0.345,-0.662 0.342,-0.669 0.338,-0.675 0.334,-0.68 0.328,-0.685 0.32,-0.689 0.312,-0.692 0.303,-0.694 0.292,-0.694 c -0.011,0 -0.02,0.002 -0.028,0.005 C 0.257,-0.685 0.251,-0.68 0.247,-0.675 0.242,-0.67 0.239,-0.662 0.237,-0.653 0.235,-0.644 0.233,-0.635 0.233,-0.628 0.232,-0.62 0.232,-0.611 0.232,-0.6 v 0.389 c 0,0.011 0,0.02 0.001,0.028 0,0.008 0.002,0.016 0.004,0.026 0.002,0.009 0.005,0.016 0.01,0.022 0.004,0.005 0.01,0.01 0.017,0.014 z" /></g><g
       style="fill:#f5f4f3;fill-opacity:1"
       id="g48"
       transform="matrix(12,0,0,12,26.0363,49.7412)"><path
         inkscape:connector-curvature="0"
         id="path46"
         style="fill:#f5f4f3;fill-opacity:1;fill-rule:nonzero"
         d="M 0.134,0 V -0.677 H 0.01 V -0.81 h 0.427 v 0.133 H 0.313 V 0 Z" /></g><g
       style="fill:#f5f4f3;fill-opacity:1"
       id="g52"
       transform="matrix(12,0,0,12,31.3918,49.7412)"><path
         inkscape:connector-curvature="0"
         id="path50"
         style="fill:#f5f4f3;fill-opacity:1;fill-rule:nonzero"
         d="m 0.06,0 v -0.81 h 0.363 v 0.122 H 0.238 v 0.201 h 0.141 v 0.124 H 0.238 v 0.242 H 0.425 V 0 Z" /></g><g
       style="fill:#f5f4f3;fill-opacity:1"
       id="g56"
       transform="matrix(12,0,0,12,9.21994,61.7412)"><path
         inkscape:connector-curvature="0"
         id="path54"
         style="fill:#f5f4f3;fill-opacity:1;fill-rule:nonzero"
         d="m 0.238,-0.465 h 0.046 c 0.037,0 0.062,-0.01 0.077,-0.029 0.015,-0.019 0.023,-0.047 0.023,-0.085 0,-0.038 -0.007,-0.065 -0.02,-0.083 C 0.35,-0.68 0.327,-0.689 0.293,-0.689 H 0.238 Z M 0.06,0 v -0.81 h 0.22 c 0.034,0 0.065,0.002 0.091,0.006 0.026,0.004 0.051,0.011 0.074,0.021 0.023,0.01 0.042,0.022 0.057,0.038 0.015,0.016 0.027,0.037 0.036,0.062 0.008,0.025 0.012,0.054 0.012,0.088 0,0.053 -0.007,0.095 -0.021,0.128 -0.015,0.032 -0.04,0.057 -0.078,0.075 L 0.563,0 H 0.377 L 0.289,-0.362 H 0.238 V 0 Z" /></g><g
       style="fill:#f5f4f3;fill-opacity:1"
       id="g60"
       transform="matrix(12,0,0,12,16.3918,61.7412)"><path
         inkscape:connector-curvature="0"
         id="path58"
         style="fill:#f5f4f3;fill-opacity:1;fill-rule:nonzero"
         d="M 0.233,-0.279 H 0.32 L 0.276,-0.592 Z M 0.021,0 0.174,-0.81 H 0.376 L 0.529,0 H 0.364 L 0.336,-0.172 H 0.218 L 0.19,0 Z" /></g><g
       style="fill:#f5f4f3;fill-opacity:1"
       id="g64"
       transform="matrix(12,0,0,12,22.9953,61.7412)"><path
         inkscape:connector-curvature="0"
         id="path62"
         style="fill:#f5f4f3;fill-opacity:1;fill-rule:nonzero"
         d="m 0.06,0 v -0.81 h 0.126 l 0.166,0.389 V -0.81 H 0.5 V 0 H 0.379 L 0.212,-0.419 V 0 Z" /></g><g
       style="fill:#f5f4f3;fill-opacity:1"
       id="g68"
       transform="matrix(12,0,0,12,29.7102,61.7412)"><path
         inkscape:connector-curvature="0"
         id="path66"
         style="fill:#f5f4f3;fill-opacity:1;fill-rule:nonzero"
         d="M 0.271,0.012 C 0.23,0.012 0.195,0.005 0.166,-0.008 0.137,-0.021 0.114,-0.041 0.097,-0.066 0.08,-0.091 0.067,-0.121 0.06,-0.154 0.052,-0.187 0.048,-0.225 0.048,-0.269 v -0.269 c 0,-0.036 0.003,-0.068 0.008,-0.096 0.005,-0.029 0.013,-0.055 0.025,-0.078 0.011,-0.024 0.026,-0.044 0.045,-0.059 0.019,-0.016 0.042,-0.028 0.069,-0.037 0.028,-0.008 0.06,-0.013 0.097,-0.013 0.035,0 0.066,0.004 0.093,0.011 0.027,0.008 0.049,0.018 0.067,0.032 0.018,0.013 0.033,0.03 0.045,0.05 0.011,0.02 0.019,0.042 0.024,0.065 0.005,0.024 0.007,0.05 0.007,0.08 v 0.051 H 0.354 V -0.597 C 0.354,-0.61 0.353,-0.62 0.353,-0.627 0.352,-0.635 0.351,-0.644 0.349,-0.653 0.347,-0.663 0.344,-0.67 0.34,-0.675 0.336,-0.681 0.33,-0.685 0.322,-0.689 0.314,-0.692 0.305,-0.694 0.294,-0.694 c -0.011,0 -0.021,0.002 -0.029,0.006 -0.008,0.004 -0.014,0.009 -0.018,0.015 -0.005,0.006 -0.008,0.014 -0.01,0.025 -0.003,0.01 -0.004,0.019 -0.005,0.027 0,0.008 -0.001,0.019 -0.001,0.031 v 0.37 c 0,0.032 0.005,0.058 0.015,0.077 0.009,0.018 0.027,0.028 0.052,0.028 0.047,0 0.071,-0.036 0.071,-0.108 V -0.314 H 0.295 V -0.421 H 0.53 V 0 H 0.412 L 0.401,-0.068 c -0.023,0.053 -0.067,0.08 -0.13,0.08 z" /></g><g
       style="fill:#f5f4f3;fill-opacity:1"
       id="g72"
       transform="matrix(12,0,0,12,36.6828,61.7412)"><path
         inkscape:connector-curvature="0"
         id="path70"
         style="fill:#f5f4f3;fill-opacity:1;fill-rule:nonzero"
         d="m 0.06,0 v -0.81 h 0.363 v 0.122 H 0.238 v 0.201 h 0.141 v 0.124 H 0.238 v 0.242 H 0.425 V 0 Z" /></g></g><path
     id="path2990"
     d="m 16.286933,207.97693 c -6.224505,-3.0162 -9.5918375,-9.96842 -8.0999105,-16.72237 1.491926,-6.75325 7.4740865,-11.64005 14.3898195,-11.75364 6.915733,-0.1136 13.055554,4.57285 14.768481,11.27447 1.713615,6.70092 -1.423078,13.75985 -7.545,16.97917"
     style="clip-rule:evenodd;display:inline;fill:none;fill-rule:nonzero;stroke:#ededed;stroke-width:1.0396px;stroke-opacity:1"
     inkscape:connector-curvature="0" /><path
     id="path2992"
     d="m 46.555712,207.97693 c -6.224504,-3.0162 -9.591837,-9.96842 -8.099911,-16.72237 1.491926,-6.75325 7.474087,-11.64005 14.38982,-11.75364 6.915734,-0.1136 13.055556,4.57285 14.768487,11.27447 1.713608,6.70092 -1.423083,13.75985 -7.545005,16.97917"
     style="clip-rule:evenodd;display:inline;fill:none;fill-rule:nonzero;stroke:#ededed;stroke-width:1.0396px;stroke-opacity:1"
     inkscape:connector-curvature="0" /><path
     id="path2994"
     d="m 76.129803,207.97693 c -6.224508,-3.0162 -9.591843,-9.96842 -8.099913,-16.72237 1.491929,-6.75325 7.47409,-11.64005 14.38982,-11.75364 6.91573,-0.1136 13.055558,4.57285 14.768489,11.27447 1.7136,6.70092 -1.42309,13.75985 -7.545007,16.97917"
     style="clip-rule:evenodd;display:inline;fill:none;fill-rule:nonzero;stroke:#ededed;stroke-width:1.0396px;stroke-opacity:1"
     inkscape:connector-curvature="0" /><path
     id="path2996"
     d="m 16.286933,241.27025 c -6.224505,-3.0162 -9.5918375,-9.96842 -8.0999105,-16.72236 1.491926,-6.75326 7.4740865,-11.64006 14.3898195,-11.75366 6.915733,-0.11428 13.055554,4.57285 14.768481,11.27448 1.713615,6.70092 -1.423078,13.75986 -7.545,16.97917"
     style="clip-rule:evenodd;display:inline;fill:none;fill-rule:nonzero;stroke:#ededed;stroke-width:1.0396px;stroke-opacity:1"
     inkscape:connector-curvature="0" /><path
     id="path2998"
     d="m 46.555712,241.27025 c -6.224504,-3.0162 -9.591837,-9.96842 -8.099911,-16.72236 1.491926,-6.75326 7.474087,-11.64006 14.38982,-11.75366 6.915734,-0.11428 13.055556,4.57285 14.768487,11.27448 1.713608,6.70092 -1.423083,13.75986 -7.545005,16.97917"
     style="clip-rule:evenodd;display:inline;fill:none;fill-rule:nonzero;stroke:#ededed;stroke-width:1.0396px;stroke-opacity:1"
     inkscape:connector-curvature="0" /><path
     id="path3000"
     d="m 76.129803,241.27025 c -6.224508,-3.0162 -9.591843,-9.96842 -8.099913,-16.72236 1.491929,-6.75326 7.47409,-11.64006 14.38982,-11.75366 6.91573,-0.11428 13.055558,4.57285 14.768489,11.27448 1.7136,6.70092 -1.42309,13.75986 -7.545007,16.97917"
     style="clip-rule:evenodd;display:inline;fill:none;fill-rule:nonzero;stroke:#ededed;stroke-width:1.0396px;stroke-opacity:1"
     inkscape:connector-curvature="0" /><path
     id="path3002"
     d="m 16.286933,273.98678 c -6.224505,-3.0162 -9.5918375,-9.96842 -8.0999105,-16.72237 1.491926,-6.75326 7.4740865,-11.64005 14.3898195,-11.75365 6.915733,-0.11429 13.055554,4.57285 14.768481,11.27448 1.713615,6.70092 -1.423078,13.75985 -7.545,16.97917"
     style="clip-rule:evenodd;display:inline;fill:none;fill-rule:nonzero;stroke:#ededed;stroke-width:1.0396px;stroke-opacity:1"
     inkscape:connector-curvature="0" /><path
     id="path3004"
     d="m 46.555712,273.98678 c -6.224504,-3.0162 -9.591837,-9.96842 -8.099911,-16.72237 1.491926,-6.75326 7.474087,-11.64005 14.38982,-11.75365 6.915734,-0.11429 13.055556,4.57285 14.768487,11.27448 1.713608,6.70092 -1.423083,13.75985 -7.545005,16.97917"
     style="clip-rule:evenodd;display:inline;fill:none;fill-rule:nonzero;stroke:#ededed;stroke-width:1.0396px;stroke-opacity:1"
     inkscape:connector-curvature="0" /><path
     id="path3006"
     d="m 76.129803,273.98678 c -6.224508,-3.0162 -9.591843,-9.96842 -8.099913,-16.72237 1.491929,-6.75326 7.47409,-11.64005 14.38982,-11.75365 6.91573,-0.11429 13.055558,4.57285 14.768489,11.27448 1.7136,6.70092 -1.42309,13.75985 -7.545007,16.97917"
     style="clip-rule:evenodd;display:inline;fill:none;fill-rule:nonzero;stroke:#ededed;stroke-width:1.0396px;stroke-opacity:1"
     inkscape:connector-curvature="0" /><path
     id="path3008"
     d="m 16.286933,306.98795 c -6.224505,-3.0162 -9.5918375,-9.96842 -8.0999105,-16.72237 1.491926,-6.75325 7.4740865,-11.64005 14.3898195,-11.75365 6.915733,-0.11428 13.055554,4.57285 14.768481,11.27448 1.713615,6.70092 -1.423078,13.75985 -7.545,16.97917"
     style="clip-rule:evenodd;display:inline;fill:none;fill-rule:nonzero;stroke:#ededed;stroke-width:1.0396px;stroke-opacity:1"
     inkscape:connector-curvature="0" /><path
     id="path3010"
     d="m 46.555712,306.98795 c -6.224504,-3.0162 -9.591837,-9.96842 -8.099911,-16.72237 1.491926,-6.75325 7.474087,-11.64005 14.38982,-11.75365 6.915734,-0.11428 13.055556,4.57285 14.768487,11.27448 1.713608,6.70092 -1.423083,13.75985 -7.545005,16.97917"
     style="clip-rule:evenodd;display:inline;fill:none;fill-rule:nonzero;stroke:#ededed;stroke-width:1.0396px;stroke-opacity:1"
     inkscape:connector-curvature="0" /><path
     id="path3012"
     d="m 76.129803,306.98795 c -6.224508,-3.0162 -9.591843,-9.96842 -8.099913,-16.72237 1.491929,-6.75325 7.47409,-11.64005 14.38982,-11.75365 6.91573,-0.11428 13.055558,4.57285 14.768489,11.27448 1.7136,6.70092 -1.42309,13.75985 -7.545007,16.97917"
     style="clip-rule:evenodd;display:inline;fill:none;fill-rule:nonzero;stroke:#ededed;stroke-width:1.0396px;stroke-opacity:1"
     inkscape:connector-curvature="0" /><path
     id="path3014"
     d="m 107.83727,72.56856 c -4.95758,-2.402289 -7.63953,-7.939466 -6.45127,-13.318723 1.18827,-5.378704 5.95282,-9.27085 11.46094,-9.361326 5.50811,-0.09048 10.39825,3.642101 11.76253,8.979677 1.36482,5.337032 -1.13343,10.959201 -6.00931,13.523263"
     style="clip-rule:evenodd;display:inline;fill:none;fill-rule:nonzero;stroke:#ededed;stroke-width:0.827997px;stroke-opacity:1"
     inkscape:connector-curvature="0" /><path
     id="path3016"
     d="m 107.83727,105.08542 c -4.95758,-2.4023 -7.63953,-7.939484 -6.45127,-13.318736 1.18827,-5.378706 5.95282,-9.270856 11.46094,-9.361332 5.50811,-0.09103 10.39825,3.642105 11.76253,8.979689 1.36482,5.337034 -1.13343,10.959199 -6.00931,13.523259"
     style="clip-rule:evenodd;display:inline;fill:none;fill-rule:nonzero;stroke:#ededed;stroke-width:0.827997px;stroke-opacity:1"
     inkscape:connector-curvature="0" /><path
     sodipodi:nodetypes="cc"
     id="path3022"
     d="M 112.59996,61.927479 V 294.35544"
     style="clip-rule:evenodd;display:inline;fill:none;fill-rule:nonzero;stroke:#ededed;stroke-width:1.11895px;stroke-opacity:1"
     inkscape:connector-curvature="0" /><path
     id="path3018"
     d="m 107.83727,171.53268 c -4.95758,-2.40229 -7.63953,-7.93948 -6.45127,-13.31873 1.18827,-5.3787 5.95282,-9.27085 11.46094,-9.36132 5.50811,-0.091 10.39825,3.64209 11.76253,8.97968 1.36482,5.33703 -1.13343,10.95919 -6.00931,13.52326"
     style="clip-rule:evenodd;display:inline;fill:none;fill-rule:nonzero;stroke:#ededed;stroke-width:0.827997px;stroke-opacity:1"
     inkscape:connector-curvature="0" /><path
     id="path3020"
     d="m 107.83727,204.62193 c -4.95758,-2.4023 -7.63953,-7.93949 -6.45127,-13.31873 1.18827,-5.37871 5.95282,-9.27086 11.46094,-9.36133 5.50811,-0.091 10.39825,3.64209 11.76253,8.97967 1.36482,5.33704 -1.13343,10.95921 -6.00931,13.52326"
     style="clip-rule:evenodd;display:inline;fill:none;fill-rule:nonzero;stroke:#ededed;stroke-width:0.827997px;stroke-opacity:1"
     inkscape:connector-curvature="0" /><path
     inkscape:connector-curvature="0"
     style="clip-rule:evenodd;display:inline;fill:none;fill-rule:nonzero;stroke:#ededed;stroke-width:0.827997px;stroke-opacity:1"
     d="m 107.83727,237.70144 c -4.95758,-2.4023 -7.63953,-7.93948 -6.45127,-13.31874 1.18827,-5.37869 5.95282,-9.27084 11.46094,-9.36131 5.50811,-0.0905 10.39825,3.64209 11.76253,8.97966 1.36482,5.33704 -1.13343,10.95921 -6.00931,13.52327"
     id="path3024" /><path
     inkscape:connector-curvature="0"
     style="clip-rule:evenodd;display:inline;fill:none;fill-rule:nonzero;stroke:#ededed;stroke-width:0.827997px;stroke-opacity:1"
     d="m 107.83727,270.21828 c -4.95758,-2.4023 -7.63953,-7.93948 -6.45127,-13.31873 1.18827,-5.37871 5.95282,-9.27085 11.46094,-9.36133 5.50811,-0.091 10.39825,3.6421 11.76253,8.97968 1.36482,5.33703 -1.13343,10.9592 -6.00931,13.52326"
     id="path3026" /><path
     inkscape:connector-curvature="0"
     style="clip-rule:evenodd;display:inline;fill:none;fill-rule:nonzero;stroke:#ededed;stroke-width:0.827997px;stroke-opacity:1"
     d="m 107.83727,303.08081 c -4.95758,-2.40229 -7.63953,-7.93948 -6.45127,-13.31873 1.18827,-5.3787 5.95282,-9.27085 11.46094,-9.36132 5.50811,-0.091 10.39825,3.64209 11.76253,8.97967 1.36482,5.33703 -1.13343,10.9592 -6.00931,13.52326"
     id="path3028" /><path
     inkscape:connector-curvature="0"
     style="clip-rule:evenodd;display:inline;fill:none;fill-rule:nonzero;stroke:#ededed;stroke-width:0.827997px;stroke-opacity:1"
     d="m 107.83727,138.29303 c -4.95758,-2.4023 -7.63953,-7.93948 -6.45127,-13.31873 1.18827,-5.37871 5.95282,-9.27086 11.46094,-9.36133 5.50811,-0.091 10.39825,3.6421 11.76253,8.97968 1.36482,5.33704 -1.13343,10.95921 -6.00931,13.52326"
     id="path3030" /><path
     id="path3032"
     d="m 137.32471,74.36679 c -6.22451,-3.01621 -9.59185,-9.968431 -8.09992,-16.722372 1.49193,-6.753253 7.47409,-11.64005 14.38982,-11.753649 6.91573,-0.113598 13.05556,4.572853 14.76849,11.27447 1.71361,6.700929 -1.42308,13.759864 -7.54501,16.979174"
     style="clip-rule:evenodd;display:inline;fill:none;fill-rule:nonzero;stroke:#ededed;stroke-width:1.0396px;stroke-opacity:1"
     inkscape:connector-curvature="0" /><path
     id="path3034"
     d="m 137.32471,107.66011 c -6.22451,-3.0162 -9.59185,-9.968423 -8.09992,-16.722364 1.49193,-6.753261 7.47409,-11.640058 14.38982,-11.753651 6.91573,-0.11429 13.05556,4.572849 14.76849,11.274472 1.71361,6.700927 -1.42308,13.759863 -7.54501,16.979173"
     style="clip-rule:evenodd;display:inline;fill:none;fill-rule:nonzero;stroke:#ededed;stroke-width:1.0396px;stroke-opacity:1"
     inkscape:connector-curvature="0" /><path
     sodipodi:nodetypes="cc"
     id="path3040"
     d="M 143.30452,61.006343 V 291.67705"
     style="clip-rule:evenodd;display:inline;fill:none;fill-rule:nonzero;stroke:#ededed;stroke-width:1.40491px;stroke-opacity:1"
     inkscape:connector-curvature="0" /><path
     id="path3036"
     d="m 137.32471,140.37664 c -6.22451,-3.0162 -9.59185,-9.96843 -8.09992,-16.72237 1.49193,-6.75326 7.47409,-11.64005 14.38982,-11.75364 6.91573,-0.11429 13.05556,4.57284 14.76849,11.27446 1.71361,6.70093 -1.42308,13.75986 -7.54501,16.97918"
     style="clip-rule:evenodd;display:inline;fill:none;fill-rule:nonzero;stroke:#ededed;stroke-width:1.0396px;stroke-opacity:1"
     inkscape:connector-curvature="0" /><path
     id="path3038"
     d="m 137.32471,173.37781 c -6.22451,-3.0162 -9.59185,-9.96842 -8.09992,-16.72237 1.49193,-6.75326 7.47409,-11.64005 14.38982,-11.75365 6.91573,-0.11429 13.05556,4.57285 14.76849,11.27448 1.71361,6.70092 -1.42308,13.75985 -7.54501,16.97917"
     style="clip-rule:evenodd;display:inline;fill:none;fill-rule:nonzero;stroke:#ededed;stroke-width:1.0396px;stroke-opacity:1"
     inkscape:connector-curvature="0" /><path
     inkscape:connector-curvature="0"
     style="clip-rule:evenodd;display:inline;fill:none;fill-rule:nonzero;stroke:#ededed;stroke-width:1.0396px;stroke-opacity:1"
     d="m 137.32471,206.36677 c -6.22451,-3.01621 -9.59185,-9.96843 -8.09992,-16.72237 1.49193,-6.75325 7.47409,-11.64005 14.38982,-11.75364 6.91573,-0.11361 13.05556,4.57285 14.76849,11.27446 1.71361,6.70093 -1.42308,13.75986 -7.54501,16.97917"
     id="path3042" /><path
     inkscape:connector-curvature="0"
     style="clip-rule:evenodd;display:inline;fill:none;fill-rule:nonzero;stroke:#ededed;stroke-width:1.0396px;stroke-opacity:1"
     d="m 137.32471,239.66009 c -6.22451,-3.01621 -9.59185,-9.96843 -8.09992,-16.72237 1.49193,-6.75326 7.47409,-11.64006 14.38982,-11.75365 6.91573,-0.11429 13.05556,4.57285 14.76849,11.27447 1.71361,6.70093 -1.42308,13.75986 -7.54501,16.97917"
     id="path3044" /><path
     inkscape:connector-curvature="0"
     style="clip-rule:evenodd;display:inline;fill:none;fill-rule:nonzero;stroke:#ededed;stroke-width:1.0396px;stroke-opacity:1"
     d="m 137.32471,272.37662 c -6.22451,-3.01621 -9.59185,-9.96843 -8.09992,-16.72237 1.49193,-6.75326 7.47409,-11.64006 14.38982,-11.75365 6.91573,-0.11429 13.05556,4.57285 14.76849,11.27447 1.71361,6.70093 -1.42308,13.75986 -7.54501,16.97917"
     id="path3046" /><path
     inkscape:connector-curvature="0"
     style="clip-rule:evenodd;display:inline;fill:none;fill-rule:nonzero;stroke:#ededed;stroke-width:1.0396px;stroke-opacity:1"
     d="m 137.32471,305.37779 c -6.22451,-3.01621 -9.59185,-9.96843 -8.09992,-16.72237 1.49193,-6.75326 7.47409,-11.64006 14.38982,-11.75365 6.91573,-0.11429 13.05556,4.57285 14.76849,11.27447 1.71361,6.70093 -1.42308,13.75986 -7.54501,16.97917"
     id="path3048" /></g><g
   inkscape:label="Layer 5"
   id="layer6"
   inkscape:groupmode="layer"><g
     style="clip-rule:evenodd;display:inline;fill:#f5f4f3;fill-opacity:1;fill-rule:evenodd"
     transform="matrix(0.6561,0,0,0.47919924,-6.4968312,136.36425)"
     id="text6330-4-8"><path
       inkscape:connector-curvature="0"
       style="fill:#f5f4f3;fill-opacity:1;fill-rule:nonzero"
       d="m 162.452,365.448 c -0.233,0.195 -0.52,0.292 -0.859,0.292 -0.934,0 -1.682,-0.614 -2.243,-1.843 -0.556,-1.228 -0.834,-2.946 -0.834,-5.154 0,-2.468 0.411,-4.334 1.234,-5.596 0.534,-0.811 1.134,-1.217 1.801,-1.217 0.306,0 0.606,0.086 0.901,0.258 v 1.727 c -0.189,-0.101 -0.37,-0.151 -0.542,-0.151 -0.339,0 -0.628,0.212 -0.867,0.634 -0.412,0.734 -0.617,2.107 -0.617,4.12 0,2.124 0.136,3.536 0.408,4.237 0.278,0.695 0.645,1.042 1.101,1.042 0.172,0 0.345,-0.055 0.517,-0.167 z"
       id="path6583" /><path
       inkscape:connector-curvature="0"
       style="fill:#f5f4f3;fill-opacity:1;fill-rule:nonzero"
       d="m 162.752,352.038 h 1.877 l 0.659,7.848 0.542,-7.848 h 1.868 l -1.635,13.702 h -1.534 z"
       id="path6585" /></g><g
     style="clip-rule:evenodd;display:inline;fill:#f5f4f3;fill-opacity:1;fill-rule:evenodd"
     transform="matrix(0.55716492,0,0,0.49622808,19.716096,129.92758)"
     id="text6330-4-8-5"><path
       inkscape:connector-curvature="0"
       style="fill:#f5f4f3;fill-opacity:1;fill-rule:nonzero"
       d="m 191.428,352.038 h 0.984 c 1.151,0 2.046,0.331 2.685,0.993 0.645,0.661 0.968,1.587 0.968,2.777 0,0.672 -0.131,1.27 -0.392,1.793 -0.184,0.372 -0.47,0.728 -0.859,1.067 0.283,0.312 0.492,0.606 0.625,0.884 0.278,0.59 0.498,1.346 0.659,2.269 0.167,0.923 0.309,2.193 0.425,3.811 h -1.851 c -0.078,-2.024 -0.261,-3.508 -0.551,-4.454 -0.216,-0.711 -0.503,-1.212 -0.859,-1.501 v 5.955 h -1.834 z m 1.985,1.952 v 3.919 c 0.294,-0.128 0.525,-0.364 0.692,-0.709 0.172,-0.35 0.258,-0.767 0.258,-1.251 0,-0.506 -0.083,-0.925 -0.25,-1.259 -0.167,-0.339 -0.4,-0.573 -0.7,-0.7 z"
       id="path6576" /><path
       inkscape:connector-curvature="0"
       style="fill:#f5f4f3;fill-opacity:1;fill-rule:nonzero"
       d="m 197.124,352.038 h 3.127 v 1.801 h -1.292 v 4.287 h 1.292 v 1.768 h -1.292 v 3.953 h 1.292 v 1.785 h -3.127 z"
       id="path6578" /><path
       inkscape:connector-curvature="0"
       style="fill:#f5f4f3;fill-opacity:1;fill-rule:nonzero"
       d="m 200.518,352.038 h 1.877 l 0.658,7.848 0.542,-7.848 h 1.869 l -1.635,13.702 h -1.535 z"
       id="path6580" /></g><g
     style="clip-rule:evenodd;display:inline;fill:#f5f4f3;fill-opacity:1;fill-rule:evenodd"
     transform="matrix(0.6561,0,0,0.47919924,-52.527475,164.0724)"
     id="text6330-4-8-0"><path
       inkscape:connector-curvature="0"
       style="fill:#f5f4f3;fill-opacity:1;fill-rule:nonzero"
       d="m 230.948,365.448 c -0.233,0.195 -0.519,0.292 -0.859,0.292 -0.934,0 -1.681,-0.614 -2.243,-1.843 -0.556,-1.228 -0.834,-2.946 -0.834,-5.154 0,-2.468 0.412,-4.334 1.234,-5.596 0.534,-0.811 1.135,-1.217 1.802,-1.217 0.306,0 0.606,0.086 0.9,0.258 v 1.727 c -0.189,-0.101 -0.369,-0.151 -0.542,-0.151 -0.339,0 -0.628,0.212 -0.867,0.634 -0.411,0.734 -0.617,2.107 -0.617,4.12 0,2.124 0.136,3.536 0.409,4.237 0.278,0.695 0.644,1.042 1.1,1.042 0.173,0 0.345,-0.055 0.517,-0.167 z"
       id="path6569" /><path
       inkscape:connector-curvature="0"
       style="fill:#f5f4f3;fill-opacity:1;fill-rule:nonzero"
       d="m 231.599,352.038 h 1.835 v 11.784 h 1.067 v 1.81 h -2.902 z"
       id="path6571" /><path
       inkscape:connector-curvature="0"
       style="fill:#f5f4f3;fill-opacity:1;fill-rule:nonzero"
       d="m 235.168,352.038 h 1.835 v 5.996 c 0.217,-0.216 0.367,-0.414 0.45,-0.592 0.184,-0.394 0.32,-0.914 0.409,-1.559 0.089,-0.645 0.134,-1.543 0.134,-2.694 v -1.151 h 1.843 v 2.068 c 0,1.023 -0.128,1.957 -0.384,2.803 -0.172,0.561 -0.434,1.073 -0.784,1.534 0.367,0.389 0.653,0.954 0.859,1.693 0.206,0.739 0.309,1.899 0.309,3.478 v 2.018 h -1.843 v -1.735 c 0,-1.045 -0.05,-1.943 -0.151,-2.693 -0.094,-0.757 -0.233,-1.285 -0.417,-1.585 -0.094,-0.167 -0.236,-0.289 -0.425,-0.367 v 6.38 h -1.835 z"
       id="path6573" /></g><g
     style="clip-rule:evenodd;display:inline;fill:#f5f4f3;fill-opacity:1;fill-rule:evenodd"
     id="text6330-4-8-5-0"
     transform="matrix(0.531441,0,0,0.47132634,12.010788,193.61194)"><path
       inkscape:connector-curvature="0"
       style="fill:#f5f4f3;fill-opacity:1;fill-rule:nonzero"
       d="m 215.106,295.473 h 0.985 c 1.15,0 2.046,0.331 2.685,0.993 0.645,0.662 0.967,1.587 0.967,2.777 0,0.673 -0.13,1.27 -0.392,1.793 -0.183,0.373 -0.469,0.728 -0.859,1.068 0.284,0.311 0.492,0.606 0.626,0.884 0.278,0.589 0.497,1.345 0.659,2.268 0.167,0.923 0.308,2.193 0.425,3.811 h -1.851 c -0.078,-2.023 -0.262,-3.508 -0.551,-4.453 -0.217,-0.712 -0.503,-1.212 -0.859,-1.501 v 5.954 h -1.835 z m 1.985,1.952 v 3.92 c 0.295,-0.128 0.526,-0.364 0.693,-0.709 0.172,-0.35 0.258,-0.767 0.258,-1.251 0,-0.506 -0.083,-0.926 -0.25,-1.259 -0.167,-0.34 -0.4,-0.573 -0.701,-0.701 z"
       id="path6531" /><path
       inkscape:connector-curvature="0"
       style="fill:#f5f4f3;fill-opacity:1;fill-rule:nonzero"
       d="m 220.803,295.473 h 3.127 v 1.802 h -1.293 v 4.287 h 1.293 v 1.768 h -1.293 v 3.953 h 1.293 v 1.784 h -3.127 z"
       id="path6533" /><path
       inkscape:connector-curvature="0"
       style="fill:#f5f4f3;fill-opacity:1;fill-rule:nonzero"
       d="m 224.305,307.091 c 0.284,0.122 0.545,0.183 0.784,0.183 0.328,0 0.587,-0.105 0.776,-0.317 0.194,-0.211 0.292,-0.522 0.292,-0.934 0,-0.328 -0.036,-0.642 -0.109,-0.942 -0.139,-0.595 -0.395,-1.365 -0.767,-2.31 -0.373,-0.951 -0.648,-1.813 -0.826,-2.586 -0.1,-0.439 -0.15,-0.928 -0.15,-1.467 0,-1.168 0.225,-2.019 0.676,-2.552 0.456,-0.534 1.048,-0.801 1.776,-0.801 0.339,0 0.728,0.07 1.168,0.209 v 1.809 c -0.256,-0.122 -0.49,-0.183 -0.701,-0.183 -0.311,0 -0.575,0.128 -0.792,0.383 -0.217,0.256 -0.325,0.629 -0.325,1.118 0,0.322 0.036,0.639 0.108,0.951 0.139,0.583 0.373,1.309 0.701,2.176 0.411,1.085 0.711,2.055 0.9,2.911 0.095,0.434 0.142,0.898 0.142,1.393 0,0.978 -0.239,1.732 -0.717,2.26 -0.473,0.522 -1.065,0.784 -1.777,0.784 -0.311,0 -0.697,-0.073 -1.159,-0.217 z"
       id="path6535" /></g><g
     style="clip-rule:evenodd;display:inline;fill:#f5f4f3;fill-opacity:1;fill-rule:evenodd"
     id="text6330-4-8-5-0-2"
     transform="matrix(0.38742049,0,0,0.38742049,-55.647603,203.6735)"><path
       inkscape:connector-curvature="0"
       style="fill:#f5f4f3;fill-opacity:1;fill-rule:nonzero"
       d="m 157.062,309.067 c -0.267,0.073 -0.628,0.109 -1.084,0.109 -0.595,0 -1.062,-0.081 -1.401,-0.242 -0.473,-0.217 -0.887,-0.592 -1.243,-1.126 -0.35,-0.539 -0.634,-1.27 -0.851,-2.193 -0.211,-0.923 -0.317,-2.002 -0.317,-3.236 0,-2.185 0.312,-3.9 0.934,-5.146 0.623,-1.245 1.435,-1.868 2.436,-1.868 0.228,0 0.442,0.031 0.642,0.092 0.206,0.061 0.5,0.197 0.884,0.408 v 2.127 c -0.417,-0.534 -0.837,-0.801 -1.259,-0.801 -0.545,0 -0.971,0.412 -1.276,1.235 -0.306,0.823 -0.459,2.046 -0.459,3.669 0,1.007 0.053,1.896 0.158,2.669 0.106,0.773 0.251,1.354 0.434,1.743 0.139,0.289 0.339,0.545 0.6,0.767 v -3.219 h -0.725 v -1.768 h 2.527 z"
       id="path6520" /><path
       inkscape:connector-curvature="0"
       style="fill:#f5f4f3;fill-opacity:1;fill-rule:nonzero"
       d="m 157.821,295.473 h 1.835 v 11.785 h 1.067 v 1.809 h -2.902 z"
       id="path6522" /><rect
       style="fill:#f5f4f3;fill-opacity:1;fill-rule:nonzero"
       height="13.594"
       width="1.835"
       y="295.47299"
       x="161.349"
       id="path6524" /><path
       inkscape:connector-curvature="0"
       style="fill:#f5f4f3;fill-opacity:1;fill-rule:nonzero"
       d="m 164.059,295.473 h 0.542 c 0.689,0 1.282,0.123 1.776,0.367 0.495,0.245 0.923,0.651 1.285,1.218 0.361,0.562 0.645,1.27 0.85,2.127 0.206,0.85 0.309,1.865 0.309,3.044 0,1.206 -0.106,2.282 -0.317,3.227 -0.211,0.94 -0.52,1.699 -0.926,2.277 -0.3,0.428 -0.622,0.739 -0.967,0.934 -0.467,0.267 -1.034,0.4 -1.701,0.4 h -0.851 z m 1.835,2.277 v 9.099 c 0.2,-0.15 0.344,-0.303 0.433,-0.459 0.184,-0.322 0.326,-0.77 0.426,-1.342 0.1,-0.579 0.15,-1.518 0.15,-2.819 0,-1.068 -0.056,-1.968 -0.167,-2.702 -0.078,-0.534 -0.208,-0.962 -0.392,-1.285 -0.094,-0.172 -0.245,-0.336 -0.45,-0.492 z"
       id="path6526" /><path
       inkscape:connector-curvature="0"
       style="fill:#f5f4f3;fill-opacity:1;fill-rule:nonzero"
       d="m 169.555,295.473 h 3.127 v 1.802 h -1.292 v 4.287 h 1.292 v 1.768 h -1.292 v 3.953 h 1.292 v 1.784 h -3.127 z"
       id="path6528" /></g></g><g
   style="display:inline"
   inkscape:label="Layer 3"
   id="layer3"
   inkscape:groupmode="layer"><path
     inkscape:connector-curvature="0"
     style="clip-rule:evenodd;display:inline;fill-rule:nonzero;stroke:#ededed;stroke-width:1.11273px;stroke-opacity:1"
     d="m 88.708597,15.929923 h 63.154943 c 1.05035,0 1.8968,1.265535 1.8968,2.838357 v 19.312558 c 0,1.572822 -0.84645,2.838358 -1.8968,2.838358 H 88.708597 c -1.050351,0 -1.896166,-1.265536 -1.896166,-2.838358 V 18.76828 c 0,-1.572822 0.845815,-2.838357 1.896166,-2.838357 z"
     id="rect1627" /></g></svg>
