<?xml version="1.0" encoding="UTF-8" standalone="no"?>
<svg
   xmlns:dc="http://purl.org/dc/elements/1.1/"
   xmlns:cc="http://creativecommons.org/ns#"
   xmlns:rdf="http://www.w3.org/1999/02/22-rdf-syntax-ns#"
   xmlns:svg="http://www.w3.org/2000/svg"
   xmlns="http://www.w3.org/2000/svg"
   xmlns:sodipodi="http://sodipodi.sourceforge.net/DTD/sodipodi-0.dtd"
   xmlns:inkscape="http://www.inkscape.org/namespaces/inkscape"
   width="255"
   height="380"
   viewBox="0 0 255.00001 380.00001"
   id="svg12504"
   version="1.1"
   inkscape:version="1.0.2-2 (e86c870879, 2021-01-15)"
   sodipodi:docname="PerfMixer4.svg">
  <defs
     id="defs12506" />
  <sodipodi:namedview
     id="base"
     pagecolor="#ffffff"
     bordercolor="#666666"
     borderopacity="1.0"
     inkscape:pageopacity="0.0"
     inkscape:pageshadow="2"
     inkscape:zoom="2.1309748"
     inkscape:cx="45.90561"
     inkscape:cy="200.19532"
     inkscape:document-units="px"
     inkscape:current-layer="layer1"
     showgrid="true"
     units="px"
     inkscape:window-width="2017"
     inkscape:window-height="1298"
     inkscape:window-x="2663"
     inkscape:window-y="414"
     inkscape:window-maximized="0"
     inkscape:snap-grids="false"
     inkscape:snap-to-guides="false"
     inkscape:document-rotation="0"
     objecttolerance="10.0"
     gridtolerance="10.0"
     guidetolerance="10.0"
     inkscape:pagecheckerboard="0">
    <inkscape:grid
       type="xygrid"
       id="grid13052"
       spacingx="5.0000001"
       spacingy="5.0000001"
       empspacing="3" />
  </sodipodi:namedview>
  <metadata
     id="metadata12509">
    <rdf:RDF>
      <cc:Work
         rdf:about="">
        <dc:format>image/svg+xml</dc:format>
        <dc:type
           rdf:resource="http://purl.org/dc/dcmitype/StillImage" />
        <dc:title></dc:title>
      </cc:Work>
    </rdf:RDF>
  </metadata>
  <g
     inkscape:label="Layer 1"
     inkscape:groupmode="layer"
     id="layer1"
     transform="translate(0,-672.36215)"
     style="display:inline">
    <text
       xml:space="preserve"
       style="font-style:normal;font-weight:normal;font-size:16px;line-height:1.25;font-family:sans-serif;letter-spacing:0px;word-spacing:0px;fill:#000000;fill-opacity:1;stroke:none"
       x="53.214287"
       y="698.61212"
       id="text884" />
    <rect
       style="display:inline;fill:#1e1e1e;fill-opacity:1;fill-rule:nonzero;stroke:none;stroke-width:3.518;stroke-linecap:square;stroke-linejoin:miter;stroke-miterlimit:4;stroke-dasharray:none;stroke-dashoffset:0;stroke-opacity:1;paint-order:markers fill stroke"
       id="rect851-4"
       width="255.2625"
       height="379.99991"
       x="0.28768644"
       y="0.46653879"
       transform="translate(0,672.36215)" />
    <path
       style="display:inline;opacity:1;fill:none;stroke:#dabe8d;stroke-width:1.5;stroke-linecap:butt;stroke-linejoin:miter;stroke-miterlimit:4;stroke-dasharray:none;stroke-opacity:1;enable-background:new"
       d="M -69.220199,1040.7159 H 103.49846"
       id="path1057"
       inkscape:connector-curvature="0"
       sodipodi:nodetypes="cc" />
    <path
       style="display:inline;opacity:1;fill:none;stroke:#dabe8d;stroke-width:3.5;stroke-linecap:butt;stroke-linejoin:miter;stroke-miterlimit:4;stroke-dasharray:none;stroke-opacity:1;enable-background:new"
       d="M -69.220199,1036.5986 H 103.49846"
       id="path1057-3"
       inkscape:connector-curvature="0"
       sodipodi:nodetypes="cc" />
    <path
       style="display:inline;opacity:1;fill:none;stroke:#dabe8d;stroke-width:1.5;stroke-linecap:butt;stroke-linejoin:miter;stroke-miterlimit:4;stroke-dasharray:none;stroke-opacity:1;enable-background:new"
       d="M 153.31524,1040.7159 H 322.83953"
       id="path1057-5"
       inkscape:connector-curvature="0"
       sodipodi:nodetypes="cc" />
    <path
       style="display:inline;opacity:1;fill:none;stroke:#dabe8d;stroke-width:3.5;stroke-linecap:butt;stroke-linejoin:miter;stroke-miterlimit:4;stroke-dasharray:none;stroke-opacity:1;enable-background:new"
       d="M 153.31524,1036.5986 H 322.83953"
       id="path1057-3-9"
       inkscape:connector-curvature="0"
       sodipodi:nodetypes="cc" />
  </g>
  <g
     inkscape:groupmode="layer"
     id="layer3"
     inkscape:label="Layer 3"
     style="display:inline;opacity:1" />
  <g
     inkscape:groupmode="layer"
     id="layer4"
     inkscape:label="Layer 4"
     style="display:inline">
    <g
       transform="matrix(1.0562077,0,0,1.0562077,25.061549,-19.902632)"
       aria-label="dBiz"
       style="font-style:normal;font-variant:normal;font-weight:normal;font-stretch:normal;font-size:25.7308px;line-height:1.25;font-family:'DejaVu Math TeX Gyre';-inkscape-font-specification:'DejaVu Math TeX Gyre';letter-spacing:0px;word-spacing:0px;display:inline;fill:#dabe8d;fill-opacity:1;stroke:none;stroke-width:1.60817;enable-background:new"
       id="text996-6">
      <path
         inkscape:connector-curvature="0"
         d="m 82.106012,375.2778 v -6.4327 h -0.804087 v 6.4327 z m -4.020436,2.41226 -1.608174,-1.60817 v -8.04087 l 1.608174,-1.60818 h 4.020436 v -4.82452 h 4.824524 v 16.08174 z"
         style="font-style:normal;font-variant:normal;font-weight:normal;font-stretch:normal;font-family:'High Volume';-inkscape-font-specification:'High Volume';fill:#dabe8d;fill-opacity:1;stroke-width:1.60817"
         id="path1000-5" />
      <path
         inkscape:connector-curvature="0"
         d="m 94.971408,368.04102 v -3.21635 h -0.804087 v 3.21635 z m -6.432698,9.64904 v -4.82452 h -0.804087 v -11.25722 h 12.061308 l 1.608179,1.60817 v 4.82453 l -1.608179,1.60817 1.608179,1.60818 v 0.80408 h -0.40205 v 4.42248 l -0.40204,0.40205 v -3.21635 h -0.804089 v 4.02043 H 99.393888 V 368.8451 H 98.5898 v 8.84496 h -0.402043 v -5.62861 H 97.38367 v 5.62861 h -0.402044 v -7.23678 h -0.804087 v 7.23678 h -0.402044 v -4.82452 h -0.804087 v -1.60817 h -0.804087 v 3.21634 h 0.804087 v 3.21635 h -0.402044 v -1.60817 h -0.804087 v 1.60817 h -0.402043 v -1.60817 h -0.804088 v 1.60817 h -0.402043 v -5.62861 h -0.804088 v 5.62861 h -0.402043 v -8.04087 h -0.804087 v 8.04087 h -0.402044 v -3.21635 h -0.804087 v 3.21635 z"
         style="font-style:normal;font-variant:normal;font-weight:normal;font-stretch:normal;font-family:'High Volume';-inkscape-font-specification:'High Volume';fill:#dabe8d;fill-opacity:1;stroke-width:1.60817"
         id="path1002-4" />
      <path
         inkscape:connector-curvature="0"
         d="m 102.20819,377.69006 v -11.25722 h 4.82453 v 11.25722 z m 0,-12.0613 v -4.02044 h 4.82453 v 4.02044 z"
         style="font-style:normal;font-variant:normal;font-weight:normal;font-stretch:normal;font-family:'High Volume';-inkscape-font-specification:'High Volume';fill:#dabe8d;fill-opacity:1;stroke-width:1.60817"
         id="path1004-3" />
      <path
         inkscape:connector-curvature="0"
         d="m 107.8368,377.69006 v -5.62861 l 1.60818,-1.60817 h 4.02043 v -1.60818 h -0.80408 v 0.80409 h -4.82453 v -1.60817 l 1.60818,-1.60818 h 8.84496 v 4.82453 l -1.60818,1.60817 h -4.02043 v 2.41226 h 0.80408 v -1.60817 h 4.82453 v 2.41226 l -1.60818,1.60817 z"
         style="font-style:normal;font-variant:normal;font-weight:normal;font-stretch:normal;font-family:'High Volume';-inkscape-font-specification:'High Volume';fill:#dabe8d;fill-opacity:1;stroke-width:1.60817"
         id="path1006-2" />
    </g>
    <rect
       style="display:inline;fill:#2b2b2b;fill-opacity:1;stroke:#dabe8d;stroke-width:0.758739;stroke-linejoin:round;stroke-miterlimit:4;stroke-dasharray:none;stroke-dashoffset:0;stroke-opacity:1;paint-order:normal"
       id="rect4794-8"
       width="55.309494"
       height="176.80676"
       x="3.484128"
       y="44.871613"
       rx="7.8049212"
       ry="7.3183446" />
    <rect
       style="display:inline;fill:#2b2b2b;fill-opacity:1;stroke:#dabe8d;stroke-width:0.707868;stroke-linejoin:round;stroke-miterlimit:4;stroke-dasharray:none;stroke-dashoffset:0;stroke-opacity:1;paint-order:normal"
       id="rect4747-82"
       width="122.23763"
       height="51.473072"
       x="66.489166"
       y="261.06348"
       rx="7.5757103"
       ry="6.4396262" />
    <rect
       style="display:inline;fill:#2b2b2b;fill-opacity:1;stroke:#dabe8d;stroke-width:0.689993;stroke-linejoin:round;stroke-miterlimit:4;stroke-dasharray:none;stroke-dashoffset:0;stroke-opacity:1;paint-order:normal"
       id="rect4747-5-6"
       width="122.27538"
       height="48.891361"
       x="66.470276"
       y="312.63943"
       rx="7.5772524"
       ry="6.4869809" />
    <rect
       style="display:inline;fill:#2b2b2b;fill-opacity:1;stroke:#dabe8d;stroke-width:0.762086;stroke-linejoin:round;stroke-miterlimit:4;stroke-dasharray:none;stroke-dashoffset:0;stroke-opacity:1;paint-order:normal"
       id="rect4747-8-3"
       width="123.17662"
       height="59.087055"
       x="66.471069"
       y="11.545732"
       rx="7.5734949"
       ry="7.3945074" />
    <path
       style="display:inline;fill:#000000;fill-opacity:1;stroke:#dabe8d;stroke-width:0.657867px;stroke-linecap:butt;stroke-linejoin:miter;stroke-opacity:1"
       d="M 18.144809,55.300738 V 190.54736"
       id="path867-15"
       inkscape:connector-curvature="0" />
    <path
       style="display:inline;fill:#000000;fill-opacity:1;stroke:#dabe8d;stroke-width:0.657867px;stroke-linecap:butt;stroke-linejoin:miter;stroke-opacity:1"
       d="M 43.427989,55.231511 V 190.47814"
       id="path867-1-0"
       inkscape:connector-curvature="0" />
    <g
       aria-label="L    R"
       transform="matrix(0.87397069,0,0,0.68610076,3.6644286,9.7437383)"
       style="font-style:normal;font-weight:normal;font-size:13.5959px;line-height:1.25;font-family:sans-serif;letter-spacing:0px;word-spacing:0px;display:inline;fill:#dabe8d;fill-opacity:1;stroke:none;stroke-width:0.849746"
       id="text886-9">
      <path
         d="m 13.259529,46.403656 v -9.725613 h 1.327728 V 45.2087 h 4.394782 v 1.194956 z"
         style="font-style:normal;font-variant:normal;font-weight:normal;font-stretch:normal;font-family:'Trebuchet MS';-inkscape-font-specification:'Trebuchet MS';fill:#dabe8d;fill-opacity:1;stroke-width:0.849746"
         id="path4693-5"
         inkscape:connector-curvature="0" />
      <path
         d="m 47.925767,46.403656 -2.59571,-4.175707 q -0.444789,0 -1.407393,-0.06639 v 4.242093 h -1.327728 v -9.725613 q 0.07303,0 1.028989,-0.04647 0.962604,-0.05311 1.400754,-0.05311 3.505204,0 3.505204,2.788231 0,0.916132 -0.564284,1.653022 -0.564285,0.730251 -1.341007,0.909494 l 2.821424,4.474446 z m -4.003103,-8.530657 v 3.159994 q 0.477983,0.06639 0.929411,0.06639 1.194955,0 1.739324,-0.385042 0.544369,-0.385041 0.544369,-1.374199 0,-0.816553 -0.584201,-1.17504 -0.5842,-0.358487 -1.845543,-0.358487 -0.199159,0 -0.78336,0.06639 z"
         style="font-style:normal;font-variant:normal;font-weight:normal;font-stretch:normal;font-family:'Trebuchet MS';-inkscape-font-specification:'Trebuchet MS';fill:#dabe8d;fill-opacity:1;stroke-width:0.849746"
         id="path4695-6"
         inkscape:connector-curvature="0" />
    </g>
    <g
       aria-label="1"
       transform="matrix(1.1286375,0,0,0.88602407,0.28766861,0.46656828)"
       style="font-style:normal;font-weight:normal;font-size:13.5959px;line-height:1.25;font-family:sans-serif;letter-spacing:0px;word-spacing:0px;display:inline;fill:#dabe8d;fill-opacity:1;stroke:none;stroke-width:0.849746"
       id="text886-3-16">
      <path
         d="m 27.112643,92.945763 v -7.455197 l -1.978316,1.234787 v -1.241426 q 0.750167,-0.378403 1.593275,-1.042267 0.849746,-0.663864 1.314451,-1.261342 h 0.398319 v 9.765445 z"
         style="font-style:normal;font-variant:normal;font-weight:normal;font-stretch:normal;font-family:'Trebuchet MS';-inkscape-font-specification:'Trebuchet MS';fill:#dabe8d;fill-opacity:1;stroke-width:0.849746"
         id="path1001-6"
         inkscape:connector-curvature="0" />
    </g>
    <g
       aria-label="2"
       transform="matrix(1.1286375,0,0,0.88602407,0.28766861,0.46656828)"
       style="font-style:normal;font-weight:normal;font-size:13.5959px;line-height:1.25;font-family:sans-serif;letter-spacing:0px;word-spacing:0px;display:inline;fill:#dabe8d;fill-opacity:1;stroke:none;stroke-width:0.849746"
       id="text886-3-7-0">
      <path
         d="m 24.264665,138.09126 v -0.26554 l 3.047138,-4.66697 q 0.955964,-1.46714 0.955964,-2.48949 0,-1.34765 -1.520249,-1.34765 -0.53773,0 -1.009074,0.28547 -0.471344,0.27882 -0.68378,0.71033 l -0.856385,-0.7037 q 0.225714,-0.65058 0.882939,-1.03562 0.663865,-0.38505 1.599913,-0.38505 1.400754,0 2.190753,0.65059 0.789998,0.64395 0.789998,1.82563 0,1.09538 -1.048905,2.76167 l -2.184114,3.46538 h 3.810582 v 1.19495 z"
         style="font-style:normal;font-variant:normal;font-weight:normal;font-stretch:normal;font-family:'Trebuchet MS';-inkscape-font-specification:'Trebuchet MS';fill:#dabe8d;fill-opacity:1;stroke-width:0.849746"
         id="path998-7"
         inkscape:connector-curvature="0" />
    </g>
    <g
       aria-label="3"
       transform="matrix(1.1286375,0,0,0.88602407,0.28766861,0.46656828)"
       style="font-style:normal;font-weight:normal;font-size:13.5959px;line-height:1.25;font-family:sans-serif;letter-spacing:0px;word-spacing:0px;display:inline;fill:#dabe8d;fill-opacity:1;stroke:none;stroke-width:0.849746"
       id="text886-3-8-8">
      <path
         d="m 24.530211,182.54634 0.63731,-1.02235 q 0.650587,0.71697 1.646383,0.71697 1.845543,0 1.845543,-1.80571 0,-0.82319 -0.53773,-1.33437 -0.53773,-0.51781 -1.427308,-0.51781 H 26.58819 v -1.07546 h 0.05975 q 1.686216,0 1.686216,-1.48706 0,-1.55344 -1.586636,-1.55344 -0.863024,0 -1.374199,0.57756 l -0.59084,-0.90286 q 0.617394,-0.80327 2.064619,-0.80327 1.274619,0 2.077895,0.68378 0.803276,0.67714 0.803276,1.73932 0,0.80992 -0.451428,1.43395 -0.444789,0.62403 -1.048906,0.83647 0.83647,0.27218 1.327729,0.92941 0.497898,0.65059 0.497898,1.58 0,1.35428 -0.856385,2.09117 -0.856385,0.73689 -2.403189,0.73689 -0.650587,0 -1.274619,-0.23899 -0.624033,-0.24563 -0.989158,-0.5842 z"
         style="font-style:normal;font-variant:normal;font-weight:normal;font-stretch:normal;font-family:'Trebuchet MS';-inkscape-font-specification:'Trebuchet MS';fill:#dabe8d;fill-opacity:1;stroke-width:0.849746"
         id="path995-1"
         inkscape:connector-curvature="0" />
    </g>
    <g
       aria-label="4"
       transform="matrix(1.1286375,0,0,0.88602407,0.28766861,0.46656828)"
       style="font-style:normal;font-weight:normal;font-size:13.5959px;line-height:1.25;font-family:sans-serif;letter-spacing:0px;word-spacing:0px;display:inline;fill:#dabe8d;fill-opacity:1;stroke:none;stroke-width:0.849746"
       id="text886-3-6-0">
      <path
         d="m 29.661882,225.73344 v 2.64882 H 28.40054 v -2.64882 h -4.427975 v -0.7568 l 5.224612,-6.35982 h 0.464705 v 6.09427 h 0.98252 v 1.02235 z m -1.261342,-4.4678 -2.854617,3.44545 h 2.854617 z"
         style="font-style:normal;font-variant:normal;font-weight:normal;font-stretch:normal;font-family:'Trebuchet MS';-inkscape-font-specification:'Trebuchet MS';fill:#dabe8d;fill-opacity:1;stroke-width:0.849746"
         id="path992-4"
         inkscape:connector-curvature="0" />
    </g>
    <path
       style="display:inline;fill:none;stroke:#dabe8d;stroke-width:0.589788px;stroke-linecap:butt;stroke-linejoin:miter;stroke-opacity:1"
       d="M 73.801759,53.446926 H 182.23105"
       id="path867-5-0"
       inkscape:connector-curvature="0" />
    <path
       style="display:inline;fill:none;stroke:#dabe8d;stroke-width:0.589788px;stroke-linecap:butt;stroke-linejoin:miter;stroke-opacity:1"
       d="M 73.746259,28.099931 H 182.17555"
       id="path867-1-2-8"
       inkscape:connector-curvature="0" />
    <g
       aria-label="A"
       style="font-style:normal;font-weight:normal;font-size:8.65142px;line-height:1.25;font-family:sans-serif;letter-spacing:0px;word-spacing:0px;display:inline;fill:#dabe8d;fill-opacity:1;stroke:none;stroke-width:0.540714"
       id="text888-4"
       transform="translate(2.2786086,0.79838828)">
      <path
         d="m 59.800153,22.212293 -1.157466,3.138675 h 2.319156 z M 59.31858,21.371652 h 0.96737 l 2.403642,6.30692 h -0.887108 l -0.574509,-1.617917 h -2.842971 l -0.574509,1.617917 h -0.899781 z"
         style="fill:#dabe8d;fill-opacity:1;stroke-width:0.540714"
         id="path911-8"
         inkscape:connector-curvature="0" />
    </g>
    <g
       aria-label="B"
       style="font-style:normal;font-weight:normal;font-size:9.63123px;line-height:1.25;font-family:sans-serif;letter-spacing:0px;word-spacing:0px;display:inline;fill:#dabe8d;fill-opacity:1;stroke:none;stroke-width:0.601952"
       id="text888-6-6"
       transform="translate(2.2786086,0.79838828)">
      <path
         d="m 58.837232,50.336118 v 2.572404 h 1.523691 q 0.766548,0 1.133363,-0.315084 0.371517,-0.319787 0.371517,-0.973469 0,-0.658385 -0.371517,-0.968767 -0.366815,-0.315084 -1.133363,-0.315084 z m 0,-2.887488 v 2.116237 h 1.406122 q 0.696007,0 1.034605,-0.258651 0.343301,-0.263354 0.343301,-0.799468 0,-0.53141 -0.343301,-0.794764 -0.338598,-0.263354 -1.034605,-0.263354 z m -0.949955,-0.780657 h 2.426619 q 1.086335,0 1.674179,0.451464 0.587843,0.451464 0.587843,1.283851 0,0.644277 -0.300976,1.025199 -0.300976,0.380923 -0.884117,0.474978 0.70071,0.150488 1.086336,0.630168 0.390328,0.474978 0.390328,1.189796 0,0.94055 -0.639574,1.45315 -0.639574,0.512599 -1.819964,0.512599 h -2.520674 z"
         style="fill:#dabe8d;fill-opacity:1;stroke-width:0.601952"
         id="path908-5"
         inkscape:connector-curvature="0" />
    </g>
    <rect
       style="display:inline;fill:#2b2b2b;fill-opacity:1;fill-rule:nonzero;stroke:#dabe8d;stroke-width:1.272;stroke-linecap:square;stroke-linejoin:miter;stroke-miterlimit:4;stroke-dasharray:none;stroke-dashoffset:0;stroke-opacity:1;paint-order:normal"
       id="rect895-1"
       width="57.040272"
       height="118.98376"
       x="192.89688"
       y="95.713524"
       ry="5.9998274"
       rx="5.9998274" />
    <rect
       style="display:inline;fill:#2b2b2b;fill-opacity:1;fill-rule:nonzero;stroke:#dabe8d;stroke-width:1.272;stroke-linecap:square;stroke-linejoin:miter;stroke-miterlimit:4;stroke-dasharray:none;stroke-dashoffset:0;stroke-opacity:1;paint-order:normal"
       id="rect895-5-1"
       width="57.040272"
       height="118.98376"
       x="192.89688"
       y="219.84291"
       ry="4.8721471"
       rx="4.8721471" />
    <g
       aria-label="A"
       style="font-style:normal;font-weight:normal;font-size:10.1159px;line-height:1.25;font-family:sans-serif;letter-spacing:0px;word-spacing:0px;display:inline;fill:#dabe8d;fill-opacity:1;stroke:none;stroke-width:0.252898"
       id="text4631-09"
       transform="translate(-121.71211,0.46656828)">
      <path
         d="m 323.42417,133.40866 -1.3534,3.66998 h 2.71173 z m -0.5631,-0.98294 h 1.13113 l 2.81052,7.37453 h -1.03728 l -0.67175,-1.89179 h -3.32422 l -0.67176,1.89179 h -1.0521 z"
         style="font-style:normal;font-variant:normal;font-weight:normal;font-stretch:normal;font-family:'DejaVu Sans';-inkscape-font-specification:'DejaVu Sans';fill:#dabe8d;fill-opacity:1;stroke-width:0.252898"
         id="path4742-1"
         inkscape:connector-curvature="0" />
    </g>
    <g
       aria-label="B"
       style="font-style:normal;font-weight:normal;font-size:10.1159px;line-height:1.25;font-family:sans-serif;letter-spacing:0px;word-spacing:0px;display:inline;fill:#dabe8d;fill-opacity:1;stroke:none;stroke-width:0.252898"
       id="text4631-0-0"
       transform="translate(-121.71211,0.46656828)">
      <path
         d="m 320.89915,192.85131 v 2.70186 h 1.60037 q 0.80512,0 1.19039,-0.33094 0.39022,-0.33588 0.39022,-1.02246 0,-0.69152 -0.39022,-1.01752 -0.38527,-0.33094 -1.19039,-0.33094 z m 0,-3.03279 v 2.22273 h 1.47688 q 0.73103,0 1.08667,-0.27167 0.36058,-0.2766 0.36058,-0.8397 0,-0.55815 -0.36058,-0.83476 -0.35564,-0.2766 -1.08667,-0.2766 z m -0.99776,-0.81994 h 2.54873 q 1.14101,0 1.75843,0.47418 0.61743,0.47418 0.61743,1.34846 0,0.6767 -0.31613,1.07679 -0.31612,0.40009 -0.9286,0.49888 0.73597,0.15806 1.141,0.66188 0.40997,0.49888 0.40997,1.24967 0,0.98788 -0.67176,1.52627 -0.67176,0.5384 -1.91155,0.5384 h -2.64752 z"
         style="font-style:normal;font-variant:normal;font-weight:normal;font-stretch:normal;font-family:'DejaVu Sans';-inkscape-font-specification:'DejaVu Sans';fill:#dabe8d;fill-opacity:1;stroke-width:0.252898"
         id="path4739-5"
         inkscape:connector-curvature="0" />
    </g>
    <g
       aria-label="A"
       style="font-style:normal;font-weight:normal;font-size:10.1159px;line-height:1.25;font-family:sans-serif;letter-spacing:0px;word-spacing:0px;display:inline;fill:#dabe8d;fill-opacity:1;stroke:none;stroke-width:0.252898"
       id="text4631-2-1"
       transform="translate(-121.71211,0.46656828)">
      <path
         d="m 322.93601,254.10783 -1.3534,3.66998 h 2.71173 z m -0.56309,-0.98294 h 1.13112 l 2.81052,7.37453 h -1.03727 l -0.67176,-1.89179 h -3.32422 l -0.67176,1.89179 h -1.0521 z"
         style="font-style:normal;font-variant:normal;font-weight:normal;font-stretch:normal;font-family:'DejaVu Sans';-inkscape-font-specification:'DejaVu Sans';fill:#dabe8d;fill-opacity:1;stroke-width:0.252898"
         id="path4727-8"
         inkscape:connector-curvature="0" />
    </g>
    <g
       aria-label="B"
       style="font-style:normal;font-weight:normal;font-size:10.1159px;line-height:1.25;font-family:sans-serif;letter-spacing:0px;word-spacing:0px;display:inline;fill:#dabe8d;fill-opacity:1;stroke:none;stroke-width:0.252898"
       id="text4631-0-8-7"
       transform="translate(-121.71211,0.46656828)">
      <path
         d="m 320.74281,316.53689 v 2.70185 h 1.60037 q 0.80512,0 1.19039,-0.33094 0.39021,-0.33588 0.39021,-1.02245 0,-0.69152 -0.39021,-1.01752 -0.38527,-0.33094 -1.19039,-0.33094 z m 0,-3.03279 v 2.22273 h 1.47688 q 0.73103,0 1.08667,-0.27167 0.36058,-0.27661 0.36058,-0.8397 0,-0.55815 -0.36058,-0.83476 -0.35564,-0.2766 -1.08667,-0.2766 z m -0.99776,-0.81995 h 2.54873 q 1.141,0 1.75843,0.47419 0.61742,0.47418 0.61742,1.34845 0,0.6767 -0.31612,1.07679 -0.31612,0.4001 -0.92861,0.49888 0.73598,0.15807 1.14101,0.66188 0.40997,0.49888 0.40997,1.24967 0,0.98789 -0.67176,1.52628 -0.67176,0.5384 -1.91155,0.5384 h -2.64752 z"
         style="font-style:normal;font-variant:normal;font-weight:normal;font-stretch:normal;font-family:'DejaVu Sans';-inkscape-font-specification:'DejaVu Sans';fill:#dabe8d;fill-opacity:1;stroke-width:0.252898"
         id="path4724-1"
         inkscape:connector-curvature="0" />
    </g>
    <g
       aria-label="SEND"
       style="font-style:normal;font-weight:normal;font-size:7.04488px;line-height:1.25;font-family:sans-serif;letter-spacing:0px;word-spacing:0px;display:inline;fill:#dabe8d;fill-opacity:1;stroke:none;stroke-width:0.176122"
       id="text4631-0-3-2"
       transform="translate(-121.71211,0.46656828)">
      <path
         d="m 325.1535,207.39333 v 0.67766 q -0.39558,-0.1892 -0.74645,-0.28207 -0.35087,-0.0929 -0.67766,-0.0929 -0.56758,0 -0.87717,0.22015 -0.30615,0.22016 -0.30615,0.62606 0,0.34055 0.20296,0.51598 0.20639,0.172 0.77741,0.27863 l 0.41966,0.086 q 0.77742,0.14792 1.14548,0.52286 0.37151,0.37151 0.37151,0.99757 0,0.74645 -0.50222,1.13172 -0.49878,0.38527 -1.46539,0.38527 -0.36463,0 -0.77741,-0.0826 -0.40935,-0.0826 -0.84965,-0.24423 v -0.7155 q 0.4231,0.23735 0.82901,0.35775 0.4059,0.1204 0.79805,0.1204 0.5951,0 0.91845,-0.23392 0.32335,-0.23391 0.32335,-0.66733 0,-0.37839 -0.23392,-0.59166 -0.23047,-0.21328 -0.76021,-0.31991 l -0.4231,-0.0826 q -0.77742,-0.15479 -1.12485,-0.48502 -0.34742,-0.33023 -0.34742,-0.91845 0,-0.6811 0.47814,-1.07324 0.48158,-0.39215 1.32435,-0.39215 0.36119,0 0.73614,0.0654 0.37495,0.0654 0.76709,0.19607 z"
         style="font-style:normal;font-variant:normal;font-weight:normal;font-stretch:normal;font-family:'DejaVu Sans';-inkscape-font-specification:'DejaVu Sans';fill:#dabe8d;fill-opacity:1;stroke-width:0.176122"
         id="path4730-3"
         inkscape:connector-curvature="0" />
      <path
         d="m 326.54665,207.22478 h 3.24725 v 0.58478 h -2.55239 v 1.52042 h 2.44576 v 0.58478 h -2.44576 v 1.86098 h 2.61431 v 0.58478 h -3.30917 z"
         style="font-style:normal;font-variant:normal;font-weight:normal;font-stretch:normal;font-family:'DejaVu Sans';-inkscape-font-specification:'DejaVu Sans';fill:#dabe8d;fill-opacity:1;stroke-width:0.176122"
         id="path4732-7"
         inkscape:connector-curvature="0" />
      <path
         d="m 331.00474,207.22478 h 0.93565 l 2.2772,4.29641 v -4.29641 h 0.67422 v 5.13574 h -0.93565 l -2.2772,-4.29641 v 4.29641 h -0.67422 z"
         style="font-style:normal;font-variant:normal;font-weight:normal;font-stretch:normal;font-family:'DejaVu Sans';-inkscape-font-specification:'DejaVu Sans';fill:#dabe8d;fill-opacity:1;stroke-width:0.176122"
         id="path4734-1"
         inkscape:connector-curvature="0" />
      <path
         d="m 336.9695,207.7958 v 3.9937 h 0.83933 q 1.06292,0 1.55482,-0.48158 0.49535,-0.48159 0.49535,-1.52043 0,-1.03197 -0.49535,-1.51011 -0.4919,-0.48158 -1.55482,-0.48158 z m -0.69486,-0.57102 h 1.42755 q 1.49291,0 2.1912,0.62262 0.6983,0.61917 0.6983,1.94009 0,1.32779 -0.70174,1.95041 -0.70173,0.62262 -2.18776,0.62262 h -1.42755 z"
         style="font-style:normal;font-variant:normal;font-weight:normal;font-stretch:normal;font-family:'DejaVu Sans';-inkscape-font-specification:'DejaVu Sans';fill:#dabe8d;fill-opacity:1;stroke-width:0.176122"
         id="path4736-8"
         inkscape:connector-curvature="0" />
    </g>
    <g
       aria-label="RETURN"
       style="font-style:normal;font-weight:normal;font-size:7.04488px;line-height:1.25;font-family:sans-serif;letter-spacing:0px;word-spacing:0px;display:inline;fill:#dabe8d;fill-opacity:1;stroke:none;stroke-width:0.176122"
       id="text4631-0-3-4-5"
       transform="translate(-121.71211,0.46656828)">
      <path
         d="m 320.13622,333.69889 q 0.22359,0.0757 0.43343,0.32335 0.21327,0.24767 0.42654,0.6811 l 0.70518,1.40347 h -0.74646 l -0.65701,-1.31747 q -0.25456,-0.51599 -0.49535,-0.68454 -0.23735,-0.16855 -0.65014,-0.16855 h -0.75677 v 2.17056 h -0.69485 v -5.13574 h 1.56858 q 0.88061,0 1.31404,0.36807 0.43342,0.36806 0.43342,1.11108 0,0.48502 -0.22703,0.80493 -0.22359,0.31991 -0.65358,0.44374 z m -1.74058,-2.1568 v 1.82314 h 0.87373 q 0.50222,0 0.75677,-0.23048 0.258,-0.23391 0.258,-0.68453 0,-0.45063 -0.258,-0.67766 -0.25455,-0.23047 -0.75677,-0.23047 z"
         style="font-style:normal;font-variant:normal;font-weight:normal;font-stretch:normal;font-family:'DejaVu Sans';-inkscape-font-specification:'DejaVu Sans';fill:#dabe8d;fill-opacity:1;stroke-width:0.176122"
         id="path4711-6"
         inkscape:connector-curvature="0" />
      <path
         d="m 322.59918,330.97107 h 3.24724 v 0.58478 h -2.55239 v 1.52043 h 2.44576 v 0.58478 h -2.44576 v 1.86097 h 2.61431 v 0.58478 h -3.30916 z"
         style="font-style:normal;font-variant:normal;font-weight:normal;font-stretch:normal;font-family:'DejaVu Sans';-inkscape-font-specification:'DejaVu Sans';fill:#dabe8d;fill-opacity:1;stroke-width:0.176122"
         id="path4713-5"
         inkscape:connector-curvature="0" />
      <path
         d="m 326.34521,330.97107 h 4.34457 v 0.58478 h -1.82314 v 4.55096 h -0.6983 v -4.55096 h -1.82313 z"
         style="font-style:normal;font-variant:normal;font-weight:normal;font-stretch:normal;font-family:'DejaVu Sans';-inkscape-font-specification:'DejaVu Sans';fill:#dabe8d;fill-opacity:1;stroke-width:0.176122"
         id="path4715-5"
         inkscape:connector-curvature="0" />
      <path
         d="m 331.28488,330.97107 h 0.69829 v 3.11997 q 0,0.82557 0.29927,1.1902 0.29927,0.36119 0.97005,0.36119 0.66734,0 0.96661,-0.36119 0.29927,-0.36463 0.29927,-1.1902 v -3.11997 h 0.69829 v 3.20597 q 0,1.00444 -0.49878,1.51699 -0.49534,0.51254 -1.46539,0.51254 -0.97349,0 -1.47227,-0.51254 -0.49534,-0.51255 -0.49534,-1.51699 z"
         style="font-style:normal;font-variant:normal;font-weight:normal;font-stretch:normal;font-family:'DejaVu Sans';-inkscape-font-specification:'DejaVu Sans';fill:#dabe8d;fill-opacity:1;stroke-width:0.176122"
         id="path4717-8"
         inkscape:connector-curvature="0" />
      <path
         d="m 338.95925,333.69889 q 0.2236,0.0757 0.43343,0.32335 0.21327,0.24767 0.42654,0.6811 l 0.70518,1.40347 h -0.74645 l -0.65702,-1.31747 q -0.25455,-0.51599 -0.49535,-0.68454 -0.23735,-0.16855 -0.65013,-0.16855 h -0.75678 v 2.17056 h -0.69485 v -5.13574 h 1.56858 q 0.88061,0 1.31404,0.36807 0.43342,0.36806 0.43342,1.11108 0,0.48502 -0.22703,0.80493 -0.22359,0.31991 -0.65358,0.44374 z m -1.74058,-2.1568 v 1.82314 h 0.87373 q 0.50223,0 0.75678,-0.23048 0.25799,-0.23391 0.25799,-0.68453 0,-0.45063 -0.25799,-0.67766 -0.25455,-0.23047 -0.75678,-0.23047 z"
         style="font-style:normal;font-variant:normal;font-weight:normal;font-stretch:normal;font-family:'DejaVu Sans';-inkscape-font-specification:'DejaVu Sans';fill:#dabe8d;fill-opacity:1;stroke-width:0.176122"
         id="path4719-1"
         inkscape:connector-curvature="0" />
      <path
         d="m 341.42221,330.97107 h 0.93564 l 2.27721,4.29641 v -4.29641 h 0.67421 v 5.13574 h -0.93564 l -2.27721,-4.29641 v 4.29641 h -0.67421 z"
         style="font-style:normal;font-variant:normal;font-weight:normal;font-stretch:normal;font-family:'DejaVu Sans';-inkscape-font-specification:'DejaVu Sans';fill:#dabe8d;fill-opacity:1;stroke-width:0.176122"
         id="path4721-2"
         inkscape:connector-curvature="0" />
    </g>
    <rect
       style="display:inline;fill:#2b2b2b;fill-opacity:1;stroke:#dabe8d;stroke-width:0.70581;stroke-linejoin:round;stroke-miterlimit:4;stroke-dasharray:none;stroke-dashoffset:0;stroke-opacity:1;paint-order:normal"
       id="rect4745-7"
       width="123.3596"
       height="121.38055"
       x="66.503128"
       y="139.74562"
       rx="7.549911"
       ry="6.3729882" />
    <rect
       style="display:inline;opacity:1;fill:#313130;fill-opacity:1;fill-rule:nonzero;stroke:#dabe8d;stroke-width:1.53189;stroke-linecap:square;stroke-linejoin:miter;stroke-miterlimit:4;stroke-dasharray:none;stroke-dashoffset:0;stroke-opacity:1;paint-order:markers fill stroke"
       id="rect926-26"
       width="12.089166"
       height="84.226448"
       x="82.460449"
       y="144.87799"
       ry="1.4716016"
       rx="1.4716016" />
    <rect
       style="display:inline;fill:#2b2b2b;fill-opacity:1;stroke:#dabe8d;stroke-width:1;stroke-linejoin:round;stroke-miterlimit:4;stroke-dasharray:none;stroke-dashoffset:0;stroke-opacity:1;paint-order:normal"
       id="rect4747-3-8"
       width="123.14783"
       height="65.517853"
       x="66.515335"
       y="70.663399"
       rx="7.5717244"
       ry="8.199295" />
    <rect
       style="display:inline;opacity:1;fill:#313130;fill-opacity:1;fill-rule:nonzero;stroke:#dabe8d;stroke-width:1.53189;stroke-linecap:square;stroke-linejoin:miter;stroke-miterlimit:4;stroke-dasharray:none;stroke-dashoffset:0;stroke-opacity:1;paint-order:markers fill stroke"
       id="rect926-26-7"
       width="12.089166"
       height="84.226448"
       x="112.52606"
       y="144.87798"
       ry="1.4716016"
       rx="1.4716016" />
    <rect
       style="display:inline;opacity:1;fill:#313130;fill-opacity:1;fill-rule:nonzero;stroke:#dabe8d;stroke-width:1.53189;stroke-linecap:square;stroke-linejoin:miter;stroke-miterlimit:4;stroke-dasharray:none;stroke-dashoffset:0;stroke-opacity:1;paint-order:markers fill stroke"
       id="rect926-26-0"
       width="12.089166"
       height="84.226448"
       x="142.59174"
       y="144.87801"
       ry="1.4716016"
       rx="1.4716016" />
    <rect
       style="display:inline;opacity:1;fill:#313130;fill-opacity:1;fill-rule:nonzero;stroke:#dabe8d;stroke-width:1.53189;stroke-linecap:square;stroke-linejoin:miter;stroke-miterlimit:4;stroke-dasharray:none;stroke-dashoffset:0;stroke-opacity:1;paint-order:markers fill stroke"
       id="rect926-26-7-7"
       width="12.089166"
       height="84.226448"
       x="172.65735"
       y="144.87799"
       ry="1.4716016"
       rx="1.4716016" />
    <path
       style="color:#000000;font-style:normal;font-variant:normal;font-weight:normal;font-stretch:normal;font-size:medium;line-height:normal;font-family:sans-serif;font-variant-ligatures:normal;font-variant-position:normal;font-variant-caps:normal;font-variant-numeric:normal;font-variant-alternates:normal;font-feature-settings:normal;text-indent:0;text-align:start;text-decoration:none;text-decoration-line:none;text-decoration-style:solid;text-decoration-color:#000000;letter-spacing:normal;word-spacing:normal;text-transform:none;writing-mode:lr-tb;direction:ltr;text-orientation:mixed;dominant-baseline:auto;baseline-shift:baseline;text-anchor:start;white-space:normal;shape-padding:0;clip-rule:nonzero;display:inline;overflow:visible;visibility:visible;opacity:0.99;isolation:auto;mix-blend-mode:normal;color-interpolation:sRGB;color-interpolation-filters:linearRGB;solid-color:#000000;solid-opacity:1;vector-effect:none;fill:#dabe8d;fill-opacity:1;fill-rule:nonzero;stroke:none;stroke-width:1.18422;stroke-linecap:square;stroke-linejoin:miter;stroke-miterlimit:4;stroke-dasharray:4.73688, 2.36844;stroke-dashoffset:0;stroke-opacity:1;paint-order:fill markers stroke;color-rendering:auto;image-rendering:auto;shape-rendering:auto;text-rendering:auto;enable-background:accumulate"
       d="m 83.143209,73.997162 -1.14352,0.06375 h -0.0279 l -0.0279,0.004 -1.34672,0.203203 -0.0279,0.004 -0.0279,0.008 -1.32679,0.330703 -0.0279,0.006 -0.0259,0.01 -0.81282,0.288867 -0.5598,0.197226 0.39644,1.115625 0.55782,-0.197226 0.7889,-0.280899 1.26106,-0.314765 1.29691,-0.195235 1.11762,-0.05976 0.59168,-0.03187 -0.0637,-1.18336 z m 1.72523,1.249102 0.5857,0.07969 0.5359,0.07371 1.27699,0.300821 1.23715,0.416367 1.21324,0.547852 0.0159,0.01 0.51399,0.294844 0.58969,-1.025977 -0.512,-0.294843 -0.0339,-0.01992 -0.0259,-0.01594 -0.0259,-0.01196 -1.26304,-0.569766 -0.0279,-0.01195 -0.0259,-0.01 -1.30289,-0.440274 -0.0279,-0.01 -0.0259,-0.006 -1.33278,-0.312773 -0.0259,-0.006 -0.0279,-0.004 -0.56578,-0.07769 -0.5857,-0.07969 z m -8.76762,0.717188 -0.80086,0.476133 -0.0259,0.01394 -0.0239,0.01793 -1.1455,0.844687 -0.0239,0.01793 -0.0219,0.01992 -1.07379,0.972188 -0.0219,0.01992 -0.0199,0.02191 -0.62555,0.693281 -0.39645,0.438282 0.87856,0.794883 0.39644,-0.440274 0.60563,-0.669375 1.03992,-0.940313 1.08176,-0.798867 0.78094,-0.464179 0.51,-0.302813 -0.60563,-1.018008 z m 15.10079,1.599726 0.48011,0.344649 0.31078,0.223125 1.05387,0.928359 0.94231,1.016016 0.83871,1.105664 0.3566,0.472148 0.94429,-0.717187 -0.35859,-0.470157 -0.85863,-1.133554 -0.0179,-0.02391 -0.0199,-0.02191 -0.98613,-1.061835 -0.0199,-0.02191 -0.0219,-0.01992 -1.08774,-0.95625 -0.0219,-0.01992 -0.0239,-0.01793 -0.33867,-0.243047 -0.48211,-0.344648 z m -20.36215,3.490313 -0.49606,0.836719 -0.0159,0.02391 -0.012,0.02789 -0.5857,1.255079 -0.0139,0.0259 -0.008,0.02789 -0.45821,1.296914 -0.01,0.0259 -0.008,0.02789 -0.24105,0.974179 -0.14344,0.57375 1.1495,0.286875 0.14343,-0.575742 0.23309,-0.93832 0.44027,-1.249101 0.56578,-1.209258 0.47813,-0.806837 0.30281,-0.508008 -1.02,-0.605625 z m 24.82066,1.559882 0.25898,0.531914 0.16536,0.344649 0.46617,1.261055 0.32672,1.251094 0.21117,1.275 0.0139,0.197226 0.0398,0.59168 1.18136,-0.07969 -0.0398,-0.59168 -0.0139,-0.211171 -0.002,-0.02789 -0.006,-0.02789 -0.21914,-1.344726 -0.004,-0.02789 -0.008,-0.0259 -0.34664,-1.322811 -0.008,-0.02789 -0.01,-0.0259 -0.47613,-1.290937 -0.01,-0.0259 -0.012,-0.0259 -0.18328,-0.378516 -0.25899,-0.533905 z m -27.01008,5.414766 -0.0379,0.717188 -0.002,0.02789 0.002,0.02789 0.0558,1.358672 0.002,0.02789 0.004,0.02789 0.18527,1.350703 0.004,0.02789 0.006,0.02789 0.29684,1.261054 0.13746,0.575743 1.15148,-0.270938 -0.13546,-0.575742 -0.28887,-1.219219 -0.18129,-1.32082 -0.0518,-1.288945 0.0359,-0.691289 0.0319,-0.59168 -1.18336,-0.06375 z m 28.49426,1.755117 -0.004,0.107579 -0.15938,1.304883 -0.28089,1.269023 -0.4084,1.255078 -0.18727,0.430312 -0.23707,0.541875 1.08574,0.474141 0.23707,-0.543868 0.19723,-0.450234 0.012,-0.02789 0.008,-0.0259 0.42633,-1.308867 0.008,-0.0259 0.006,-0.02789 0.29484,-1.334765 0.008,-0.02789 0.002,-0.02789 0.16735,-1.352695 0.004,-0.02789 v -0.02789 l 0.004,-0.139453 0.0159,-0.59168 -1.18336,-0.03386 z m -27.34477,4.88086 0.24305,0.53789 0.19125,0.422344 0.0119,0.0259 0.0159,0.0259 0.69926,1.215234 0.0159,0.02391 0.0159,0.02391 0.83074,1.155468 0.0179,0.02391 0.0179,0.02391 0.96024,1.085743 0.39246,0.444257 0.88652,-0.78293 -0.39047,-0.444258 -0.93433,-1.057851 -0.79688,-1.107657 -0.67137,-1.159452 -0.18328,-0.406407 -0.24504,-0.539883 z m 25.27887,1.486171 -0.75504,1.08375 -0.92437,1.075782 -0.38649,0.448242 0.89848,0.772968 0.38648,-0.450234 0.9443,-1.099687 0.0199,-0.02191 0.0159,-0.02391 0.77297,-1.107656 0.33867,-0.486094 -0.97219,-0.677343 z"
       id="path913-6"
       inkscape:connector-curvature="0" />
    <path
       style="color:#000000;font-style:normal;font-variant:normal;font-weight:normal;font-stretch:normal;font-size:medium;line-height:normal;font-family:sans-serif;font-variant-ligatures:normal;font-variant-position:normal;font-variant-caps:normal;font-variant-numeric:normal;font-variant-alternates:normal;font-feature-settings:normal;text-indent:0;text-align:start;text-decoration:none;text-decoration-line:none;text-decoration-style:solid;text-decoration-color:#000000;letter-spacing:normal;word-spacing:normal;text-transform:none;writing-mode:lr-tb;direction:ltr;text-orientation:mixed;dominant-baseline:auto;baseline-shift:baseline;text-anchor:start;white-space:normal;shape-padding:0;clip-rule:nonzero;display:inline;overflow:visible;visibility:visible;opacity:0.99;isolation:auto;mix-blend-mode:normal;color-interpolation:sRGB;color-interpolation-filters:linearRGB;solid-color:#000000;solid-opacity:1;vector-effect:none;fill:#dabe8d;fill-opacity:1;fill-rule:nonzero;stroke:none;stroke-width:1.18422;stroke-linecap:square;stroke-linejoin:miter;stroke-miterlimit:4;stroke-dasharray:4.73688, 2.36844;stroke-dashoffset:0;stroke-opacity:1;paint-order:fill markers stroke;color-rendering:auto;image-rendering:auto;shape-rendering:auto;text-rendering:auto;enable-background:accumulate"
       d="m 113.1432,73.997162 -1.14352,0.06375 h -0.0279 l -0.0278,0.004 -1.34673,0.203203 -0.0279,0.004 -0.0278,0.008 -1.3268,0.330703 -0.0278,0.006 -0.0259,0.01 -0.81281,0.288867 -0.55981,0.197226 0.39645,1.115625 0.5578,-0.197226 0.78891,-0.280899 1.26106,-0.314765 1.29691,-0.195235 1.11762,-0.05976 0.59169,-0.03187 -0.0637,-1.18336 z m 1.72523,1.249102 0.5857,0.07969 0.5359,0.07371 1.277,0.300821 1.23715,0.416367 1.21324,0.547852 0.0159,0.01 0.51398,0.294844 0.58969,-1.025977 -0.512,-0.294843 -0.0339,-0.01992 -0.0259,-0.01594 -0.0259,-0.01196 -1.26305,-0.569766 -0.0278,-0.01195 -0.0259,-0.01 -1.30289,-0.440274 -0.0278,-0.01 -0.0259,-0.006 -1.33278,-0.312773 -0.0259,-0.006 -0.0278,-0.004 -0.56578,-0.07769 -0.58571,-0.07969 z m -8.76762,0.717188 -0.80086,0.476133 -0.0259,0.01394 -0.0239,0.01793 -1.14551,0.844687 -0.0239,0.01793 -0.0219,0.01992 -1.0738,0.972188 -0.0219,0.01992 -0.0199,0.02191 -0.62555,0.693281 -0.39645,0.438282 0.87856,0.794883 0.39644,-0.440274 0.60563,-0.669375 1.03993,-0.940313 1.08175,-0.798867 0.78094,-0.464179 0.51,-0.302813 -0.60562,-1.018008 z m 15.10079,1.599726 0.48011,0.344649 0.31079,0.223125 1.05386,0.928359 0.94231,1.016016 0.83871,1.105664 0.35659,0.472148 0.94431,-0.717187 -0.3586,-0.470157 -0.85863,-1.133554 -0.0179,-0.02391 -0.0199,-0.02191 -0.98614,-1.061835 -0.0199,-0.02191 -0.0219,-0.01992 -1.08772,-0.95625 -0.0219,-0.01992 -0.0239,-0.01793 -0.33867,-0.243047 -0.48212,-0.344648 z m -20.36215,3.490313 -0.49606,0.836719 -0.0159,0.02391 -0.0119,0.02789 -0.585711,1.255079 -0.014,0.0259 -0.008,0.02789 -0.4582,1.296914 -0.01,0.0259 -0.008,0.02789 -0.24105,0.974179 -0.14344,0.57375 1.14949,0.286875 0.143441,-0.575742 0.23308,-0.93832 0.44029,-1.249101 0.56577,-1.209258 0.47813,-0.806837 0.30281,-0.508008 -1.02,-0.605625 z m 24.82066,1.559882 0.25899,0.531914 0.16535,0.344649 0.46617,1.261055 0.32672,1.251094 0.21117,1.275 0.014,0.197226 0.0399,0.59168 1.18137,-0.07969 -0.0399,-0.59168 -0.014,-0.211171 -0.002,-0.02789 -0.006,-0.02789 -0.21914,-1.344726 -0.004,-0.02789 -0.008,-0.0259 -0.34663,-1.322811 -0.008,-0.02789 -0.0102,-0.0259 -0.47614,-1.290937 -0.0102,-0.0259 -0.0119,-0.0259 -0.18329,-0.378516 -0.25898,-0.533905 z m -27.010071,5.414766 -0.0379,0.717188 -0.002,0.02789 0.002,0.02789 0.0558,1.358672 0.002,0.02789 0.004,0.02789 0.18528,1.350703 0.004,0.02789 0.006,0.02789 0.29683,1.261054 0.13746,0.575743 1.151491,-0.270938 -0.13546,-0.575742 -0.28888,-1.219219 -0.181291,-1.32082 -0.0518,-1.288945 0.0359,-0.691289 0.0318,-0.59168 -1.18336,-0.06375 z m 28.494251,1.755117 -0.004,0.107579 -0.15937,1.304883 -0.2809,1.269023 -0.4084,1.255078 -0.18726,0.430312 -0.23707,0.541875 1.08574,0.474141 0.23707,-0.543868 0.19722,-0.450234 0.0119,-0.02789 0.008,-0.0259 0.42633,-1.308867 0.008,-0.0259 0.006,-0.02789 0.29485,-1.334765 0.008,-0.02789 0.002,-0.02789 0.16734,-1.352695 0.004,-0.02789 v -0.02789 l 0.004,-0.139453 0.0159,-0.59168 -1.18336,-0.03386 z m -27.344761,4.88086 0.243041,0.53789 0.19125,0.422344 0.0119,0.0259 0.0159,0.0259 0.69926,1.215234 0.0159,0.02391 0.0159,0.02391 0.83073,1.155468 0.018,0.02391 0.0179,0.02391 0.96023,1.085743 0.39246,0.444257 0.88652,-0.78293 -0.39046,-0.444258 -0.93434,-1.057851 -0.79688,-1.107657 -0.67136,-1.159452 -0.18328,-0.406407 -0.24504,-0.539883 z m 25.278861,1.486171 -0.75503,1.08375 -0.92439,1.075782 -0.38647,0.448242 0.89847,0.772968 0.38648,-0.450234 0.94431,-1.099687 0.0199,-0.02191 0.0159,-0.02391 0.77296,-1.107656 0.33869,-0.486094 -0.9722,-0.677343 z"
       id="path913-7-7"
       inkscape:connector-curvature="0" />
    <path
       style="color:#000000;font-style:normal;font-variant:normal;font-weight:normal;font-stretch:normal;font-size:medium;line-height:normal;font-family:sans-serif;font-variant-ligatures:normal;font-variant-position:normal;font-variant-caps:normal;font-variant-numeric:normal;font-variant-alternates:normal;font-feature-settings:normal;text-indent:0;text-align:start;text-decoration:none;text-decoration-line:none;text-decoration-style:solid;text-decoration-color:#000000;letter-spacing:normal;word-spacing:normal;text-transform:none;writing-mode:lr-tb;direction:ltr;text-orientation:mixed;dominant-baseline:auto;baseline-shift:baseline;text-anchor:start;white-space:normal;shape-padding:0;clip-rule:nonzero;display:inline;overflow:visible;visibility:visible;opacity:0.99;isolation:auto;mix-blend-mode:normal;color-interpolation:sRGB;color-interpolation-filters:linearRGB;solid-color:#000000;solid-opacity:1;vector-effect:none;fill:#dabe8d;fill-opacity:1;fill-rule:nonzero;stroke:none;stroke-width:1.18422;stroke-linecap:square;stroke-linejoin:miter;stroke-miterlimit:4;stroke-dasharray:4.73688, 2.36844;stroke-dashoffset:0;stroke-opacity:1;paint-order:fill markers stroke;color-rendering:auto;image-rendering:auto;shape-rendering:auto;text-rendering:auto;enable-background:accumulate"
       d="m 143.1432,73.997162 -1.14352,0.06375 h -0.0279 l -0.0278,0.004 -1.34673,0.203203 -0.0279,0.004 -0.0278,0.008 -1.3268,0.330703 -0.0278,0.006 -0.0259,0.01 -0.81281,0.288867 -0.55981,0.197226 0.39645,1.115625 0.5578,-0.197226 0.78891,-0.280899 1.26106,-0.314765 1.29691,-0.195235 1.11762,-0.05976 0.59168,-0.03187 -0.0637,-1.18336 z m 1.72523,1.249102 0.5857,0.07969 0.5359,0.07371 1.277,0.300821 1.23715,0.416367 1.21324,0.547852 0.0159,0.01 0.51398,0.294844 0.58969,-1.025977 -0.512,-0.294843 -0.0339,-0.01992 -0.0259,-0.01594 -0.0259,-0.01196 -1.26305,-0.569766 -0.0278,-0.01195 -0.0259,-0.01 -1.30289,-0.440274 -0.0278,-0.01 -0.0259,-0.006 -1.33278,-0.312773 -0.0259,-0.006 -0.0279,-0.004 -0.56578,-0.07769 -0.58571,-0.07969 z m -8.76762,0.717188 -0.80086,0.476133 -0.0259,0.01394 -0.0239,0.01793 -1.14551,0.844687 -0.0239,0.01793 -0.0219,0.01992 -1.0738,0.972188 -0.0219,0.01992 -0.0199,0.02191 -0.62555,0.693281 -0.39645,0.438282 0.87856,0.794883 0.39644,-0.440274 0.60563,-0.669375 1.03993,-0.940313 1.08175,-0.798867 0.78094,-0.464179 0.51,-0.302813 -0.60562,-1.018008 z m 15.10079,1.599726 0.48011,0.344649 0.31078,0.223125 1.05387,0.928359 0.94231,1.016016 0.83871,1.105664 0.35659,0.472148 0.94431,-0.717187 -0.3586,-0.470157 -0.85863,-1.133554 -0.018,-0.02391 -0.0199,-0.02191 -0.98614,-1.061835 -0.0199,-0.02191 -0.0219,-0.01992 -1.08772,-0.95625 -0.0219,-0.01992 -0.0239,-0.01793 -0.33867,-0.243047 -0.48212,-0.344648 z m -20.36215,3.490313 -0.49606,0.836719 -0.0159,0.02391 -0.0119,0.02789 -0.58571,1.255079 -0.014,0.0259 -0.008,0.02789 -0.45821,1.296914 -0.0102,0.0259 -0.008,0.02789 -0.24105,0.974179 -0.14345,0.57375 1.1495,0.286875 0.14344,-0.575742 0.23309,-0.93832 0.44027,-1.249101 0.56577,-1.209258 0.47813,-0.806837 0.30282,-0.508008 -1.02,-0.605625 z m 24.82066,1.559882 0.25899,0.531914 0.16535,0.344649 0.46617,1.261055 0.32672,1.251094 0.21117,1.275 0.014,0.197226 0.0399,0.59168 1.18137,-0.07969 -0.0399,-0.59168 -0.014,-0.211171 -0.002,-0.02789 -0.006,-0.02789 -0.21914,-1.344726 -0.004,-0.02789 -0.008,-0.0259 -0.34663,-1.322811 -0.008,-0.02789 -0.0102,-0.0259 -0.47614,-1.290937 -0.0102,-0.0259 -0.0119,-0.0259 -0.18329,-0.378516 -0.25898,-0.533905 z m -27.01008,5.414766 -0.0378,0.717188 -0.002,0.02789 0.002,0.02789 0.0558,1.358672 0.002,0.02789 0.004,0.02789 0.18527,1.350703 0.004,0.02789 0.006,0.02789 0.29683,1.261054 0.13747,0.575743 1.15148,-0.270938 -0.13547,-0.575742 -0.28886,-1.219219 -0.1813,-1.32082 -0.0518,-1.288945 0.0359,-0.691289 0.0318,-0.59168 -1.18336,-0.06375 z m 28.49426,1.755117 -0.004,0.107579 -0.15937,1.304883 -0.2809,1.269023 -0.4084,1.255078 -0.18726,0.430312 -0.23707,0.541875 1.08574,0.474141 0.23707,-0.543868 0.19722,-0.450234 0.0119,-0.02789 0.008,-0.0259 0.42633,-1.308867 0.008,-0.0259 0.006,-0.02789 0.29485,-1.334765 0.008,-0.02789 0.002,-0.02789 0.16734,-1.352695 0.004,-0.02789 v -0.02789 l 0.004,-0.139453 0.0159,-0.59168 -1.18336,-0.03386 z m -27.34476,4.88086 0.24304,0.53789 0.19125,0.422344 0.0119,0.0259 0.0159,0.0259 0.69926,1.215234 0.0159,0.02391 0.0159,0.02391 0.83073,1.155468 0.018,0.02391 0.018,0.02391 0.96023,1.085743 0.39246,0.444257 0.88652,-0.78293 -0.39046,-0.444258 -0.93434,-1.057851 -0.79688,-1.107657 -0.67136,-1.159452 -0.18328,-0.406407 -0.24504,-0.539883 z m 25.27886,1.486171 -0.75503,1.08375 -0.92439,1.075782 -0.38648,0.448242 0.89848,0.772968 0.38648,-0.450234 0.94431,-1.099687 0.0199,-0.02191 0.0159,-0.02391 0.77296,-1.107656 0.33869,-0.486094 -0.9722,-0.677343 z"
       id="path913-1-6"
       inkscape:connector-curvature="0" />
    <path
       style="color:#000000;font-style:normal;font-variant:normal;font-weight:normal;font-stretch:normal;font-size:medium;line-height:normal;font-family:sans-serif;font-variant-ligatures:normal;font-variant-position:normal;font-variant-caps:normal;font-variant-numeric:normal;font-variant-alternates:normal;font-feature-settings:normal;text-indent:0;text-align:start;text-decoration:none;text-decoration-line:none;text-decoration-style:solid;text-decoration-color:#000000;letter-spacing:normal;word-spacing:normal;text-transform:none;writing-mode:lr-tb;direction:ltr;text-orientation:mixed;dominant-baseline:auto;baseline-shift:baseline;text-anchor:start;white-space:normal;shape-padding:0;clip-rule:nonzero;display:inline;overflow:visible;visibility:visible;opacity:0.99;isolation:auto;mix-blend-mode:normal;color-interpolation:sRGB;color-interpolation-filters:linearRGB;solid-color:#000000;solid-opacity:1;vector-effect:none;fill:#dabe8d;fill-opacity:1;fill-rule:nonzero;stroke:none;stroke-width:1.18422;stroke-linecap:square;stroke-linejoin:miter;stroke-miterlimit:4;stroke-dasharray:4.73688, 2.36844;stroke-dashoffset:0;stroke-opacity:1;paint-order:fill markers stroke;color-rendering:auto;image-rendering:auto;shape-rendering:auto;text-rendering:auto;enable-background:accumulate"
       d="m 173.1432,73.997162 -1.14352,0.06375 h -0.0279 l -0.0278,0.004 -1.34673,0.203203 -0.0279,0.004 -0.0278,0.008 -1.3268,0.330703 -0.0278,0.006 -0.0259,0.01 -0.81281,0.288867 -0.55981,0.197226 0.39645,1.115625 0.5578,-0.197226 0.78891,-0.280899 1.26106,-0.314765 1.29691,-0.195235 1.11762,-0.05976 0.59168,-0.03187 -0.0637,-1.18336 z m 1.72523,1.249102 0.5857,0.07969 0.5359,0.07371 1.277,0.300821 1.23715,0.416367 1.21324,0.547852 0.0159,0.01 0.51398,0.294844 0.58969,-1.025977 -0.512,-0.294843 -0.0339,-0.01992 -0.0259,-0.01594 -0.0259,-0.01196 -1.26305,-0.569766 -0.0278,-0.01195 -0.0259,-0.01 -1.30289,-0.440274 -0.0278,-0.01 -0.0259,-0.006 -1.33278,-0.312773 -0.0259,-0.006 -0.0279,-0.004 -0.56578,-0.07769 -0.58571,-0.07969 z m -8.76762,0.717188 -0.80086,0.476133 -0.0259,0.01394 -0.0239,0.01793 -1.14551,0.844687 -0.0239,0.01793 -0.0219,0.01992 -1.0738,0.972188 -0.0219,0.01992 -0.0199,0.02191 -0.62555,0.693281 -0.39645,0.438282 0.87856,0.794883 0.39644,-0.440274 0.60563,-0.669375 1.03993,-0.940313 1.08175,-0.798867 0.78094,-0.464179 0.51,-0.302813 -0.60562,-1.018008 z m 15.10079,1.599726 0.48011,0.344649 0.31078,0.223125 1.05387,0.928359 0.94231,1.016016 0.83871,1.105664 0.35659,0.472148 0.94431,-0.717187 -0.3586,-0.470157 -0.85863,-1.133554 -0.018,-0.02391 -0.0199,-0.02191 -0.98614,-1.061835 -0.0199,-0.02191 -0.0219,-0.01992 -1.08772,-0.95625 -0.0219,-0.01992 -0.0239,-0.01793 -0.33867,-0.243047 -0.48212,-0.344648 z m -20.36215,3.490313 -0.49606,0.836719 -0.0159,0.02391 -0.0119,0.02789 -0.58571,1.255079 -0.014,0.0259 -0.008,0.02789 -0.45821,1.296914 -0.0102,0.0259 -0.008,0.02789 -0.24105,0.974179 -0.14345,0.57375 1.1495,0.286875 0.14344,-0.575742 0.23309,-0.93832 0.44027,-1.249101 0.56577,-1.209258 0.47813,-0.806837 0.30282,-0.508008 -1.02,-0.605625 z m 24.82066,1.559882 0.25899,0.531914 0.16535,0.344649 0.46617,1.261055 0.32672,1.251094 0.21117,1.275 0.014,0.197226 0.0399,0.59168 1.18137,-0.07969 -0.0399,-0.59168 -0.014,-0.211171 -0.002,-0.02789 -0.006,-0.02789 -0.21914,-1.344726 -0.004,-0.02789 -0.008,-0.0259 -0.34663,-1.322811 -0.008,-0.02789 -0.0102,-0.0259 -0.47614,-1.290937 -0.0102,-0.0259 -0.0119,-0.0259 -0.18329,-0.378516 -0.25898,-0.533905 z m -27.01008,5.414766 -0.0378,0.717188 -0.002,0.02789 0.002,0.02789 0.0558,1.358672 0.002,0.02789 0.004,0.02789 0.18527,1.350703 0.004,0.02789 0.006,0.02789 0.29683,1.261054 0.13747,0.575743 1.15148,-0.270938 -0.13547,-0.575742 -0.28886,-1.219219 -0.1813,-1.32082 -0.0518,-1.288945 0.0359,-0.691289 0.0318,-0.59168 -1.18336,-0.06375 z m 28.49426,1.755117 -0.004,0.107579 -0.15937,1.304883 -0.2809,1.269023 -0.4084,1.255078 -0.18726,0.430312 -0.23707,0.541875 1.08574,0.474141 0.23707,-0.543868 0.19722,-0.450234 0.0119,-0.02789 0.008,-0.0259 0.42633,-1.308867 0.008,-0.0259 0.006,-0.02789 0.29485,-1.334765 0.008,-0.02789 0.002,-0.02789 0.16734,-1.352695 0.004,-0.02789 v -0.02789 l 0.004,-0.139453 0.0159,-0.59168 -1.18336,-0.03386 z m -27.34476,4.88086 0.24304,0.53789 0.19125,0.422344 0.0119,0.0259 0.0159,0.0259 0.69926,1.215234 0.0159,0.02391 0.0159,0.02391 0.83073,1.155468 0.018,0.02391 0.018,0.02391 0.96023,1.085743 0.39246,0.444257 0.88652,-0.78293 -0.39046,-0.444258 -0.93434,-1.057851 -0.79688,-1.107657 -0.67136,-1.159452 -0.18328,-0.406407 -0.24504,-0.539883 z m 25.27886,1.486171 -0.75503,1.08375 -0.92439,1.075782 -0.38648,0.448242 0.89848,0.772968 0.38648,-0.450234 0.94431,-1.099687 0.0199,-0.02191 0.0159,-0.02391 0.77296,-1.107656 0.33869,-0.486094 -0.9722,-0.677343 z"
       id="path913-7-3-3"
       inkscape:connector-curvature="0" />
    <path
       style="color:#000000;font-style:normal;font-variant:normal;font-weight:normal;font-stretch:normal;font-size:medium;line-height:normal;font-family:sans-serif;font-variant-ligatures:normal;font-variant-position:normal;font-variant-caps:normal;font-variant-numeric:normal;font-variant-alternates:normal;font-feature-settings:normal;text-indent:0;text-align:start;text-decoration:none;text-decoration-line:none;text-decoration-style:solid;text-decoration-color:#000000;letter-spacing:normal;word-spacing:normal;text-transform:none;writing-mode:lr-tb;direction:ltr;text-orientation:mixed;dominant-baseline:auto;baseline-shift:baseline;text-anchor:start;white-space:normal;shape-padding:0;clip-rule:nonzero;display:inline;overflow:visible;visibility:visible;opacity:0.99;isolation:auto;mix-blend-mode:normal;color-interpolation:sRGB;color-interpolation-filters:linearRGB;solid-color:#000000;solid-opacity:1;vector-effect:none;fill:#dabe8d;fill-opacity:1;fill-rule:nonzero;stroke:none;stroke-width:1.18422;stroke-linecap:square;stroke-linejoin:miter;stroke-miterlimit:4;stroke-dasharray:4.73688, 2.36844;stroke-dashoffset:0;stroke-opacity:1;paint-order:fill markers stroke;color-rendering:auto;image-rendering:auto;shape-rendering:auto;text-rendering:auto;enable-background:accumulate"
       d="m 83.143209,103.99716 -1.14352,0.0637 h -0.0279 l -0.0279,0.004 -1.34672,0.20319 -0.0279,0.004 -0.0279,0.008 -1.32679,0.33071 -0.0279,0.006 -0.0259,0.0102 -0.81282,0.28886 -0.5598,0.19723 0.39644,1.11562 0.55782,-0.19722 0.7889,-0.2809 1.26106,-0.31476 1.29691,-0.19524 1.11762,-0.0598 0.59168,-0.0318 -0.0637,-1.18336 z m 1.72523,1.2491 0.5857,0.0797 0.5359,0.0738 1.27699,0.30082 1.23715,0.41636 1.21324,0.54785 0.0159,0.0102 0.51399,0.29484 0.58969,-1.02597 -0.512,-0.29484 -0.0339,-0.0199 -0.0259,-0.0159 -0.0259,-0.0119 -1.26304,-0.56976 -0.0279,-0.0119 -0.0259,-0.0102 -1.30289,-0.44027 -0.0279,-0.0102 -0.0259,-0.006 -1.33278,-0.31277 -0.0259,-0.006 -0.0279,-0.004 -0.56578,-0.0777 -0.5857,-0.0797 z m -8.76762,0.71718 -0.80086,0.47614 -0.0259,0.014 -0.0239,0.0179 -1.1455,0.8447 -0.0239,0.0179 -0.0219,0.0199 -1.07379,0.97218 -0.0219,0.0199 -0.0199,0.0219 -0.62555,0.69327 -0.39645,0.43829 0.87856,0.79488 0.39644,-0.44027 0.60563,-0.66937 1.03992,-0.94032 1.08176,-0.79886 0.78094,-0.46419 0.51,-0.3028 -0.60563,-1.01801 z m 15.10079,1.59973 0.48011,0.34465 0.31078,0.22312 1.05387,0.92837 0.94231,1.01601 0.83871,1.10567 0.3566,0.47214 0.94429,-0.71719 -0.35859,-0.47015 -0.85863,-1.13355 -0.0179,-0.0239 -0.0199,-0.0219 -0.98613,-1.06184 -0.0199,-0.0219 -0.0219,-0.0199 -1.08774,-0.95625 -0.0219,-0.0199 -0.0239,-0.0179 -0.33867,-0.24306 -0.48211,-0.34465 z m -20.36215,3.49032 -0.49606,0.83671 -0.0159,0.0239 -0.012,0.0278 -0.5857,1.25508 -0.0139,0.0259 -0.008,0.0279 -0.45821,1.29692 -0.01,0.0259 -0.008,0.0278 -0.24105,0.97419 -0.14344,0.57375 1.1495,0.28687 0.14343,-0.57574 0.23309,-0.93832 0.44027,-1.2491 0.56578,-1.20926 0.47813,-0.80684 0.30281,-0.508 -1.02,-0.60563 z m 24.82066,1.55987 0.25898,0.53192 0.16536,0.34465 0.46617,1.26106 0.32672,1.25109 0.21117,1.275 0.0139,0.19723 0.0398,0.59168 1.18136,-0.0797 -0.0398,-0.59168 -0.0139,-0.21117 -0.002,-0.0278 -0.006,-0.0279 -0.21914,-1.34473 -0.004,-0.0279 -0.008,-0.0259 -0.34664,-1.32281 -0.008,-0.0279 -0.01,-0.0259 -0.47613,-1.29094 -0.01,-0.0259 -0.012,-0.0259 -0.18328,-0.37852 -0.25899,-0.5339 z m -27.01008,5.41477 -0.0379,0.71719 -0.002,0.0278 0.002,0.0279 0.0558,1.35867 0.002,0.0279 0.004,0.0278 0.18527,1.35071 0.004,0.0278 0.006,0.0279 0.29684,1.26104 0.13746,0.57575 1.15148,-0.27094 -0.13546,-0.57574 -0.28887,-1.21921 -0.18129,-1.32083 -0.0518,-1.28895 0.0359,-0.69128 0.0319,-0.59168 -1.18336,-0.0637 z m 28.49426,1.75512 -0.004,0.10758 -0.15938,1.30488 -0.28089,1.26903 -0.4084,1.25508 -0.18727,0.4303 -0.23707,0.54188 1.08574,0.47415 0.23707,-0.54388 0.19723,-0.45023 0.012,-0.0278 0.008,-0.0259 0.42633,-1.30886 0.008,-0.0259 0.006,-0.0278 0.29484,-1.33476 0.008,-0.0279 0.002,-0.0279 0.16735,-1.3527 0.004,-0.0278 v -0.0279 l 0.004,-0.13945 0.0159,-0.59168 -1.18336,-0.0339 z m -27.34477,4.88086 0.24305,0.53789 0.19125,0.42234 0.0119,0.0259 0.0159,0.0259 0.69926,1.21522 0.0159,0.0239 0.0159,0.0239 0.83074,1.15547 0.0179,0.0239 0.0179,0.0239 0.96024,1.08575 0.39246,0.44425 0.88652,-0.78292 -0.39047,-0.44426 -0.93433,-1.05785 -0.79688,-1.10766 -0.67137,-1.15946 -0.18328,-0.40639 -0.24504,-0.53989 z m 25.27887,1.48617 -0.75504,1.08375 -0.92437,1.07579 -0.38649,0.44824 0.89848,0.77296 0.38648,-0.45023 0.9443,-1.09969 0.0199,-0.0219 0.0159,-0.0239 0.77297,-1.10766 0.33867,-0.48609 -0.97219,-0.67734 z"
       id="path913-72-5"
       inkscape:connector-curvature="0" />
    <path
       style="color:#000000;font-style:normal;font-variant:normal;font-weight:normal;font-stretch:normal;font-size:medium;line-height:normal;font-family:sans-serif;font-variant-ligatures:normal;font-variant-position:normal;font-variant-caps:normal;font-variant-numeric:normal;font-variant-alternates:normal;font-feature-settings:normal;text-indent:0;text-align:start;text-decoration:none;text-decoration-line:none;text-decoration-style:solid;text-decoration-color:#000000;letter-spacing:normal;word-spacing:normal;text-transform:none;writing-mode:lr-tb;direction:ltr;text-orientation:mixed;dominant-baseline:auto;baseline-shift:baseline;text-anchor:start;white-space:normal;shape-padding:0;clip-rule:nonzero;display:inline;overflow:visible;visibility:visible;opacity:0.99;isolation:auto;mix-blend-mode:normal;color-interpolation:sRGB;color-interpolation-filters:linearRGB;solid-color:#000000;solid-opacity:1;vector-effect:none;fill:#dabe8d;fill-opacity:1;fill-rule:nonzero;stroke:none;stroke-width:1.18422;stroke-linecap:square;stroke-linejoin:miter;stroke-miterlimit:4;stroke-dasharray:4.73688, 2.36844;stroke-dashoffset:0;stroke-opacity:1;paint-order:fill markers stroke;color-rendering:auto;image-rendering:auto;shape-rendering:auto;text-rendering:auto;enable-background:accumulate"
       d="m 113.1432,103.99716 -1.14352,0.0637 h -0.0279 l -0.0278,0.004 -1.34673,0.20319 -0.0279,0.004 -0.0278,0.008 -1.3268,0.33071 -0.0278,0.006 -0.0259,0.0102 -0.81281,0.28886 -0.55981,0.19723 0.39645,1.11562 0.5578,-0.19722 0.78891,-0.2809 1.26106,-0.31476 1.29691,-0.19524 1.11762,-0.0598 0.59169,-0.0318 -0.0637,-1.18336 z m 1.72523,1.2491 0.5857,0.0797 0.5359,0.0738 1.277,0.30082 1.23715,0.41636 1.21324,0.54785 0.0159,0.0102 0.51398,0.29484 0.58969,-1.02597 -0.512,-0.29484 -0.0339,-0.0199 -0.0259,-0.0159 -0.0259,-0.0119 -1.26305,-0.56976 -0.0278,-0.0119 -0.0259,-0.0102 -1.30289,-0.44027 -0.0278,-0.0102 -0.0259,-0.006 -1.33278,-0.31277 -0.0259,-0.006 -0.0278,-0.004 -0.56578,-0.0777 -0.58571,-0.0797 z m -8.76762,0.71718 -0.80086,0.47614 -0.0259,0.014 -0.0239,0.0179 -1.14551,0.8447 -0.0239,0.0179 -0.0219,0.0199 -1.0738,0.97218 -0.0219,0.0199 -0.0199,0.0219 -0.62555,0.69327 -0.39645,0.43829 0.87856,0.79488 0.39644,-0.44027 0.60563,-0.66937 1.03993,-0.94032 1.08175,-0.79886 0.78094,-0.46419 0.51,-0.3028 -0.60562,-1.01801 z m 15.10079,1.59973 0.48011,0.34465 0.31079,0.22312 1.05386,0.92837 0.94231,1.01601 0.83871,1.10567 0.35659,0.47214 0.94431,-0.71719 -0.3586,-0.47015 -0.85863,-1.13355 -0.0179,-0.0239 -0.0199,-0.0219 -0.98614,-1.06184 -0.0199,-0.0219 -0.0219,-0.0199 -1.08772,-0.95625 -0.0219,-0.0199 -0.0239,-0.0179 -0.33867,-0.24306 -0.48212,-0.34465 z m -20.36215,3.49032 -0.49606,0.83671 -0.0159,0.0239 -0.0119,0.0278 -0.585711,1.25508 -0.014,0.0259 -0.008,0.0279 -0.4582,1.29692 -0.01,0.0259 -0.008,0.0278 -0.24105,0.97419 -0.14344,0.57375 1.14949,0.28687 0.143441,-0.57574 0.23308,-0.93832 0.44029,-1.2491 0.56577,-1.20926 0.47813,-0.80684 0.30281,-0.508 -1.02,-0.60563 z m 24.82066,1.55987 0.25899,0.53192 0.16535,0.34465 0.46617,1.26106 0.32672,1.25109 0.21117,1.275 0.014,0.19723 0.0399,0.59168 1.18137,-0.0797 -0.0399,-0.59168 -0.014,-0.21117 -0.002,-0.0278 -0.006,-0.0279 -0.21914,-1.34473 -0.004,-0.0279 -0.008,-0.0259 -0.34663,-1.32281 -0.008,-0.0279 -0.0102,-0.0259 -0.47614,-1.29094 -0.0102,-0.0259 -0.0119,-0.0259 -0.18329,-0.37852 -0.25898,-0.5339 z m -27.010071,5.41477 -0.0379,0.71719 -0.002,0.0278 0.002,0.0279 0.0558,1.35867 0.002,0.0279 0.004,0.0278 0.18528,1.35071 0.004,0.0278 0.006,0.0279 0.29683,1.26104 0.13746,0.57575 1.151491,-0.27094 -0.13546,-0.57574 -0.28888,-1.21921 -0.181291,-1.32083 -0.0518,-1.28895 0.0359,-0.69128 0.0318,-0.59168 -1.18336,-0.0637 z m 28.494251,1.75512 -0.004,0.10758 -0.15937,1.30488 -0.2809,1.26903 -0.4084,1.25508 -0.18726,0.4303 -0.23707,0.54188 1.08574,0.47415 0.23707,-0.54388 0.19722,-0.45023 0.0119,-0.0278 0.008,-0.0259 0.42633,-1.30886 0.008,-0.0259 0.006,-0.0278 0.29485,-1.33476 0.008,-0.0279 0.002,-0.0279 0.16734,-1.3527 0.004,-0.0278 v -0.0279 l 0.004,-0.13945 0.0159,-0.59168 -1.18336,-0.0339 z m -27.344761,4.88086 0.243041,0.53789 0.19125,0.42234 0.0119,0.0259 0.0159,0.0259 0.69926,1.21522 0.0159,0.0239 0.0159,0.0239 0.83073,1.15547 0.018,0.0239 0.0179,0.0239 0.96023,1.08575 0.39246,0.44425 0.88652,-0.78292 -0.39046,-0.44426 -0.93434,-1.05785 -0.79688,-1.10766 -0.67136,-1.15946 -0.18328,-0.40639 -0.24504,-0.53989 z m 25.278861,1.48617 -0.75503,1.08375 -0.92439,1.07579 -0.38647,0.44824 0.89847,0.77296 0.38648,-0.45023 0.94431,-1.09969 0.0199,-0.0219 0.0159,-0.0239 0.77296,-1.10766 0.33869,-0.48609 -0.9722,-0.67734 z"
       id="path913-7-8-0"
       inkscape:connector-curvature="0" />
    <path
       style="color:#000000;font-style:normal;font-variant:normal;font-weight:normal;font-stretch:normal;font-size:medium;line-height:normal;font-family:sans-serif;font-variant-ligatures:normal;font-variant-position:normal;font-variant-caps:normal;font-variant-numeric:normal;font-variant-alternates:normal;font-feature-settings:normal;text-indent:0;text-align:start;text-decoration:none;text-decoration-line:none;text-decoration-style:solid;text-decoration-color:#000000;letter-spacing:normal;word-spacing:normal;text-transform:none;writing-mode:lr-tb;direction:ltr;text-orientation:mixed;dominant-baseline:auto;baseline-shift:baseline;text-anchor:start;white-space:normal;shape-padding:0;clip-rule:nonzero;display:inline;overflow:visible;visibility:visible;opacity:0.99;isolation:auto;mix-blend-mode:normal;color-interpolation:sRGB;color-interpolation-filters:linearRGB;solid-color:#000000;solid-opacity:1;vector-effect:none;fill:#dabe8d;fill-opacity:1;fill-rule:nonzero;stroke:none;stroke-width:1.18422;stroke-linecap:square;stroke-linejoin:miter;stroke-miterlimit:4;stroke-dasharray:4.73688, 2.36844;stroke-dashoffset:0;stroke-opacity:1;paint-order:fill markers stroke;color-rendering:auto;image-rendering:auto;shape-rendering:auto;text-rendering:auto;enable-background:accumulate"
       d="m 143.1432,103.99716 -1.14352,0.0637 h -0.0279 l -0.0278,0.004 -1.34673,0.20319 -0.0279,0.004 -0.0278,0.008 -1.3268,0.33071 -0.0278,0.006 -0.0259,0.0102 -0.81281,0.28886 -0.55981,0.19723 0.39645,1.11562 0.5578,-0.19722 0.78891,-0.2809 1.26106,-0.31476 1.29691,-0.19524 1.11762,-0.0598 0.59168,-0.0318 -0.0637,-1.18336 z m 1.72523,1.2491 0.5857,0.0797 0.5359,0.0738 1.277,0.30082 1.23715,0.41636 1.21324,0.54785 0.0159,0.0102 0.51398,0.29484 0.58969,-1.02597 -0.512,-0.29484 -0.0339,-0.0199 -0.0259,-0.0159 -0.0259,-0.0119 -1.26305,-0.56976 -0.0278,-0.0119 -0.0259,-0.0102 -1.30289,-0.44027 -0.0278,-0.0102 -0.0259,-0.006 -1.33278,-0.31277 -0.0259,-0.006 -0.0279,-0.004 -0.56578,-0.0777 -0.58571,-0.0797 z m -8.76762,0.71718 -0.80086,0.47614 -0.0259,0.014 -0.0239,0.0179 -1.14551,0.8447 -0.0239,0.0179 -0.0219,0.0199 -1.0738,0.97218 -0.0219,0.0199 -0.0199,0.0219 -0.62555,0.69327 -0.39645,0.43829 0.87856,0.79488 0.39644,-0.44027 0.60563,-0.66937 1.03993,-0.94032 1.08175,-0.79886 0.78094,-0.46419 0.51,-0.3028 -0.60562,-1.01801 z m 15.10079,1.59973 0.48011,0.34465 0.31078,0.22312 1.05387,0.92837 0.94231,1.01601 0.83871,1.10567 0.35659,0.47214 0.94431,-0.71719 -0.3586,-0.47015 -0.85863,-1.13355 -0.018,-0.0239 -0.0199,-0.0219 -0.98614,-1.06184 -0.0199,-0.0219 -0.0219,-0.0199 -1.08772,-0.95625 -0.0219,-0.0199 -0.0239,-0.0179 -0.33867,-0.24306 -0.48212,-0.34465 z m -20.36215,3.49032 -0.49606,0.83671 -0.0159,0.0239 -0.0119,0.0278 -0.58571,1.25508 -0.014,0.0259 -0.008,0.0279 -0.45821,1.29692 -0.0102,0.0259 -0.008,0.0278 -0.24105,0.97419 -0.14345,0.57375 1.1495,0.28687 0.14344,-0.57574 0.23309,-0.93832 0.44027,-1.2491 0.56577,-1.20926 0.47813,-0.80684 0.30282,-0.508 -1.02,-0.60563 z m 24.82066,1.55987 0.25899,0.53192 0.16535,0.34465 0.46617,1.26106 0.32672,1.25109 0.21117,1.275 0.014,0.19723 0.0399,0.59168 1.18137,-0.0797 -0.0399,-0.59168 -0.014,-0.21117 -0.002,-0.0278 -0.006,-0.0279 -0.21914,-1.34473 -0.004,-0.0279 -0.008,-0.0259 -0.34663,-1.32281 -0.008,-0.0279 -0.0102,-0.0259 -0.47614,-1.29094 -0.0102,-0.0259 -0.0119,-0.0259 -0.18329,-0.37852 -0.25898,-0.5339 z m -27.01008,5.41477 -0.0378,0.71719 -0.002,0.0278 0.002,0.0279 0.0558,1.35867 0.002,0.0279 0.004,0.0278 0.18527,1.35071 0.004,0.0278 0.006,0.0279 0.29683,1.26104 0.13747,0.57575 1.15148,-0.27094 -0.13547,-0.57574 -0.28886,-1.21921 -0.1813,-1.32083 -0.0518,-1.28895 0.0359,-0.69128 0.0318,-0.59168 -1.18336,-0.0637 z m 28.49426,1.75512 -0.004,0.10758 -0.15937,1.30488 -0.2809,1.26903 -0.4084,1.25508 -0.18726,0.4303 -0.23707,0.54188 1.08574,0.47415 0.23707,-0.54388 0.19722,-0.45023 0.0119,-0.0278 0.008,-0.0259 0.42633,-1.30886 0.008,-0.0259 0.006,-0.0278 0.29485,-1.33476 0.008,-0.0279 0.002,-0.0279 0.16734,-1.3527 0.004,-0.0278 v -0.0279 l 0.004,-0.13945 0.0159,-0.59168 -1.18336,-0.0339 z m -27.34476,4.88086 0.24304,0.53789 0.19125,0.42234 0.0119,0.0259 0.0159,0.0259 0.69926,1.21522 0.0159,0.0239 0.0159,0.0239 0.83073,1.15547 0.018,0.0239 0.018,0.0239 0.96023,1.08575 0.39246,0.44425 0.88652,-0.78292 -0.39046,-0.44426 -0.93434,-1.05785 -0.79688,-1.10766 -0.67136,-1.15946 -0.18328,-0.40639 -0.24504,-0.53989 z m 25.27886,1.48617 -0.75503,1.08375 -0.92439,1.07579 -0.38648,0.44824 0.89848,0.77296 0.38648,-0.45023 0.94431,-1.09969 0.0199,-0.0219 0.0159,-0.0239 0.77296,-1.10766 0.33869,-0.48609 -0.9722,-0.67734 z"
       id="path913-1-1-7"
       inkscape:connector-curvature="0" />
    <path
       style="color:#000000;font-style:normal;font-variant:normal;font-weight:normal;font-stretch:normal;font-size:medium;line-height:normal;font-family:sans-serif;font-variant-ligatures:normal;font-variant-position:normal;font-variant-caps:normal;font-variant-numeric:normal;font-variant-alternates:normal;font-feature-settings:normal;text-indent:0;text-align:start;text-decoration:none;text-decoration-line:none;text-decoration-style:solid;text-decoration-color:#000000;letter-spacing:normal;word-spacing:normal;text-transform:none;writing-mode:lr-tb;direction:ltr;text-orientation:mixed;dominant-baseline:auto;baseline-shift:baseline;text-anchor:start;white-space:normal;shape-padding:0;clip-rule:nonzero;display:inline;overflow:visible;visibility:visible;opacity:0.99;isolation:auto;mix-blend-mode:normal;color-interpolation:sRGB;color-interpolation-filters:linearRGB;solid-color:#000000;solid-opacity:1;vector-effect:none;fill:#dabe8d;fill-opacity:1;fill-rule:nonzero;stroke:none;stroke-width:1.18422;stroke-linecap:square;stroke-linejoin:miter;stroke-miterlimit:4;stroke-dasharray:4.73688, 2.36844;stroke-dashoffset:0;stroke-opacity:1;paint-order:fill markers stroke;color-rendering:auto;image-rendering:auto;shape-rendering:auto;text-rendering:auto;enable-background:accumulate"
       d="m 173.1432,103.99716 -1.14352,0.0637 h -0.0279 l -0.0278,0.004 -1.34673,0.20319 -0.0279,0.004 -0.0278,0.008 -1.3268,0.33071 -0.0278,0.006 -0.0259,0.0102 -0.81281,0.28886 -0.55981,0.19723 0.39645,1.11562 0.5578,-0.19722 0.78891,-0.2809 1.26106,-0.31476 1.29691,-0.19524 1.11762,-0.0598 0.59168,-0.0318 -0.0637,-1.18336 z m 1.72523,1.2491 0.5857,0.0797 0.5359,0.0738 1.277,0.30082 1.23715,0.41636 1.21324,0.54785 0.0159,0.0102 0.51398,0.29484 0.58969,-1.02597 -0.512,-0.29484 -0.0339,-0.0199 -0.0259,-0.0159 -0.0259,-0.0119 -1.26305,-0.56976 -0.0278,-0.0119 -0.0259,-0.0102 -1.30289,-0.44027 -0.0278,-0.0102 -0.0259,-0.006 -1.33278,-0.31277 -0.0259,-0.006 -0.0279,-0.004 -0.56578,-0.0777 -0.58571,-0.0797 z m -8.76762,0.71718 -0.80086,0.47614 -0.0259,0.014 -0.0239,0.0179 -1.14551,0.8447 -0.0239,0.0179 -0.0219,0.0199 -1.0738,0.97218 -0.0219,0.0199 -0.0199,0.0219 -0.62555,0.69327 -0.39645,0.43829 0.87856,0.79488 0.39644,-0.44027 0.60563,-0.66937 1.03993,-0.94032 1.08175,-0.79886 0.78094,-0.46419 0.51,-0.3028 -0.60562,-1.01801 z m 15.10079,1.59973 0.48011,0.34465 0.31078,0.22312 1.05387,0.92837 0.94231,1.01601 0.83871,1.10567 0.35659,0.47214 0.94431,-0.71719 -0.3586,-0.47015 -0.85863,-1.13355 -0.018,-0.0239 -0.0199,-0.0219 -0.98614,-1.06184 -0.0199,-0.0219 -0.0219,-0.0199 -1.08772,-0.95625 -0.0219,-0.0199 -0.0239,-0.0179 -0.33867,-0.24306 -0.48212,-0.34465 z m -20.36215,3.49032 -0.49606,0.83671 -0.0159,0.0239 -0.0119,0.0278 -0.58571,1.25508 -0.014,0.0259 -0.008,0.0279 -0.45821,1.29692 -0.0102,0.0259 -0.008,0.0278 -0.24105,0.97419 -0.14345,0.57375 1.1495,0.28687 0.14344,-0.57574 0.23309,-0.93832 0.44027,-1.2491 0.56577,-1.20926 0.47813,-0.80684 0.30282,-0.508 -1.02,-0.60563 z m 24.82066,1.55987 0.25899,0.53192 0.16535,0.34465 0.46617,1.26106 0.32672,1.25109 0.21117,1.275 0.014,0.19723 0.0399,0.59168 1.18137,-0.0797 -0.0399,-0.59168 -0.014,-0.21117 -0.002,-0.0278 -0.006,-0.0279 -0.21914,-1.34473 -0.004,-0.0279 -0.008,-0.0259 -0.34663,-1.32281 -0.008,-0.0279 -0.0102,-0.0259 -0.47614,-1.29094 -0.0102,-0.0259 -0.0119,-0.0259 -0.18329,-0.37852 -0.25898,-0.5339 z m -27.01008,5.41477 -0.0378,0.71719 -0.002,0.0278 0.002,0.0279 0.0558,1.35867 0.002,0.0279 0.004,0.0278 0.18527,1.35071 0.004,0.0278 0.006,0.0279 0.29683,1.26104 0.13747,0.57575 1.15148,-0.27094 -0.13547,-0.57574 -0.28886,-1.21921 -0.1813,-1.32083 -0.0518,-1.28895 0.0359,-0.69128 0.0318,-0.59168 -1.18336,-0.0637 z m 28.49426,1.75512 -0.004,0.10758 -0.15937,1.30488 -0.2809,1.26903 -0.4084,1.25508 -0.18726,0.4303 -0.23707,0.54188 1.08574,0.47415 0.23707,-0.54388 0.19722,-0.45023 0.0119,-0.0278 0.008,-0.0259 0.42633,-1.30886 0.008,-0.0259 0.006,-0.0278 0.29485,-1.33476 0.008,-0.0279 0.002,-0.0279 0.16734,-1.3527 0.004,-0.0278 v -0.0279 l 0.004,-0.13945 0.0159,-0.59168 -1.18336,-0.0339 z m -27.34476,4.88086 0.24304,0.53789 0.19125,0.42234 0.0119,0.0259 0.0159,0.0259 0.69926,1.21522 0.0159,0.0239 0.0159,0.0239 0.83073,1.15547 0.018,0.0239 0.018,0.0239 0.96023,1.08575 0.39246,0.44425 0.88652,-0.78292 -0.39046,-0.44426 -0.93434,-1.05785 -0.79688,-1.10766 -0.67136,-1.15946 -0.18328,-0.40639 -0.24504,-0.53989 z m 25.27886,1.48617 -0.75503,1.08375 -0.92439,1.07579 -0.38648,0.44824 0.89848,0.77296 0.38648,-0.45023 0.94431,-1.09969 0.0199,-0.0219 0.0159,-0.0239 0.77296,-1.10766 0.33869,-0.48609 -0.9722,-0.67734 z"
       id="path913-7-3-2-4"
       inkscape:connector-curvature="0" />
    <path
       style="color:#000000;font-style:normal;font-variant:normal;font-weight:normal;font-stretch:normal;font-size:medium;line-height:normal;font-family:sans-serif;font-variant-ligatures:normal;font-variant-position:normal;font-variant-caps:normal;font-variant-numeric:normal;font-variant-alternates:normal;font-feature-settings:normal;text-indent:0;text-align:start;text-decoration:none;text-decoration-line:none;text-decoration-style:solid;text-decoration-color:#000000;letter-spacing:normal;word-spacing:normal;text-transform:none;writing-mode:lr-tb;direction:ltr;text-orientation:mixed;dominant-baseline:auto;baseline-shift:baseline;text-anchor:start;white-space:normal;shape-padding:0;clip-rule:nonzero;display:inline;overflow:visible;visibility:visible;opacity:0.99;isolation:auto;mix-blend-mode:normal;color-interpolation:sRGB;color-interpolation-filters:linearRGB;solid-color:#000000;solid-opacity:1;vector-effect:none;fill:#dabe8d;fill-opacity:1;fill-rule:nonzero;stroke:none;stroke-width:1.18422;stroke-linecap:square;stroke-linejoin:miter;stroke-miterlimit:4;stroke-dasharray:4.73688, 2.36844;stroke-dashoffset:0;stroke-opacity:1;paint-order:fill markers stroke;color-rendering:auto;image-rendering:auto;shape-rendering:auto;text-rendering:auto;enable-background:accumulate"
       d="m 208.57263,101.00459 -1.14352,0.0637 h -0.0279 l -0.0278,0.004 -1.34673,0.2032 -0.0279,0.004 -0.0278,0.008 -1.3268,0.33071 -0.0279,0.006 -0.0259,0.0102 -0.81281,0.28886 -0.55981,0.19723 0.39644,1.11562 0.55781,-0.19723 0.78891,-0.28089 1.26106,-0.31476 1.29691,-0.19524 1.11762,-0.0598 0.59168,-0.0318 -0.0637,-1.18336 z m 1.72523,1.2491 0.5857,0.0797 0.5359,0.0738 1.277,0.30082 1.23715,0.41637 1.21324,0.54785 0.0159,0.0102 0.51398,0.29484 0.58969,-1.02597 -0.512,-0.29485 -0.0339,-0.0199 -0.0259,-0.0159 -0.0259,-0.0119 -1.26305,-0.56977 -0.0279,-0.0119 -0.0259,-0.0102 -1.30289,-0.44027 -0.0279,-0.0102 -0.0259,-0.006 -1.33279,-0.31277 -0.0259,-0.006 -0.0279,-0.004 -0.56578,-0.0777 -0.58571,-0.0797 z m -8.76762,0.71718 -0.80086,0.47615 -0.0259,0.014 -0.0239,0.018 -1.14551,0.84469 -0.0239,0.0179 -0.0219,0.0199 -1.0738,0.97219 -0.0219,0.0199 -0.0199,0.0219 -0.62555,0.69327 -0.39645,0.43829 0.87856,0.79488 0.39644,-0.44027 0.60563,-0.66937 1.03993,-0.94032 1.08175,-0.79887 0.78094,-0.46418 0.51,-0.3028 -0.60562,-1.01802 z m 15.10079,1.59974 0.48011,0.34465 0.31078,0.22312 1.05387,0.92835 0.94231,1.01603 0.83871,1.10566 0.35659,0.47214 0.94431,-0.71718 -0.3586,-0.47016 -0.85863,-1.13355 -0.0179,-0.0239 -0.0199,-0.0219 -0.98614,-1.06183 -0.0199,-0.0219 -0.0219,-0.0199 -1.08772,-0.95625 -0.0219,-0.0199 -0.0239,-0.0179 -0.33867,-0.24305 -0.48212,-0.34465 z m -20.36215,3.49031 -0.49606,0.83672 -0.0159,0.0239 -0.0119,0.0279 -0.58571,1.25508 -0.014,0.0259 -0.008,0.0279 -0.45821,1.29691 -0.0102,0.0259 -0.008,0.0278 -0.24105,0.97419 -0.14345,0.57375 1.1495,0.28687 0.14344,-0.57574 0.23309,-0.93833 0.44027,-1.24909 0.56577,-1.20926 0.47813,-0.80684 0.30282,-0.50801 -1.02,-0.60563 z m 24.82066,1.55988 0.25899,0.53192 0.16535,0.34465 0.46617,1.26106 0.32672,1.25109 0.21117,1.275 0.014,0.19723 0.0399,0.59168 1.18137,-0.0797 -0.0399,-0.59168 -0.014,-0.21117 -0.002,-0.0278 -0.006,-0.0279 -0.21914,-1.34473 -0.004,-0.0278 -0.008,-0.0259 -0.34663,-1.32282 -0.008,-0.0278 -0.0102,-0.0259 -0.47614,-1.29093 -0.0102,-0.0259 -0.0119,-0.0259 -0.18329,-0.37852 -0.25898,-0.5339 z m -27.01008,5.41477 -0.0378,0.71719 -0.002,0.0278 0.002,0.0279 0.0558,1.35867 0.002,0.0279 0.004,0.0278 0.18527,1.35071 0.004,0.0278 0.006,0.0279 0.29683,1.26105 0.13747,0.57574 1.15148,-0.27093 -0.13547,-0.57575 -0.28886,-1.21921 -0.1813,-1.32082 -0.0518,-1.28895 0.0359,-0.69129 0.0318,-0.59167 -1.18336,-0.0637 z m 28.49426,1.75512 -0.004,0.10758 -0.15937,1.30488 -0.2809,1.26903 -0.4084,1.25507 -0.18726,0.43031 -0.23707,0.54188 1.08574,0.47414 0.23707,-0.54387 0.19722,-0.45024 0.0119,-0.0278 0.008,-0.0259 0.42633,-1.30886 0.008,-0.0259 0.006,-0.0279 0.29485,-1.33476 0.008,-0.0279 0.002,-0.0278 0.16734,-1.3527 0.004,-0.0278 v -0.0279 l 0.004,-0.13945 0.0159,-0.59168 -1.18336,-0.0339 z m -27.34476,4.88086 0.24304,0.53789 0.19125,0.42234 0.0119,0.0259 0.0159,0.0259 0.69926,1.21523 0.0159,0.0239 0.0159,0.0239 0.83073,1.15547 0.018,0.0239 0.0179,0.0239 0.96023,1.08574 0.39246,0.44426 0.88652,-0.78293 -0.39046,-0.44426 -0.93434,-1.05784 -0.79688,-1.10766 -0.67136,-1.15946 -0.18328,-0.4064 -0.24504,-0.53989 z m 25.27886,1.48617 -0.75503,1.08375 -0.92439,1.07578 -0.38648,0.44825 0.89848,0.77296 0.38648,-0.45024 0.94431,-1.09968 0.0199,-0.0219 0.0159,-0.0239 0.77296,-1.10766 0.33868,-0.48609 -0.97219,-0.67734 z"
       id="path913-7-3-1-4-8"
       inkscape:connector-curvature="0" />
    <path
       style="color:#000000;font-style:normal;font-variant:normal;font-weight:normal;font-stretch:normal;font-size:medium;line-height:normal;font-family:sans-serif;font-variant-ligatures:normal;font-variant-position:normal;font-variant-caps:normal;font-variant-numeric:normal;font-variant-alternates:normal;font-feature-settings:normal;text-indent:0;text-align:start;text-decoration:none;text-decoration-line:none;text-decoration-style:solid;text-decoration-color:#000000;letter-spacing:normal;word-spacing:normal;text-transform:none;writing-mode:lr-tb;direction:ltr;text-orientation:mixed;dominant-baseline:auto;baseline-shift:baseline;text-anchor:start;white-space:normal;shape-padding:0;clip-rule:nonzero;display:inline;overflow:visible;visibility:visible;opacity:0.99;isolation:auto;mix-blend-mode:normal;color-interpolation:sRGB;color-interpolation-filters:linearRGB;solid-color:#000000;solid-opacity:1;vector-effect:none;fill:#dabe8d;fill-opacity:1;fill-rule:nonzero;stroke:none;stroke-width:1.18422;stroke-linecap:square;stroke-linejoin:miter;stroke-miterlimit:4;stroke-dasharray:4.73688, 2.36844;stroke-dashoffset:0;stroke-opacity:1;paint-order:fill markers stroke;color-rendering:auto;image-rendering:auto;shape-rendering:auto;text-rendering:auto;enable-background:accumulate"
       d="m 208.57263,158.84811 -1.14352,0.0637 h -0.0279 l -0.0278,0.004 -1.34673,0.20319 -0.0279,0.004 -0.0278,0.008 -1.3268,0.33071 -0.0279,0.006 -0.0259,0.0102 -0.81281,0.28886 -0.55981,0.19723 0.39644,1.11562 0.55781,-0.19723 0.78891,-0.28089 1.26106,-0.31476 1.29691,-0.19524 1.11762,-0.0598 0.59168,-0.0318 -0.0637,-1.18336 z m 1.72523,1.2491 0.5857,0.0797 0.5359,0.0738 1.277,0.30082 1.23715,0.41636 1.21324,0.54785 0.0159,0.0102 0.51398,0.29484 0.58969,-1.02597 -0.512,-0.29485 -0.0339,-0.0199 -0.0259,-0.0159 -0.0259,-0.0119 -1.26305,-0.56976 -0.0279,-0.0119 -0.0259,-0.0102 -1.30289,-0.44027 -0.0279,-0.0102 -0.0259,-0.006 -1.33279,-0.31277 -0.0259,-0.006 -0.0279,-0.004 -0.56578,-0.0777 -0.58571,-0.0797 z m -8.76762,0.71718 -0.80086,0.47614 -0.0259,0.014 -0.0239,0.0179 -1.14551,0.8447 -0.0239,0.0179 -0.0219,0.0199 -1.0738,0.97218 -0.0219,0.0199 -0.0199,0.0219 -0.62555,0.69327 -0.39645,0.43829 0.87856,0.79488 0.39644,-0.44027 0.60563,-0.66937 1.03993,-0.94032 1.08175,-0.79887 0.78094,-0.46418 0.51,-0.3028 -0.60562,-1.01802 z m 15.10079,1.59973 0.48011,0.34465 0.31078,0.22312 1.05387,0.92837 0.94231,1.01601 0.83871,1.10567 0.35659,0.47214 0.94431,-0.71719 -0.3586,-0.47015 -0.85863,-1.13355 -0.0179,-0.0239 -0.0199,-0.0219 -0.98614,-1.06184 -0.0199,-0.0219 -0.0219,-0.0199 -1.08772,-0.95625 -0.0219,-0.0199 -0.0239,-0.0179 -0.33867,-0.24306 -0.48212,-0.34465 z m -20.36215,3.49032 -0.49606,0.83671 -0.0159,0.0239 -0.0119,0.0279 -0.58571,1.25508 -0.014,0.0259 -0.008,0.0279 -0.45821,1.29692 -0.0102,0.0259 -0.008,0.0278 -0.24105,0.97419 -0.14345,0.57375 1.1495,0.28687 0.14344,-0.57574 0.23309,-0.93832 0.44027,-1.2491 0.56577,-1.20926 0.47813,-0.80684 0.30282,-0.508 -1.02,-0.60563 z m 24.82066,1.55987 0.25899,0.53192 0.16535,0.34465 0.46617,1.26106 0.32672,1.25109 0.21117,1.275 0.014,0.19723 0.0399,0.59168 1.18137,-0.0797 -0.0399,-0.59168 -0.014,-0.21117 -0.002,-0.0278 -0.006,-0.0279 -0.21914,-1.34473 -0.004,-0.0279 -0.008,-0.0259 -0.34663,-1.32281 -0.008,-0.0279 -0.0102,-0.0259 -0.47614,-1.29094 -0.0102,-0.0259 -0.0119,-0.0259 -0.18329,-0.37852 -0.25898,-0.5339 z m -27.01008,5.41477 -0.0378,0.71719 -0.002,0.0278 0.002,0.0278 0.0558,1.35867 0.002,0.0279 0.004,0.0278 0.18527,1.35071 0.004,0.0278 0.006,0.0279 0.29683,1.26104 0.13747,0.57575 1.15148,-0.27094 -0.13547,-0.57574 -0.28886,-1.21921 -0.1813,-1.32083 -0.0518,-1.28895 0.0359,-0.69128 0.0318,-0.59168 -1.18336,-0.0637 z m 28.49426,1.75512 -0.004,0.10758 -0.15937,1.30488 -0.2809,1.26903 -0.4084,1.25508 -0.18726,0.4303 -0.23707,0.54188 1.08574,0.47415 0.23707,-0.54388 0.19722,-0.45023 0.0119,-0.0278 0.008,-0.0259 0.42633,-1.30886 0.008,-0.0259 0.006,-0.0279 0.29485,-1.33476 0.008,-0.0279 0.002,-0.0279 0.16734,-1.3527 0.004,-0.0278 v -0.0279 l 0.004,-0.13945 0.0159,-0.59168 -1.18336,-0.0339 z m -27.34476,4.88086 0.24304,0.53789 0.19125,0.42234 0.0119,0.0259 0.0159,0.0259 0.69926,1.21522 0.0159,0.0239 0.0159,0.0239 0.83073,1.15547 0.018,0.0239 0.0179,0.0239 0.96023,1.08575 0.39246,0.44425 0.88652,-0.78292 -0.39046,-0.44426 -0.93434,-1.05785 -0.79688,-1.10766 -0.67136,-1.15946 -0.18328,-0.40639 -0.24504,-0.53989 z m 25.27886,1.48617 -0.75503,1.08375 -0.92439,1.07579 -0.38648,0.44824 0.89848,0.77296 0.38648,-0.45023 0.94431,-1.09969 0.0199,-0.0219 0.0159,-0.0239 0.77296,-1.10766 0.33868,-0.48609 -0.97219,-0.67734 z"
       id="path913-7-3-1-6-8-0"
       inkscape:connector-curvature="0" />
    <path
       style="color:#000000;font-style:normal;font-variant:normal;font-weight:normal;font-stretch:normal;font-size:medium;line-height:normal;font-family:sans-serif;font-variant-ligatures:normal;font-variant-position:normal;font-variant-caps:normal;font-variant-numeric:normal;font-variant-alternates:normal;font-feature-settings:normal;text-indent:0;text-align:start;text-decoration:none;text-decoration-line:none;text-decoration-style:solid;text-decoration-color:#000000;letter-spacing:normal;word-spacing:normal;text-transform:none;writing-mode:lr-tb;direction:ltr;text-orientation:mixed;dominant-baseline:auto;baseline-shift:baseline;text-anchor:start;white-space:normal;shape-padding:0;clip-rule:nonzero;display:inline;overflow:visible;visibility:visible;opacity:0.99;isolation:auto;mix-blend-mode:normal;color-interpolation:sRGB;color-interpolation-filters:linearRGB;solid-color:#000000;solid-opacity:1;vector-effect:none;fill:#dabe8d;fill-opacity:1;fill-rule:nonzero;stroke:none;stroke-width:1.18422;stroke-linecap:square;stroke-linejoin:miter;stroke-miterlimit:4;stroke-dasharray:4.73688, 2.36844;stroke-dashoffset:0;stroke-opacity:1;paint-order:fill markers stroke;color-rendering:auto;image-rendering:auto;shape-rendering:auto;text-rendering:auto;enable-background:accumulate"
       d="m 208.57263,223.36146 -1.14352,0.0637 h -0.0279 l -0.0278,0.004 -1.34673,0.2032 -0.0279,0.004 -0.0278,0.008 -1.3268,0.3307 -0.0279,0.006 -0.0259,0.0102 -0.81281,0.28887 -0.55981,0.19723 0.39644,1.11561 0.55781,-0.19723 0.78891,-0.28088 1.26106,-0.31477 1.29691,-0.19523 1.11762,-0.0598 0.59168,-0.0318 -0.0637,-1.18336 z m 1.72523,1.2491 0.5857,0.0797 0.5359,0.0738 1.277,0.30082 1.23715,0.41636 1.21324,0.54785 0.0159,0.0102 0.51398,0.29484 0.58969,-1.02596 -0.512,-0.29486 -0.0339,-0.0199 -0.0259,-0.0159 -0.0259,-0.0119 -1.26305,-0.56976 -0.0279,-0.0119 -0.0259,-0.0102 -1.30289,-0.44027 -0.0279,-0.0102 -0.0259,-0.006 -1.33279,-0.31277 -0.0259,-0.006 -0.0279,-0.004 -0.56578,-0.0777 -0.58571,-0.0797 z m -8.76762,0.71718 -0.80086,0.47614 -0.0259,0.014 -0.0239,0.0179 -1.14551,0.84469 -0.0239,0.0179 -0.0219,0.0199 -1.0738,0.97219 -0.0219,0.0199 -0.0199,0.0219 -0.62555,0.69327 -0.39645,0.43829 0.87856,0.79488 0.39644,-0.44027 0.60563,-0.66937 1.03993,-0.94032 1.08175,-0.79887 0.78094,-0.46418 0.51,-0.3028 -0.60562,-1.01802 z m 15.10079,1.59973 0.48011,0.34465 0.31078,0.22312 1.05387,0.92835 0.94231,1.01603 0.83871,1.10566 0.35659,0.47214 0.94431,-0.71718 -0.3586,-0.47016 -0.85863,-1.13355 -0.0179,-0.0239 -0.0199,-0.0219 -0.98614,-1.06183 -0.0199,-0.0219 -0.0219,-0.0199 -1.08772,-0.95625 -0.0219,-0.0199 -0.0239,-0.0179 -0.33867,-0.24305 -0.48212,-0.34465 z m -20.36215,3.49031 -0.49606,0.83672 -0.0159,0.0239 -0.0119,0.0279 -0.58571,1.25508 -0.014,0.0259 -0.008,0.0279 -0.45821,1.29691 -0.0102,0.0259 -0.008,0.0278 -0.24105,0.97419 -0.14345,0.57375 1.1495,0.28687 0.14344,-0.57574 0.23309,-0.93833 0.44027,-1.24909 0.56577,-1.20926 0.47813,-0.80684 0.30282,-0.50801 -1.02,-0.60563 z m 24.82066,1.55988 0.25899,0.53192 0.16535,0.34465 0.46617,1.26106 0.32672,1.25109 0.21117,1.275 0.014,0.19723 0.0399,0.59168 1.18137,-0.0797 -0.0399,-0.59168 -0.014,-0.21117 -0.002,-0.0278 -0.006,-0.0279 -0.21914,-1.34473 -0.004,-0.0278 -0.008,-0.0259 -0.34663,-1.32282 -0.008,-0.0278 -0.0102,-0.0259 -0.47614,-1.29093 -0.0102,-0.0259 -0.0119,-0.0259 -0.18329,-0.37852 -0.25898,-0.5339 z m -27.01008,5.41477 -0.0378,0.71719 -0.002,0.0278 0.002,0.0279 0.0558,1.35867 0.002,0.0279 0.004,0.0278 0.18527,1.35071 0.004,0.0278 0.006,0.0279 0.29683,1.26105 0.13747,0.57574 1.15148,-0.27093 -0.13547,-0.57575 -0.28886,-1.21921 -0.1813,-1.32082 -0.0518,-1.28895 0.0359,-0.69129 0.0318,-0.59167 -1.18336,-0.0637 z m 28.49426,1.75512 -0.004,0.10758 -0.15937,1.30488 -0.2809,1.26903 -0.4084,1.25507 -0.18726,0.43031 -0.23707,0.54188 1.08574,0.47414 0.23707,-0.54387 0.19722,-0.45024 0.0119,-0.0278 0.008,-0.0259 0.42633,-1.30886 0.008,-0.0259 0.006,-0.0279 0.29485,-1.33476 0.008,-0.0278 0.002,-0.0278 0.16734,-1.3527 0.004,-0.0278 v -0.0279 l 0.004,-0.13945 0.0159,-0.59168 -1.18336,-0.0339 z m -27.34476,4.88086 0.24304,0.53789 0.19125,0.42234 0.0119,0.0259 0.0159,0.0259 0.69926,1.21523 0.0159,0.0239 0.0159,0.0239 0.83073,1.15547 0.018,0.0239 0.0179,0.0239 0.96023,1.08574 0.39246,0.44426 0.88652,-0.78293 -0.39046,-0.44426 -0.93434,-1.05784 -0.79688,-1.10766 -0.67136,-1.15946 -0.18328,-0.4064 -0.24504,-0.53989 z m 25.27886,1.48617 -0.75503,1.08375 -0.92439,1.07578 -0.38648,0.44825 0.89848,0.77296 0.38648,-0.45024 0.94431,-1.09968 0.0199,-0.0219 0.0159,-0.0239 0.77296,-1.10766 0.33868,-0.48609 -0.97219,-0.67734 z"
       id="path913-7-3-1-4-6-3"
       inkscape:connector-curvature="0" />
    <path
       style="color:#000000;font-style:normal;font-variant:normal;font-weight:normal;font-stretch:normal;font-size:medium;line-height:normal;font-family:sans-serif;font-variant-ligatures:normal;font-variant-position:normal;font-variant-caps:normal;font-variant-numeric:normal;font-variant-alternates:normal;font-feature-settings:normal;text-indent:0;text-align:start;text-decoration:none;text-decoration-line:none;text-decoration-style:solid;text-decoration-color:#000000;letter-spacing:normal;word-spacing:normal;text-transform:none;writing-mode:lr-tb;direction:ltr;text-orientation:mixed;dominant-baseline:auto;baseline-shift:baseline;text-anchor:start;white-space:normal;shape-padding:0;clip-rule:nonzero;display:inline;overflow:visible;visibility:visible;opacity:0.99;isolation:auto;mix-blend-mode:normal;color-interpolation:sRGB;color-interpolation-filters:linearRGB;solid-color:#000000;solid-opacity:1;vector-effect:none;fill:#dabe8d;fill-opacity:1;fill-rule:nonzero;stroke:none;stroke-width:1.18422;stroke-linecap:square;stroke-linejoin:miter;stroke-miterlimit:4;stroke-dasharray:4.73688, 2.36844;stroke-dashoffset:0;stroke-opacity:1;paint-order:fill markers stroke;color-rendering:auto;image-rendering:auto;shape-rendering:auto;text-rendering:auto;enable-background:accumulate"
       d="m 208.57263,283.70497 -1.14352,0.0637 h -0.0279 l -0.0278,0.004 -1.34673,0.20319 -0.0279,0.004 -0.0278,0.008 -1.3268,0.33071 -0.0279,0.006 -0.0259,0.0102 -0.81281,0.28886 -0.55981,0.19723 0.39644,1.11562 0.55781,-0.19722 0.78891,-0.2809 1.26106,-0.31476 1.29691,-0.19524 1.11762,-0.0598 0.59168,-0.0318 -0.0637,-1.18336 z m 1.72523,1.2491 0.5857,0.0797 0.5359,0.0738 1.277,0.30082 1.23715,0.41636 1.21324,0.54785 0.0159,0.0102 0.51398,0.29484 0.58969,-1.02597 -0.512,-0.29485 -0.0339,-0.0199 -0.0259,-0.0159 -0.0259,-0.0119 -1.26305,-0.56976 -0.0279,-0.0119 -0.0259,-0.0102 -1.30289,-0.44027 -0.0279,-0.0102 -0.0259,-0.006 -1.33279,-0.31277 -0.0259,-0.006 -0.0279,-0.004 -0.56578,-0.0777 -0.58571,-0.0797 z m -8.76762,0.71718 -0.80086,0.47614 -0.0259,0.014 -0.0239,0.0179 -1.14551,0.8447 -0.0239,0.0179 -0.0219,0.0199 -1.0738,0.97218 -0.0219,0.0199 -0.0199,0.0219 -0.62555,0.69327 -0.39645,0.43829 0.87856,0.79488 0.39644,-0.44027 0.60563,-0.66937 1.03993,-0.94032 1.08175,-0.79887 0.78094,-0.46418 0.51,-0.3028 -0.60562,-1.01802 z m 15.10079,1.59973 0.48011,0.34465 0.31078,0.22312 1.05387,0.92837 0.94231,1.01601 0.83871,1.10567 0.35659,0.47214 0.94431,-0.71719 -0.3586,-0.47015 -0.85863,-1.13355 -0.0179,-0.0239 -0.0199,-0.0219 -0.98614,-1.06184 -0.0199,-0.0219 -0.0219,-0.0199 -1.08772,-0.95625 -0.0219,-0.0199 -0.0239,-0.0179 -0.33867,-0.24306 -0.48212,-0.34465 z m -20.36215,3.49032 -0.49606,0.83671 -0.0159,0.0239 -0.0119,0.0279 -0.58571,1.25508 -0.014,0.0259 -0.008,0.0279 -0.45821,1.29692 -0.0102,0.0259 -0.008,0.0278 -0.24105,0.97419 -0.14345,0.57375 1.1495,0.28687 0.14344,-0.57574 0.23309,-0.93832 0.44027,-1.2491 0.56577,-1.20926 0.47813,-0.80684 0.30282,-0.508 -1.02,-0.60563 z m 24.82066,1.55987 0.25899,0.53192 0.16535,0.34465 0.46617,1.26106 0.32672,1.25109 0.21117,1.275 0.014,0.19723 0.0399,0.59168 1.18137,-0.0797 -0.0399,-0.59168 -0.014,-0.21117 -0.002,-0.0278 -0.006,-0.0279 -0.21914,-1.34473 -0.004,-0.0279 -0.008,-0.0259 -0.34663,-1.32281 -0.008,-0.0279 -0.0102,-0.0259 -0.47614,-1.29094 -0.0102,-0.0259 -0.0119,-0.0259 -0.18329,-0.37852 -0.25898,-0.5339 z m -27.01008,5.41477 -0.0378,0.71719 -0.002,0.0278 0.002,0.0279 0.0558,1.35867 0.002,0.0279 0.004,0.0278 0.18527,1.35071 0.004,0.0278 0.006,0.0279 0.29683,1.26104 0.13747,0.57575 1.15148,-0.27094 -0.13547,-0.57574 -0.28886,-1.21921 -0.1813,-1.32083 -0.0518,-1.28895 0.0359,-0.69128 0.0318,-0.59168 -1.18336,-0.0638 z m 28.49426,1.75512 -0.004,0.10758 -0.15937,1.30488 -0.2809,1.26903 -0.4084,1.25508 -0.18726,0.4303 -0.23707,0.54188 1.08574,0.47415 0.23707,-0.54388 0.19722,-0.45023 0.0119,-0.0278 0.008,-0.0259 0.42633,-1.30886 0.008,-0.0259 0.006,-0.0279 0.29485,-1.33476 0.008,-0.0279 0.002,-0.0279 0.16734,-1.3527 0.004,-0.0278 v -0.0279 l 0.004,-0.13945 0.0159,-0.59168 -1.18336,-0.0339 z m -27.34476,4.88086 0.24304,0.53789 0.19125,0.42234 0.0119,0.0259 0.0159,0.0259 0.69926,1.21522 0.0159,0.0239 0.0159,0.0239 0.83073,1.15547 0.018,0.0239 0.0179,0.0239 0.96023,1.08575 0.39246,0.44425 0.88652,-0.78292 -0.39046,-0.44426 -0.93434,-1.05785 -0.79688,-1.10766 -0.67136,-1.15946 -0.18328,-0.40639 -0.24504,-0.53989 z m 25.27886,1.48617 -0.75503,1.08375 -0.92439,1.07579 -0.38648,0.44824 0.89848,0.77296 0.38648,-0.45023 0.94431,-1.09969 0.0199,-0.0219 0.0159,-0.0239 0.77296,-1.10766 0.33868,-0.48609 -0.97219,-0.67734 z"
       id="path913-7-3-1-6-8-1-4"
       inkscape:connector-curvature="0" />
  </g>
  <g
     inkscape:groupmode="layer"
     id="layer5"
     inkscape:label="Layer 5"
     style="display:inline" />
</svg>
